<?xml version="1.0" encoding="UTF-8"?>
<svg id="Layer_2" data-name="Layer 2" xmlns="http://www.w3.org/2000/svg" viewBox="0 0 656.53 650.12">
  <defs>
    <style>
      .cls-1 {
        fill: #f0d3c9;
      }

      .cls-2 {
        fill: #dc9582;
      }

      .cls-3 {
        fill: #c38774;
      }

      .cls-4 {
        fill: #cd7a5f;
      }

      .cls-5 {
        fill: #d26f58;
      }

      .cls-6 {
        fill: #dd6e4b;
      }

      .cls-7 {
        fill: #c23827;
      }

      .cls-8 {
        fill: #c98771;
      }

      .cls-9 {
        fill: #dd7552;
      }

      .cls-10 {
        fill: #c4816c;
      }

      .cls-11 {
        fill: #a55837;
      }

      .cls-12 {
        fill: #da7b52;
      }

      .cls-13 {
        fill: #d2715b;
      }

      .cls-14 {
        fill: #da5333;
      }

      .cls-15 {
        fill: #946646;
      }

      .cls-16 {
        fill: #d89c8a;
      }

      .cls-17 {
        fill: #e48367;
      }

      .cls-18 {
        fill: #e4a791;
      }

      .cls-19 {
        fill: #f0d9cf;
      }

      .cls-20 {
        fill: #d06f58;
      }

      .cls-21 {
        fill: #be412a;
      }

      .cls-22 {
        fill: #d57e68;
      }

      .cls-23 {
        fill: #c13b29;
      }

      .cls-24 {
        fill: #d34d2c;
      }

      .cls-25 {
        fill: #e59e86;
      }

      .cls-26 {
        fill: #d63227;
      }

      .cls-27 {
        fill: #d83227;
      }

      .cls-28 {
        fill: #e08368;
      }

      .cls-29 {
        fill: #e5a38b;
      }

      .cls-30 {
        fill: #eab7a7;
      }

      .cls-31 {
        fill: #e2a893;
      }

      .cls-32 {
        fill: #e5a48c;
      }

      .cls-33 {
        fill: #e6a78f;
      }

      .cls-34 {
        fill: #d4422a;
      }

      .cls-35 {
        fill: #bc3829;
      }

      .cls-36 {
        fill: #d5582b;
      }

      .cls-37 {
        fill: #dc6e4a;
      }

      .cls-38 {
        fill: #d44f2e;
      }

      .cls-39 {
        fill: #d1745c;
      }

      .cls-40 {
        fill: #dd8e77;
      }

      .cls-41 {
        fill: #c03c29;
      }

      .cls-42 {
        fill: #efb8a5;
      }

      .cls-43 {
        fill: #ba432b;
      }

      .cls-44 {
        fill: #eda389;
      }

      .cls-45 {
        fill: #dc5d2a;
      }

      .cls-46 {
        fill: #d64029;
      }

      .cls-47 {
        fill: #bc412b;
      }

      .cls-48 {
        fill: #c47964;
      }

      .cls-49 {
        fill: #d97a5a;
      }

      .cls-50 {
        fill: #e07855;
      }

      .cls-51 {
        fill: #d83327;
      }

      .cls-52 {
        fill: #d93827;
      }

      .cls-53 {
        fill: #dc9680;
      }

      .cls-54 {
        fill: #d1765e;
      }

      .cls-55 {
        fill: #d7937f;
      }

      .cls-56 {
        fill: #e49e86;
      }

      .cls-57 {
        fill: #db5b47;
      }

      .cls-58 {
        fill: #d47866;
      }

      .cls-59 {
        fill: #d63327;
      }

      .cls-60 {
        fill: #d65431;
      }

      .cls-61 {
        fill: #eaa789;
      }

      .cls-62 {
        fill: #d83f27;
      }

      .cls-63 {
        fill: #ba7864;
      }

      .cls-64 {
        fill: #bc3628;
      }

      .cls-65 {
        fill: #e67f62;
      }

      .cls-66 {
        fill: #d73e28;
      }

      .cls-67 {
        fill: #d95028;
      }

      .cls-68 {
        fill: #bd3226;
      }

      .cls-69 {
        fill: #c9614d;
      }

      .cls-70 {
        fill: #f3d9cf;
      }

      .cls-71 {
        fill: #a76d5e;
      }

      .cls-72 {
        fill: #b75733;
      }

      .cls-73 {
        fill: #ebc3b4;
      }

      .cls-74 {
        fill: #f1d8cd;
      }

      .cls-75 {
        fill: #e39f88;
      }

      .cls-76 {
        fill: #d67865;
      }

      .cls-77 {
        fill: #d54d2c;
      }

      .cls-78 {
        fill: #ecbdac;
      }

      .cls-79 {
        fill: #c65639;
      }

      .cls-80 {
        fill: #c13b28;
      }

      .cls-81 {
        fill: #de5d29;
      }

      .cls-82 {
        fill: #cf5736;
      }

      .cls-83 {
        fill: #eeaa92;
      }

      .cls-84 {
        fill: #e3b6a6;
      }

      .cls-85 {
        fill: #d06750;
      }

      .cls-86 {
        fill: #e1b09d;
      }

      .cls-87 {
        fill: #c5573c;
      }

      .cls-88 {
        fill: #d6836c;
      }

      .cls-89 {
        fill: #e1b6a7;
      }

      .cls-90 {
        fill: #dd7e54;
      }

      .cls-91 {
        fill: #e27d5b;
      }

      .cls-92 {
        fill: #eead95;
      }

      .cls-93 {
        fill: #dfa494;
      }

      .cls-94 {
        fill: #d98e78;
      }

      .cls-95 {
        fill: #d05231;
      }

      .cls-96 {
        fill: #c75838;
      }

      .cls-97 {
        fill: #eaa38b;
      }

      .cls-98 {
        fill: #dd5b27;
      }

      .cls-99 {
        fill: #d96f51;
      }

      .cls-100 {
        fill: #c13927;
      }

      .cls-101 {
        fill: #e36551;
      }

      .cls-102 {
        fill: #e9b8a6;
      }

      .cls-103 {
        fill: #c56338;
      }

      .cls-104 {
        fill: #e8b7a8;
      }

      .cls-105 {
        fill: #f2d1c4;
      }

      .cls-106 {
        fill: #d5806b;
      }

      .cls-107 {
        fill: #d99381;
      }

      .cls-108 {
        fill: #d94f28;
      }

      .cls-109 {
        fill: #be452d;
      }

      .cls-110 {
        fill: #e17756;
      }

      .cls-111 {
        fill: #da9b89;
      }

      .cls-112 {
        fill: #e26753;
      }

      .cls-113 {
        fill: #bf402c;
      }

      .cls-114 {
        fill: #a27362;
      }

      .cls-115 {
        fill: #dc8558;
      }

      .cls-116 {
        fill: #c13126;
      }

      .cls-117 {
        fill: #efbda9;
      }

      .cls-118 {
        fill: #d68f7b;
      }

      .cls-119 {
        fill: #d83127;
      }

      .cls-120 {
        fill: #e89379;
      }

      .cls-121 {
        fill: #d2735c;
      }

      .cls-122 {
        fill: #d9522e;
      }

      .cls-123 {
        fill: #e9b9a9;
      }

      .cls-124 {
        fill: #df624d;
      }

      .cls-125 {
        fill: #bf543e;
      }

      .cls-126 {
        fill: #d73127;
      }

      .cls-127 {
        fill: #df6551;
      }

      .cls-128 {
        fill: #e5836a;
      }

      .cls-129 {
        fill: #bf7866;
      }

      .cls-130 {
        fill: #df5d28;
      }

      .cls-131 {
        fill: #e0795c;
      }

      .cls-132 {
        fill: #b5412f;
      }

      .cls-133 {
        fill: #ea977b;
      }

      .cls-134 {
        fill: #d1856b;
      }

      .cls-135 {
        fill: #d9866f;
      }

      .cls-136 {
        fill: #de724f;
      }

      .cls-137 {
        fill: #bb3629;
      }

      .cls-138 {
        fill: #d93227;
      }

      .cls-139 {
        fill: #db8067;
      }

      .cls-140 {
        fill: #d83428;
      }

      .cls-141 {
        fill: #dc5f2b;
      }

      .cls-142 {
        fill: #dd866d;
      }

      .cls-143 {
        fill: #f0c8b9;
      }

      .cls-144 {
        fill: #de6450;
      }

      .cls-145 {
        fill: #e88467;
      }

      .cls-146 {
        fill: #e8b29f;
      }

      .cls-147 {
        fill: #e9beac;
      }

      .cls-148 {
        fill: #c03627;
      }

      .cls-149 {
        fill: #c37847;
      }

      .cls-150 {
        fill: #e17957;
      }

      .cls-151 {
        fill: #c13a2c;
      }

      .cls-152 {
        fill: #f0d7cc;
      }

      .cls-153 {
        fill: #dc7452;
      }

      .cls-154 {
        fill: #d63e28;
      }

      .cls-155 {
        fill: #e6a08a;
      }

      .cls-156 {
        fill: #c7452b;
      }

      .cls-157 {
        fill: #de8369;
      }

      .cls-158 {
        fill: #e0b6a7;
      }

      .cls-159 {
        fill: #e4a28c;
      }

      .cls-160 {
        fill: #a77667;
      }

      .cls-161 {
        fill: #df5c28;
      }

      .cls-162 {
        fill: #d64f28;
      }

      .cls-163 {
        fill: #d67f69;
      }

      .cls-164 {
        fill: #d05b3a;
      }

      .cls-165 {
        fill: #efd3c9;
      }

      .cls-166 {
        fill: #e4866c;
      }

      .cls-167 {
        fill: #d47752;
      }

      .cls-168 {
        fill: #d05b39;
      }

      .cls-169 {
        fill: #f0b69e;
      }
    </style>
  </defs>
  <g id="bacon">
    <g>
      <path class="cls-119" d="M44.31,251.94v20c-1.31-.18-2.7.19-4,0-11.84-1.76-23.1-6.36-36-4-.41-1.92-.26-5.82,0-8,.17-1.43-.39-3.12,0-4,4.69,2.07,10.57-3.85,12-4,8.99-.92,18.83.48,28,0Z"/>
      <path class="cls-46" d="M48.31,243.94c-8.52.7-24.63,1.81-32,4-4.01,1.19-10.25,4.11-12,8H.32c-.4-2.06-.6-6.16.51-7.49,1.66-1.99,40.5-17.72,47.49-20.5v16Z"/>
      <path class="cls-127" d="M40.31,271.94v4c-10.43-1.76-21.43-2.99-32-4-.78-1.4-3.74-2.79-4-4,12.89-2.36,24.16,2.24,36,4Z"/>
      <path class="cls-139" d="M36.31,487.89c-.18-1.22-.08-2.75,0-4h4c-1.29.76-2.4,3.08-4,4Z"/>
      <path class="cls-129" d="M4.32,259.94c-2.28-.45-3.55-1.69-4-4h4c-.39.87.17,2.57,0,4Z"/>
      <path class="cls-145" d="M16.31,251.94c-1.43.15-7.31,6.07-12,4,1.75-3.88,7.99-6.81,12-8v4Z"/>
      <path class="cls-120" d="M48.31,483.89c-2.55.37-5.39-.25-8,0,1.42-.84,2.37-4.3,5.52-3.73l2.48,3.73Z"/>
      <path class="cls-100" d="M160.29,351.92c-1.11-.43-2.73.38-4,0-1.2-.36-2.73.32-4,0-1.42-.95-2.49-2.96-4-4-1.06-1.33-2.53-3.65-4-4-3.11-.73-20.04-1.12-20.04,2l20.04,2c.73,5.05,4.97,3.23,8,4,1.43.96,2.49,3.07,4,4,1.29.79,2.38,3.04,4,4,.99.59,3.06-.6,4,0,1.38,1.2,2.52,2.98,4,4,3.29,2.27,5.81,2.71,8,4,2.8,1.65,5.23,2.61,8,4,2.71,1.36,5.19,2.7,8,4,3.51,1.62,6.15,5.71,12,4-.39,4.84-2.95,8.17-4,12l-28-8c-22.51-19.95-40.51-46.69-59.99-4-3.94-39.5,18.13-61.35,47.99-27.99Z"/>
      <path class="cls-87" d="M388.26,131.97c1.04,7.14,14.65,13.52,16,16,4.21,7.71,3.57,48.41,8,23.99,1.37,9.49,4.89,14.84.04,27.99,12.62-6.22,8.03-30.19,7.96-43.99,2.93.44,3.81-1.26,4-4,.49-7.25-2.6-5.88-4-8-.18-2.61.52-5.86,0-8,23.13,20.02,16.47,72.85-20,71.94,8.08-17.32,4.37-39.65-4-55.95-1.15-1.52-2.66-2.68-4-4-1.34-1.32-2.68-2.66-4-4-1.31-1.33-2.26-3.07-4-4-1.01-.48-2.71.41-4,0l-4-4c6.59-4.73,6.64-2.59,12-4ZM428.22,183.94v-19.96h-3.92v19.96h3.92Z"/>
      <path class="cls-162" d="M512.25,83.98c5.26-.45,10.71.3,16,0-.15,2.54-.24,5.48,0,8h-4c-23.42-5.38-19.93,16.01-19.97,33.99l-7.99-2.02,23.96,12.03c-.52,2.47-3.09,5.36-4,8-7.87,1.11-15.52,5.47-23.98,4.02-.23-19.4-4.77-36.14-4.01-56.01,6.74-4.01,16.3-7.35,24-8Z"/>
      <path class="cls-108" d="M608.24,251.94c1.66,1.22,2.78,3.15,4,4-5.04,3.22-15.31,7.92-10.12,16.1,3.16,4.98,43.23,38.75,42.12,11.9.78.51,2.66-.33,4,0h4c-2.14,8.02-4.85,18.13-10.56,24.31-9.11,1.94-39.86-14.62-49.43-20.31.81-11.61,3.13-38.42,16-35.99Z"/>
      <path class="cls-168" d="M172.29,383.91c9.03,8,12.46,14.38,28,12-1.9,5.95-5.81,8.18-8,12h-4l-4-4c-21.92-7.36-53.97-65.27-64.04-16-10.66,1.18-7.19-.4-7.95-8,19.48-42.69,37.48-15.95,59.99,4Z"/>
      <path class="cls-67" d="M260.28,203.95v8c-21.74-16.18-24.8,23.89-24.15,37.99.54,11.71,10.59,4.18,16.15,6-.53,2.28.36,5.44,0,8-5.39.36-21.24,2.08-24.46-2.33-5.37-7.36-3.96-38.79-3.54-49.66,6.67-11.81,33.35-6.06,36-8Z"/>
      <path class="cls-113" d="M540.24,351.92c-2.08,14.19.89,29.32,0,43.99-.04.65-4.34,3.98-4.08,9.89l4.04,2.08.04-7.97,8-39.99c13.52,25.13-5.07,67.75-37.95,64.11-15.37-3.71-1.27-3.23,1.95-4.12,21.71-6.02,20.54-38.65,16-55.99-1.59-6.05,1.25-13.63-8-16v-4c8.86,1.46,12.63,3.08,20,8Z"/>
      <path class="cls-164" d="M520.25,343.92v4l4.04,19.99,3.96-4c4.54,17.33,5.71,49.97-16,55.99,11.1-23.35,12.93-53.57-8-71.98v-4c4.55-.33,11.82-.69,16,0Z"/>
      <path class="cls-79" d="M172.29,591.87c-7.47-15.15-7.55-18.19,1.98-35.97,12.38,26.29,47.41,48.93,73.97,27.98,2.09,10.37-7.71,14.61-11.96,19.99,4.37-3.41-26.47-5.49-32-8-1.45-.66-4.8-9.89-12-8-3.06-2.64-6.93-4.12-10.17-7.67-4.33-4.75-6.27-17.08-9.89-10.26-.3,5.34,1.66,9.43,4.06,13.93l-4,4v4Z"/>
      <path class="cls-41" d="M116.3,171.96c12.33,8.81,6.82,7.56,24,12,3.07.79,8.56,7.14,16,4-4.22,4.98-4.81,8.49-12,12-1.21-7.5-13.33-2.67-20-4-1.4-1.13-2.56-3.13-4-4-1.9-1.15-11.49-7.49-12-8-1.36-1.13-2.77-2.69-4-4-1.7-1.85-2.98-13.58-10.02-15.98-3.28-.51-2.55,6.97-1.98,7.98-4.12-11.23-5.66-15.36,0-27.99,6.27,6.15,5.95,15.85,11.83,22.31,4.86,5.34,10.14,4.23,12.16,5.68Z"/>
      <path class="cls-27" d="M220.29,51.99c10.78,4.9,9.81,7.99,16,12-1.49,2.54-2.38,5.56-4,8-17.2-11.34-23.05,4.91-32,12-16.5,13.07-9.87-3.62-12-8,3.31-7.59,9.69-11.38,16-16,4.92-3.6,9.58-7.39,16-8Z"/>
      <path class="cls-167" d="M612.23,239.95v8c-.91-.54-2.74.47-4,0-1.13-.42-2.93-5.65-7.97-3.96-1.86,7.14,6.29,2.46,7.97,3.96.65.58-.65,3.52,0,4-12.87-2.42-15.18,24.38-16,35.99-3.96-2.36-19.57-11.69-19.78-13.93l27.86-42.05c2.42-1.67,9.18,6.62,11.91,7.99Z"/>
      <path class="cls-80" d="M368.27,595.87c8.04,9.39,19.25,28.45,32,31.99,2.08.58,5.41-.3,8,0,10.41,5.26,15.11,10.13,28,4-4.03,5.65-8.99,13.83-16,16-2.72-6.77-12.35-2.63-16-4-.78-.29-7.63-3.74-8-4-6.15-4.31-13.8-20.76-24-23.99-2.29-6.13-3.99-13.38-4-20Z"/>
      <path class="cls-96" d="M92.3,143.97c1.53-3.42,3.74-7.8,7.96-7.99.26,28.83,45.69,50.2,67.99,31.99,1.86,10.34-7.27,14.46-11.96,19.99-.4-7.62-11.46-2.21-16-4-5.78-2.28-14.03-12.99-24-12-2.03-1.45-7.31-.35-12.16-5.68-5.88-6.46-5.56-16.16-11.83-22.31Z"/>
      <path class="cls-7" d="M192.29,587.87c6.21,5.35,4.68,4.25,12,8,11,5.64,15.87,11.46,32,8-3.05,3.87-4.65,5-8,8-8.14,6.9-13.02,1.76-20,0-2.35-.59-5.85.66-8,0-.95-.29-2.3-3.26-4-4-1.22-.54-2.49-3.07-4-4-4.11-7.66-11.9-12.32-16-20-2.4-4.5-4.36-8.59-4.06-13.93,3.63-6.82,5.56,5.51,9.89,10.26,3.23,3.54,7.11,5.03,10.17,7.67Z"/>
      <path class="cls-60" d="M588.24,555.88c-9.92,9.3-9.85,12.14-24,20-1.45-1.19-2.58-2.79-4-4l3.92-2c-.16-2.57-3.85-1.79-3.92-2-6.87-21.31-9.53-12.89-12-16-.88-1.1-2.62-2.4-4-4,1.6-.61,3.69-4.02,4-4,6.27.49,15.03,10.23,20-4,3.78,4.6,14.85,11.42,20,16Z"/>
      <path class="cls-66" d="M240.28,63.98c-8.35-16.78-7.39-20.56-24-16-9.53,2.62-9.03,3.65-16,8-3.95,2.47-8.38,5.13-12,8-6.72-.53-7.39-11.62-8-12,22.3-10.11,41.53-29.84,59.28-1.3,2.58,4.15,8.97,11.34.71,13.3Z"/>
      <path class="cls-35" d="M228.29,75.98c-10.99,16.57-10.96,8.8-20.28,17.63-6.83,6.47-21.88,38.62-33.77,22.26-2.82-3.87-.94-9.61-1.95-11.9,3.76,11.2,13.77-2.11,16-4,1.41-1.2,2.75-2.63,4-4,1.27-1.38,2.79-2.56,4-4,1.49-1.07,2.58-3.05,4-4,9.36-6.29,14.68-14.98,28-12Z"/>
      <path class="cls-148" d="M76.31,503.89c2.39.37,5.66,3.67,8,4,5.03.71,10.82-.49,16,0h4c-.12,4,.18,8.02.02,12-2.27,1.97-56.21-6.98-59.26-8.83-1.41-.86-3.42-8.23-4.75-11.17,11.63,1.84,24.57,2.23,36,4Z"/>
      <path class="cls-90" d="M224.29,211.95c.31-7.97-.26-16.05-.01-24.02l52.03,4.01c.16,3.98-.17,8.01-.03,12.01-2.23-.47-7.32.71-8,0-1.42-1.49,3.97-10.18-5.98-8.06-4.25.91-1.06,7.36-2.01,8.06-2.64,1.94-29.33-3.81-36,8Z"/>
      <path class="cls-140" d="M560.24,527.88c.94.62,3.13-.63,4,0,.65.8-.66,3.2,0,4,1.69,2.05,2.3,5.93,4,8-4.97,14.23-13.72,4.49-20,4-1.73-4.29-8.95-21.33-12-12-1.8-3.61-5.76-6.01-4-12,1.22-2.4,2.59-6.41,4-8,10.61,1.17,15.4,10.37,24,16Z"/>
      <path class="cls-36" d="M320.27,467.9c1.63,1.3,2.74,3,4,4-44.78,16.91,30.12,69,32,23.99.93.57,2.88-.54,4,0,.47.61-.52,4.65,4,4-9.99,37.62-21.92,24.44-50.97,8.79-5.19-2.8-7.23-7.66-9.02-8.79-.12-10.97,3.91-34.18,16-31.99Z"/>
      <path class="cls-82" d="M368.27,595.87c1.69-4.66.72-10.99,7.96-11.99-1.93,20.34,22.56,33.74,40.04,35.99,3.74,5.19,13.72,6.68,16,0,4.53-.43,7.87-2.64,11.96-4,3.02,8.43-6.2,9.11-7.96,12-9.09-.71-19.1,1.02-28,0-3.24-1.64-4.02-4.52-8,0-12.74-3.54-23.95-22.6-32-31.99Z"/>
      <path class="cls-38" d="M168.29,75.98c5.11.6,11.02-.75,16,0,1.35.2,3.82-.36,4,0,2.13,4.38-4.5,21.07,12,8v4c-1.42.95-2.51,2.93-4,4s-2.7,3.26-4,4c-1.73.98-3.16,3.72-4,4-3.6,1.2-18.22-2.61-16,4-5.01-11.39-9.43-19-12-31.99,2.55.79,5.81,3.74,8,4Z"/>
      <path class="cls-64" d="M536.24,531.88c2.17,4.35,5.52,13.11,8,16,1.38,1.6,3.12,2.9,4,4v4c-.43,4,2.33,5.58,4,8,3.07,4.45,4.4,4.94,8,8,1.42,1.2,2.55,2.81,4,4-2.95,1.64-4.37,2.72-8,4h-4c-8.45-5.81-28.87-43.23-26.43-52.27.99-3.67,5.42-5.72,6.43-7.72-1.76,5.99,2.2,8.39,4,12Z"/>
      <path class="cls-43" d="M276.28,203.95c.34,9.88-.78,49.2-4.69,55.29-1.23,1.92-11.88,4.23-15.3,4.7,3.86-10.15,6.13-21.35,8-31.99,1.6-9.13,1.83-18.88,4-27.99.68.71,5.77-.47,8,0Z"/>
      <path class="cls-98" d="M84.31,455.9c6.48-1.9,12-5.92,19.98-4.01.16,6.65-.1,13.35.02,20.01h-12c-7.9,0-16.16-.61-24,0-3.38.26-6.93.1-8,4-2.51.09-5.68.37-8,0-1.84-.3-3.46-2.16-4-4,1.02-.56,2.95.55,4,0l4-4c1.08-.53,2.93.53,4,0l4-4c1.1-.48,2.83.46,4,0l8-4c1.17-.43,2.81.41,4,0l4-4Z"/>
      <path class="cls-95" d="M360.27,59.99h-4c-1.85-3.36-5.54-2.87-8-4-5.62-2.59-6.04-2.58-12-4v-20c7.57-.26,20.55,3.03,24-4,.41-.85-.2-2.57,0-4,9.39,3.4,1.91,28.43,0,35.99Z"/>
      <path class="cls-23" d="M412.26,131.97c-1.78,7.96,6.46,9.66,8,12,.18,2.64-.07,5.34,0,8,.03,1.33,0,2.67,0,4,.07,13.8,4.66,37.77-7.96,43.99,4.85-13.15,1.33-18.5-.04-27.99-2.22-15.35-2.33-12.21-8-23.99-3.05-6.34-2.42-13.17-12-16,9.86-1.45,4.5-4.78,20,0Z"/>
      <path class="cls-137" d="M412.26,299.93h-4c-10.43-.84-18.98,5.42-28,8-8.98,2.57-22.61-1.68-28,12-1.01-5.24-11.3-13.96,2.83-19.18,4.65-1.72,43.36-9.15,47.24-8.85,8.13.63,7.45,6,9.92,8.03Z"/>
      <path class="cls-126" d="M336.27,31.99v20c-1.24-.3-2.7.23-4,0-11.89-2.14-22.6-6.65-36-4-1.03-2.53-3.73-5.98-4-8,4.26.1,10.81-7.79,12-8,8.87-1.55,22.09.35,32,0Z"/>
      <path class="cls-26" d="M420.26,307.93c-7.48.93-12.3,13.45-16,16-1.45,1-11.39,5.45-16,8-1,.55-2.9-.53-4,0l-8-20c1.2-.4,2.8.4,4,0,9.62-3.25,20.75-3.22,28-12h4c3.42,2.82,5.47,3.43,8,8Z"/>
      <path class="cls-109" d="M540.24,79.98c.91,9.35-.35,59.45-4.27,63.76-1.35,1.48-8.5-.29-11.73.22-2.19-7.59,2.96-14.25,4-20,.87-4.79-.7-10.99,0-16,.06-.44,3.24-.99,4-8,.66-6.17,0-13.54,0-20h8Z"/>
      <path class="cls-59" d="M64.31,479.89c5.25-.39,10.71.06,16,0v20c-1.25-.3-2.71.25-4,0-12.06-2.3-23.31-6-36-4-.92-2.61-3.69-5.84-4-8,1.6-.92,2.71-3.24,4-4,2.6-.25,5.45.37,8,0,1.31-.19,2.7.2,4,0,3.12-.47,7.18-3.64,12-4Z"/>
      <path class="cls-68" d="M332.27,55.99c3.15.52,7.28,3.31,12,4,3.77.55,8.11-.37,12,0h4c-.6,2.39.76,6.32,0,8-6.41.23-16.58-2.48-20,4-13.05-1.54-37.4-8.56-43.99-20,11.96.18,24.25,2.07,36,4Z"/>
      <path class="cls-24" d="M72.31,271.94c-3.1-.37-6.65,3.76-8,4-2.17.39-5.64.19-8,0-.63-.05-6.22-3.22-12-4v-20c8.15-.43,17.57,2.57,24-4h4c.41,6.9.94,17.56,0,23.99Z"/>
      <path class="cls-47" d="M364.27,499.89c.56-4.36-2.49-3.27-4-4-9.63-12.42-11.83-12.18-24-20-1.39-1.26-2.61-2.72-4-4-2.58-2.38-2.34-5.18-8-8v-8c11.85,6.23,42.48,18.95,44.22,34.39.7,6.19-3.84,8.14-4.23,9.6Z"/>
      <path class="cls-77" d="M384.27,331.93c-8.03,3.91-15.97,8.09-24,12-3.61-7.23-5.89-11.95-8-20,7.21-5.4,15.49-9.18,24-12l8,20Z"/>
      <path class="cls-12" d="M312.27,459.9c1.28,4.16,4.91,3.23,8,4,.66.63-.66,3.47,0,4-12.09-2.19-16.12,21.02-16,31.99-4.5-2.82-14.46-5.94-19.99-8.09-1.11-1.52,16.86-28.42,19.99-31.9,2.58.29,5.53-.43,8,0Z"/>
      <path class="cls-116" d="M40.31,275.94c3.18.54,7.27,3.31,12,4,3.77.55,8.11-.37,12,0h4c-.7,2.23.79,6.26,0,8h-24c-8.66-1.41-21.42-1.02-29.31-4.82-8.04-3.86-4.81-7.79-6.68-11.18,10.56,1.01,21.56,2.24,32,4Z"/>
      <path class="cls-21" d="M652.23,283.94c.69-4.44-3.84-3.77-4-4-5.94-8.5-8.94-9.89-16-16-.76-.66-3.19.65-4,0-1.43-1.19-2.54-2.83-4-4-3.12-2.32-4.7-7.66-12-12v-8c12.32,6.17,42.61,20.1,44.22,34.38.7,6.19-3.84,8.13-4.23,9.61Z"/>
      <path class="cls-122" d="M104.3,479.89c.27,9.25.27,18.74,0,27.99h-4c-2.71-5.41-8.51-2.91-12-4-1.9-.6-4.22-3.1-8-4v-20c7.99-.09,16,.06,24,0Z"/>
      <path class="cls-62" d="M388.26,355.92v-20c1.04-.56,3.01.57,4,0,4.05-2.35,8.28-5.15,12-8,7.03-5.39,17.15-10.41,16-20,.55.99,4.35,1.61,4.14,5.83-.5,10.37-27.2,34.46-36.14,42.16Z"/>
      <path class="cls-125" d="M372.27,615.86c6.6,17.68,9.74,16.06,24,23.99,2.83,1.58,4.6,2.85,8,4,3.78,1.28,3.99,4.07,12,4-30.12,11.55-58.33-23.49-47.99-51.99,0,6.62,1.71,13.86,4,20Z"/>
      <path class="cls-34" d="M588.24,527.88l-12,8c-2.75-2.54-4.78-5.87-8-8-.93-.62-3.13.63-4,0-1.2-1.46-2.89-2.59-4-4-6.09-7.69-9.72-13.04-20-16,10.04-7.13,36,13.27,47.99,20Z"/>
      <path class="cls-69" d="M192.29,603.87c1.51.93,2.78,3.46,4,4,1.09,1.59,2.57,2.75,4,4,1.29,1.13,1.15,6,5.92,4l2.08-4c6.98,1.76,11.85,6.9,20,0-3.13,2.8-3.99,9.66-10.8,11.43-20.73,5.37-37.5-15.84-45.19-31.42v-4c6.07,4.92,16.55,25.21,20,16Z"/>
      <path class="cls-81" d="M180.29,51.99c.61.38,1.28,11.47,8,12-2.95,2.33-5.41,5.3-8,8-2.16-.27-6.05-.4-8,0-2.7-4.97-8.13-5.56-12-8-.85-.53-1.58-3.79-4-4-.36-1.22.33-2.75,0-4l4-8c7.37,3.88,18.88,3.3,20,4Z"/>
      <path class="cls-141" d="M588.24,527.88c5.23,2.93,14.05,5.85,20,8.06,2.33,3.36-13.43,13.29-16,15.93-8.2-2.5-11.29-11.65-16-16l12-8Z"/>
      <path class="cls-45" d="M388.26,355.92c-4.7,4.05-6.43,14.5-15.92,11.97-2.25-5.95-5.12-14.74-8.07-19.97,9.98-.24,16.13-7.77,24-12v20Z"/>
      <path class="cls-161" d="M72.31,243.94c-5.33.03-10.67-.04-16,0-2.64.02-5.38-.22-8,0v-16c6.6-2.63,13.87-3.42,19.96-8-2.87,8.76,3.3,17.71,4.04,23.99Z"/>
      <path class="cls-130" d="M360.27,23.99c-2.84-1.03-11.54.16-16,0-1.32-.05-2.69-.07-4,0V8c6.69-2.52,13.39-5.19,19.96-8-.66,7.69,1.08,16.59.04,23.99Z"/>
      <path class="cls-115" d="M512.25,71.98v12c-7.69.65-17.25,3.99-24,8,.25-6.59-2.11-17.98,3.89-22.26,1.55-1.1,14.66,2.19,20.11,2.26Z"/>
      <path class="cls-154" d="M340.27,8v16c-12.32.65-23.81,2.96-36,4h-4c14.52-9.93,23.78-13.87,39.99-20Z"/>
      <path class="cls-85" d="M160.29,351.92c10.85,4.18,18.03,10.05,28.03,14.09,12.54,5.07,17.48-4.85,15.96,13.9-5.85,1.71-8.49-2.38-12-4-1.82-3.41-5.59-2.86-8-4-2.6-1.23-5.4-2.68-8-4s-5.7-2.67-8-4c-1.34-.77-2.45-3.02-4-4-.79-.68-.61-2.94-1.97-3.93l-2.03,3.93c-1.62-.96-2.71-3.2-4-4v-4c1.27.38,2.89-.43,4,0Z"/>
      <path class="cls-151" d="M104.3,179.96c1.32,1.44,2.65,2.64,4,4,3.41,2.84,4.69,9.95,12,12,1.18.33,2.67-.27,4,0,4.49,6.34,12.93,3.68,20,4-22.94,11.18-44.15-6.62-51.99-27.99.86,1.53,9.47,5.3,12,8Z"/>
      <path class="cls-5" d="M548.24,359.92l-8,39.99v-4c.89-14.67-2.08-29.8,0-43.99,4.28,2.86,5.31,2.99,8,8Z"/>
      <path class="cls-169" d="M92.3,471.89l12,4c.05,1.33-.04,2.67,0,4-8,.06-16-.09-24,0-5.29.06-10.74-.39-16,0v-4c1.9-.48,3.36-2.15,4-4,7.84-.61,16.1,0,24,0Z"/>
      <path class="cls-57" d="M232.29,71.98c-.99,1.49-3.05,2.56-4,4-13.31-2.98-18.64,5.71-28,12v-4c8.95-7.09,14.8-23.34,32-12Z"/>
      <path class="cls-117" d="M576.24,535.88c4.71,4.35,7.8,13.49,16,16-1.31,1.36-2.62,2.71-4,4-5.15-4.58-16.22-11.4-20-16-1.7-2.07-2.31-5.95-4-8l4-4c3.22,2.12,5.25,5.46,8,8Z"/>
      <path class="cls-147" d="M388.26,331.93l4,4c-.99.57-2.96-.56-4,0-7.87,4.22-14.02,11.76-24,12-.8-1.42-3.28-2.56-4-4,8.03-3.91,15.97-8.09,24-12,1.1-.53,3,.55,4,0Z"/>
      <path class="cls-157" d="M264.28,231.95c-1.87,10.65-4.14,21.84-8,31.99-1.3.18-2.68-.09-4,0,.36-2.56-.53-5.72,0-8,1.83-7.86,7.02-21.22,8-27.99l4,4Z"/>
      <path class="cls-124" d="M332.27,51.99v4c-11.74-1.93-24.03-3.82-36-4-.54-.94.49-2.79,0-4,13.39-2.65,24.11,1.86,36,4Z"/>
      <path class="cls-112" d="M76.31,499.89v4c-11.43-1.77-24.36-2.15-36-4-.48-1.06.43-2.76,0-4,12.69-2,23.93,1.7,36,4Z"/>
      <path class="cls-99" d="M532.25,71.98v4c-3.83,1.14-3.8,4.6-4,8-5.29.3-10.73-.45-16,0v-12c6.5.08,13.77-.67,20,0Z"/>
      <path class="cls-31" d="M380.27,307.93v4c-1.2.4-2.8-.4-4,0-8.5,2.82-16.79,6.59-24,12-.32-1.21.25-2.68,0-4,5.39-13.68,19.02-9.43,28-12Z"/>
      <path class="cls-65" d="M240.28,63.98c-.87.21-3.62.25-4,0-6.18-4.01-5.22-7.09-16-12-1.23-.56-2.48-3.07-4-4,16.61-4.56,15.65-.79,24,16Z"/>
      <path class="cls-50" d="M436.26,627.86c-.6.99.62,3.13,0,4-12.89,6.13-17.59,1.27-28-4,8.89,1.02,18.91-.71,28,0Z"/>
      <path class="cls-49" d="M200.29,391.91c-.34,1.26.38,2.81,0,4-15.54,2.38-18.97-4-28-12l28,8Z"/>
      <path class="cls-166" d="M528.25,123.97c-1.04,5.74-6.19,12.41-4,20-2.53.41-5.44-.36-8,0,.91-2.64,3.48-5.53,4-8,1.03-4.88,3.67-13.64,4-16l4,4Z"/>
      <path class="cls-131" d="M300.28,27.99h4v4c-1.19.21-7.74,8.1-12,8-.39-2.93-.86-9.93.53-11.56,2.21-1.61,6.52.22,7.47-.44Z"/>
      <path class="cls-9" d="M404.26,147.97c-1.35-2.47-14.95-8.85-16-16,1.16-.31,2.64.2,4,0,9.58,2.83,8.95,9.66,12,16Z"/>
      <path class="cls-48" d="M324.27,455.9v8c-.93-.46-2.63.34-4,0-3.84-3.67-1.89-2.93-8-4-2.47-.43-5.42.29-8,0,1.24-1.37,2.54-2.87,4-4,4.49,1.3,15.13-1.08,12-4,1.52.83,2.66,3.3,4,4Z"/>
      <path class="cls-14" d="M52.31,475.89v8c-1.3.2-2.69-.19-4,0l-2.48-3.73c-3.15-.58-4.1,2.89-5.52,3.73h-4c.69-11.54,3.28-7.18,12-12,.54,1.84,2.15,3.7,4,4Z"/>
      <path class="cls-72" d="M68.31,287.94c-5.05,11.04-19.29.77-24,0h24Z"/>
      <path class="cls-103" d="M360.27,67.98c-2.74,6.06-13.53,4.76-20,4,3.42-6.48,13.59-3.77,20-4Z"/>
      <path class="cls-61" d="M172.29,71.98c-1.97.41-3.46,2.06-4,4-2.19-.26-5.44-3.21-8-4-.25-1.27.19-2.7,0-4v-4c3.87,2.43,9.3,3.03,12,8Z"/>
      <path class="cls-11" d="M160.29,47.99l-4,8c-1.07-4.07-6.66-8.92-3.96-16,4.71-.61,6.19,7.07,7.96,8Z"/>
      <path class="cls-156" d="M532.25,71.98c2.61.28,5.37-.34,7.99,0,.33,2.63-.25,5.37,0,7.99h-8v-8Z"/>
      <path class="cls-163" d="M420.26,135.97c.52,2.14-.18,5.39,0,8-1.54-2.34-9.77-4.04-8-12,1.3.4,3.02-.48,4,0,.77,1.55,3.78,3.09,4,4Z"/>
      <path class="cls-19" d="M72.31,243.94c.15,1.31-.08,2.68,0,4h-4l-12-4c5.33-.04,10.67.03,16,0Z"/>
      <path class="cls-114" d="M432.26,619.86c-2.27,6.68-12.26,5.19-16,0,4.41.57,11.46.43,16,0Z"/>
      <path class="cls-58" d="M420.26,647.86c-.97.3-2.64-.01-4,0-8.01.07-8.22-2.72-12-4,3.65,1.37,13.28-2.77,16,4Z"/>
      <path class="cls-152" d="M104.3,471.89c.02,1.33-.05,2.67,0,4l-12-4h12Z"/>
      <path class="cls-132" d="M320.27,451.9c3.13,2.92-7.51,5.3-12,4,1.12-.87,1.85-3.47,4-4,1.82-.44,7.71-.27,8,0Z"/>
      <path class="cls-8" d="M72.31,271.94c-.32,2.19-3.17,5.36-4,8h-4v-4c1.35-.24,4.9-4.37,8-4Z"/>
      <path class="cls-160" d="M160.29,63.98v4c-4.04-1.33-3.12-5-4-8,2.42.21,3.15,3.46,4,4Z"/>
      <path class="cls-4" d="M380.27,139.97c-2.02-.64-5.46.44-7.99-.04-.65-4.52,3.26-3.44,3.99-3.96l4,4Z"/>
      <path class="cls-63" d="M504.25,343.92v4c-1.26-1.11-8.12,2.2-8.04-2,.02-3.59,4.9-1.77,8.04-2Z"/>
      <path class="cls-134" d="M192.29,407.91c-1.22,2.13,2.24,8.04-2,8.04-4.2.08-.9-6.74-2-8.04h4Z"/>
      <path class="cls-15" d="M320.27,451.9c-.29-.27-6.18-.44-8,0l2.08-4c4.62-2.15,4.88,3.44,5.92,4Z"/>
      <path class="cls-14" d="M76.31,459.9l-8,4c1.33-.52,3.8-2.47,8-4Z"/>
      <path class="cls-28" d="M560.24,523.88v4c-8.6-5.63-13.39-14.83-24-16,1.28-1.45,2.4-2.86,4-4,10.28,2.96,13.9,8.31,20,16Z"/>
      <path class="cls-149" d="M552.24,579.87h4c-.63.22-.94,3.25-2,3.18l-2-3.18Z"/>
      <path class="cls-14" d="M52.31,471.89c.73-.38,1.76-2.9,4-4l-4,4Z"/>
      <path class="cls-14" d="M60.31,467.9c.34-.17,1.2-2.77,4-4l-4,4Z"/>
      <path class="cls-14" d="M80.31,459.9c.95-.33,2.31-3.5,4-4l-4,4Z"/>
      <path class="cls-3" d="M188.29,407.91c-1.2-1.41-2.86-2.5-4-4l4,4Z"/>
      <path class="cls-9" d="M396.26,151.97c-.61-1.19-2.86-2.5-4-4,1.34,1.32,2.85,2.48,4,4Z"/>
      <path class="cls-71" d="M392.26,147.97c-.9-1.18-2.84-3.2-4-4,1.32,1.34,2.66,2.68,4,4Z"/>
      <path class="cls-10" d="M388.26,143.97c-1.54-1.06-2.81-3.43-4-4,1.74.92,2.69,2.66,4,4Z"/>
      <path class="cls-23" d="M420.26,135.97c-.22-.91-3.23-2.44-4-4,1.42.7,2.65,2.83,4,4Z"/>
      <path class="cls-53" d="M144.3,343.92v4l-20.04-2c0-3.12,16.93-2.73,20.04-2Z"/>
      <path class="cls-94" d="M152.3,351.92c-3.03-.77-7.27,1.05-8-4h4c1.51,1.04,2.58,3.05,4,4Z"/>
      <path class="cls-22" d="M176.29,367.92c-2.19-1.29-4.71-1.73-8-4,2.3,1.33,5.46,2.71,8,4Z"/>
      <path class="cls-107" d="M184.29,371.92c-2.77-1.39-5.2-2.34-8-4,2.59,1.32,5.4,2.77,8,4Z"/>
      <path class="cls-93" d="M192.29,375.92c-2.81-1.3-5.28-2.64-8-4,2.41,1.14,6.18.59,8,4Z"/>
      <path class="cls-106" d="M168.29,363.92c-1.48-1.02-2.62-2.8-4-4,1.54.98,2.66,3.23,4,4Z"/>
      <path class="cls-13" d="M164.29,359.92c-.94-.6-3.01.59-4,0l2.03-3.93c1.36,1,1.18,3.25,1.97,3.93Z"/>
      <path class="cls-13" d="M156.3,355.92c-1.51-.93-2.57-3.04-4-4,1.27.32,2.8-.36,4,0v4Z"/>
      <path class="cls-13" d="M148.3,347.92h-4v-4c1.46.34,2.94,2.67,4,4Z"/>
      <path class="cls-37" d="M412.26,171.96c-4.43,24.41-3.79-16.28-8-23.99,5.67,11.78,5.78,8.64,8,23.99Z"/>
      <rect class="cls-76" x="424.3" y="163.98" width="3.92" height="19.96"/>
      <path class="cls-135" d="M424.26,151.97h-4c-.07-2.65.18-5.36,0-8,1.4,2.12,4.49.75,4,8Z"/>
      <path class="cls-163" d="M420.26,155.96c0-1.33.03-2.67,0-4h4c-.19,2.74-1.07,4.44-4,4Z"/>
      <path class="cls-119" d="M524.25,91.98v12c0,5.1.66,11.25,0,16-.33,2.36-2.97,11.12-4,16l-23.96-12.03,7.99,2.02c.05-17.98-3.45-39.37,19.97-33.99Z"/>
      <path class="cls-146" d="M532.25,79.98c0,6.45.66,13.82,0,20-3.93-1.16-3.67-4.61-4-8-.24-2.51-.15-5.45,0-8,.2-3.4.17-6.86,4-8v4Z"/>
      <path class="cls-99" d="M532.25,99.98c-.75,7.01-3.94,7.56-4,8l-4-4v-12h4c.33,3.39.07,6.84,4,8Z"/>
      <path class="cls-138" d="M624.23,259.94c1.44,1.07,2.56,2.83,4,4,1.43,1.19,2.58,2.77,4,4,3.55,3.06,9.13,14.12,12,16,1.11,26.86-38.96-6.92-42.12-11.9-5.18-8.17,5.08-12.87,10.12-16.1,3.74,2.6,10.6,2.88,12,4Z"/>
      <path class="cls-142" d="M648.23,279.94v4c-1.34-.33-3.22.51-4,0-2.87-1.88-8.45-12.93-12-16v-4c7.06,6.11,10.06,7.5,16,16Z"/>
      <path class="cls-18" d="M624.23,259.94c-1.4-1.12-8.26-1.4-12-4-1.22-.85-2.34-2.78-4-4-.65-.48.65-3.42,0-4,1.26.47,3.09-.54,4,0,7.29,4.34,8.88,9.68,12,12Z"/>
      <path class="cls-158" d="M652.23,283.94h-4v-4c.16.23,4.69-.44,4,4Z"/>
      <path class="cls-51" d="M260.28,211.95c0,5.08.68,11.3,0,16-.98,6.78-6.17,20.13-8,27.99-5.56-1.82-15.61,5.71-16.15-6-.65-14.1,2.41-54.17,24.15-37.99Z"/>
      <path class="cls-75" d="M260.28,203.95c.95-.7-2.24-7.15,2.01-8.06,9.95-2.12,4.56,6.57,5.98,8.06-2.17,9.12-2.4,18.86-4,27.99l-4-4c.68-4.69,0-10.91,0-16v-8Z"/>
      <path class="cls-153" d="M528.25,363.92l-3.96,4-4.04-19.99c9.25,2.37,6.41,9.94,8,16Z"/>
      <path class="cls-88" d="M540.24,399.91l-.04,7.97-4.04-2.08c-.26-5.91,4.04-9.24,4.08-9.89v4Z"/>
      <path class="cls-91" d="M236.28,603.87c-16.13,3.46-21-2.35-32-8,5.52,2.51,36.37,4.58,32,8Z"/>
      <path class="cls-6" d="M204.29,595.87c-7.31-3.75-5.79-2.65-12-8,7.2-1.89,10.55,7.34,12,8Z"/>
      <path class="cls-39" d="M192.29,603.87c-3.45,9.21-13.92-11.08-20-16l4-4c4.1,7.68,11.89,12.34,16,20Z"/>
      <path class="cls-136" d="M140.3,183.96c-17.17-4.43-11.67-3.18-24-12,9.97-.99,18.21,9.72,24,12Z"/>
      <path class="cls-121" d="M104.3,179.96c-2.53-2.7-11.14-6.47-12-8-.57-1.01-1.3-8.48,1.98-7.98,7.04,2.4,8.32,14.13,10.02,15.98Z"/>
      <path class="cls-118" d="M144.3,199.95c-7.07-.32-15.51,2.34-20-4,6.67,1.33,18.79-3.5,20,4Z"/>
      <path class="cls-110" d="M156.3,187.96c-7.44,3.14-12.93-3.21-16-4,4.54,1.78,15.6-3.62,16,4Z"/>
      <path class="cls-20" d="M120.3,191.96v4c-7.31-2.05-8.58-9.16-12-12,.51.51,10.09,6.85,12,8Z"/>
      <path class="cls-16" d="M124.3,195.96c-1.33-.27-2.82.33-4,0v-4c1.44.87,2.6,2.87,4,4Z"/>
      <path class="cls-2" d="M108.3,183.96c-1.35-1.36-2.68-2.56-4-4,1.23,1.31,2.64,2.87,4,4Z"/>
      <path class="cls-92" d="M204.29,59.99c-6.31,4.62-12.69,8.4-16,16-.18-.36-2.65.2-4,0-.52-1.85-2.13-3.76-4-4,2.59-2.7,5.05-5.67,8-8,3.62-2.86,8.05-5.53,12-8l4,4Z"/>
      <path class="cls-133" d="M216.29,47.99c1.52.92,2.76,3.44,4,4-6.42.61-11.08,4.4-16,8l-4-4c6.96-4.35,6.46-5.38,16-8Z"/>
      <path class="cls-123" d="M608.24,247.94c-1.68-1.51-9.83,3.17-7.97-3.96,5.04-1.69,6.84,3.55,7.97,3.96Z"/>
      <path class="cls-54" d="M396.26,639.86c-14.26-7.94-17.4-6.31-24-23.99,10.19,3.24,17.85,19.68,24,23.99Z"/>
      <path class="cls-150" d="M408.26,627.86c-2.59-.3-5.92.58-8,0,3.98-4.52,4.75-1.64,8,0Z"/>
      <path class="cls-55" d="M404.26,643.86c-3.4-1.15-5.17-2.42-8-4,.37.26,7.21,3.71,8,4Z"/>
      <path class="cls-111" d="M208.29,611.86l-2.08,4c-4.77,2-4.63-2.88-5.92-4,2.14.66,5.65-.59,8,0Z"/>
      <path class="cls-39" d="M200.29,611.86c-1.43-1.25-2.91-2.41-4-4,1.7.74,3.05,3.71,4,4Z"/>
      <path class="cls-32" d="M548.24,551.88c2.47,3.1,5.13-5.32,12,16v4c-3.6-3.05-4.93-3.55-8-8l-4-8v-4Z"/>
      <path class="cls-101" d="M548.24,543.88c-.31-.02-2.4,3.39-4,4-2.48-2.89-5.83-11.64-8-16,3.04-9.33,10.27,7.71,12,12Z"/>
      <path class="cls-73" d="M560.24,571.87v-4c.07.21,3.76-.57,3.92,2l-3.92,2Z"/>
      <path class="cls-33" d="M188.29,99.98c-2.22,1.89-12.24,15.2-16,4-2.22-6.61,12.39-2.8,16-4Z"/>
      <path class="cls-102" d="M188.29,99.98c.84-.28,2.27-3.02,4-4-1.25,1.37-2.59,2.8-4,4Z"/>
      <path class="cls-128" d="M192.29,95.98c1.3-.73,2.49-2.91,4-4-1.21,1.44-2.73,2.62-4,4Z"/>
      <path class="cls-56" d="M88.3,503.89l-4,4c-2.34-.33-5.61-3.63-8-4v-4c1.29.25,2.75-.3,4,0,3.78.9,6.1,3.4,8,4Z"/>
      <path class="cls-165" d="M100.3,507.89c-5.18-.49-10.96.71-16,0l4-4c3.48,1.09,9.29-1.41,12,4Z"/>
      <path class="cls-105" d="M564.24,531.88c-.66-.79.65-3.2,0-4,.87.63,3.07-.62,4,0l-4,4Z"/>
      <path class="cls-143" d="M564.24,527.88c-.87-.63-3.06.62-4,0v-4c1.11,1.41,2.8,2.54,4,4Z"/>
      <path class="cls-52" d="M324.27,471.89c2.11,1.68,5.65,2.42,8,4,.92.62,3.05-.61,4,0,6,5.43,10.51,16.5,20,20-1.88,45.01-76.77-7.08-32-23.99Z"/>
      <path class="cls-40" d="M360.27,495.89c-1.12-.54-3.07.57-4,0-9.48-3.5-14-14.57-20-20,12.17,7.81,14.37,7.57,24,20Z"/>
      <path class="cls-89" d="M364.27,499.89c-4.52.65-3.53-3.39-4-4,1.51.73,4.56-.36,4,4Z"/>
      <path class="cls-70" d="M180.29,71.98c1.87.24,3.48,2.15,4,4-4.98-.75-10.89.6-16,0,.54-1.94,2.03-3.59,4-4s5.84-.27,8,0Z"/>
      <path class="cls-60" d="M552.24,563.87c-1.66-2.41-4.43-4-4-8l4,8Z"/>
      <path class="cls-42" d="M60.31,475.89c1.37-.05,2.91.28,4,0v4c-4.82.35-8.87,3.53-12,4v-8c2.32.37,5.49.09,8,0Z"/>
      <path class="cls-14" d="M68.31,471.89c-.64,1.85-2.1,3.52-4,4-1.09.28-2.63-.05-4,0,1.07-3.9,4.61-3.74,8-4Z"/>
      <path class="cls-44" d="M340.27,23.99c1.31-.07,2.68-.05,4,0l16,4c-3.44,7.02-16.43,3.73-24,4-9.9.35-23.13-1.55-32,0v-4c12.19-1.04,23.67-3.35,36-4Z"/>
      <path class="cls-159" d="M348.27,55.99l-4,4c-4.72-.69-8.85-3.48-12-4v-4c1.3.23,2.76-.3,4,0,5.96,1.42,6.37,1.41,12,4Z"/>
      <path class="cls-74" d="M360.27,23.99c-.2,1.43.41,3.15,0,4l-16-4c4.45.16,13.16-1.03,16,0Z"/>
      <path class="cls-78" d="M356.27,59.99c-3.89-.37-8.23.55-12,0l4-4c2.46,1.13,6.15.64,8,4Z"/>
      <path class="cls-144" d="M408.26,299.93c-7.25,8.77-18.37,8.74-28,12v-4c9.02-2.58,17.56-8.84,28-8Z"/>
      <path class="cls-17" d="M404.26,327.93v-4c3.7-2.55,8.52-15.07,16-16,1.16,9.58-8.97,14.61-16,20Z"/>
      <path class="cls-97" d="M404.26,323.93v4c-3.72,2.85-7.94,5.65-12,8l-4-4c4.61-2.55,14.55-7,16-8Z"/>
      <path class="cls-155" d="M528.25,107.98c-.7,5.01.87,11.21,0,16l-4-4c.66-4.75,0-10.89,0-16l4,4Z"/>
      <path class="cls-83" d="M48.31,243.94c2.62-.22,5.36.02,8,0l12,4c-6.43,6.57-15.84,3.57-24,4-9.17.48-19-.92-28,0v-4c7.36-2.19,23.47-3.3,32-4Z"/>
      <path class="cls-25" d="M56.31,275.94l-4,4c-4.73-.69-8.82-3.46-12-4v-4c1.3.19,2.69-.18,4,0,5.78.78,11.37,3.95,12,4Z"/>
      <path class="cls-1" d="M64.31,275.94v4c-3.89-.37-8.23.55-12,0l4-4c2.36.19,5.83.39,8,0Z"/>
      <path class="cls-29" d="M332.27,471.89v4c-2.35-1.58-5.89-2.32-8-4-1.26-1-2.37-2.7-4-4-.66-.53.66-3.37,0-4,1.37.34,3.07-.46,4,0,5.65,2.81,5.42,5.62,8,8Z"/>
      <path class="cls-86" d="M336.27,475.89c-.95-.61-3.08.62-4,0v-4c1.38,1.28,2.61,2.74,4,4Z"/>
      <path class="cls-30" d="M320.27,463.9c-3.09-.77-6.72.16-8-4,6.11,1.07,4.16.33,8,4Z"/>
      <path class="cls-104" d="M632.23,267.94c-1.42-1.23-2.57-2.81-4-4,.8.65,3.24-.66,4,0v4Z"/>
      <path class="cls-84" d="M628.23,263.94c-1.44-1.17-2.56-2.93-4-4,1.46,1.17,2.57,2.81,4,4Z"/>
    </g>
  </g>
</svg>