<?xml version="1.0" encoding="UTF-8"?>
<svg id="Layer_2" data-name="Layer 2" xmlns="http://www.w3.org/2000/svg" viewBox="0 0 652.62 691.72">
  <defs>
    <style>
      .cls-1 {
        fill: #fce4c6;
      }

      .cls-2 {
        fill: #fce5c6;
      }

      .cls-3 {
        fill: #fbe4c6;
      }

      .cls-4 {
        fill: #f9fafa;
      }

      .cls-5 {
        fill: #f9f9f9;
      }

      .cls-6 {
        fill: #fafafa;
      }

      .cls-7 {
        fill: #fff5ec;
      }

      .cls-8 {
        fill: #fbe3c5;
      }

      .cls-9 {
        fill: #fae3c5;
      }
    </style>
  </defs>
  <g id="cheese">
    <g>
      <path class="cls-7" d="M381.03,20.33c28.82,18.81,41.37,43.81,47.99,75.98-14.92,6.13-4.46,17.89-6.51,28.11-.52,2.61-18.04,46.11-19.83,47.98-2.26,2.36-33.37,21.49-38.97,24.56-22.8,12.48-33.5,17.61-60.85,15.46-24.2-1.89-36.25-17.31-57.81-16.14-5.8-4.93-11.42-13.64-16-20l-7.78-61.43c5.4-57.46,59.33-106.85,117.68-102.66,14.49,1.04,28.97,13.89,42.07,8.13Z"/>
      <path class="cls-7" d="M581,144.3c28.81,17.68,42.61,44.05,47.99,75.98-15.18,5.75-4.27,18.33-5.99,26.02-1.04,4.68-17.36,46.91-19.04,48.93s-37.33,24.07-42.9,27.09c-43.49,23.63-72.95,13.27-116.06-6.06-7.81-7.43-10.12-11.82-16-20l-2.96-68.96c3.25-22.15,13.3-39.37,28.77-55.2,2.84-2.91,26.55-23.04,28.24-23.78,8.43-3.69,2.78,12.62,13.94,7.93l-4.02-11.94c14.21-.36,32.08-8.05,45.65-7.64,14.55.44,29.65,15.27,42.37,7.61Z"/>
      <path class="cls-4" d="M329.03.34l12,4c14.16,3.58,27.54,7.87,39.99,16-13.1,5.76-27.59-7.09-42.07-8.13-58.35-4.19-112.28,45.2-117.68,102.66l7.78,61.43c-1.9-2.64-7.46-2.93-10.98-10.93-29.18-66.21,6.19-141.52,74.97-161.04,1.22-.35,2.73.31,4,0,3.33-.8,15.18-3.92,16-4,4.7-.44,11.31-.45,16,0Z"/>
      <path class="cls-6" d="M581,144.3c-12.72,7.66-27.82-7.17-42.37-7.61-13.57-.41-31.44,7.27-45.65,7.64l4.02,11.94c-11.15,4.69-5.51-11.63-13.94-7.93-1.69.74-25.4,20.87-28.24,23.78-15.47,15.83-25.52,33.05-28.77,55.2l2.96,68.96c-1.94-2.69-8.5-2.95-11.08-10.84-17.92-54.74-1.13-124.36,55.08-149.13,31.5-13.88,78.48-10.11,107.99,8Z"/>
      <path class="cls-9" d="M601,316.27c-37.85,45.12-116,38.01-155.98,0,43.11,19.33,72.57,29.69,116.06,6.06,5.56-3.02,41.27-25.14,42.9-27.09s17.99-44.25,19.04-48.93c1.72-7.69-9.19-20.27,5.99-26.02,2.44,14.46,6.15,17.92,2.22,36.24-2.13,9.92-23.9,52.21-30.22,59.74Z"/>
      <path class="cls-9" d="M433.02,100.31c9.8,98.09-108.6,163.49-187.97,95.98,21.56-1.17,33.62,14.25,57.81,16.14,27.35,2.14,38.04-2.99,60.85-15.46,5.61-3.07,36.71-22.2,38.97-24.56,1.8-1.88,19.31-45.37,19.83-47.98,2.05-10.22-8.42-21.98,6.51-28.11.23,1.14,3.89,2.89,4,4Z"/>
      <path class="cls-3" d="M313.04.34c-.82.08-12.67,3.2-16,4l16-4Z"/>
      <path class="cls-3" d="M341.03,4.34l-12-4c7.72.75,9.03,3.25,12,4Z"/>
      <path class="cls-1" d="M573,576.21c-39.08,8.35-80.16-5.86-107.99-31.99,27.02,9.8,42.74,23.18,73.13,22.32,12.4-.35,26.04-9.65,36.98-2.43,2.59-2.55-2.79-5.85.11-8.08,9.52-7.34,40.5-21.12,48.58-28.99,4.95-4.82,25.68-67.95,25.4-76.54-.07-2.2-7.12-1.61-8.08-5.03-2.23-7.95.69-20.35-4.13-29.22,26.21,47.38,19.85,97.46-22.02,135.94-4.99,4.58-37.22,23.01-41.97,24.02Z"/>
      <path class="cls-7" d="M393.03,488.23c23.4,12.82,29.33,25.52,39.99,47.99-7.26,17.53,7.96,24.77,8.05,26.29.55,9.28-9.06,40.16-12.99,50.73-15.71,42.22-72.39,71.8-116.66,66.66l-46.37-15.71c-8-6.15-9.8-8.65-16-16l-7.65-34.35c-10.96-65.68,30.05-125.17,97.47-129.74l54.15,4.13Z"/>
      <path class="cls-6" d="M325.03,472.23c7.24-.2,17.31-.98,24,0,11.96,1.75,33,9.97,43.99,16l-54.15-4.13c-67.43,4.57-108.44,64.07-97.47,129.74l7.65,34.35c-6.19-7.34-9.78-5.43-14.97-19.04-21.72-56.93-3.87-101.84,38.97-140.92,1.36-.31,2.96.41,4,0,4.63-1.86,9.06-3.67,12-8,1.08-.44,2.72.39,4,0l8-4c1.25-.3,2.71.24,4,0,5.02-.95,11.37-3.94,12-4,2.61-.25,5.36.07,8,0Z"/>
      <path class="cls-6" d="M589,368.25c.98,1.53,2.32,3.29,4,4,1.2.5,3.09-.56,4,0l4,4c1.43,1.23,2.73,2.61,4,4-85.91-35.36-169.56,24.45-155.99,117.98l8.01,37.98c-22.05-27.57-32.03-69.14-20-103.98,22.2-64.28,91.92-85.87,151.98-63.99Z"/>
      <path class="cls-2" d="M409.02,392.25c-23.14,31.56-36.71,51.31-75.99,63.99-42.21,3.22-73.45-3.2-103.99-31.99,16.73,3.19,30.08,16.18,46.95,19.05,50.28,8.56,71.67-13.67,111.83-36.24,18.87-39.49,31.18-72.48,13.2-114.77,24.39,44.07,17.16,52.86,8,99.98Z"/>
      <path class="cls-8" d="M445.02,608.2c-8.68,5.72-8.5,16.5-12,23.99-38.3,65.13-107.7,78.37-167.98,31.99l46.37,15.71c44.27,5.15,100.95-24.44,116.66-66.66,3.93-10.57,13.55-41.45,12.99-50.73-.09-1.52-15.31-8.77-8.05-26.29,16.93,35.66,7.7,38.29,12,71.98Z"/>
      <path class="cls-9" d="M349.03,472.23c-6.68-.98-16.76-.2-24,0,4.03-6.55,20.21-6.43,24,0Z"/>
      <path class="cls-9" d="M317.04,472.23c-.63.06-6.98,3.05-12,4l12-4Z"/>
      <path class="cls-9" d="M301.04,476.23l-8,4c.43-.13,2.29-2.61,8-4Z"/>
      <path class="cls-9" d="M289.04,480.23c-2.94,4.33-7.37,6.14-12,8,1.72-7.7,7.42-6.14,12-8Z"/>
      <path class="cls-7" d="M373.03,260.28c20.98,9.94,17.98,13.89,28,31.99,17.98,42.3,5.67,75.28-13.2,114.77-40.16,22.57-61.55,44.8-111.83,36.24-16.87-2.87-30.21-15.86-46.95-19.05-3.17-2.99-4.87-4.26-8-8l-12.08-69.83c12.21-81.99,88.57-121.89,164.06-86.13Z"/>
      <path class="cls-7" d="M153.06,140.31c25.72,13.32,41.84,40.63,47.99,67.98-9.11,45.59-14.46,72.99-57.22,96.75-43.4,24.11-71.25,15.42-114.76-4.77-3.48-3.22-9-11.56-12-16l-3.61-57.52c5.42-48.23,48.68-89.62,97.79-90.55,14.76-.28,29.17,11.57,41.8,4.1Z"/>
      <path class="cls-4" d="M373.03,260.28c-75.49-35.76-151.85,4.14-164.06,86.13l12.08,69.83c-27.13-32.43-33.89-80.6-16-119.97,25.79-56.77,123.39-83.4,167.98-35.99Z"/>
      <path class="cls-5" d="M153.06,140.31c-12.64,7.48-27.05-4.38-41.8-4.1-49.11.93-92.37,42.32-97.79,90.55l3.61,57.52c-1.37-2.02-6.41-3.24-8.93-8.9-21.03-47.09-.11-117.89,48.93-139.07,29.16-12.59,67.78-10.61,95.99,4Z"/>
      <path class="cls-3" d="M193.05,276.27c-2.88,5.39-22.8,29.07-28.31,33.67-38.09,31.81-101.18,22.25-135.66-9.68,43.51,20.19,71.36,28.89,114.76,4.77,42.76-23.76,48.11-51.16,57.22-96.75,5.77,25.66,4.98,43.68-8,67.98Z"/>
      <path class="cls-7" d="M593,372.25c-1.68-.71-3.02-2.47-4-4,1.62.59,2.98,2.56,4,4Z"/>
      <path class="cls-7" d="M601,376.25l-4-4c1.62,1,2.61,2.8,4,4Z"/>
      <path class="cls-7" d="M605,380.25c21.71,8.93,22.03,17.98,32,35.99,4.83,8.87,1.9,21.27,4.13,29.22.96,3.43,8.01,2.83,8.08,5.03.28,8.6-20.45,71.72-25.4,76.54-8.08,7.86-39.05,21.65-48.58,28.99-2.89,2.23,2.48,5.53-.11,8.08-10.94-7.21-24.58,2.08-36.98,2.43-30.39.86-46.11-12.52-73.13-22.32-3.29-3.09-4.63-3.79-8-8l-8.01-37.98c-13.57-93.53,70.08-153.34,155.99-117.98Z"/>
      <path class="cls-5" d="M169.06,392.25c4.33,7.3,7.85,10.05-4.48,6.49-13.72-3.97-25.55-10.68-40.92-10.19-50.98,1.62-98.97,46.9-102.55,97.72l7.96,61.95c-3.33-4.57-9.95-4.97-14.07-15.94-3.84-10.23-9.2-40.54-9.93-52.04-.08-1.32,0-2.67,0-4l8-27.99c29.5-59.91,93.47-88.13,155.98-55.99Z"/>
      <path class="cls-9" d="M221.05,472.23c1.26,7.85,4.01,8.94,3.05,20.71-2.91,35.87-36.46,83.9-71.04,95.26-38,12.49-83.08,2.33-111.99-23.99,20.72,1.73,37.16,18.69,58.55,19.74,14.24.7,29.59-4.04,47.56-3.86,3.02.03-2.54-6.03.11-8.08,10.43-8.05,25.15-15.08,38.31-25.49,2.69-2.13,8.64-1.38,10.67-2.95,2.44-1.9,16.49-49.24,17.55-57.73.84-6.75-6.43-15.82,7.23-13.61Z"/>
      <path class="cls-9" d="M5.08,476.23c.03-17.71,1.68-15.17,8-27.99l-8,27.99Z"/>
      <path class="cls-7" d="M29.07,548.21l-7.96-61.95c3.58-50.82,51.57-96.1,102.55-97.72,15.36-.49,27.19,6.23,40.92,10.19,12.32,3.56,8.8.81,4.48-6.49,28.99,14.9,47.08,49.31,51.99,79.98-13.67-2.2-6.39,6.86-7.23,13.61-1.06,8.49-15.11,55.83-17.55,57.73-2.03,1.58-7.98.82-10.67,2.95-13.15,10.41-27.88,17.44-38.31,25.49-2.65,2.04,2.92,8.11-.11,8.08-17.97-.17-33.32,4.56-47.56,3.86-21.39-1.05-37.82-18.02-58.55-19.74-5.16-4.7-8.02-10.53-12-16Z"/>
    </g>
  </g>
</svg>