<?xml version="1.0" encoding="UTF-8"?>
<svg id="Layer_2" xmlns="http://www.w3.org/2000/svg" version="1.1" viewBox="0 0 195.8 192.8">
  <!-- Generator: Adobe Illustrator 29.6.1, SVG Export Plug-In . SVG Version: 2.1.1 Build 9)  -->
  <defs>
    <style>
      .st0, .st1 {
        fill: #fff;
      }

      .st0, .st2 {
        fill-rule: evenodd;
      }

      .st1 {
        stroke: #fff;
        stroke-miterlimit: 10;
        stroke-width: .3px;
      }

      .st3 {
        font-family: IowanOldStyle-Roman, 'Iowan Old Style';
        font-size: 12px;
      }
    </style>
  </defs>
  <path class="st1" d="M445.2,62.1h-37.1s16.1,16,16.9,16.7c.4.3.9.8,1.4.5,6.4-5.5,18.9-17.2,18.9-17.2ZM434.7,74.6c2.2,2.4,12.2,12.3,12.2,12.3v-23.3l-12.2,11ZM406.6,86.9l11.5-12.1-11.5-11.2v23.3ZM445.3,88.5l-12.2-12.5c0,0-4.9,4.8-6.2,5.2-1,.3-1.9.1-2.7-.5l-4.7-4.4-11.4,12.1,37.2.2Z"/>
  <text class="st3" transform="translate(447 22.4)"><tspan x="0" y="0">Lorem ipsum</tspan></text>
  <path class="st2" d="M617,42.3h30.1V13.8s-30.1,0-30.1,0v28.5h0ZM629.7,33.4c-.5,0-2.2.4-3-.8-.3-.4-.4-.9-.7-1.3-.5-.7-1-.6-1-1.1.5-.2,1,0,1.3.3.7.5.8,1.4,1.9,1.7.5.1,1.1,0,1.5-.2,0-.2.1-.5.2-.7.1-.3.3-.4.4-.6-2.5-.1-4-1.4-4.3-3.7-.4-2.8.9-3.5.9-3.9,0-.2-.1-.5-.2-.8,0-.6,0-1.2.3-1.7.8,0,1.8.5,2.4.8.2.2.2.2.6.1,1.4-.3,2.9-.4,4.3,0,.3,0,.3,0,.6-.1.5-.4,1.5-.9,2.4-.8.4.9.4,1.7.1,2.6.3.4.4.4.6,1,.8,1.6.4,4.6-1.6,5.8-.8.5-1.5.6-2.5.8.2.3.3.3.5.7.3.8.2,2.6.2,3.6,0,1.1.8.6,1.5.3.6-.3,1.1-.6,1.6-.9,4.5-3,5.6-9.5,2.3-14-1.2-1.6-3.3-3.3-6.2-3.8-3.1-.5-6.5.7-8.1,2.3-.9.9-1.3,1.2-2,2.4-.6,1.1-1.1,2.4-1.3,3.8-.2,1.5,0,3,.5,4.4.5,1.4,1.1,2.3,1.8,3.2.6.8,1.9,1.8,2.8,2.2,1.8.9,2.2.9,2.2-.3,0-.4,0-.9,0-1.3h0Z"/>
  <path class="st0" d="M479.4,84.8c-.8,0-3.3.6-4.5-1.1-.4-.6-.6-1.3-1-1.9-.7-1-1.4-.8-1.5-1.6.8-.3,1.4,0,2,.4,1,.7,1.2,2.1,2.7,2.5.8.2,1.7,0,2.3-.3.1-.3.2-.8.3-1.1.2-.4.4-.6.6-.9-3.6-.2-5.9-2.1-6.4-5.4-.6-4.1,1.4-5.2,1.3-5.7,0-.3-.2-.8-.2-1.2,0-.9.1-1.8.4-2.5,1.2,0,2.7.7,3.5,1.2.4.2.3.3.8.2,2.1-.5,4.3-.5,6.4,0,.5.1.5,0,.8-.2.8-.6,2.3-1.3,3.5-1.2.6,1.3.5,2.5.2,3.9.4.6.6.7.9,1.4,1.1,2.4.6,6.8-2.3,8.5-1.2.7-2.2.8-3.7,1.1.3.4.5.5.7,1.1.4,1.2.2,3.8.2,5.3,0,1.6,1.2.9,2.2.5.9-.4,1.6-.8,2.4-1.3,6.6-4.4,8.3-13.9,3.4-20.6-1.8-2.4-4.9-4.9-9.1-5.6-4.6-.8-9.5,1-11.9,3.4-1.3,1.3-1.9,1.8-2.9,3.6-.9,1.6-1.6,3.5-1.8,5.6-.3,2.2,0,4.4.7,6.4.7,2.1,1.6,3.3,2.7,4.7,1,1.2,2.8,2.6,4.1,3.3,2.6,1.4,3.2,1.4,3.2-.5,0-.6,0-1.3,0-1.9h0Z"/>
</svg>