<?xml version="1.0" encoding="UTF-8"?>
<svg id="Layer_2" data-name="Layer 2" xmlns="http://www.w3.org/2000/svg" viewBox="0 0 194.95 190.08">
  <defs>
    <style>
      .cls-1 {
        fill: #d42838;
      }
    </style>
  </defs>
  <g id="Layer_1-2" data-name="Layer 1">
    <path class="cls-1" d="M73.33,186.67c-1.06,5.95-9.31,2.5-12.68,1.18C5.03,165.99-17.07,96.95,14.47,46.13c36.88-59.41,123.01-61.97,163.07-4.52,35.08,50.31,15.1,122.38-41.69,145.73-4.9,2.01-13.69,6.15-14.15-2.66-.07-1.35.41-2.35.42-3.54.06-7.55.41-15.98,0-23.43-.35-6.43-1.93-12.4-6.36-17.23,19.96-1.96,36.94-10.29,42.24-30.93,3.76-14.66,2.79-31.94-8-43.42,3.07-8.44,2.15-17.46-.88-25.75-9.94-1.15-19.05,5.12-27.2,9.92-15.7-4.44-32.67-4.37-48.39,0-7.97-4.81-17.02-10.83-26.77-9.97-3.75,7.97-4.09,17.4-1.28,25.72-11.19,12.27-12.01,30.91-7.15,46.18,6.11,19.2,22.71,26.06,41.35,28.44-3.83,3.62-4.8,8.29-6.35,13.08-5.77,2.65-13.02,3.39-18.9.67-9.75-4.51-12.97-21.71-26.81-18.63-5.68,1.27,3.24,6.28,4.44,7.29,9.52,7.99,6.8,20.28,21.45,24.15,6.68,1.76,13.08.87,19.82.2v19.23Z"/>
  </g>
</svg>