<?xml version="1.0" encoding="UTF-8"?>
<svg id="Layer_2" data-name="Layer 2" xmlns="http://www.w3.org/2000/svg" viewBox="0 0 180 180">
  <defs>
    <style>
      .cls-1 {
        fill: #fff;
      }
    </style>
  </defs>
  <g id="Layer_9" data-name="Layer 9">
    <path class="cls-1" d="M147.83.02c-.37-.01-.75-.02-1.13-.02H33.09C15.16.11.59,14.39.02,32.22c0,.36-.02.72-.02,1.08v113.6c.11,18.3,14.98,33.1,33.3,33.1h113.4c18.39,0,33.3-14.91,33.3-33.3V33.3C180,15.28,165.7.62,147.83.02ZM50.11,66.74c-.4,3.19-6.11,9.27-6.87,16.82-2.34,23.52,10.19,38.21,33.37,40.35l-5.55,10.42c-1.86,1.21-8.33,1.21-10.67.92-11.33-1.38-9.52-15.63-22.55-14.8-1.47.09-2.86-.72-2.45,1.48,8.01,3.81,9.04,11.58,13.3,17.18,5.17,6.8,15.45,6.19,23.01,4.98-.46,14.04,3.76,21.97-12.97,14.48C4.82,134.44.9,57.04,51.77,27.14c52.67-30.97,117.4,10.11,112.07,71.05-2.52,28.86-24.67,57.12-53.15,63.48-1.59-.59-2.33-1.71-2.64-3.33-2.08-10.94,4.16-25.88-4.94-34.91,15.9-.8,29.18-8.27,32.94-24.57,2.34-10.15,1.3-18.1-3.29-27.32-.73-1.46-2.73-2.84-2.99-3.94-.75-3.21,3.9-18.84-2.62-20.03-6.7-1.21-16,7.69-19.42,7.69-3.54-.01-10.05-2.58-14.87-2.76-7.12-.27-15.69,2.82-20.69,2.56-2.62-.14-18.12-11.37-21.19-6.87-3.73,5.84-.27,13.84-.87,18.55Z"/>
  </g>
</svg>