<?xml version="1.0" encoding="UTF-8"?>
<svg id="Layer_2" data-name="Layer 2" xmlns="http://www.w3.org/2000/svg" viewBox="0 0 606.32 599.9">
  <defs>
    <style>
      .cls-1 {
        fill: #afba63;
      }

      .cls-2 {
        fill: #bdc96e;
      }

      .cls-3 {
        fill: #e8dfb5;
      }

      .cls-4 {
        fill: #b4bf57;
      }

      .cls-5 {
        fill: #e3e092;
      }

      .cls-6 {
        fill: #bac766;
      }

      .cls-7 {
        fill: #9fae3a;
      }

      .cls-8 {
        fill: #f5f0c1;
      }

      .cls-9 {
        fill: #d0d8a7;
      }

      .cls-10 {
        fill: #bdc868;
      }

      .cls-11 {
        fill: #cecc5e;
      }

      .cls-12 {
        fill: #a8b949;
      }

      .cls-13 {
        fill: #e8e6bb;
      }

      .cls-14 {
        fill: #a2b039;
      }

      .cls-15 {
        fill: #cfcf60;
      }

      .cls-16 {
        fill: #ded894;
      }

      .cls-17 {
        fill: #a3b139;
      }

      .cls-18 {
        fill: #8f9d38;
      }

      .cls-19 {
        fill: #b3c57a;
      }

      .cls-20 {
        fill: #afbb50;
      }

      .cls-21 {
        fill: #c5d0ad;
      }

      .cls-22 {
        fill: #bbc259;
      }

      .cls-23 {
        fill: #d5d64f;
      }

      .cls-24 {
        fill: #e4de9a;
      }

      .cls-25 {
        fill: #bec65e;
      }

      .cls-26 {
        fill: #b0bb3d;
      }

      .cls-27 {
        fill: #e2eac9;
      }

      .cls-28 {
        fill: #ece69c;
      }

      .cls-29 {
        fill: #c1c65a;
      }

      .cls-30 {
        fill: #bec25c;
      }

      .cls-31 {
        fill: #9dae3a;
      }

      .cls-32 {
        fill: #e7eab7;
      }

      .cls-33 {
        fill: #b9c561;
      }

      .cls-34 {
        fill: #c1ceab;
      }

      .cls-35 {
        fill: #cccf4d;
      }

      .cls-36 {
        fill: #c6ce72;
      }

      .cls-37 {
        fill: #cbca5d;
      }

      .cls-38 {
        fill: #b5c35d;
      }

      .cls-39 {
        fill: #abb25e;
      }

      .cls-40 {
        fill: #cfd04e;
      }

      .cls-41 {
        fill: #f8f3c8;
      }

      .cls-42 {
        fill: #9dac39;
      }

      .cls-43 {
        fill: #9dad39;
      }

      .cls-44 {
        fill: #a1b039;
      }

      .cls-45 {
        fill: #e9e299;
      }

      .cls-46 {
        fill: #c2c95c;
      }

      .cls-47 {
        fill: #c0c75a;
      }

      .cls-48 {
        fill: #dfdea5;
      }

      .cls-49 {
        fill: #afbc4a;
      }

      .cls-50 {
        fill: #c2c75f;
      }

      .cls-51 {
        fill: #bec968;
      }

      .cls-52 {
        fill: #e6eac4;
      }

      .cls-53 {
        fill: #e0dd9a;
      }

      .cls-54 {
        fill: #b9c35a;
      }

      .cls-55 {
        fill: #bcc765;
      }

      .cls-56 {
        fill: #8a9e3b;
      }

      .cls-57 {
        fill: #f5efc5;
      }
    </style>
  </defs>
  <g id="green_pepper" data-name="green pepper">
    <g>
      <path class="cls-44" d="M347.84,404.35c9.49,4.31,21.62,12.87,30.89,15.1,24.47,5.89,47.57-2.88,67.22,20.76,14.17,17.05,22.29,59.91,13.87,80.11-3.91,9.39-26.51,23.3-34.14,31.85-12.07,13.51-19.24,25.26-33.85,40.14-34.92,11.97-72.55,11.96-99.99-16-6.96-15.3-1.13-33.29-5.78-48.21-3.45-11.07-16.84-16.67-20.13-23.83-8.42-18.32,4.7-43.81,13.92-59.93h4l7.96,1.94c-20.3,23.17-23.08,47.68,4.04,66.05-7.76,7.8-.29,26.45,12,4,.18,1.31-.24,2.72,0,4,.43,2.33-.14,5.37,0,8,1.23,22.95-1.81,38.94,24.01,49.98,24.24,10.37,57.39,7.57,63.98-21.99,1.01-4.53-.74-11.01.04-16.02,9.4,7.3,6.89-2.21,11-3.62,8.82-3.03,18.73-.84,26.82-8.49,26.14-24.7-1.32-115.6-49.86-87.85,1.03-12.43,1.63-13.42-12.01-11.96,3.58,4.89.39,8.23.01,11.96h-4c-1.84-.84-2.72-2.61-4-4-20.21-21.94-25.37-12.3-51.99-20h-4c13.71-7.9,21.09-15.76,39.99-12ZM455.79,492.33c-4.39-13.74-2.66-35.68-15.92-43.99,5.84,13.15,4.35,35.36,15.92,43.99ZM295.89,544.34c-1.9,17.34,2.35,28.08,18,35.89l-18-35.89ZM419.83,544.36c-16.32-4.85-16.71,17.15-19.96,27.95l19.96-27.95Z"/>
      <path class="cls-17" d="M403.83,112.42l36,16c10.48,9.43,19.42,24.74,28,35.99,1.59,15.54-3.34,29.36-3.16,41.97.43,30.72,12.25,36.83-5.56,71.28-17.57,33.97-47.89,39.72-83.26,38.72-6.37-7.99-17.88-23.1-26.5-27.49-20.72-10.55-24.94,4.25-45.49-16.5-12.23-29.47-24.83-50.7-16-83.98,13.47-3.35,3.13,17.43,4.31,29.46,1.22,12.41,10.46,45.39,23.3,48.83,16.93,4.54,13.42,1.68,28.38,9.69,1.01.54,2.88-.52,4,0,.99.46.59,6.17,7.98,4.03l2-12.01c22.35,30.91,53.22,38.61,81.7,9.67,17.33-17.61,12.27-27.2,4.31-45.68-.5-1.16.53-3,0-4-1.99-3.74-3.68-6.61-8-8-.8-1.99.83-6.25,0-8,31.8-12.38,13.95-50.4-8.26-65.72-28.05-19.35-53.18-21.69-71.73,9.74-11.92-9.7-13.55-4.8-8,8l-4,4c-1.19-.29-2.65.2-4,0-3.55-.54-22.57-4.16-24-4h4l3.96-2.04c.93-6.2.28-6.85-5.92-5.92l-2.04,3.96c-8.85-.6-13.17,8.75-20,12,2.55-4.08.33-8.13,8.01-13.91,9.58-7.21,24.58-7.6,34.8-13.27,17.25-9.57,32.51-26.19,53.18-32.81,3.98.08,8.03-.25,12,0ZM459.78,240.37l-5.94-27.96c-10.02,7.04-2.6,7.37-1.2,13.11,1.08,4.43,1.72,15.64,7.13,14.85ZM399.81,304.42l-27.97-8c1.76,9.39,22.7,18.95,27.97,8Z"/>
      <path class="cls-31" d="M103.87,460.34c13.13-1.42,41.24-1.2,51.94,6.1,4.73,3.23,5.5,4.29.05,5.89l-12-3.96c-.73,4.71,7.62,7.15,8,7.96.49,1.04-.35,2.76,0,4-2.54-.38-5.77.56-8,0-36.88-9.28-77.1-2.09-71.99,43.99-1.72,1.26-6,3.45-8,4l-.04-20c-10.53,2.5-6.5,13.09-7.96,20-.3,1.4.44,3.07,0,4-18.58,2.11-2.04-32.56,4-43.99,11.47-12.79,26.63-26.12,43.99-27.99Z"/>
      <path class="cls-40" d="M339.84,168.4l-3.89,1.98,3.89,6.02c-58.98-7.19-38.33,81.77-14.01,83.84,3.89.33,6.8-2.49,10.01-3.86,9.33,4.12,9.11,10.58,8,20-14.96-8.01-11.45-5.15-28.38-9.69-12.84-3.44-22.08-36.41-23.3-48.83-1.18-12.04,9.15-32.81-4.31-29.46,1.21-3.56,2.68-5.29,4-8l1.98,3.93c5.91-3.93,15.91-19.24,22.02-19.93,1.43-.16,20.45,3.46,24,4Z"/>
      <path class="cls-34" d="M307.85,416.35h4l-28,27.99h-4c5.45-9.53,5.85-13.74,15.91-22.28,5.15-4.38,8.75-3.79,12.09-5.71Z"/>
      <path class="cls-18" d="M303.85,272.38c-24.68-24.93-26.86-52.17-16-83.98-8.83,33.28,3.77,54.51,16,83.98Z"/>
      <path class="cls-56" d="M155.87,460.34c10.4,4.62,11.83,10.63,0,16v-4c5.45-1.6,4.68-2.66-.05-5.89-10.7-7.3-38.81-7.52-51.94-6.1,11.56-7.36,39.82-5.41,51.99,0Z"/>
      <path class="cls-9" d="M315.84,160.41c3.05.21,4.35.67,4,4h-4c-6.1.69-16.1,16-22.02,19.93l-1.98-3.93c1.28-2.62,2.47-5.55,4-8,6.83-3.25,11.15-12.6,20-12Z"/>
      <path class="cls-2" d="M155.87,472.34v4h-4c-.38-.81-8.72-3.25-8-7.96l12,3.96Z"/>
      <path class="cls-7" d="M563.81,452.34c18.45,24.76,17.46,56.19,8,83.98-7.08,8.75-20.6,27.1-20,8,5.79-2.54,9.38-5.35,7.96-12l-11.96,4c.44-2.53-.67-6.1,0-8,.2-.57,5.83-2.77,7.08-6.77,10.25-32.78,7.63-65.7-31.08-73.22h-4c-.23-2.59-.05-5.38,0-8,1.86.87,19.19,4.59,19.99,3.96-2.13-8.41-13.12-8.16-19.99-11.96.14-2.65-.14-5.34.03-7.98,6.56-5.28,39.32,21.74,43.97,27.97Z"/>
      <path class="cls-29" d="M547.81,528.32h-4c2.51-14.95,15.47-33.64,4-47.99-.14-1.37.28-2.84,0-4-4.53-18.99-22.25-10.57-24-27.99,38.71,7.52,41.33,40.44,31.08,73.22-1.25,3.99-6.88,6.19-7.08,6.77Z"/>
      <path class="cls-22" d="M583.81,216.39c6.99,21.6-7.77,60.6-32,63.99,2.02-10.45,13.72-15.81,19.37-26.81,2.56-4.98,3.44-7.81,4.63-13.18.26-1.19-.13-2.65,0-4l3.98-5.96-3.98-2.04c-.15-1.38.31-2.89,0-4-3.04-10.9-12.13-15.67-12-23.99,9.98.32,15.08,8.7,20,16Z"/>
      <path class="cls-7" d="M559.81,440.34c2.44,2.62,3.07,8.39,4,12-4.64-6.23-37.41-33.25-43.97-27.97-.17,2.64.12,5.32-.03,7.98-.14,2.65.05,5.34,0,8-6.56-3.06-5.42-19.82-1.95-20.05,10.33-.68,35.03,12.61,41.94,20.05Z"/>
      <path class="cls-17" d="M575.81,224.39c-24.69-19.81-12.23-31.48-3.95-55.98,32.58,20.36,42.34,63.64,28.1,98.12-7.93,19.2-33.01,49.72-56.2,39.79,5.6-9.53,1.98-22.73,4.76-31.37.68-2.12,25.45-25.69,27.3-34.56-1.19,5.37-2.07,8.2-4.63,13.18-5.65,11-17.35,16.36-19.37,26.81-.68,3.51.4,8.14,0,12-.14,1.32.21,2.71,0,4-.37,2.25-5.54,6.95-4,7.96,57.8,5.65,70.78-111.22,29.94-127.9-8.72-3.56-4.95,6.04-5.94,7.96-.74,1.43-3.55,2.71-4,4-.85,2.44-3.99,11.26-4,12-.13,8.32,8.96,13.1,12,23.99Z"/>
      <path class="cls-7" d="M543.81,528.32c-2.78-12.97,4.02-28.28,4-43.99,0-1.32.13-2.7,0-4,11.47,14.35-1.49,33.04-4,47.99Z"/>
      <path class="cls-7" d="M523.82,448.34c1.75,17.42,19.47,9,24,27.99-13.87-14.44-26.23-8.37-28-27.99h4Z"/>
      <path class="cls-7" d="M575.81,236.39c.23-2.43.27-5.59,0-8l3.98,2.04-3.98,5.96Z"/>
      <path class="cls-39" d="M551.81,544.32h-4c-.06-1.32-.04-2.68,0-4,.04-1.3-.22-2.75,0-4l11.96-4c1.42,6.65-2.17,9.46-7.96,12Z"/>
      <path class="cls-7" d="M571.81,536.32c-4.14,12.17-9.34,21.27-23.98,19.97-.18-3.96.15-8-.02-11.98h4c-.6,19.1,12.92.75,20-8Z"/>
      <path class="cls-7" d="M547.81,536.32c-.22,1.25.04,2.7,0,4-5.18-2.87-3.13-7.96-4-12h4c-.67,1.9.44,5.47,0,8Z"/>
      <path class="cls-14" d="M107.87,196.4c1.33.02,2.69-.11,4,0l39.99,16c13.45,15,15.43,33.75,23.17,50.81,3.43,7.57,11.05,12.18,14.83,21.16,5.23,12.42,8.43,39,5.99,52-3.19,16.98-27.71,47.14-45.06,52.89-29,9.61-36.2-9.91-56.78-8.82-8.76.46-10.9,6.63-14.15,7.91-51.87,7.37-99.73-70.04-71.47-113.45,6.15-9.44,16.56-12.07,23.55-20.44,5.82-6.97,9.69-17.36,15.92-26.07,8.78-8.87,18.24-13.83,28-20,20.97-.28,39.7,2.19,59.97,7.96.95-5.74-6.97-5.44-11.15-6.74-6.14-1.91-42.6-9.77-44.82-9.22,11.91-3.63,14.44-4.22,28-4ZM151.87,276.38c28.36-47.39-59.32-75.84-87.86-49.87-9.54,8.68-5.71,20.8-9.11,24.97-.91,1.12-6.91,1.75-11.01,4.91-7.23,5.56,3.99,4.3,4.13,13.97.06,3.86-6.32,1.2-8.13,2.03-63.59,28.94-5.44,115.96,35.23,97.33,4-1.83,4.99-5.3,4.81-9.31,7.76-1.38,1.87,9.28,4.18,11.67,1.82,1.89,13.37-.59,17.76.31,5.68-2.17-1.88-3.82-1.99-4.02-2.89-5.22-4.96-9.9-3.92-16.05,2.12.26,3.34,3.98,3.92,4.06,58.29,44.1,113.52-40.54,51.99-79.98ZM183.82,296.37c1.57-6.92-3.52-10.48-6.43-15.52-2.49-4.31-8.74-14.98-13.48-16.45-8.42,14.5,12.22,20.77,19.91,31.96ZM151.85,376.4l-35.95,3.91c10.73,1.26,29.41,9.37,35.95-3.91Z"/>
      <path class="cls-14" d="M59.88,488.33c-6.04,11.43-22.58,46.1-4,43.99-6.7,14.12-13.73.96-12.08-14.07,1.74-15.83,6.82-19.59,16.08-29.92Z"/>
      <path class="cls-4" d="M63.88,528.32c-2.15.6-5.48-.4-8,0,1.46-6.91-2.57-17.5,7.96-20l.04,20Z"/>
      <path class="cls-50" d="M143.87,480.33c-1.29,3.44-4.33,7.42-8,8-12.98-10.42-46.45-.25-52.96,13.01-4.78,9.72.22,14.73-11.03,22.98-5.11-46.08,35.11-53.27,71.99-43.99Z"/>
      <path class="cls-43" d="M179.86.44c16.2,3.18,45.32,31.46,51.15,46.83,5.45,14.36,10.51,57.65-5.21,65.11-8.34,3.96-5.16-6.6-5.95-7.97,14.91-7.86,5.71-30.76,7.96-43.97-7.84.57-3.03,15.98-3.87,22.06-.97,7.03-1.12,13.77-8.09,17.91-.74-2.47-4.04-6.26-4-8,.19-8.09,6.23-18.24,3.72-33.77-3.2-19.81-25.65-46.75-47.71-34.22-2.75-1.99-5.02-5.87-8-8-.37-1.11.27-2.65,0-4,2.95.81,20.04,1.06,20.04-2l-20.04-2c-.47-2.28-5.5-7.03-4-7.96,7.45.88,17.09-1.39,23.99-.04Z"/>
      <path class="cls-30" d="M211.86,92.42h-4c.25-17.44,2.4-34.53-8.61-49.38-9.51-12.83-18.23-9.07-31.39-18.6,22.06-12.53,44.51,14.4,47.71,34.22,2.51,15.53-3.53,25.68-3.72,33.77Z"/>
      <path class="cls-20" d="M219.86,104.42c-.84-1.44-3.63-2.76-4-4,6.97-4.14,7.13-10.88,8.09-17.91.84-6.08-3.97-21.49,3.87-22.06-2.25,13.21,6.95,36.11-7.96,43.97Z"/>
      <path class="cls-14" d="M167.86,24.44c13.16,9.53,21.87,5.78,31.39,18.6,11.01,14.85,8.86,31.94,8.61,49.38-7.86-13.93-.2-47.61-18.82-55.15-20.16-8.17-20.05,6.77-29.17-20.83,2.98,2.13,5.25,6.01,8,8Z"/>
      <path class="cls-14" d="M151.87,212.39l-39.99-16c17.68,1.46,27.65,2.23,39.99,16Z"/>
      <path class="cls-17" d="M439.83,128.41l-36-16c18.21,1.14,22.64,3.98,36,16Z"/>
      <path class="cls-37" d="M383.84,440.34c48.54-27.75,76,63.15,49.86,87.85-8.09,7.64-18.01,5.46-26.82,8.49-4.11,1.41-1.6,10.93-11,3.62-.78,5.01.97,11.48-.04,16.02l-8-12c-.05-2.52.54-6.13,0-8,8.34.36,13.85-5.3,20-8s12.18-1.85,18.17-7.79c22.68-22.48-3.92-102.75-42.16-68.2-6.05-5.73-.15-10.24,0-12Z"/>
      <path class="cls-35" d="M363.84,436.34c-2.49-.44-5.97.65-8,0-9.26-2.98-13.1-8.79-25.91-8.3-24.46.94-45.86,35.89-42.07,58.33,1.38,8.16,6.51,7.78,8,9.95,1.29,1.89-2.35,9.94,8,8v4c-1.37.34-7.25,3.25-8,4-27.13-18.37-24.35-42.88-4.04-66.05l-7.96-1.94,28-27.99c26.62,7.7,31.78-1.95,51.99,20Z"/>
      <path class="cls-47" d="M327.84,516.33c-3,5.29-9.74,9.96-11.2,14.85-13.66,45.56,72.16,65.48,71.2,13.14l8,12c-6.59,29.56-39.74,32.35-63.98,21.99-25.81-11.04-22.78-27.03-24.01-49.98l20-12Z"/>
      <path class="cls-45" d="M307.85,496.33c9.31,0,18.67-.03,27.98.02,2.02,9-4.3,13.47-7.98,19.98l-20,12c-.14-2.63.43-5.67,0-8l3.92-2-3.92-2c-12.29,22.45-19.76,3.8-12-4,.75-.75,6.63-3.65,8-4,7.42-1.87,21.02,2.04,28.04-6l-28.04,2c-10.35,1.94-6.71-6.11-8-8h4l5.96,3.98,2.04-3.98Z"/>
      <path class="cls-16" d="M371.84,440.34c.38-3.73,3.56-7.07-.01-11.96,13.64-1.46,13.04-.47,12.01,11.96-.15,1.76-6.05,6.27,0,12-4.15,3.75-19.29,35.84-24.03,17.85-.61-2.33,4.01-5.21,4.04-5.85,11.29-3.47,7.13-15.51,8-23.99Z"/>
      <path class="cls-49" d="M455.79,492.33c-11.57-8.62-10.08-30.84-15.92-43.99,13.26,8.31,11.53,30.25,15.92,43.99Z"/>
      <path class="cls-55" d="M419.83,544.36l-19.96,27.95c3.25-10.8,3.64-32.8,19.96-27.95Z"/>
      <path class="cls-54" d="M295.89,544.34l18,35.89c-15.65-7.81-19.9-18.55-18-35.89Z"/>
      <path class="cls-8" d="M363.84,464.34c.23-5.25-.61-10.82,0-16,.26-2.19,3.21-5.44,4-8h4c-.87,8.49,3.29,20.52-8,23.99Z"/>
      <path class="cls-16" d="M363.84,436.34c1.28,1.39,2.16,3.16,4,4-.79,2.55-3.74,5.81-4,8l-8-12c2.02.65,5.51-.44,8,0Z"/>
      <path class="cls-47" d="M307.85,520.33c-.24-1.28.18-2.69,0-4l3.92,2-3.92,2Z"/>
      <path class="cls-11" d="M435.83,212.39c.83,1.75-.8,6.01,0,8,1.61,4,3.87,6.55,8,8,.53,1-.5,2.84,0,4l-1.98,3.92-10.02-7.92c-1.22-1.17-3.32-3.68-4-4-1.98-16.98,1.99-9.66,8-12-.85-1.78-1.92-3.62-4-4,44.35-34.71-57.69-106.17-63.99-39.99-6.59-1.27-8.91-9.48-12-12,18.55-31.42,43.68-29.08,71.73-9.74,22.21,15.32,40.06,53.35,8.26,65.72Z"/>
      <path class="cls-25" d="M443.83,232.39c7.96,18.48,13.02,28.07-4.31,45.68-28.48,28.94-59.35,21.24-81.7-9.67l-2,12.01c-7.39,2.14-7-3.57-7.98-4.03,15.22-28.62,9.84-8.9,14-7.95l6-8.05c15.9,58.78,104.46,6.81,63.99-31.99l10.02,7.92,1.98-3.92Z"/>
      <path class="cls-28" d="M367.84,260.38l-6,8.05c-4.16-.95,1.22-20.67-14,7.95-1.12-.52-2.99.54-4,0,1.11-9.42,1.33-15.87-8-20,2.79-1.19,9.65-5.87,12-8-.57,1.01-1.3,8.48,1.98,7.98l14.02-15.94c-3.3-1.64-14.8,5.82-16,7.96,1.35-1.22,3.47-14.61,14.02-15.9,10.53,6.34,3.78,19.77,5.98,27.89Z"/>
      <path class="cls-24" d="M355.84,156.41c3.09,2.52,5.4,10.73,12,12-.87,9.16.65,18.77-.02,27.97-11.46,3.25-7.3-6.61-11.98-11.98,16.29,9.43,7.6-9.99-8-16v-4c-5.55-12.8-3.92-17.7,8-8Z"/>
      <path class="cls-3" d="M343.84,168.4c1.33.33,2.93-.41,4,0,15.6,6.01,24.29,25.43,8,16-3.14-3.61-11-7.39-16-8l-3.89-6.02,3.89-1.98c1.35.2,2.81-.29,4,0Z"/>
      <path class="cls-36" d="M459.78,240.37c-5.41.79-6.05-10.42-7.13-14.85-1.41-5.74-8.82-6.07,1.2-13.11l5.94,27.96Z"/>
      <path class="cls-6" d="M399.81,304.42c-5.27,10.95-26.21,1.38-27.97-8l27.97,8Z"/>
      <path class="cls-40" d="M315.84,160.41l2.04-3.96c6.2-.93,6.85-.28,5.92,5.92l-3.96,2.04c.35-3.33-.95-3.79-4-4Z"/>
      <path class="cls-40" d="M347.84,168.4c-1.07-.41-2.66.33-4,0l4-4v4Z"/>
      <path class="cls-25" d="M443.83,228.39c-4.13-1.45-6.39-4-8-8,4.32,1.39,6,4.26,8,8Z"/>
      <path class="cls-1" d="M519.82,432.35c6.87,3.8,17.87,3.55,19.99,11.96-.8.63-18.13-3.09-19.99-3.96.05-2.66-.14-5.35,0-8Z"/>
      <path class="cls-42" d="M571.81,184.4c1-1.92-2.77-11.52,5.94-7.96,40.84,16.67,27.86,133.55-29.94,127.9-1.54-1.01,3.63-5.7,4-7.96,4.22-.65,8.33-1.76,12-4,13.08-7.99,39.44-37.05,12.08-21.95,11.89-21.05,22.38-32.56,7.91-54.03-4.91-7.29-10.02-15.68-20-16,.01-.74,3.15-9.56,4-12l15.96,12c1.54-7.98-5.62-12.29-11.96-16Z"/>
      <path class="cls-26" d="M583.81,216.39c14.46,21.47,3.98,32.98-7.91,54.03,27.35-15.1.99,13.96-12.08,21.95l-2.37-3.63-9.63,3.63c.4-3.86-.68-8.49,0-12,24.22-3.39,38.98-42.38,32-63.99Z"/>
      <path class="cls-10" d="M563.81,292.38c-3.67,2.24-7.78,3.35-12,4,.21-1.29-.14-2.68,0-4l9.63-3.63,2.37,3.63Z"/>
      <path class="cls-33" d="M571.81,184.4c6.34,3.71,13.5,8.02,11.96,16l-15.96-12c.45-1.29,3.26-2.57,4-4Z"/>
      <path class="cls-21" d="M79.88,200.4c-.93.23-2.4,6.99-4,8-9.76,6.17-19.22,11.12-28,20,12.14-16.98,8.56-20.85,32-27.99Z"/>
      <path class="cls-15" d="M151.87,276.38c-.37.63-3.28,3.53-4,4-.84.55-2.71-.46-4,0,3.9-3.2-.07-7.6,0-8,.92-5.4,4.91-8.9,3.95-17.53-3.82-34.1-95.4-46.38-83.94,5.53-.83-.59-16.86-2.74-20-4,4.1-3.15,10.1-3.79,11.01-4.91,3.41-4.17-.42-16.3,9.11-24.97,28.54-25.97,116.22,2.48,87.86,49.87Z"/>
      <path class="cls-23" d="M39.88,280.38c-4.39,7.42-16.48,9.03-19.3,22.96-4.27,21.06,23.16,64.34,44.41,60.28,3.85-.73,7.54-6.12,10.89-7.26.38-.13,4.85,3.58,8,0h4c-1.24,12.92-1.11,13.14,12,12,.11.2,7.67,1.84,1.99,4.02-4.4-.89-15.94,1.58-17.76-.31-2.31-2.4,3.58-13.06-4.18-11.67.18,4.01-.81,7.48-4.81,9.31-40.67,18.63-98.82-68.39-35.23-97.33-.52,2.34.79,6.67,0,8Z"/>
      <path class="cls-46" d="M99.87,356.36c5.73.71,3.99-7.88,4-12,37.83,58.6,99.68-43.65,47.99-51.99l-4-12c.72-.47,3.62-3.37,4-4,61.53,39.45,6.3,124.08-51.99,79.98Z"/>
      <path class="cls-5" d="M103.87,344.36c0,4.11,1.73,12.7-4,12-.58-.07-1.8-3.79-3.92-4.06-1.04,6.16,1.03,10.83,3.92,16.05-13.11,1.15-13.24.93-12-12,.72-7.51,5.65-15.59,3.96-23.99-10.06,3.05-8.21,15.34-7.96,23.99-3.15,3.58-7.62-.13-8,0,1.83-8,5.34-30.13,14.07-31.97,10.62-2.23,11.49,16.19,13.93,19.97Z"/>
      <path class="cls-24" d="M63.88,260.38c8.62,6.1,26.19,35.41,6.03,27.96-3.57-1.32-5.56-7.8-6.03-7.96,3.6-14.13-27.68-14.78-4,0-5.97-1.03-13.66.71-20,0,.79-1.33-.52-5.66,0-8,1.81-.82,8.18,1.83,8.13-2.03-.14-9.66-11.36-8.41-4.13-13.97,3.14,1.26,19.17,3.41,20,4Z"/>
      <path class="cls-51" d="M183.82,296.37c-7.69-11.19-28.33-17.46-19.91-31.96,4.73,1.46,10.98,12.13,13.48,16.45,2.91,5.04,8,8.6,6.43,15.52Z"/>
      <path class="cls-38" d="M151.85,376.4c-6.55,13.28-25.22,5.17-35.95,3.91l35.95-3.91Z"/>
      <path class="cls-12" d="M79.88,200.4c2.22-.56,38.67,7.31,44.82,9.22,4.19,1.3,12.11,1,11.15,6.74-20.27-5.77-39-8.24-59.97-7.96,1.6-1.01,3.07-7.77,4-8Z"/>
      <path class="cls-19" d="M159.86,8.44l20.04,2c0,3.06-17.09,2.81-20.04,2-.26-1.28.26-2.72,0-4Z"/>
      <path class="cls-48" d="M407.83,528.32c-6.15,2.7-11.66,8.35-20,8-.52-1.79-14.08-18.27-12-19.96l32,11.96Z"/>
      <path class="cls-32" d="M303.85,504.33l28.04-2c-7.02,8.04-20.62,4.13-28.04,6v-4Z"/>
      <polygon class="cls-35" points="307.85 496.33 305.8 500.31 299.85 496.33 307.85 496.33"/>
      <path class="cls-27" d="M431.83,208.39c2.08.38,3.15,2.21,4,4-6.01,2.34-9.98-4.98-8,12-3.85-1.82-28.57-1.92-19.99-11.94,1.31-1.53,20.03-4.78,23.98-4.06Z"/>
      <path class="cls-13" d="M347.84,248.39c1.19-2.14,12.7-9.6,16-7.96l-14.02,15.94c-3.28.51-2.55-6.96-1.98-7.98Z"/>
      <path class="cls-52" d="M143.87,280.38c-2.93,1.05-5.62,4.1-9.53,3.31l-2.47-3.31c3.8-2.9,8.09-5.24,12-8-.07.39,3.9,4.8,0,8Z"/>
      <path class="cls-53" d="M143.87,280.38c1.29-.46,3.16.55,4,0l4,12c-9.6-1.55-21.92,1.16-31.99-.04,1.27-6.01,7.69-8.67,12-11.96l2.47,3.31c3.9.79,6.6-2.26,9.53-3.31Z"/>
      <path class="cls-41" d="M87.87,356.36h-4c-.25-8.65-2.11-20.95,7.96-23.99,1.69,8.4-3.24,16.48-3.96,23.99Z"/>
      <path class="cls-57" d="M63.88,280.38c-1.07-.37-2.62.24-4,0-23.68-14.78,7.6-14.13,4,0Z"/>
    </g>
  </g>
</svg>