<?xml version="1.0" encoding="UTF-8"?>
<svg id="Layer_2" data-name="Layer 2" xmlns="http://www.w3.org/2000/svg" viewBox="0 0 180 180">
  <defs>
    <style>
      .cls-1 {
        fill: #fff;
      }
    </style>
  </defs>
  <g id="Layer_9" data-name="Layer 9">
    <path class="cls-1" d="M147.83.02c-28.86-.01-85.19-.02-114.53-.02h-.21C15.16.11.59,14.39.02,32.22l-.02,114.48v.2c.11,18.3,14.98,33.1,33.3,33.1h113.4c18.39,0,33.3-14.91,33.3-33.3V33.3C180,15.28,165.7.62,147.83.02ZM56.98,145.17c0,.98-.8,1.78-1.79,1.78h-20.36c-.99,0-1.79-.8-1.79-1.78v-73.5c0-.99.8-1.79,1.79-1.79h20.36c.99,0,1.79.8,1.79,1.79v73.5ZM34.65,54.4c-13.43-13.79,8.34-33.48,20.66-18.99,11.63,13.69-8.45,31.52-20.66,18.99ZM145.19,146.95h-20.37c-.99,0-1.79-.8-1.79-1.78v-43.93c0-1.22-1.45-5.76-2.12-6.97-4.05-7.33-16.57-7.01-21.33-.69-1.37,1.83-3.35,6.91-3.35,9.09v42.5c0,.98-.8,1.78-1.78,1.78h-20.37c-.99,0-1.79-.8-1.79-1.78v-73.5c0-.99.8-1.79,1.79-1.79h19.41c.98,0,1.78.8,1.78,1.79v3.29c0,1.1.89,1.79,1.8,1.79.52,0,1.05-.22,1.42-.73.08-.11.17-.21.27-.3,18.9-16.91,48.94-6.51,48.2,20.73v48.72c0,.98-.79,1.78-1.77,1.78Z"/>
  </g>
</svg>