<?xml version="1.0" encoding="UTF-8"?>
<svg id="Layer_2" data-name="Layer 2" xmlns="http://www.w3.org/2000/svg" viewBox="0 0 195.79 195.79">
  <defs>
    <style>
      .cls-1 {
        fill: #fff;
      }
    </style>
  </defs>
  <g id="Layer_1-2" data-name="Layer 1">
    <path class="cls-1" d="M97.9,0C43.83,0,0,43.83,0,97.9s43.83,97.9,97.9,97.9,97.9-43.83,97.9-97.9S151.96,0,97.9,0ZM67.21,152.26h-22.74v-73.11h22.74v73.11ZM55.86,69.17c-7.28,0-13.18-5.9-13.18-13.18s5.9-13.18,13.18-13.18,13.18,5.9,13.18,13.18-5.9,13.18-13.18,13.18ZM152.4,152.26h-22.71v-35.54c0-8.48-.14-19.39-11.79-19.39s-13.64,9.21-13.64,18.77v36.16h-22.69l-.09-73.11h21.77v10h.41c4.44-7.59,12.7-12.12,21.49-11.79,23.03,0,27.25,15.13,27.25,34.81v40.1Z"/>
  </g>
</svg>