<?xml version="1.0" encoding="UTF-8"?>
<svg id="Layer_2" data-name="Layer 2" xmlns="http://www.w3.org/2000/svg" viewBox="0 0 605.16 656.04">
  <defs>
    <style>
      .cls-1 {
        fill: #dfbece;
      }

      .cls-2 {
        fill: #cbd3e6;
      }

      .cls-3 {
        fill: #e0bfcf;
      }

      .cls-4 {
        fill: #e1bfcf;
      }

      .cls-5 {
        fill: #e0bece;
      }
    </style>
  </defs>
  <g id="onion">
    <g>
      <path class="cls-5" d="M295.47,632.64c-22.81,24.02-55.95,30.88-85.86,14.32-4.06-2.25-20.97-22.55-22.39-25.91-21.85-51.81,27.12-116.79,83.32-96.82,46.67,16.58,42.49,71.18,24.93,108.42ZM237.48,640.37c11.78,3.12,8.45,7.03,23.2,0,32.97-15.71,47.16-70.76,15.52-94.77-57.79-43.85-123.49,72.35-38.72,94.77Z"/>
      <path class="cls-4" d="M523.57,497.34c7.6,26.49,2.24,68.18-21.89,84.42-70.34,47.32-147.14-54.52-90.22-107.61,41.32-38.54,84.53-18.04,112.12,23.19ZM452.95,471.18c-65.5,11.42-56.16,107.89,10.1,106.03,74.57-2.1,55.71-117.5-10.1-106.03Z"/>
      <path class="cls-2" d="M260.68,640.37c-14.75,7.03-11.41,3.12-23.2,0h23.2Z"/>
      <path class="cls-5" d="M426.92,126.23c-37.23,22.07-104.8-4-111.85-48.56-14.16-89.57,120.88-106.63,137.23-25.09,4.02,20.03-7.34,62.95-25.38,73.65ZM371.73,15.03c-57.73,11.86-53.91,100.5,14.78,103.59,72.33,3.25,63.15-119.59-14.78-103.59Z"/>
      <path class="cls-3" d="M175.62,164.89c-.21.66-5.14,6.9-7.73,11.6-49.78,63.42-150.96,23.5-122.7-58.9,27.83-81.16,160.88-46.74,130.43,47.3ZM97.24,88.48c-21.47,4.41-40.96,29.73-41.65,51.42-1.91,60.48,82.92,71.84,105.49,16.28,15.38-37.86-25.29-75.62-63.84-67.7Z"/>
      <path class="cls-4" d="M581.56,230.61c2.81,2.79,19.29,30.97,20.6,35.46,15.58,53.37-32.12,97.74-83.52,87.36-12.86-2.6-47.88-26.19-53.06-37.77-11.81-26.42-.01-76.5,25.11-92.79,20.59-13.35,73.67-9.38,90.87,7.75ZM510.84,231.44c-28.43,6.47-39.41,55.39-26.68,79.18,28.34,52.99,121.99,23.18,102.1-40.29-10.52-33.55-41.94-46.52-75.42-38.9Z"/>
      <path class="cls-1" d="M310.94,246.07c43.33,6.27,69.89,56.62,54.12,96.64-3.15,7.99-25.77,34.23-34.59,36.94-15.32,4.7-47.86,1.13-62.07-6.01-44.85-22.55-50.45-104.23,3.87-123.7,8.72-3.13,29.44-5.2,38.66-3.87ZM290.63,262.43c-59.38,9.36-54.31,92.95,3.82,102.54,18.27,3.01,31.11,2.01,43.6-12.55,35.64-41.56,4.2-98.13-47.42-89.99Z"/>
      <path class="cls-5" d="M129.23,431.62c-10.7,37.71-63.06,62.67-98,41.94-4.33-2.57-24.3-23.33-25.72-26.47-16.59-36.81,5.58-94.35,48.66-100.17,53.23-7.19,89.69,33.13,75.06,84.7ZM50.81,362.83c-18.51,4.19-36.78,32.26-36.24,50.8,1.94,66.57,93.67,71.11,102.14-.47,4.18-35.34-35-57.32-65.9-50.33Z"/>
    </g>
  </g>
</svg>