<?xml version="1.0" encoding="UTF-8"?>
<svg id="Layer_2" data-name="Layer 2" xmlns="http://www.w3.org/2000/svg" viewBox="0 0 665.29 664.47">
  <defs>
    <style>
      .cls-1 {
        fill: #eb9a86;
      }

      .cls-2 {
        fill: #e98874;
      }

      .cls-3 {
        fill: #eeb1b0;
      }

      .cls-4 {
        fill: #dd6457;
      }

      .cls-5 {
        fill: #e47e71;
      }

      .cls-6 {
        fill: #c96857;
      }

      .cls-7 {
        fill: #dc6d5e;
      }

      .cls-8 {
        fill: #e18a85;
      }

      .cls-9 {
        fill: #e99f9b;
      }

      .cls-10 {
        fill: #e6907c;
      }

      .cls-11 {
        fill: #eaa196;
      }

      .cls-12 {
        fill: #df7869;
      }

      .cls-13 {
        fill: #dd7b67;
      }

      .cls-14 {
        fill: #e48b7f;
      }

      .cls-15 {
        fill: #e47e6e;
      }

      .cls-16 {
        fill: #ecbbb5;
      }

      .cls-17 {
        fill: #ea948a;
      }

      .cls-18 {
        fill: #f7d0cf;
      }

      .cls-19 {
        fill: #dd6d57;
      }

      .cls-20 {
        fill: #e89e93;
      }

      .cls-21 {
        fill: #de7a6c;
      }

      .cls-22 {
        fill: #e75339;
      }

      .cls-23 {
        fill: #e74745;
      }

      .cls-24 {
        fill: #de796b;
      }

      .cls-25 {
        fill: #e35744;
      }

      .cls-26 {
        fill: #e39790;
      }

      .cls-27 {
        fill: #f3b19f;
      }

      .cls-28 {
        fill: #eaa49f;
      }

      .cls-29 {
        fill: #cd2527;
      }

      .cls-30 {
        fill: #ed8c72;
      }

      .cls-31 {
        fill: #ec8e7d;
      }

      .cls-32 {
        fill: #e49992;
      }

      .cls-33 {
        fill: #eb9d8b;
      }

      .cls-34 {
        fill: #dd7161;
      }

      .cls-35 {
        fill: #de7766;
      }

      .cls-36 {
        fill: #e0806e;
      }

      .cls-37 {
        fill: #da6752;
      }

      .cls-38 {
        fill: #e77356;
      }

      .cls-39 {
        fill: #eab1a9;
      }

      .cls-40 {
        fill: #e18578;
      }

      .cls-41 {
        fill: #eaa39d;
      }

      .cls-42 {
        fill: #e4796e;
      }

      .cls-43 {
        fill: #ea9486;
      }

      .cls-44 {
        fill: #ebc2bf;
      }

      .cls-45 {
        fill: #f1a6a1;
      }

      .cls-46 {
        fill: #e28476;
      }

      .cls-47 {
        fill: #e6443f;
      }

      .cls-48 {
        fill: #d43028;
      }

      .cls-49 {
        fill: #e4917d;
      }

      .cls-50 {
        fill: #d92f28;
      }

      .cls-51 {
        fill: #ea9b92;
      }

      .cls-52 {
        fill: #ea5c3f;
      }

      .cls-53 {
        fill: #e54b43;
      }

      .cls-54 {
        fill: #e4a094;
      }

      .cls-55 {
        fill: #e28b7f;
      }

      .cls-56 {
        fill: #f4b09f;
      }

      .cls-57 {
        fill: #f19778;
      }

      .cls-58 {
        fill: #e28a7e;
      }

      .cls-59 {
        fill: #dc7060;
      }

      .cls-60 {
        fill: #d76750;
      }

      .cls-61 {
        fill: #edc4c1;
      }

      .cls-62 {
        fill: #e5a49b;
      }

      .cls-63 {
        fill: #e0463e;
      }

      .cls-64 {
        fill: #e2897c;
      }

      .cls-65 {
        fill: #eca5a0;
      }

      .cls-66 {
        fill: #f0babb;
      }

      .cls-67 {
        fill: #ed9e98;
      }

      .cls-68 {
        fill: #e48b7e;
      }

      .cls-69 {
        fill: #f1cecd;
      }

      .cls-70 {
        fill: #ecb9bb;
      }

      .cls-71 {
        fill: #e7bbb8;
      }

      .cls-72 {
        fill: #f3d0ce;
      }

      .cls-73 {
        fill: #e75439;
      }

      .cls-74 {
        fill: #efa79b;
      }

      .cls-75 {
        fill: #e18b7e;
      }

      .cls-76 {
        fill: #e07a63;
      }

      .cls-77 {
        fill: #e44a4a;
      }

      .cls-78 {
        fill: #e4887a;
      }

      .cls-79 {
        fill: #ebaaa7;
      }

      .cls-80 {
        fill: #e78b7b;
      }

      .cls-81 {
        fill: #e45e42;
      }

      .cls-82 {
        fill: #e57e72;
      }

      .cls-83 {
        fill: #d44f3e;
      }

      .cls-84 {
        fill: #e89990;
      }

      .cls-85 {
        fill: #e49081;
      }

      .cls-86 {
        fill: #e1816c;
      }

      .cls-87 {
        fill: #e57e73;
      }

      .cls-88 {
        fill: #ecc1be;
      }

      .cls-89 {
        fill: #e79b93;
      }

      .cls-90 {
        fill: #edaba8;
      }

      .cls-91 {
        fill: #d44c3b;
      }

      .cls-92 {
        fill: #e2473a;
      }

      .cls-93 {
        fill: #e59986;
      }

      .cls-94 {
        fill: #e8a29e;
      }

      .cls-95 {
        fill: #e99c88;
      }

      .cls-96 {
        fill: #d93029;
      }

      .cls-97 {
        fill: #edb0a3;
      }

      .cls-98 {
        fill: #e58c80;
      }

      .cls-99 {
        fill: #d96955;
      }

      .cls-100 {
        fill: #e48e7e;
      }

      .cls-101 {
        fill: #e35341;
      }

      .cls-102 {
        fill: #e88c76;
      }

      .cls-103 {
        fill: #d53429;
      }

      .cls-104 {
        fill: #d45143;
      }

      .cls-105 {
        fill: #f3d7d9;
      }

      .cls-106 {
        fill: #eebbbd;
      }

      .cls-107 {
        fill: #db4c3c;
      }

      .cls-108 {
        fill: #df473e;
      }

      .cls-109 {
        fill: #d8675b;
      }

      .cls-110 {
        fill: #e78576;
      }

      .cls-111 {
        fill: #f2d4d4;
      }

      .cls-112 {
        fill: #df7e76;
      }

      .cls-113 {
        fill: #e88f7a;
      }

      .cls-114 {
        fill: #e38c7e;
      }

      .cls-115 {
        fill: #e6a89e;
      }

      .cls-116 {
        fill: #dc796a;
      }

      .cls-117 {
        fill: #de6c56;
      }

      .cls-118 {
        fill: #eba397;
      }

      .cls-119 {
        fill: #e36240;
      }

      .cls-120 {
        fill: #d92f27;
      }

      .cls-121 {
        fill: #e4826c;
      }

      .cls-122 {
        fill: #da6c59;
      }

      .cls-123 {
        fill: #dd7564;
      }

      .cls-124 {
        fill: #eca18f;
      }

      .cls-125 {
        fill: #e3877a;
      }

      .cls-126 {
        fill: #edb0a4;
      }

      .cls-127 {
        fill: #eaa697;
      }

      .cls-128 {
        fill: #cd2627;
      }

      .cls-129 {
        fill: #e0433d;
      }

      .cls-130 {
        fill: #d44a3a;
      }

      .cls-131 {
        fill: #e16455;
      }

      .cls-132 {
        fill: #d72e28;
      }

      .cls-133 {
        fill: #eba796;
      }

      .cls-134 {
        fill: #e49787;
      }

      .cls-135 {
        fill: #e48d82;
      }

      .cls-136 {
        fill: #e9937e;
      }

      .cls-137 {
        fill: #d73027;
      }

      .cls-138 {
        fill: #e08a7e;
      }

      .cls-139 {
        fill: #e3494a;
      }

      .cls-140 {
        fill: #e78677;
      }

      .cls-141 {
        fill: #e76340;
      }

      .cls-142 {
        fill: #e9a08f;
      }

      .cls-143 {
        fill: #e27164;
      }

      .cls-144 {
        fill: #eca08e;
      }

      .cls-145 {
        fill: #da7364;
      }

      .cls-146 {
        fill: #e9af9e;
      }

      .cls-147 {
        fill: #e6745c;
      }

      .cls-148 {
        fill: #da4f37;
      }

      .cls-149 {
        fill: #e25f42;
      }

      .cls-150 {
        fill: #ecb6aa;
      }

      .cls-151 {
        fill: #d66256;
      }

      .cls-152 {
        fill: #e79990;
      }

      .cls-153 {
        fill: #e79e8d;
      }

      .cls-154 {
        fill: #eaa493;
      }

      .cls-155 {
        fill: #e4413c;
      }

      .cls-156 {
        fill: #f6d5d6;
      }

      .cls-157 {
        fill: #cd2427;
      }

      .cls-158 {
        fill: #f3b7b6;
      }

      .cls-159 {
        fill: #e74846;
      }

      .cls-160 {
        fill: #df8570;
      }

      .cls-161 {
        fill: #e79c8a;
      }

      .cls-162 {
        fill: #ecaeac;
      }

      .cls-163 {
        fill: #e4a8a0;
      }

      .cls-164 {
        fill: #eba193;
      }

      .cls-165 {
        fill: #e87a5a;
      }

      .cls-166 {
        fill: #e48a7d;
      }

      .cls-167 {
        fill: #eca098;
      }

      .cls-168 {
        fill: #e6b5b1;
      }

      .cls-169 {
        fill: #e38b86;
      }

      .cls-170 {
        fill: #db6d5a;
      }

      .cls-171 {
        fill: #ed9c94;
      }

      .cls-172 {
        fill: #eca696;
      }

      .cls-173 {
        fill: #e28477;
      }

      .cls-174 {
        fill: #eba393;
      }

      .cls-175 {
        fill: #f08e70;
      }

      .cls-176 {
        fill: #e49b93;
      }

      .cls-177 {
        fill: #e48a7e;
      }

      .cls-178 {
        fill: #e18372;
      }

      .cls-179 {
        fill: #e35f43;
      }

      .cls-180 {
        fill: #e67655;
      }

      .cls-181 {
        fill: #e74847;
      }

      .cls-182 {
        fill: #db614d;
      }

      .cls-183 {
        fill: #ea938a;
      }

      .cls-184 {
        fill: #eda49d;
      }

      .cls-185 {
        fill: #e4403a;
      }

      .cls-186 {
        fill: #e6958d;
      }

      .cls-187 {
        fill: #e47d72;
      }

      .cls-188 {
        fill: #dc493d;
      }

      .cls-189 {
        fill: #dc6c5c;
      }

      .cls-190 {
        fill: #e5a6a4;
      }

      .cls-191 {
        fill: #e8514e;
      }

      .cls-192 {
        fill: #d76151;
      }

      .cls-193 {
        fill: #d8513f;
      }

      .cls-194 {
        fill: #ebaaa8;
      }

      .cls-195 {
        fill: #e5574d;
      }

      .cls-196 {
        fill: #e5927f;
      }

      .cls-197 {
        fill: #df7a6b;
      }

      .cls-198 {
        fill: #e48c7f;
      }

      .cls-199 {
        fill: #eeab9d;
      }

      .cls-200 {
        fill: #e89b93;
      }

      .cls-201 {
        fill: #f2bcbb;
      }

      .cls-202 {
        fill: #e28a7b;
      }

      .cls-203 {
        fill: #f0cfcf;
      }

      .cls-204 {
        fill: #d8685c;
      }

      .cls-205 {
        fill: #e3836e;
      }

      .cls-206 {
        fill: #e79c90;
      }

      .cls-207 {
        fill: #eeb8ac;
      }

      .cls-208 {
        fill: #e38478;
      }

      .cls-209 {
        fill: #efb0a5;
      }

      .cls-210 {
        fill: #e58e84;
      }

      .cls-211 {
        fill: #da6e5b;
      }

      .cls-212 {
        fill: #eeaea1;
      }

      .cls-213 {
        fill: #eba599;
      }

      .cls-214 {
        fill: #e08078;
      }

      .cls-215 {
        fill: #e7a09b;
      }

      .cls-216 {
        fill: #ea9e8c;
      }

      .cls-217 {
        fill: #e4403c;
      }

      .cls-218 {
        fill: #eaa195;
      }

      .cls-219 {
        fill: #db6956;
      }

      .cls-220 {
        fill: #e68982;
      }

      .cls-221 {
        fill: #eeb1af;
      }

      .cls-222 {
        fill: #e06041;
      }

      .cls-223 {
        fill: #e28577;
      }

      .cls-224 {
        fill: #dd7c6f;
      }

      .cls-225 {
        fill: #eb5f40;
      }

      .cls-226 {
        fill: #e17764;
      }

      .cls-227 {
        fill: #efa49e;
      }

      .cls-228 {
        fill: #d93129;
      }

      .cls-229 {
        fill: #eea89d;
      }

      .cls-230 {
        fill: #e1958d;
      }

      .cls-231 {
        fill: #e59e99;
      }

      .cls-232 {
        fill: #f4af9d;
      }

      .cls-233 {
        fill: #eb8f7e;
      }

      .cls-234 {
        fill: #cc614e;
      }

      .cls-235 {
        fill: #ea9683;
      }

      .cls-236 {
        fill: #e07e70;
      }

      .cls-237 {
        fill: #dd6f5d;
      }

      .cls-238 {
        fill: #e27e73;
      }

      .cls-239 {
        fill: #df7d6e;
      }

      .cls-240 {
        fill: #de7869;
      }

      .cls-241 {
        fill: #e08079;
      }

      .cls-242 {
        fill: #df816e;
      }

      .cls-243 {
        fill: #eb5f41;
      }

      .cls-244 {
        fill: #dd6f5e;
      }

      .cls-245 {
        fill: #e1866e;
      }

      .cls-246 {
        fill: #e08174;
      }

      .cls-247 {
        fill: #d43c2c;
      }

      .cls-248 {
        fill: #e68f85;
      }

      .cls-249 {
        fill: #e24641;
      }

      .cls-250 {
        fill: #da6b5f;
      }

      .cls-251 {
        fill: #e28d79;
      }

      .cls-252 {
        fill: #e0897a;
      }

      .cls-253 {
        fill: #e2867a;
      }

      .cls-254 {
        fill: #d55244;
      }

      .cls-255 {
        fill: #d82f28;
      }

      .cls-256 {
        fill: #dc7161;
      }

      .cls-257 {
        fill: #e47c71;
      }

      .cls-258 {
        fill: #f29d8a;
      }

      .cls-259 {
        fill: #f1afac;
      }

      .cls-260 {
        fill: #da6b5e;
      }

      .cls-261 {
        fill: #d4362b;
      }

      .cls-262 {
        fill: #d94635;
      }

      .cls-263 {
        fill: #dc6e59;
      }

      .cls-264 {
        fill: #e98f79;
      }

      .cls-265 {
        fill: #e6867e;
      }

      .cls-266 {
        fill: #eba9a5;
      }

      .cls-267 {
        fill: #d43229;
      }

      .cls-268 {
        fill: #d86e59;
      }

      .cls-269 {
        fill: #e08470;
      }

      .cls-270 {
        fill: #f5ccc8;
      }

      .cls-271 {
        fill: #e68069;
      }

      .cls-272 {
        fill: #d34638;
      }

      .cls-273 {
        fill: #e27865;
      }

      .cls-274 {
        fill: #dc7261;
      }

      .cls-275 {
        fill: #df695c;
      }

      .cls-276 {
        fill: #e55742;
      }

      .cls-277 {
        fill: #f1aeab;
      }

      .cls-278 {
        fill: #df7667;
      }

      .cls-279 {
        fill: #edacaa;
      }

      .cls-280 {
        fill: #eea39d;
      }

      .cls-281 {
        fill: #df675b;
      }

      .cls-282 {
        fill: #d82e28;
      }

      .cls-283 {
        fill: #d63229;
      }

      .cls-284 {
        fill: #f19c8c;
      }

      .cls-285 {
        fill: #df806f;
      }

      .cls-286 {
        fill: #de7f71;
      }

      .cls-287 {
        fill: #ea5d3f;
      }

      .cls-288 {
        fill: #e54846;
      }

      .cls-289 {
        fill: #e8573c;
      }

      .cls-290 {
        fill: #e7b6b1;
      }

      .cls-291 {
        fill: #ea9f8e;
      }

      .cls-292 {
        fill: #e0816f;
      }

      .cls-293 {
        fill: #e4897c;
      }

      .cls-294 {
        fill: #ea9d97;
      }

      .cls-295 {
        fill: #eaaaa8;
      }

      .cls-296 {
        fill: #e48771;
      }

      .cls-297 {
        fill: #f0b4a5;
      }

      .cls-298 {
        fill: #eec6c3;
      }

      .cls-299 {
        fill: #e69683;
      }

      .cls-300 {
        fill: #db3e3d;
      }

      .cls-301 {
        fill: #de7c6d;
      }

      .cls-302 {
        fill: #df5f3d;
      }

      .cls-303 {
        fill: #d83529;
      }

      .cls-304 {
        fill: #d83328;
      }

      .cls-305 {
        fill: #e38a76;
      }

      .cls-306 {
        fill: #eaada4;
      }

      .cls-307 {
        fill: #d93329;
      }

      .cls-308 {
        fill: #d73129;
      }

      .cls-309 {
        fill: #d34637;
      }

      .cls-310 {
        fill: #e98973;
      }

      .cls-311 {
        fill: #e07461;
      }

      .cls-312 {
        fill: #e59784;
      }

      .cls-313 {
        fill: #e99d8c;
      }

      .cls-314 {
        fill: #efb6b6;
      }

      .cls-315 {
        fill: #e79987;
      }

      .cls-316 {
        fill: #e28273;
      }

      .cls-317 {
        fill: #e89f8d;
      }

      .cls-318 {
        fill: #de403e;
      }

      .cls-319 {
        fill: #d73028;
      }

      .cls-320 {
        fill: #d55848;
      }

      .cls-321 {
        fill: #eba19b;
      }

      .cls-322 {
        fill: #eb8d77;
      }

      .cls-323 {
        fill: #eaaa9f;
      }

      .cls-324 {
        fill: #e86844;
      }

      .cls-325 {
        fill: #eb9689;
      }

      .cls-326 {
        fill: #df856d;
      }

      .cls-327 {
        fill: #f4c1bd;
      }

      .cls-328 {
        fill: #e6775e;
      }

      .cls-329 {
        fill: #db3e3c;
      }

      .cls-330 {
        fill: #d24338;
      }

      .cls-331 {
        fill: #e6a79d;
      }

      .cls-332 {
        fill: #d4503e;
      }

      .cls-333 {
        fill: #d5473d;
      }

      .cls-334 {
        fill: #e7927e;
      }

      .cls-335 {
        fill: #eabfbc;
      }

      .cls-336 {
        fill: #e6453e;
      }

      .cls-337 {
        fill: #dd7060;
      }

      .cls-338 {
        fill: #d65c48;
      }

      .cls-339 {
        fill: #e58d82;
      }

      .cls-340 {
        fill: #eccac9;
      }

      .cls-341 {
        fill: #d23329;
      }

      .cls-342 {
        fill: #eca6a1;
      }

      .cls-343 {
        fill: #e37e6e;
      }

      .cls-344 {
        fill: #e28974;
      }

      .cls-345 {
        fill: #e1846d;
      }

      .cls-346 {
        fill: #f2aa98;
      }

      .cls-347 {
        fill: #e35348;
      }

      .cls-348 {
        fill: #e7775f;
      }

      .cls-349 {
        fill: #d44d3b;
      }

      .cls-350 {
        fill: #da3329;
      }

      .cls-351 {
        fill: #e89f99;
      }

      .cls-352 {
        fill: #de7767;
      }

      .cls-353 {
        fill: #e4897e;
      }

      .cls-354 {
        fill: #da6651;
      }

      .cls-355 {
        fill: #e99784;
      }

      .cls-356 {
        fill: #f1ac9f;
      }

      .cls-357 {
        fill: #e39086;
      }

      .cls-358 {
        fill: #e48d7f;
      }

      .cls-359 {
        fill: #e79e98;
      }

      .cls-360 {
        fill: #e58278;
      }

      .cls-361 {
        fill: #e37255;
      }

      .cls-362 {
        fill: #ebb6af;
      }

      .cls-363 {
        fill: #e04c3a;
      }

      .cls-364 {
        fill: #d94838;
      }

      .cls-365 {
        fill: #d62d27;
      }

      .cls-366 {
        fill: #e16253;
      }

      .cls-367 {
        fill: #e58177;
      }

      .cls-368 {
        fill: #d53229;
      }

      .cls-369 {
        fill: #ed8a6e;
      }

      .cls-370 {
        fill: #de7f72;
      }

      .cls-371 {
        fill: #edaca7;
      }

      .cls-372 {
        fill: #e58176;
      }

      .cls-373 {
        fill: #eaa99c;
      }

      .cls-374 {
        fill: #d53b2b;
      }
    </style>
  </defs>
  <g id="pepp">
    <g>
      <path class="cls-157" d="M452.15,551.92c2.42.54,8.5,6.24,12,8,4.79,2.41,11.49,3.63,12,4,1.93,1.41,8.16,10.5,8.05,13.96l-8.05,2.04-1.98-3.92c-1.93,1.92-7.54,6.27-6.01,7.88.53.56,5.53-.16,7.99.04,1.26.1,2.74.12,4,0,1.13,1.4,2.39,3.19,4,4v4c-3.26,1.36-5.4,1.4-3.98,5.96l3.98,2.04c.65,7.39,6.41,4.67,0,16-4.09-.44-5.52,2.05-8,4-1.45,1.14-2.69,2.68-4,4-2.13,2.14-7.81,3.6-8.05,6.62-.27,3.42,3.91,7.38,4.05,9.38-6.72-.76-12.07.3-15.92,6.02l3.92,1.98c-19.61,4.2-19.18,5.41-39.99,0l-4-8c1.3-.2,2.73.27,4,0,4.56-.96,11.92,2.65,12-4,.02-1.9.07-3.18-2.06-3.97l-5.94-.03c-5.08-2.81-7.74-5.14-12-8,2.62.23,5.36-.05,8-.04-1.71-7.91-13.9-12.09-16-3.96-9.71,3.63,6.82,7.35,7.56,8.56,1.06,1.74-5.36,6.56-3.6,11.43l-16.34-13.85c.78-5.9-3.56-19.53-3.62-22.14-.48-22.11,10.94-39.84,32-47.99.77-.3,15.18-3.9,16-4,4.52-.56,16.08-.88,20,0ZM456.13,567.89c4.54-4.64-1.71-12.87-7.96-1.96-.5,3.48,7.67,2.25,7.96,1.96ZM416.11,575.89c2.87-5.62-2.53-10.67-3.92-7.96-2.87,5.62,2.53,10.67,3.92,7.96ZM444.13,571.93c-.29-.29-8.46-1.52-7.96,1.96,6.25,10.91,12.5,2.68,7.96-1.96ZM452.15,583.91c8.91.17,14,2.91,11.98-7.98l-11.98-.02-3.98,5.96,3.98,2.04ZM444.13,587.93h-7.96c-1.3,5.89,1.76,8.31,6,11.96l1.96-11.96ZM464.12,591.93c-4.36-4.36-12.32,3.59-7.96,7.96,4.36,4.36,12.32-3.59,7.96-7.96ZM408.15,599.91c-11.4,16.19,8.12,19.03,4,0-.36-1.66.45-3.27-2-3.92-2.58,0-1.61,3.36-2,3.92ZM456.13,603.95c-5.62-2.87-10.67,2.53-7.96,3.92,5.62,2.87,10.67-2.53,7.96-3.92ZM448.13,619.92c-4.36-4.36-12.32,3.59-7.96,7.96,4.36,4.36,12.32-3.59,7.96-7.96ZM460.11,635.88c2.87-5.62-2.53-10.67-3.92-7.96-2.87,5.62,2.53,10.67,3.92,7.96ZM452.13,631.92c-4.36-4.36-12.32,3.59-7.96,7.96,4.36,4.36,12.32-3.59,7.96-7.96Z"/>
      <path class="cls-282" d="M504.14,587.91c-.67,29.04-10.62,44.38-36,55.99.3-.45.08-2.76,0-4-.14-2-4.31-5.95-4.05-9.38.24-3.02,5.92-4.48,8.05-6.62h4c4.39-1.4,5.91-4.31,8-8,6.41-11.33.65-8.61,0-16-.05-.56,3.5-4.91,0-8,1.96-.82,6.29.85,8,0,.85-.42,3.17.7,3.96-2.02,4.31-14.93-4.76-7.07-15.96-5.98-1.26.12-2.74.1-4,0v-4l8.05-2.04c.11-3.47-6.12-12.55-8.05-13.96,4.25,4.25,12.43-3.52,7.98-7.98-4.45-4.45-12.23,3.73-7.98,7.98-.51-.37-7.21-1.59-12-4,14.2,1.96,5.62-5.91,3.95-15.99l-15.95,7.99c-3.92-.88-15.48-.56-20,0,.9-.9-.61-4.09-2-4-4.37.3.12,5.88,2,4-.82.1-15.23,3.7-16,4,9.97-3.73.62-19.92-7.98-11.98-2.69,2.49,4.12,13.42,7.98,11.98-21.05,8.15-32.48,25.88-32,47.99l-8-8c.04-5.32-.24-10.69,0-16,.06-1.33-.09-2.67,0-4,4.76-7.31,10.39-13.39,16-20,1.4,4.65,8.15,4.75,12,4,1.68-.33,3.25.42,3.92-2,0-2.59-3.23-1.57-3.92-2-3.64-2.24-7.87-3.15-12-4,9.82-10.32,20.72-12.8,32-20,1.33.04,2.68-.09,4,0,45.74,3.26,60.86,9.42,75.99,55.99Z"/>
      <path class="cls-103" d="M188.18,567.91c.22.18,1.56,6.44,4,4-3.79,2.09-20.88,17.1-22.19,20.1-2.57,5.91,2.56,10.56,2.25,13.57-.38,3.65-7.38,1.78-7.91,2.43-6.33,7.75,6.1,7.85,6.74,8.78,3.51,5.15-1.1,23.81,13.12,29.38,4.5,1.76,12.19-10.7,19.99-2.27v8c-1.28.11-3.98-.2-4,0,.9-.9-.61-4.09-2-4-4.37.3.12,5.88,2,4-1.3,11.99,29.04,7.84,36,4-.46,2.44.31,5.43,0,8-10.38,1.55-38.56-.07-47.99-4-35.38-14.74-37.39-75.44-8-99.98,1.16,4.61,5.14,5.62,8,8Z"/>
      <path class="cls-308" d="M288.17,603.91c-.1,2.66.17,5.35,0,8-5.81,19.41-14.98,29.36-28,43.99-1.89.78-5.84-.72-8,0v-4c-5.71-8.04-3.04-13.92,4-20-.38,2.93,1.06,4.44,4,4,4.82-.72,5.9-4.51,8-8,6.33-10.5,1.08-10.74-12.01-12.04,1.76-9.03,3.77-8.9,4.01-15.96.05-1.33-.03-2.67,0-4v-4c2.63.21,7.64,4.61,12,4,3.89-.54,6.64-4.48,8-8,2.07,5.31,5.48,10.81,8,16ZM276.15,599.95c-5.62-2.87-10.67,2.53-7.96,3.92,5.62,2.87,10.67-2.53,7.96-3.92ZM266.17,607.9v4c2.6-1.33,2.6-2.67,0-4Z"/>
      <path class="cls-247" d="M384.16,603.91c.06,2.61,4.4,16.25,3.62,22.14l16.34,13.85c-1.76-4.87,4.66-9.69,3.6-11.43-.74-1.21-17.26-4.93-7.56-8.56-.24,5.43,4.28,3.67,8,4,4.26,2.86,6.92,5.19,12,8,2.35,1.3,4.33,4.25,8,4-.08,6.65-7.44,3.04-12,4l-2-3.92-2,3.92,4,8c-8.52-2.21-21.15-6.9-28-12l-12-23.99c-.15-1.31.1-2.67,0-4-.29-3.93-.03-8.04,0-12l8,8Z"/>
      <path class="cls-234" d="M252.17,651.89v4c-4.27,1.42-9.85,7.08-16,8,.31-2.57-.46-5.56,0-8,.27-1.42-.45-3.15,0-4,5.07.68,10.81-.46,16,0Z"/>
      <path class="cls-238" d="M468.15,639.9c.08,1.24.3,3.55,0,4-.25.37-6.7,1.09-8,4-1.2.33-2.7-.28-4,0l-3.92-1.98c3.85-5.72,9.2-6.78,15.92-6.02Z"/>
      <path class="cls-157" d="M468.15,643.9c-2.57,1.18-4.17,2.94-8,4,1.3-2.91,7.75-3.63,8-4Z"/>
      <path class="cls-29" d="M104.19,459.94c3.66,1.24,5.98,3.26,8,4,3.18,1.17,11.46,7.78,16,4,.7,5.34,8.42,11.35,8.26,17.87-.09,3.54-7.58,1.55-8.26,2.13l-7.96-8c-1.14,8.4-.41,9.03,7.96,8-.46.39,2.36,4.52,0,12-.21.67-6.18.76-4.01,7.98,14.84-1.04,15.15.59,8.01,12.01h-4c-4.44,1.33-5.99,4.23-8,8-2.76,5.19-4.28,10.04-4,16-9.46-.17-13.87-2.69-12,8-5.67,1.27-7.86,4.44-18,4.43-10.13-.02-11.99-2.95-18-4.43l-4.05-7.96c2.21-1.41,11.75,2.67,12.05-4.04.27-6.2-5.54-2.97-8-4-18.03-7.54-5.52,1.11-17.94,3.97-18.4-7.26-7.51-27.12-14.06-31.96-.81-.6-2.84.54-4,0-2.7-1.26-5.27-2.79-8-4-.85-4.77.58-10.91,0-16h4c.19,9.31-3.03,13.97,7.99,11.97-5.24-9.68,6.91-27.14-7.99-23.96,2.07-9.23,8.08-11.02,12-16,1.15,1.39,2.38,3.21,4,4,10.2,4.98,10.8-3.15,16-4,1.29-.21,2.69.17,4,0,2.59-.33,5.41.34,8,0,14.88-1.94,16.59-5.2,32,0ZM108.19,471.89l-7.96-7.96c-1.14,8.35-.4,9.1,7.96,7.96ZM68.18,471.96c-4.64-4.54-12.87,1.71-1.96,7.96,3.48.5,2.25-7.67,1.96-7.96ZM112.21,479.96l-23.99-4.01,10.66,11.85c8.51.5,15.59,3.43,13.33-7.84ZM92.15,499.91c2.87-5.62-2.53-10.67-3.92-7.96-2.87,5.62,2.53,10.67,3.92,7.96ZM112.15,503.91c2.87-5.62-2.53-10.67-3.92-7.96-2.87,5.62,2.53,10.67,3.92,7.96ZM64.2,499.97c-8.36-1.14-9.1-.4-7.96,7.96l7.96-7.96ZM102.19,507.93v4c2.6-1.33,2.6-2.67,0-4ZM56.18,523.96c-5.62-2.87-10.67,2.53-7.96,3.92,5.62,2.87,10.67-2.53,7.96-3.92ZM96.15,531.9c2.87-5.62-2.53-10.67-3.92-7.96-2.87,5.62,2.53,10.67,3.92,7.96Z"/>
      <path class="cls-132" d="M580.13,399.95c-2.45,11.88,10.22,12.53,8,0,16.09,1.02,12.98,2.57,24,8l-4,4c-4.33,4.01-6.27,5.73-12,8-8.56,3.4-14.73-7.97-11.98,15.98,10.27,4.17,7.34-7.75,11.98-7.98v12c-4.37-1.14-11.77,1.18-16,0-1.95-.55-2.82-2.91-4-4,.92-2.53,10-16.39,0-16-.36.01-3.79,3.29-4,4-3.67.37-9.45-.89-12,0v-4c1.43-.14,3.19.39,4,0,5.82-2.81,7.2-5.82,0-8-16.06-2.35-9.82,3.01-12,8-.52,1.18-4.25,2.35-3.41,5.46l3.41,2.54c-22.3,12.09-30.21,36.74-19.85,60.05,2.04-.25,3.58-4.12,3.85-4.06,1.92.44,6.07,2.75,8,4v4c-9.73,5.96,7.87,6.87,16,8-4.25-4.25-12.43,3.52-7.98,7.98,4.45,4.45,12.23-3.73,7.98-7.98,1.37.19,2.87-.32,4,0-.37,4.09,5.06,4.75,8,4,2.29-.58,3-3.37,4-4h8c.78,11.45,6.11,9.91,12,12,1.75.62,3.18,2.34,4,4-98.82,22.08-107.14-109.38-20-115.97Z"/>
      <path class="cls-132" d="M424.15,327.97c-2.45,11.88,10.22,12.53,8,0,16.11,1,13.01,2.6,24,8l-4,4c-4.26,3.94-6.27,5.85-12,8-8.97,3.36-14.51-8.06-12,16-1.02.29-2.49,3.16-4,4-1.31-1.21-3.2-2.43-4-4l3.96-15.99c-.93-1.42-5.58,3.41-7.96,4-6.2,1.54-14.09,1.13-20,4,.32-2.41-.54-7.57,0-8,.78-.62,22.47,1.18,11.98-7.98-9.24-8.07-10.81,4.4-11.98,7.98-.18.55-10.57,3.59,0,8-22.92,11.13-29.61,37.05-19.94,59.98,3.08,1.05,3.35-3.94,3.94-3.99,1.32-.12,2.67.05,4,0,1.25,1.42,2.65,2.68,4,4v4c-9.6,6.46,7.83,6.39,16,8-4.25-4.25-12.43,3.52-7.98,7.98,4.45,4.45,12.23-3.73,7.98-7.98,1.26.25,2.69-.14,4,0,.44.05-1.03,4.52,8,4,1.21-.07,2.82-3.6,4-4,1.97-.67,5.52.45,8,0,.43,2.28,5.52,6.97,4,7.96l-23.97,4c10.6-.31,21.39.58,31.98.04,3.92-.2,8.24.52,12,0-2.92,6.49-11.28,3.01-16,4h-24c-8.15-1.12-16.04-2.89-24-4-44.33-40.73-26.28-108.06,36-111.98Z"/>
      <path class="cls-50" d="M152.19,511.93c-3.57,20.47-19.33,28.98-36,35.99v-4c-.28-5.96,1.23-10.81,4-16,4.03.42,5.53-2.13,8-4,1.37-1.03,3.11-2.57,4-4,7.14-11.43,6.83-13.05-8.01-12.01-2.17-7.22,3.8-7.31,4.01-7.98-2.08,1.93,3.8,5.98,7.98,3.96,3.69-1.79-4.87-6.86-7.98-3.96,2.36-7.47-.46-11.61,0-12,.68-.58,8.17,1.41,8.26-2.13.16-6.51-7.56-12.53-8.26-17.87-.15-1.18,9.42-8.95.03-7.99-.59,2.24.62,7.45-.03,7.99-4.54,3.78-12.82-2.83-16-4,11.97,2.4,7.6-5.55,7.98-15.98-7.94-1.48-12.27,5.66-15.98,11.98-15.41-5.2-17.11-1.94-32,0v-4c-1.47-7.44-7.45-6.06-12-8-1.61-.69-2.94-2.57-4-4,48-26.55,105.31,14.6,95.99,67.98ZM78.2,451.94v4c2.6-1.33,2.6-2.67,0-4ZM144.17,491.97c-5.62-2.87-10.67,2.53-7.96,3.92,5.62,2.87,10.67-2.53,7.96-3.92Z"/>
      <path class="cls-228" d="M280.17,587.91c-1.36,3.52-4.11,7.45-8,8l-12-20,7.98-.03c1.21-6.61-4.1-4.58-7.98.03-6.19,2.75-9.83-3.29-12-4,14.55,1.91,2.85-4.7,3.96-15.99l-15.96,12c-7.54-2.06-10.56-4.61-20-4,2.08-1.93-3.8-5.98-7.98-3.96-3.69,1.79,4.87,6.86,7.98,3.96-.82.05-15.04,3.66-16,4,3.93-1.54,4.03-9.78-2.06-11.96-11.76-4.2-3.49,14.13,2.06,11.96-1.34.47-6.22,3.02-8,4,1.24-1.24-1.26-4.75-4-4-2.86-2.38-6.84-3.39-8-8,30.52-25.48,79.42-19.58,97.75,16.39,2.26,4.43,1.22,8.99,2.24,11.6Z"/>
      <path class="cls-319" d="M660.12,279.98c-.56,2.96.35,7.45,4,8,4.32,28.27-2.64,61.18-32,71.98l-4-8c.9-.69-3.17-12.86,16.03-8.06.83-2.89-4.04-3.64-4.03-3.94.03-.63,3.6-11.51,4-12,.46-.57,8.04,1.82,8.22-2.39.16-3.77-3.87-7.31-4.22-9.61-.28-1.82-.29-7.72,0-8,.9-.87,7.14.99,7.98-.01,6.01-7.14-10.69-15.27-7.98.01h-4c2.27-9.98-3.73-8.55-12-8.01l15.97-4c2.61-2.88-10.14-18.89-11.97-19.98l-4-20c11.31,5.83,21.4,11.68,28,23.99ZM648.1,272.02c-5.62-2.87-10.67,2.53-7.96,3.92,5.62,2.87,10.67-2.53,7.96-3.92Z"/>
      <path class="cls-283" d="M568.13,275.98c-3.64,2.23-16.92,13.25-18.27,16.13-3.26,6.92,2.65,14,1.46,15.38-1.42,1.65-6.18-1.51-7.22,2.53-2.33,9.11,6.88,3.88,8.07,8.59,4.28,17.06-5.54,19.97,15.96,33.36,3.71,2.31,7.88,2.89,12,4,10.77,2.91,18.98,6.53,32,3.96-8.87-7.63-3.57-12.74-4-15.96l4-4c3.89,1.79,7.16,4.75,11.97,4.04l.02,3.92c-11.37-1.41-11.32,5.61,0,4.04-2.54,2.45-8.19,3.67-8.04,6-.08,3.62,5.33,1.85,8.04,2v4c-16.23,2.45-31.77,1.73-47.99,0l-4-4c-2.59-.35-5.4.32-8,0-30.09-23.88-34.5-62.8-8-91.98l12,8Z"/>
      <path class="cls-137" d="M644.12,435.94c-.08,1.32.19,2.71,0,4-.56,3.77.62,8.3,0,12-.24,1.42.41,3.07,0,4-3.53.28-10.11-4.17-12-4-3.43.3-3.01,2.6-4,4-2.67,0-5.33,0-8,0v-12c2.28.15,6.96,5.85,11.99,3.96.76-.64-10.43-14.62-11.99-15.96,4.25,4.25,12.43-3.52,7.98-7.98-4.45-4.45-12.23,3.73-7.98,7.98-2.73-2.35-7.49-7.74-8-8l4-16c11.66,7.14,19.18,18.05,28,27.99Z"/>
      <path class="cls-341" d="M492.14,395.95c-9.39,16.25-11.91,37.81-36,43.99l-16-4c1.64-2.42,2.4-5.64,4-8h4c17.2,12.94,11.69,5.43,20-8,1.52-2.45,2.79-5.36,4-8,3-6.55,11.62-12.03,8-23.99,2.18-1.15,7.5.68,8-4v-4c1.12,4.07,6.81,8.92,4,16Z"/>
      <path class="cls-261" d="M32.2,507.93c-1.61,11.33,5.61,11.32,4,0,6.55,4.85-4.34,24.7,14.06,31.96,12.42-2.86-.09-11.52,17.94-3.97l8,4c-.3,6.71-9.84,2.63-12.05,4.04l4.05,7.96c-27.45-6.72-38.84-18.95-43.99-47.99,2.73,1.21,5.3,2.74,8,4Z"/>
      <path class="cls-324" d="M612.13,423.95c-2.9-1.48-13.49,2.79-16-4,5.73-2.27,7.67-3.99,12-8,.35-.32,4.69.48,4-4,1.11.55,3.06-.57,4,0l-4,16Z"/>
      <path class="cls-211" d="M116.19,543.92v4c-5.08,2.14-6.2,2.7-12,4-1.87-10.69,2.54-8.16,12-8Z"/>
      <path class="cls-128" d="M436.15,443.94c-16.87,3.55-10.15,1.9-24,0h24Z"/>
      <path class="cls-311" d="M632.12,359.96c-1.06.39-2.63-.27-4,0-1.17.23-2.78.07-4,0-2.71-.15-8.12,1.62-8.04-2-.14-2.33,5.51-3.55,8.04-6,.69-.67,3.15.64,4,0l4,8Z"/>
      <path class="cls-179" d="M588.13,399.95c2.22,12.53-10.45,11.88-8,0,2.57-.19,5.42-.16,8,0Z"/>
      <path class="cls-15" d="M456.15,439.94c-1.16.3-2.63-.19-4,0-3.76.52-8.08-.2-12,0v-4l16,4Z"/>
      <path class="cls-29" d="M624.12,363.96v-4c1.22.07,2.83.23,4,0-.41,1.94-2.12,3.72-4,4Z"/>
      <path class="cls-29" d="M576.13,363.96c-3.04-.32-3.72-3.96-4-4l4,4Z"/>
      <path class="cls-128" d="M308.17,188c1.49,3.86,4.93,3.15,8,4,4.84,1.34,11.37,3.78,16,4-.96.94,10.81,13.95,12,23.99-1.06-.53-2.91.52-4,0s-2.84-6.77-8-8c-9.17-2.19-8.87,1.43-8.02,9.98,1.43,5.81,7.44-1.94,8.02-1.98,1.7-.11,5.67,3.26,8,4l-3.98,11.97c11.52,3.73,6.87-7.04,7.98-7.97,1.18-.99,10.01,1.43,12-4v-4c.53,2.71,4.66,4.37,3.98,13.33-.66,8.79-4.9,12.32-7.98,18.67,4.25-4.25-3.52-12.43-7.98-7.98s3.73,12.23,7.98,7.98c-4.98,10.27-8.46,15.48-16,23.99-4.27,1.01-8.97,3.47-12,4-1.29-5.98-14.34-6.23-16,0-2.56.35-5.45-.38-8,0l-23.98-.04v-3.92c2.41-.56,6.78.74,7.98-.04l16.04-2c0-4.26-11.99-1.05-16.04-2-.55-4.99-5.56-9.21-8-4-1.26-.29-2.73.28-4,0-9.13-2.03-15.14.82-19.93-6.04-.08-.64,3.96-1.55,3.93-1.96h4l8-7.96c-3.24-.76-10.57.98-12-.04-.59-.42.52-5.78-.03-8l-7.97,8c-.65.12-.92,4.8-3.93,4.01-6.75-14.56-2.99-19.59-.07-32.01,11.88,2.45,12.53-10.22,0-8,2.83-5.83,14.58-17.37,20-20,5.91-2.86,13.79-2.46,20-4,.45,4.35,2.04,8.15,4,12,.8,1.57,2.69,2.79,4,4v4c-2.62.69-4.22-.01-4,4,3.32,9.95,7.42.07,8,0,2.59-.33,5.38.21,8,0s10.71,3.12,15.98-.05v-3.91c-3.96-.26-8.01.2-11.98-.04v-4c6.63-3.43,13.73-8.18,4-12-1.27.27-2.8-.37-4,0-2.57.78-5.68,5.91-8,8h-4c.67-4.1-1.28-14.44.1-15.94,1.29-1.41,9.18.93,11.9-.05ZM280.17,207.99c-1.82-6.53-.74-13.37-11.97-3.95v3.91c2.31.49,7.35-.66,7.97.04.9,1-5.83,15.34-3.96,19.99,11.43-5.83,10.56-10.65,7.96-19.99ZM268.13,223.97c2.87-5.62-2.53-10.67-3.92-7.96-2.87,5.62,2.53,10.67,3.92,7.96ZM300.15,224.03c-5.62-2.87-10.67,2.53-7.96,3.92,5.62,2.87,10.67-2.53,7.96-3.92ZM268.13,235.97c2.87-5.62-2.53-10.67-3.92-7.96-2.87,5.62,2.53,10.67,3.92,7.96ZM320.14,228.03c-5.62-2.87-10.67,2.53-7.96,3.92,5.62,2.87,10.67-2.53,7.96-3.92ZM312.14,236.01c-4.36-4.36-12.32,3.59-7.96,7.96,4.36,4.36,12.32-3.59,7.96-7.96ZM320.16,247.98c.42,1.42-.59,3.24,2.07,3.96,1.97,0,3.97.24,5.93.04-.09,1.37.26,2.85,0,4-.21.94-11.22,14.54,4,4,23-15.93,4.58-8.92-4-8,.08-1.21.23-2.84,0-4-1.04-5.33-1.45-11-7.96-12,.49,3.71-.93,8.98-.04,12ZM282.17,243.99v4c2.6-1.33,2.6-2.67,0-4ZM288.17,259.98c-.12,1.2-.3,3.29,0,4,3.83,9.14,6.28.52,8,0,2.79-.84,6.7,2.15,8.02-2.04,2.36-7.46-2.32-5.89-8.02-5.96-1.26-.01-2.8-.24-4,0-2.38.47-4.63,1.27-4,4ZM314.17,263.98v4c2.6-1.33,2.6-2.67,0-4Z"/>
      <path class="cls-128" d="M356.16,24.03c.68.24,11.46,7.49,12,8,2.68,2.49,8.01,10.06,8.04,13.96.32,4.31-7.04.99-8.04,2.04l-2.04-3.96h-5.93c-5.35,14.64-1.54,9.74,3.97,15.96,2.51,2.83,5.14,5.53,8,8h4c.34,1.54,5.06,3.99,4.39,9.47-.58,4.69-7.83,1.88-8.39,2.52-2.71,1.45-3.28,7.45-4,8-2.06,1.57-9.74.99-11.98,6.02l7.98,1.98c-.73,1.2,4.22,1.68-8,12h-4c-2.48.45-6.01-.66-8,0-6,2-7.94,5.77-8,12-1.28.19-2.68-.07-4,0l-5.96-3.98-2.04,3.98c-7.14-.5-9.18-3.38-12-4l-3.98-7.96c7.16-2.64,17.9,5.22,23.98-.04s.43-4.13,0-8c-.15-1.31.11-2.68,0-4l8.01-.03-6.03-7.95c-4.19-.36-.94,6.91-1.98,7.98-.91.94-6.39-.93-8,0-2.53,1.47-5.34,2.76-8,4h-4l-16,4c-31.7-17.1-30.65-59.02,0-75.98.96-.53,2.78.48,4,0,1.03-.4,2.62.28,4,0,7.21-1.46,4.06-5.61,12,0,1.72,1.22,3,6.9,6.04,7.96l5.94.02.02-15.98c4.33.02,24.78,2.86,28,4ZM348.14,28.05c-4.36-4.36-12.32,3.59-7.96,7.96,4.36,4.36,12.32-3.59,7.96-7.96ZM304.17,40.03c2.12,3.77,3.85,7.57,4,12,.04,1.29.15,2.73,0,4-1.6,1.43-3.16,3.32-4,4-2.73,2.2-8.08,3.29-8,7.96l7.98.03c.66-2.4-.73-6.52.01-7.99.44-.86,3.76-1.96,4-4,.74-.66,3.27.66,4,0,4.19-3.82,3.07-2.39,4-8,.18-1.11.19-2.9,0-4-.24-1.36.4-3.8,0-4l-16-3.96c-.65,4.5,3.86,3.71,4,3.96ZM344.16,44.03c-1.16-6.92-10.46-3.4-15.98-3.96-1.9.84,11.06,11.96,11.98,11.96,4.73-.04,4.71-3.73,4-8ZM326.16,48.03v4c2.6-1.33,2.6-2.67,0-4ZM332.12,64c2.87-5.62-2.53-10.67-3.92-7.96-2.87,5.62,2.53,10.67,3.92,7.96ZM352.12,68c2.87-5.62-2.53-10.67-3.92-7.96-2.87,5.62,2.53,10.67,3.92,7.96ZM344.12,76c2.87-5.62-2.53-10.67-3.92-7.96-2.87,5.62,2.53,10.67,3.92,7.96ZM320.16,76.06c-8.36-1.14-9.1-.4-7.96,7.96l7.96-7.96ZM292.17,84.02c-4.11-4.11-8.25-7.73-7.98-.03l7.98.03-4.03,7.96c10.35,1.14,10.71-1.28,4.03-7.96ZM358.16,80.02v4c2.6-1.33,2.6-2.67,0-4ZM352.14,96.04c-4.36-4.36-12.32,3.59-7.96,7.96,4.36,4.36,12.32-3.59,7.96-7.96Z"/>
      <path class="cls-365" d="M128.19,92.02c-2.45,11.88,10.22,12.53,8,0,9.05.41,11.61.86,20,4-23.97,29.01,3.25,25.39,4,8,.05-1.26.18-3.92,0-4,19.62,10.87,32.31,22.42,32,47.99-1.27.26-2.78-.35-4,0l-11.98-3.99c-.57,2.52.61,5.97-.02,7.99s-4.13,4.77-4,8c-2.45-9.83-13.99-6.73-16-8-.38-.24-3.92-7.56-4-8-.32-1.71,11.84-12.1-8-8,.69-2.03-.58-5.62,0-8,.1-.4,8.21-5.49,1.96-8.02-7.39-1.27-6.36,1.22-5.96,8.02-2.04.6-6.71,3.98-8,4s-2.76.2-4,0v-4c0-5.33.05-10.68-.04-16l-7.96,8c-.83-.55-2.71.46-4,0-6.33-2.26-7.94-3.95-16,0,.32-2.41-.54-7.57,0-8,.78-.62,22.47,1.18,11.98-7.98-9.24-8.07-10.81,4.4-11.98,7.98-.18.55-10.57,3.59,0,8-22.97,11.26-29.61,36.95-19.93,60,2.99.79,3.3-3.92,3.93-4.01,1.74-.27,7.36-.38,8,0,.38.23,2.4,5.32,4,8,.96,1.6,3.36,2.77,4,4,3.68,7.04-7.13,6.13,8,12,19.74,7.66,19.76,2.14,36,0-.35,2.58.23,5.38,0,8-1.33.06-2.67-.04-4,0-7.98.24-16.01-.17-24,0-8.98-1.94-29.09-4.93-36-12-3.42-3.49-11.45-27.54-12.03-34.02-3.76-41.56,18.82-67.16,60.03-69.95ZM176.16,116.03c-4.36-4.36-12.32,3.59-7.96,7.96s12.32-3.59,7.96-7.96ZM160.19,144.01c.61,2.78.14,4.23,4,4,16.21-.98-8.77-25.67-4-4Z"/>
      <path class="cls-319" d="M532.14,172c-13.36,13.42-9.58,21.11-32,31.99-6.88-7.64-19.35-6.7-16,4-1.31.14-2.67-.09-4,0-7.16.49-16.97.69-24,0-3.86-.38-8.54.69-12,0l-4-4c-6.47-2.26-10.44-3.46-16-8l-8-8c-.63-.82.6-3,0-4l-4-4c-.4-1.11.32-2.68,0-4l-4-8c-.86-7.31-.86-20.69,0-27.99l4-8c.32-1.32-.39-2.88,0-4l4-4c.56-1.07-.59-3.08,0-4l4-4c1.19-1.43,2.67-2.69,4-4l12,8c-28.5,17.3-25.12,55.95-1.98,75.97-3.04-10.73,36.11-13.43,21.98.01.4-3.73-1.28-3.42-4-4-8.76-1.88-14.41-1.17-11.99,7.98,2.47.62,6.18-.67,7.99.02,11.65,4.45,18.86,5.44,32,3.96-8.9-7.67-3.57-12.69-4-15.96h4c1.89,1.31,14.1-3.87,12.06,7.96h3.88c-1.15-14.15,5.82-4.4,10.04-4.76,9.29-.78,1.82-6.71,2.01-7.2,1.22-3.16,3.6-11.51,4-12,.46-.57,8.04,1.82,8.22-2.39.16-3.77-3.87-7.31-4.22-9.61-.28-1.82-.29-7.72,0-8,.9-.87,7.14.99,7.98-.01,6.01-7.14-10.69-15.27-7.98.01h-4c-1.18-2.53,1.55-4.51-4-8v-4l8.05-2.03c-.05-4.26-5.12-10.96-8.05-13.97l8-7.96c-8.4-1.14-9.03-.41-8,7.96-1.21-1.24-2.89-3.31-4-4l-4-20c32.12,16.45,34.2,37.27,32,71.98Z"/>
      <path class="cls-228" d="M124.19,327.97c-11.76,7.86-5.76,14.97-32,27.99v-4c-5.11-6.12-.12-10.64,4-16h4c4.4-1.25,5.82-4.5,8-8,.81-1.3,8.29-1.55,2.09-8.09l-14.08-3.95c-.62-4.72,7.04-6.15,7.99-7.96-.9.9.61,4.09,2,4,4.37-.3-.12-5.88-2-4,.75-1.42-1.41-6.34.09-9.09,1.97-3.6,8.54-2.67,7.93-4.83-1.02-3.58-13.41-16.68-12.02-18.07.69-.69,5.74.58,7.98-.03,1.21-6.61-4.1-4.58-7.98.03-6.2,2.74-9.8-3.27-12-4,14.55,1.91,2.85-4.7,3.96-15.99l-15.96,12c-16.55-4.34-23.62-2.79-39.99,4v-4c8.54-1.74,8.99-10.48,2-11.88-.62-.13-3.74,3.21-6,3.88-3.77,1.12-7.52,4.09-12,4,48.86-48.21,121.12-.2,103.99,63.99ZM116.17,300.01c-5.62-2.87-10.67,2.53-7.96,3.92,5.62,2.87,10.67-2.53,7.96-3.92Z"/>
      <path class="cls-255" d="M292.17,168c-2.45,11.88,10.22,12.53,8,0,9,.36,11.74,1,20,4-3.82,3.2.22,7.66,0,8-2.99,4.63-7.15,6.24-12,8-2.72.99-10.61-1.36-11.9.05-1.37,1.5.58,11.85-.1,15.94-.17,1.02-3.04,2.66-4,4-1.31-1.21-3.2-2.43-4-4l3.96-15.99c-.93-1.42-5.58,3.41-7.96,4-6.2,1.54-14.09,1.13-20,4,.32-2.41-.54-7.57,0-8,.78-.62,22.47,1.18,11.98-7.98-9.24-8.07-10.81,4.4-11.98,7.98-.18.55-10.57,3.59,0,8-5.42,2.63-17.16,14.16-20,20-.77,1.58.57,5.57,0,8-2.92,12.42-6.67,17.45.07,32.01,3.01.79,3.27-3.89,3.93-4.01,1.66-.32,7.47-.33,8,0,.24.15-.01,2.69,0,4s-.09,2.68,0,4c.03.41-4.01,1.32-3.93,1.96,4.79,6.85,10.81,4,19.93,6.04-.29-.29-8.49-1.47-7.98,1.98,6.28,10.96,12.47,2.61,7.98-1.98,1.27.28,2.74-.29,4,0,.44.1,1.99,2.6,8,4,.13,1.18.17,3.89,0,4-1.2.78-5.57-.52-7.97.04v3.92s23.97.04,23.97.04c-2.74.4-9.52,7.15-16,4-18.75-3.98-25.8-.3-39.96-18.03-32.38-40.51-2.89-94.58,47.96-97.95Z"/>
      <path class="cls-283" d="M380.16,100.02c-6.36,7.17-16.35,8.65-24,12,.65-.49-.65-3.45,0-4,12.22-10.32,7.27-10.79,8-12,1.53-2.52,2.44-5.48,4-8s3.7-7.64,4-8c.56-.65,7.81,2.17,8.39-2.52.68-5.48-4.04-7.93-4.39-9.47-.5-2.26.28-5.42,0-8,24.11,11.56,6.95-13.29.02-7.98-.86.66.66,5.79-.02,7.98-.6,1.94-4.13,4.77-4,8-2.86-2.47-5.49-5.17-8-8,.65-3.76,1.41-9.27,4-12,1-1.05,8.36,2.27,8.04-2.04-.04-3.89-5.36-11.47-8.04-13.96,1.93,2.07,5.98-3.79,3.96-7.98-1.79-3.69-6.86,4.87-3.96,7.98-.54-.5-11.32-7.76-12-8,3.82-1.15,3.87-4.58,4-8,.09-2.28.3-7.74,0-8,32.14,16.41,44.56,64.3,20,91.98Z"/>
      <path class="cls-48" d="M300.17,8.04v4c-4.43,3.44-12.48,13.94-4,16-30.65,16.96-31.7,58.88,0,75.98,1.22.66,1.6,3.61,5.84,3.86,3.95.23,6.87-2.36,10.15-3.86,1.46-.67,2.66-3.38,4-4,2.66-1.24,5.47-2.53,8-4l8,4c.43,3.87,5.8,2.98,0,8,.9-.9-.61-4.09-2-4-4.37.3.12,5.88,2,4-6.08,5.26-16.82-2.59-23.98.04l3.98,7.96c-6.61-1.46-17.81-.3-24-4-3.39-2.02-14.91-20.14-16.86-25.1-12.58-32.06-1.37-64.03,28.86-78.88Z"/>
      <path class="cls-307" d="M500.14,100.02c-6.16,4.45-17.89,6.67-16,16-7.01-1.33-10.33-4.25-20-4l-6-16.04-2,16.04c-.88.16-13.01,6.49-16,8,0-2.67,0-5.33,0-8,3.9-.46,8.06.34,11.98-.02,1.95-10.51-2.32-8.3-11.96-7.97-.15,2.65-.02,5.32-.02,7.99-5.2.61-10.76-.42-16,0,24.17-23.65,44.65-28.05,75.99-12Z"/>
      <path class="cls-368" d="M196.18,148.01c-8.47,27.29-3.65,42-36,55.99-2.39-5.47-11.14-4.64-16-4,.74-5.52.38-11.41,4-12,1.17,1.51,2.56,2.76,4,4,6.5,5.57,7.88,6.67,14.27-.12,1.69-1.8-2.33-3.66-2.27-3.88.7-2.61,3.01-5.32,4-8,4.36.34,5.49-1.15,8-4,9.11-10.32.93-10.93,0-16-.25-1.38-.3-7.73,0-8,.47-.42,10.04-3.44,12-4,1.22-.35,2.72.26,4,0h4Z"/>
      <path class="cls-304" d="M356.16,219.99v4c-4.3-.56-8.16-2.06-12-4-1.19-10.05-12.96-23.06-12-23.99,1.43-1.39,9.87,3.2,7.97-3.97-2.83-1.82-7.52,3.99-7.97,3.97-4.63-.22-11.16-2.66-16-4,5.44-4.68,12.33-7.87,12-16,20.05,12.51,23.72,21.98,28,43.99Z"/>
      <path class="cls-96" d="M36.2,267.98v4c-1.17.49-2.96-.51-4,0,.9-.9-.61-4.09-2-4-4.37.3.12,5.88,2,4-3.33,1.65-18.24,14.78-20.41,17.93-7.46,10.83,10.23,21.04-11.58,18.06-.16-2.43-.37-5.74,0-8,.3-1.84,6.04-7.08,4-12,1.7-3.93,1.45-8.7,4.45-13.48,3.84-6.13,7.93-6.95,11.55-10.52,4.48.09,8.23-2.88,12-4l4,8Z"/>
      <path class="cls-374" d="M.21,315.97c1.48,1.06,10.6-1.37,11.86.11,1.38,1.62-8.59,26.4,14.16,35.87,1.37.57-1.41-9.78,17.98-7.98v8c-.72.65-3.52-.67-4,0,.9-.9-.61-4.09-2-4-4.37.3.12,5.88,2,4-.78,1.09.52,5.71,0,8-6.27-1.18-9.61-1.14-16-4-1.13-.51-2.95.53-4,0L.21,327.97c-.37-1.14.29-2.67,0-4-.49-2.25.2-5.38,0-8Z"/>
      <path class="cls-302" d="M328.16,176c.33,8.13-6.55,11.32-12,16-3.07-.85-6.5-.14-8-4,4.84-1.75,9.01-3.37,12-8,.9.9,4.09-.61,4-2-.3-4.37-5.88.12-4,2,.22-.34-3.82-4.8,0-8,3.64,1.32,4.86,2.04,8,4Z"/>
      <path class="cls-148" d="M308.17,279.98c3.81-.52,8.24.59,12,0-4.87,3.29-10.65,5.62-16,8-8.28,3.38-14.98-2.94-20-4,6.48,3.15,13.26-3.59,16-4,2.55-.38,5.44.35,8,0Z"/>
      <path class="cls-29" d="M480.14,207.99v4c-7.54-.67-19.56,3.12-24-4,7.02.69,16.83.49,24,0Z"/>
      <path class="cls-128" d="M140.19,207.99c-6.95,10.48-18.03,1.29-24,0,7.99-.17,16.01.24,24,0Z"/>
      <path class="cls-273" d="M160.19,203.99c-1.09.47-2.79-.44-4,0-1.68.61-3.05,2.47-4,4-2.24.47-5.38-.12-8,0,.23-2.62-.35-5.41,0-8,4.86-.64,13.61-1.48,16,4Z"/>
      <path class="cls-48" d="M344.16,116.01c-1.66.45-3.98,3.4-8,4,.06-6.22,2-10,8-12v8Z"/>
      <path class="cls-60" d="M352.16,108.02c-.69,2.72,2.46,5.15,4,4-5.23,2.29-6.76,2.57-12,4v-8c1.99-.66,5.52.45,8,0Z"/>
      <path class="cls-81" d="M300.17,168c2.22,12.53-10.45,11.88-8,0,2.61-.17,5.38-.1,8,0Z"/>
      <path class="cls-157" d="M.21,299.97c1.26-5.88,1.79-6.87,4-12,2.04,4.92-3.7,10.15-4,12Z"/>
      <path class="cls-48" d="M332.16,120.01c-2.6.14-5.41.18-8,0l2.04-3.98,5.96,3.98Z"/>
      <path class="cls-29" d="M408.15,140.01c.81-6.87,3.89-7.56,4-8l-4,8Z"/>
      <path class="cls-29" d="M412.15,176c-.11-.43-3.19-1.13-4-8l4,8Z"/>
      <path class="cls-29" d="M444.15,207.99c-3.07-.61-3.73-3.91-4-4l4,4Z"/>
      <path class="cls-128" d="M152.19,207.99c.95-1.53,2.32-3.39,4-4-.55,1.89-2.1,3.6-4,4Z"/>
      <path class="cls-29" d="M424.15,196c-4.05-3.31-4.65-3.68-8-8l8,8Z"/>
      <path class="cls-29" d="M416.15,184c-.35-.59-2.98-1.16-4-4l4,4Z"/>
      <path class="cls-29" d="M412.15,128.01c.99-2.84,3.76-3.55,4-4l-4,4Z"/>
      <path class="cls-29" d="M416.15,120.01c1.02-1.59,2.83-2.6,4-4l-4,4Z"/>
      <path class="cls-29" d="M204.18,347.96c-3.75,14.56,16.63,5.53,28,4,15.92-2.14,15.87-3.81,32,0,6,1.42,6.3,1.34,12,4,4.5,2.1,11.49,3.62,12,4,1.98,1.48,8.13,10.46,8.05,13.96l-8.05,2.04-1.98-3.92c-11.76,11.41-4.09,5.77,1.98,7.92,2.5.88,6.11,3.91,8,4v4c-1.87.78-4.27-.48-4,4l4,4c2.27,7.64,7.33,7.82,0,16-4.1-.51-5.56,2.22-8,4-1.49,1.09-2.63,2.75-4,4-6.81,6.04-11.83,4.26-4,16-5.32-.17-10.69.25-16,0-.7-1.69.64-5.53-.02-7.95-8.34-1.17-9.06-.38-7.96,7.94,2.65.26,5.34-.11,7.98.01,1.14,2.78,1.25,5.95,4,8-53.82,12.56-83.17-12.37-79.99-67.98.08-1.32-.18-2.71,0-4l4-8c.54-1.1-.56-3,0-4,1.03-1.84,9.01-7.68,12-12ZM268.15,363.94c4.54-4.64-1.71-12.87-7.96-1.96-.5,3.48,7.67,2.25,7.96,1.96ZM228.14,371.94c2.87-5.62-2.53-10.67-3.92-7.96-2.87,5.62,2.53,10.67,3.92,7.96ZM256.15,367.98c-4.64-4.54-12.87,1.71-1.96,7.96,3.48.5,2.25-7.67,1.96-7.96ZM264.17,379.95l12-.04c-1.35-5.82-6.47-9.12-12-7.96l-3.98,5.96,3.98,2.04ZM256.15,383.97h-7.96c-1.3,5.89,1.76,8.31,6,11.96l1.96-11.96ZM276.15,387.97c-4.36-4.36-12.32,3.59-7.96,7.96,4.36,4.36,12.32-3.59,7.96-7.96ZM220.18,391.95c-5.42-.07-1.02,10.3-3.99,15.97,8.92,2.64,10.16-3.58,7.99-11.97-.66-2.54-.15-4.43-4-4ZM268.15,399.99c-5.62-2.87-10.67,2.53-7.96,3.92,5.62,2.87,10.67-2.53,7.96-3.92ZM212.18,415.95c-.02,3.94,1.11,3.36,4,4,11.49,2.54,13.49-8.69-2.02-7.84-2.1.75-1.97,2-1.98,3.84ZM260.15,415.97c-4.36-4.36-12.32,3.59-7.96,7.96,4.36,4.36,12.32-3.59,7.96-7.96ZM272.13,431.92c2.87-5.62-2.53-10.67-3.92-7.96-2.87,5.62,2.53,10.67,3.92,7.96ZM228.16,435.92c4.54-4.64-1.71-12.87-7.96-1.96-.5,3.48,7.67,2.25,7.96,1.96ZM240.16,427.98c-5.62-2.87-10.67,2.53-7.96,3.92,5.62,2.87,10.67-2.53,7.96-3.92Z"/>
      <path class="cls-255" d="M264.17,327.97c1.31.17,2.72-.23,4,0l8,4c6.65,3,24.64,14.95,28,20,22.41,33.73,10.83,70.77-24,87.98v-4c-7.83-11.73-2.81-9.96,4-16,1.4-1.24,2.57-2.84,4-4,1.16-.95,4.74-.37,8-4,7.33-8.18,2.27-8.36,0-16-.5-1.68-3.96-3.33-4-4-.27-4.48,2.13-3.22,4-4,2.52-1.04,6.49,2.27,8.02-2.04,4.09-11.51-6.85-1.9-8.02-1.96-1.89-.09-5.5-3.11-8-4v-4l8.05-2.04c.08-3.5-6.07-12.49-8.05-13.96,4.25,4.25,12.43-3.52,7.98-7.98s-12.23,3.73-7.98,7.98c-.51-.38-7.5-1.9-12-4,14.55,1.91,2.85-4.7,3.96-15.99l-15.96,12c-16.12-3.81-16.08-2.14-32,0,1.42-3.46,7.02-3.09,8-4,4.47-4.16-.26-3.22,0-4,.74-2.23,5.44-6.87,3.99-7.96-9.78-2.84-7.56,4.12-11.99,7.96-3.2-8.7-7.9-3.56-12,0-6.64,5.78-.05,10.55-16,4,.6-.86-.55-2.88,0-4,.63-1.27,3.06-2.47,4-4,.99-.58,2.99.58,4,0,4.17-2.38,21.27-11.4,24-12,1.26-.28,2.7.21,4,0,5.55-.89,18.23-.73,24,0Z"/>
      <path class="cls-350" d="M632.12,255.98c-6.16,4.45-17.89,6.67-16,16-7.76-1.85-11.07-3.15-20-4-2.14-6.07-1.7-17.11-7.96-15.98l-.08,12.02c-.94,1.52-5.79-3.66-7.96-4.04-2.45-.43-5.4.2-7.97.01-.15,2.65-.03,5.32-.02,7.98-5.3.28-10.7-.19-16,0,22.24-24.48,46.76-27.07,75.99-12Z"/>
      <path class="cls-120" d="M488.14,379.95v4c-3.35.29-10.52-4.26-12-4-.99-4.13-8.89-16.95-12-20,4.25,4.25,12.43-3.52,7.98-7.98s-12.23,3.73-7.98,7.98c-2.14-2.09-9.21-6.81-12-8l8-16c19.97,12.52,22.24,23.09,28,43.99Z"/>
      <path class="cls-261" d="M60.2,447.94v12c-5.2.85-5.8,8.98-16,4l3.98-5.96-3.98-2.04c4.29-4.16,4.39-7.79,12-12,1.06,1.43,2.39,3.31,4,4Z"/>
      <path class="cls-261" d="M28.2,475.93c14.89-3.18,2.75,14.28,7.99,23.96-11.02,2-7.8-2.66-7.99-11.97-.07-3.61-.67-9.01,0-12Z"/>
      <path class="cls-141" d="M452.15,351.96c-2.84-1.21-9.69,1.71-12-4,5.73-2.15,7.74-4.05,12-8,.35-.32,4.69.48,4-4,1.11.55,3.08-.58,4,0l-8,16Z"/>
      <path class="cls-117" d="M280.17,435.94v4c-5.49,2.71-6.34,2.68-12,4-2.75-2.05-2.86-5.22-4-8,5.31.25,10.68-.17,16,0Z"/>
      <path class="cls-81" d="M432.15,327.97c2.22,12.53-10.45,11.88-8,0,2.59-.16,5.41-.16,8,0Z"/>
      <path class="cls-129" d="M44.2,463.94c-1.62-.79-2.85-2.61-4-4,1.14-1.45,2.67-2.71,4-4l3.98,2.04-3.98,5.96Z"/>
      <path class="cls-37" d="M92.2,351.96v4c-2.71,1.34-5.47,5.81-8,8-1.29.21-2.68-.13-4,0,.03-.63-3.62-11.49-4-12h16Z"/>
      <path class="cls-226" d="M500.14,203.99c-1.01.49-2.75-.44-4,0l-8,4c-1.29.2-2.68-.14-4,0-3.36-10.69,9.11-11.64,16-4Z"/>
      <path class="cls-6" d="M324.16,279.98c-1.29.23-2.7-.2-4,0-3.76.59-8.19-.52-12,0,1.66-6.23,14.71-5.98,16,0Z"/>
      <path class="cls-29" d="M496.14,203.99c-.6.21-1.58,2.99-8,4l8-4Z"/>
      <path class="cls-303" d="M328.16.04c-1.61,11.33,5.61,11.33,4,0,14.35.57,16.12,1.93,28,8-.67-.57-5.52.27-8,.04l8,7.96c-.13,3.42-.18,6.85-4,8-3.22-1.14-23.67-3.98-28-4-7.47-.04-8.25,1.7-12,8-7.94-5.61-4.79-1.46-12,0h-4c-1.22.48-3.04-.53-4,0-8.48-2.06-.43-12.56,4-16l.02,7.98,11.98-.02c-1.35-5.82-6.47-9.12-12-7.96v-4c11.95-5.87,13.44-7.42,28-8Z"/>
      <path class="cls-149" d="M136.19,92.02c2.22,12.53-10.45,11.88-8,0,2.6-.18,5.39-.12,8,0Z"/>
      <path class="cls-361" d="M332.16.04c1.61,11.33-5.61,11.33-4,0,1.32-.05,2.68-.05,4,0Z"/>
      <path class="cls-119" d="M160.19,100.02c-1.61-.7-3.09.46-3.92,2l3.92,2c-.75,17.4-27.97,21.02-4-8,1.3.49,2.56,3.2,4,4Z"/>
      <path class="cls-267" d="M648.12,455.94v16c-.45,1.22.49,2.94,0,4-7.4,16.1-20.41,28.56-36,35.99-1.34-4.94-7.95-4.5-12-4,.44-2.49-.65-5.97,0-8h4c18.11,9.77,14.06,2.29,20-8,1.44-2.5,2.88-5.34,4-8,1.48-3.51,5.45-6.46,6.55-11.93,1.22-6.01-2.51-7.5-2.55-8.06-.11-1.32.19-2.7,0-4,5.75.23,9.55,1.52,12-4,.41-.93-.24-2.58,0-4h4c.29,1.19-.2,2.65,0,4Z"/>
      <path class="cls-52" d="M452.15,551.92l15.95-7.99c1.67,10.08,10.25,17.95-3.95,15.99-3.5-1.76-9.58-7.46-12-8Z"/>
      <path class="cls-188" d="M492.14,591.91c-1.76-3.43-5.68-2.84-8-4-1.61-.8-2.87-2.6-4-4,11.19-1.09,20.26-8.95,15.96,5.98-.78,2.72-3.11,1.6-3.96,2.02Z"/>
      <path class="cls-170" d="M452.15,575.91l11.98.02c2.03,10.89-3.07,8.14-11.98,7.98v-8Z"/>
      <path class="cls-275" d="M444.13,587.93l-1.96,11.96c-4.24-3.64-7.3-6.06-6-11.96h7.96Z"/>
      <path class="cls-320" d="M400.15,619.9c2.1-8.13,14.29-3.95,16,3.96-2.63,0-5.38.27-8,.04-1.46-.98-.42-6.07-8-4Z"/>
      <path class="cls-53" d="M412.15,599.91c4.12,19.03-15.4,16.19-4,0h4Z"/>
      <path class="cls-59" d="M464.12,591.93c4.36,4.36-3.59,12.32-7.96,7.96-4.36-4.36,3.59-12.32,7.96-7.96Z"/>
      <path class="cls-58" d="M448.13,619.92c4.36,4.36-3.59,12.32-7.96,7.96-4.36-4.36,3.59-12.32,7.96-7.96Z"/>
      <path class="cls-363" d="M452.13,631.92c4.36,4.36-3.59,12.32-7.96,7.96-4.36-4.36,3.59-12.32,7.96-7.96Z"/>
      <path class="cls-46" d="M484.14,615.9c-2.09,3.69-3.61,6.59-8,8v-4c2.48-1.95,3.91-4.44,8-4Z"/>
      <path class="cls-239" d="M484.14,599.91l-3.98-2.04c-1.42-4.56.72-4.6,3.98-5.96,3.5,3.09-.05,7.44,0,8Z"/>
      <path class="cls-188" d="M476.14,579.91v4c-2.46-.2-7.46.52-7.99-.04-1.52-1.61,4.08-5.96,6.01-7.88l1.98,3.92Z"/>
      <path class="cls-8" d="M444.13,571.93c4.54,4.64-1.71,12.87-7.96,1.96-.5-3.48,7.67-2.25,7.96-1.96Z"/>
      <path class="cls-67" d="M456.13,567.89c-.29.29-8.46,1.52-7.96-1.96,6.25-10.91,12.5-2.68,7.96,1.96Z"/>
      <path class="cls-331" d="M428.15,635.9c-3.67.25-5.64-2.69-8-4l5.94.03c2.12.79,2.08,2.06,2.06,3.97Z"/>
      <path class="cls-254" d="M460.11,635.88c-1.39,2.71-6.79-2.34-3.92-7.96,1.39-2.71,6.79,2.34,3.92,7.96Z"/>
      <path class="cls-118" d="M456.13,603.95c2.71,1.39-2.34,6.79-7.96,3.92-2.71-1.39,2.34-6.79,7.96-3.92Z"/>
      <path class="cls-167" d="M492.14,591.91c-1.71.85-6.04-.82-8,0v-4c2.32,1.16,6.24.57,8,4Z"/>
      <path class="cls-32" d="M416.11,575.89c-1.39,2.71-6.79-2.34-3.92-7.96,1.39-2.71,6.79,2.34,3.92,7.96Z"/>
      <polygon class="cls-164" points="452.15 583.91 448.17 581.87 452.15 575.91 452.15 583.91"/>
      <path class="cls-79" d="M412.15,599.91h-4c.39-.56-.58-3.92,2-3.92,2.45.65,1.64,2.26,2,3.92Z"/>
      <path class="cls-88" d="M476.14,623.9h-4c1.31-1.32,2.55-2.86,4-4v4Z"/>
      <path class="cls-258" d="M416.15,639.9c-1.27.27-2.7-.2-4,0l2-3.92,2,3.92Z"/>
      <path class="cls-257" d="M416.15,555.92c-3.86,1.44-10.67-9.49-7.98-11.98,8.6-7.95,17.95,8.25,7.98,11.98Z"/>
      <path class="cls-47" d="M404.15,555.92v4c-3.85.75-10.6.65-12-4,.66-.78-.67-3.3,0-4,4.13.85,8.36,1.76,12,4Z"/>
      <path class="cls-217" d="M476.14,563.91c-4.25-4.25,3.52-12.43,7.98-7.98,4.45,4.45-3.73,12.23-7.98,7.98Z"/>
      <path class="cls-264" d="M432.15,551.92c-1.88,1.88-6.37-3.7-2-4,1.39-.09,2.9,3.1,2,4Z"/>
      <path class="cls-29" d="M236.18,567.91c5.22,1.43,7.86,2.64,12,4,2.17.71,5.8,6.74,12,4l12,20c-4.36.61-9.37-3.79-12-4-4.37-.35-7.94-.92-8,4-.02,1.9-.07,3.18,2.06,3.97l5.94.03c-.24,7.06-2.25,6.92-4.01,15.96,13.09,1.29,18.34,1.53,12.01,12.04-3.42-.12-5.77,3.04-8,4-1.22.53-3.29-.61-4,0-7.03,6.07-9.71,11.95-4,20-5.19-.46-10.93.68-16,0,2.06-3.91,11.57-2.31,7.96-11.99-6.33,4.82-9.49.21-11.96,0-4.8-9.31-9.44-12.14-8,0,4.21,10.49,2.33,10.7,12,12-.45.85.27,2.58,0,4-6.96,3.84-37.29,7.99-36-4,.02-.2,2.72.11,4,0l3.99-2-3.99-5.99c-7.81-8.43-15.5,4.03-19.99,2.27-14.22-5.57-9.61-24.23-13.12-29.38-.63-.93-13.06-1.03-6.74-8.78.53-.65,7.53,1.22,7.91-2.43.32-3.01-4.82-7.67-2.25-13.57,1.3-3,18.4-18.01,22.19-20.1,1.78-.98,6.66-3.52,8-4,.96-.34,15.18-3.95,16-4,9.44-.61,12.46,1.94,20,4ZM240.16,575.95c-5.62-2.87-10.67,2.53-7.96,3.92,5.62,2.87,10.67-2.53,7.96-3.92ZM200.14,587.89c2.87-5.62-2.53-10.67-3.92-7.96-2.87,5.62,2.53,10.67,3.92,7.96ZM236.18,595.91c16.01-1.94,6.73-1.7,0-4-1.43-.49-9.79-9.29,0,4ZM224.14,607.88c2.87-5.62-2.53-10.67-3.92-7.96-2.87,5.62,2.53,10.67,3.92,7.96ZM196.14,615.88c2.87-5.62-2.53-10.67-3.92-7.96-2.87,5.62,2.53,10.67,3.92,7.96ZM248.15,607.94c-5.62-2.87-10.67,2.53-7.96,3.92,5.62,2.87,10.67-2.53,7.96-3.92ZM240.16,615.94c-5.62-2.87-10.67,2.53-7.96,3.92,5.62,2.87,10.67-2.53,7.96-3.92ZM188.18,635.9c2.04.63,8.24,1.28,8.04-2,.2-3.28-6-2.63-8.04-2-1.3.41-3.92-.48-3.92,2,.72,2.58,2.55,1.57,3.92,2Z"/>
      <polygon class="cls-340" points="204.18 651.89 204.18 643.9 208.17 649.89 204.18 651.89"/>
      <path class="cls-42" d="M192.18,571.91c-2.44,2.44-3.78-3.82-4-4,2.74-.75,5.24,2.76,4,4Z"/>
      <path class="cls-74" d="M200.18,651.89c-1.88,1.88-6.37-3.7-2-4,1.39-.09,2.9,3.1,2,4Z"/>
      <path class="cls-316" d="M268.17,627.9c-2.1,3.48-3.18,7.28-8,8v-4c2.23-.96,4.58-4.12,8-4Z"/>
      <path class="cls-371" d="M276.15,599.95c2.71,1.39-2.34,6.79-7.96,3.92-2.71-1.39,2.34-6.79,7.96-3.92Z"/>
      <path class="cls-228" d="M260.17,595.91c-.03,1.33.05,2.67,0,4l-5.94-.03c-2.12-.79-2.08-2.06-2.06-3.97h8Z"/>
      <path class="cls-77" d="M260.17,591.91v4h-8c.06-4.92,3.63-4.35,8-4Z"/>
      <path class="cls-3" d="M266.17,607.9c2.6,1.33,2.6,2.67,0,4v-4Z"/>
      <path class="cls-44" d="M260.17,635.9c-2.94.44-4.38-1.07-4-4,.71-.61,2.78.53,4,0v4Z"/>
      <path class="cls-289" d="M104.19,459.94c3.71-6.32,8.03-13.46,15.98-11.98-.38,10.43,3.99,18.38-7.98,15.98-2.02-.74-4.34-2.76-8-4Z"/>
      <path class="cls-35" d="M112.21,479.96c2.26,11.27-4.82,8.35-13.33,7.84l-10.66-11.85,23.99,4.01Z"/>
      <path class="cls-82" d="M72.2,455.94l-8,4c-1.31.17-2.71-.21-4,0v-12c4.55,1.94,10.53.56,12,8Z"/>
      <path class="cls-252" d="M128.19,523.92c-2.47,1.87-3.97,4.41-8,4,2.01-3.77,3.56-6.67,8-8v4Z"/>
      <path class="cls-357" d="M64.2,499.97l-7.96,7.96c-1.14-8.35-.4-9.1,7.96-7.96Z"/>
      <path class="cls-329" d="M128.19,487.93c-8.37,1.03-9.1.41-7.96-8l7.96,8Z"/>
      <path class="cls-301" d="M68.18,471.96c.29.29,1.52,8.46-1.96,7.96-10.91-6.25-2.68-12.5,1.96-7.96Z"/>
      <path class="cls-280" d="M108.19,471.89c-8.36,1.14-9.1.4-7.96-7.96l7.96,7.96Z"/>
      <path class="cls-261" d="M72.2,455.94v4c-2.59.34-5.41-.33-8,0l8-4Z"/>
      <path class="cls-208" d="M92.15,499.91c-1.39,2.71-6.79-2.34-3.92-7.96,1.39-2.71,6.79,2.34,3.92,7.96Z"/>
      <path class="cls-253" d="M112.15,503.91c-1.39,2.71-6.79-2.34-3.92-7.96,1.39-2.71,6.79,2.34,3.92,7.96Z"/>
      <path class="cls-276" d="M36.2,507.93c1.61,11.32-5.61,11.33-4,0,1.16.54,3.19-.6,4,0Z"/>
      <path class="cls-94" d="M56.18,523.96c2.71,1.39-2.34,6.79-7.96,3.92-2.71-1.39,2.34-6.79,7.96-3.92Z"/>
      <path class="cls-359" d="M96.15,531.9c-1.39,2.71-6.79-2.34-3.92-7.96,1.39-2.71,6.79,2.34,3.92,7.96Z"/>
      <path class="cls-115" d="M76.2,539.92l-8-4c2.46,1.03,8.27-2.2,8,4Z"/>
      <path class="cls-221" d="M128.19,523.92v-4h4c-.89,1.42-2.63,2.96-4,4Z"/>
      <path class="cls-327" d="M102.19,507.93c2.6,1.33,2.6,2.67,0,4v-4Z"/>
      <path class="cls-128" d="M596.13,419.95c2.51,6.79,13.1,2.52,16,4,.5.26,5.26,5.65,8,8,1.56,1.34,12.76,15.32,11.99,15.96-5.04,1.89-9.71-3.81-11.99-3.96-3.91-.26-6.21,8.64-7.99,11.96,2.65.1,5.33.04,7.99.04,2.67,0,5.33,0,8,0-4.74,6.72-7.62,13.7,1.96,11.96l2.04-3.96c.04.56,3.77,2.05,2.55,8.06-1.11,5.47-5.08,8.43-6.55,11.93-1.55-7.17-9.97-.01-12,0-.94,0-5.29-5.67-7.96-3.97-1.86,7.2,5,2.34,7.96,3.97.18.1.23,2.99,0,4-.16.71-9.05,7.52,0,8,3.02.16,4.35-.91,4-4h4c-5.93,10.29-1.89,17.77-20,8-.19-.1.46-4.07-2-3.92-2.59.72-1.57,2.57-2,3.92-.65,2.02.44,5.51,0,8-2.08.26-3.74,1.84-4,4-5.89-2.09-11.22-.54-12-12-.08-1.23-.17-3.9,0-4,.98-.57,16.38.43,7.98-7.98-8.45-8.45-7.42,7.41-7.98,7.98-.31.32-5.46,2.4-8,4-1,.63-1.71,3.42-4,4-1.35-4.01-4.98-3.15-8-4-1.13-.32-2.63.19-4,0-8.12-1.13-25.72-2.04-16-8h4l8-7.96c-15.63,3.73-10.33-17.62-20-.04-.27-.06-1.81,3.81-3.85,4.06-10.37-23.31-2.45-47.96,19.85-60.05,2.52-1.37,5.33-3.07,8-4s8.33.37,12,0c-.41,1.36-.37,6.5,0,8-3.47-.03-5.62,2.78-8,4-2.12,1.09-8.02-2.36-8,4,0,1.9-.1,3.18,2.06,3.97,1.97.27,3.98-.12,5.94.03.39,21.51,2.27,10.74,8,0,1.03-1.94,3.48-6.58,4-8,1.18,1.09,2.05,3.45,4,4-.35,2.55.52,5.66,0,8-.09.43-9.15,4.75,0,4,4.73-.39,1.65-7.39,6.03-8.06,8.72-1.76,2.79,14.97,21.94,4.01,1.35-3.88-9.72-7.36-11.97-7.95v-4l3.98-2.04c.78-3.38.13-6.16-3.98-5.96-4.64.23-1.71,12.15-11.98,7.98-2.76-23.94,3.41-12.58,11.98-15.98ZM588.11,455.96c-4.36-4.36-12.32,3.59-7.96,7.96,4.36,4.36,12.32-3.59,7.96-7.96ZM560.13,467.9l-7.96-7.96c-1.14,8.35-.4,9.1,7.96,7.96ZM600.13,467.94c-2.59.32-5.36-.25-7.97.02-1.12,8.34-.39,9.07,7.95,7.95.27-2.6-.3-5.38.02-7.97,2.59-.32,5.36.25,7.97-.02,1.12-8.34.39-9.07-7.95-7.95-.27,2.6.3,5.38-.02,7.97ZM570.13,475.93v4c2.6-1.33,2.6-2.67,0-4ZM578.13,487.93v4c2.6-1.33,2.6-2.67,0-4Z"/>
      <path class="cls-75" d="M596.13,439.94c2.25.59,13.32,4.07,11.97,7.95-19.14,10.97-13.22-5.77-21.94-4.01-4.38.67-1.3,7.67-6.03,8.06v-4c.52-2.34-.35-5.45,0-8,4.23,1.18,11.63-1.14,16,0Z"/>
      <path class="cls-251" d="M536.14,483.93c9.66-17.58,4.37,3.77,20,.04l-8,7.96c-1.24-1.38-2.43-2.98-4-4-1.93-1.25-6.08-3.56-8-4Z"/>
      <path class="cls-343" d="M612.13,511.93c-4.05,1.93-7.63,3.02-12,4-.82-1.66-2.25-3.38-4-4,.26-2.15,1.92-3.74,4-4,4.05-.5,10.66-.94,12,4Z"/>
      <path class="cls-216" d="M576.13,435.94c-.87-.8-3.93-3.72-4-4-.37-1.49-.41-6.64,0-8,3.02-.3,4.35-.59,4-4,10-.39.92,13.47,0,16Z"/>
      <path class="cls-367" d="M564.13,411.95v8c-.81.39-2.57-.14-4,0-2.62.25-5.36-.17-8,0,2.18-4.99-4.06-10.34,12-8Z"/>
      <path class="cls-262" d="M560.13,419.95v4c-2.67.93-5.48,2.63-8,4l-3.41-2.54c-.83-3.11,2.9-4.27,3.41-5.46,2.64-.17,5.38.25,8,0Z"/>
      <path class="cls-175" d="M560.13,499.93c4.25,4.25-3.52,12.43-7.98,7.98-4.45-4.45,3.73-12.23,7.98-7.98Z"/>
      <path class="cls-262" d="M564.13,419.95v-8c7.2,2.18,5.82,5.19,0,8Z"/>
      <path class="cls-339" d="M596.13,435.94v-8c4.11-.2,4.76,2.58,3.98,5.96l-3.98,2.04Z"/>
      <path class="cls-153" d="M584.13,495.93c-.17.1-.08,2.76,0,4h-8c2.53-1.6,7.69-3.68,8-4Z"/>
      <path class="cls-306" d="M572.13,503.93c-2.94.75-8.36.09-8-4,3.02.84,6.65-.01,8,4Z"/>
      <path class="cls-51" d="M548.13,491.93h-4v-4c1.57,1.02,2.76,2.62,4,4Z"/>
      <path class="cls-262" d="M572.13,423.95c.21-.71,3.64-3.98,4-4,.35,3.41-.98,3.7-4,4Z"/>
      <path class="cls-346" d="M608.13,411.95l4-4c.69,4.48-3.65,3.67-4,4Z"/>
      <path class="cls-128" d="M440.15,347.96c2.31,5.71,9.16,2.79,12,4,2.78,1.19,9.86,5.9,12,8,3.11,3.04,11.01,15.86,12,20-4.38.76-7.98,9.79-8.04,13.96,9.94,8.7,6.96-4.2,8.04-5.96.4-.64,2.91.57,4,0,3.62,11.97-5,17.45-8,23.99-1.55-7.17-9.97-.01-12,0-.94,0-5.29-5.67-7.96-3.97-1.86,7.2,5,2.34,7.96,3.97.18.1.23,2.99,0,4-.16.71-9.05,7.52,0,8,3.02.16,4.35-.91,4-4h4c-8.3,13.42-2.8,20.94-20,8-.18-.13.49-3.91-2-3.92-2.7.66-1.52,3.21-2,3.92-1.6,2.36-2.36,5.58-4,8v4c-10.58.54-21.38-.35-31.98-.04l23.97-4c1.52-.99-3.57-5.68-4-7.96-.24-1.27.16-2.69,0-4,13.84,0,12.45-8.82,0-8-1.41.09-3.18-.37-4,0l-4,4c-.52.73.33,2.67,0,4v4c-1.18.4-2.79,3.93-4,4-1.63-4.89-4.66-9.2-8-4-1.31-.14-2.74.25-4,0-8.17-1.61-25.6-1.54-16-8h4l8-7.96c-3.98-.12-8-.04-12-.04,1.45-12.13-3.15-9.36-8,0-.59.05-.86,5.04-3.94,3.99-9.67-22.93-2.99-48.85,19.94-59.98,5.9-2.87,13.8-2.46,20-4,.45,4.35,2.04,8.15,4,12,.8,1.57,2.69,2.79,4,4v4c-2.62.69-4.22-.01-4,4,3.32,9.95,7.42.07,8,0,2.6-.32,5.41.34,8,0,.59-.08,6.9,4.13,11.97-.05l.02-3.91c-2.39-.65-6.77.74-7.99-.04-.63-.4.54-2.84,0-4-.48-1.04.43-2.75,0-4l3.96-2.04c.93-6.2.28-6.85-5.92-5.92l-2.04,3.96c-.28,0-1.56,3.76-4,4-1.3-.05-3.03-.28-4,0-2.51-24.06,3.02-12.63,12-16ZM400.15,367.96c-.23,5.4,4.26,3.7,8,4-2.78,19.24,6.74,12.57,8,0,.19-1.95-.11-3.96-.04-5.94l-3.96-2.05-1.95-3.9-10.05,7.9ZM464.12,371.98h-7.96v11.96h7.96v-11.96ZM432.15,383.99c-8.36-1.14-9.1-.4-7.96,7.96l7.96-7.96ZM400.11,395.93c2.87-5.62-2.53-10.67-3.92-7.96-2.87,5.62,2.53,10.67,3.92,7.96ZM444.15,395.95c-2.59.32-5.36-.25-7.97.02-1.12,8.34-.39,9.07,7.95,7.95.27-2.6-.3-5.38.02-7.97,2.59-.32,5.36.25,7.97-.02,1.12-8.34.39-9.07-7.95-7.95-.27,2.6.3,5.38-.02,7.97ZM414.15,403.95v4c2.6-1.33,2.6-2.67,0-4Z"/>
      <path class="cls-124" d="M420.15,363.96c-1.96-3.85-3.55-7.64-4-12,2.38-.59,7.03-5.41,7.96-4l-3.96,15.99Z"/>
      <path class="cls-360" d="M396.15,347.96c1.17-3.58,2.74-16.05,11.98-7.98,10.49,9.16-11.2,7.36-11.98,7.98Z"/>
      <path class="cls-145" d="M388.16,411.95c4,0,8.02-.08,12,.04l-8,7.96c-1.25-1.42-2.65-2.68-4-4s-2.75-2.58-4-4c1.33-.05,2.67,0,4,0Z"/>
      <path class="cls-21" d="M440.15,367.96c.54,1.16-.63,3.6,0,4h-4c-3.71.57-8.78-.84-12,0v-4c1.51-.84,2.98-3.71,4-4,.97-.28,2.7-.05,4,0,.91.04,5.04,4.47,8,4Z"/>
      <path class="cls-369" d="M404.15,427.94c4.25,4.25-3.52,12.43-7.98,7.98-4.45-4.45,3.73-12.23,7.98-7.98Z"/>
      <path class="cls-323" d="M416.15,431.94c-9.03.52-7.55-3.95-8-4,3.34-5.2,6.37-.89,8,4Z"/>
      <path class="cls-49" d="M388.16,411.95c-1.33,0-2.67-.05-4,0s-2.68-.12-4,0c4.85-9.36,9.45-12.13,8,0Z"/>
      <path class="cls-131" d="M396.15,355.96c-10.57-4.41-.18-7.45,0-8-.54.43.32,5.59,0,8Z"/>
      <path class="cls-142" d="M428.15,423.95c.16,1.31-.24,2.72,0,4-2.48.45-6.03-.67-8,0v-4h8Z"/>
      <path class="cls-277" d="M392.16,419.95h-4v-4c1.34,1.32,2.75,2.58,4,4Z"/>
      <path class="cls-27" d="M452.15,339.96l4-4c.69,4.48-3.65,3.67-4,4Z"/>
      <path class="cls-23" d="M128.19,467.94c.65-.54-.55-5.75.03-7.99,9.39-.96-.19,6.81-.03,7.99Z"/>
      <path class="cls-201" d="M144.17,491.97c2.71,1.39-2.34,6.79-7.96,3.92-2.71-1.39,2.34-6.79,7.96-3.92Z"/>
      <path class="cls-198" d="M128.19,499.93c3.11-2.9,11.67,2.17,7.98,3.96-4.18,2.02-10.05-2.03-7.98-3.96Z"/>
      <path class="cls-2" d="M78.2,451.94c2.6,1.33,2.6,2.67,0,4v-4Z"/>
      <path class="cls-243" d="M236.18,567.91l15.96-12c-1.1,11.3,10.59,17.9-3.96,15.99-4.14-1.36-6.78-2.57-12-4Z"/>
      <path class="cls-187" d="M200.18,567.91c-5.55,2.17-13.82-16.16-2.06-11.96,6.09,2.17,5.99,10.42,2.06,11.96Z"/>
      <path class="cls-271" d="M216.18,563.91c-3.11,2.9-11.67-2.17-7.98-3.96,4.18-2.02,10.05,2.03,7.98,3.96Z"/>
      <path class="cls-159" d="M260.17,575.91c3.88-4.61,9.19-6.64,7.98-.03l-7.98.03Z"/>
      <path class="cls-29" d="M596.13,267.98c8.92.85,12.24,2.15,20,4,5.5,1.31,15.51,1.32,20,4,1.83,1.09,14.58,17.1,11.97,19.98l-15.97,4c8.27-.54,14.27-1.97,12,8.01l4,8c.35,2.3,4.38,5.83,4.22,9.61-.18,4.21-7.76,1.82-8.22,2.39-6.26,1.74-12.69,9.76-4,12-.01.3,4.86,1.05,4.03,3.94-19.2-4.8-15.12,7.37-16.03,8.06-.85.64-3.31-.67-4,0-11.33,1.57-11.37-5.44,0-4.04l-.02-3.92c-4.81.7-8.08-2.25-11.97-4.04-1.05-.48-.58-6.19-7.99-3.97-1.56,4.2,3.9,7.31,3.99,7.97.43,3.22-4.87,8.33,4,15.96-13.02,2.57-21.23-1.05-32-3.96v-4c1.32-.31,3.55.51,4,0,1.52-1.7,10.28-4.36,0-8-3.64.6-9.03-.92-12,0l-4,4v4c-21.5-13.38-11.68-16.3-15.96-33.36-1.18-4.72-10.4.51-8.07-8.59,1.04-4.04,5.79-.88,7.22-2.53,1.19-1.37-4.72-8.46-1.46-15.38,1.35-2.88,14.63-13.9,18.27-16.13.94-.58,2.89.55,4,0,5.33-2.63,11.84-3.06,16-8,2.64.11,5.38-.25,8,0ZM620.1,276.02c-5.62-2.87-10.67,2.53-7.96,3.92,5.62,2.87,10.67-2.53,7.96-3.92ZM578.13,283.98v4c2.6-1.33,2.6-2.67,0-4ZM608.11,288.02c-5.62-2.87-10.67,2.53-7.96,3.92,5.62,2.87,10.67-2.53,7.96-3.92ZM616.13,295.97c2.04.63,8.24,1.28,8.04-2,.2-3.28-6-2.63-8.04-2-1.3.41-3.92-.48-3.92,2,.72,2.58,2.55,1.57,3.92,2ZM602.13,303.97v4c2.6-1.33,2.6-2.67,0-4ZM576.09,315.95c2.87-5.62-2.53-10.67-3.92-7.96-2.87,5.62,2.53,10.67,3.92,7.96ZM628.1,308.01c-5.62-2.87-10.67,2.53-7.96,3.92,5.62,2.87,10.67-2.53,7.96-3.92ZM620.1,316.01c-5.62-2.87-10.67,2.53-7.96,3.92,5.62,2.87,10.67-2.53,7.96-3.92ZM564.13,339.96c.09.18,2.73.03,4,0,5.43-.14,11-2.01,12-7.96-3.95.14-8.07-.39-12-.04-1.35.12-3.82-.31-4,0l-3.98,5.96,3.98,2.04Z"/>
      <path class="cls-22" d="M636.12,275.98c-4.48-2.68-14.49-2.69-20-4-1.89-9.33,9.84-11.54,16-16l4,20Z"/>
      <path class="cls-110" d="M648.12,307.97c-2.72-15.28,13.99-7.15,7.98-.01-.84,1-7.07-.85-7.98.01Z"/>
      <path class="cls-358" d="M640.12,339.96c-8.69-2.24-2.26-10.26,4-12-.4.49-3.97,11.37-4,12Z"/>
      <path class="cls-166" d="M648.12,315.97l-4-8h4c-.29.28-.28,6.17,0,8Z"/>
      <path class="cls-288" d="M648.1,272.02c2.71,1.39-2.34,6.79-7.96,3.92-2.71-1.39,2.34-6.79,7.96-3.92Z"/>
      <path class="cls-222" d="M584.13,343.96v8c-.45.51-2.68-.31-4,0,.9-.9-.61-4.09-2-4-4.37.3.12,5.88,2,4v4c-4.12-1.11-8.29-1.69-12-4v-4c2.05-.33,3.4-3.81,4-4,2.97-.92,8.36.6,12,0Z"/>
      <path class="cls-195" d="M572.13,267.98c0,2.67,0,5.33,0,8-1.11.55-3.06-.58-4,0l-12-8c5.3-.19,10.69.28,16,0Z"/>
      <path class="cls-186" d="M612.13,339.96l-4,4c-.09-.65-5.54-3.77-3.99-7.97,7.41-2.22,6.94,3.49,7.99,3.97Z"/>
      <path class="cls-237" d="M632.12,459.94c.19,1.29-.11,2.68,0,4l-2.04,3.96c-9.57,1.75-6.7-5.24-1.96-11.96.98-1.39.56-3.7,4-4,.25,2.6-.37,5.45,0,8Z"/>
      <path class="cls-147" d="M620.12,431.94c-4.25-4.25,3.52-12.43,7.98-7.98,4.45,4.45-3.73,12.23-7.98,7.98Z"/>
      <path class="cls-161" d="M620.12,455.94c-2.67,0-5.34.06-7.99-.04,1.78-3.32,4.09-12.22,7.99-11.96v12Z"/>
      <path class="cls-325" d="M644.12,455.94c-2.45,5.52-6.25,4.23-12,4-.37-2.55.25-5.39,0-8,1.89-.17,8.47,4.28,12,4Z"/>
      <path class="cls-274" d="M472.14,411.95c-1.21,2.64-2.48,5.55-4,8h-4c.44-2.94-1.06-4.38-4-4,.23-1,.18-3.9,0-4,2.03-.01,10.45-7.17,12,0Z"/>
      <path class="cls-43" d="M488.14,383.95c-.49,4.68-5.82,2.85-8,4-1.09.57-3.6-.64-4,0-.37-2.55.54-5.74,0-8,1.48-.26,8.65,4.29,12,4Z"/>
      <path class="cls-19" d="M280.17,207.99c2.6,9.34,3.47,14.16-7.96,19.99-1.87-4.66,4.86-18.99,3.96-19.99h4Z"/>
      <path class="cls-255" d="M312.17,196c9.73,3.81,2.63,8.57-4,12l-8-4c2.31-2.09,5.43-7.21,8-8l2,3.92,2-3.92Z"/>
      <path class="cls-305" d="M332.16,211.99v8c-.58.04-6.59,7.79-8.02,1.98-.85-8.55-1.16-12.17,8.02-9.98Z"/>
      <path class="cls-337" d="M344.16,227.99c-1.12.94,3.54,11.71-7.98,7.97l3.98-11.97v-4c1.09.52,2.94-.53,4,0,.31,2.6-.21,5.37,0,8Z"/>
      <path class="cls-144" d="M288.17,203.99c-1.96-3.85-3.55-7.64-4-12,2.38-.59,7.03-5.41,7.96-4l-3.96,15.99Z"/>
      <path class="cls-123" d="M328.16,251.98c8.58-.92,27-7.93,4,8l-4-4c.26-1.15-.09-2.63,0-4Z"/>
      <path class="cls-24" d="M308.17,207.99v4c-1.31-.08-2.68-.04-4,0-3.69.1-9.12-.76-12,0v-4c.96-1.34,3.83-2.98,4-4h4l8,4Z"/>
      <path class="cls-332" d="M328.16,247.98h-8c-.89-3.02.53-8.29.04-12,6.51,1,6.92,6.67,7.96,12Z"/>
      <path class="cls-62" d="M308.17,211.99c3.97.24,8.02-.22,11.97.04v3.91c-5.26,3.16-13.34-.17-15.97.05v-4c1.32-.04,2.69-.08,4,0Z"/>
      <path class="cls-338" d="M284.17,271.98c4.05.94,16.04-2.26,16.04,2l-16.04,2c.17-.11.13-2.82,0-4Z"/>
      <path class="cls-68" d="M296.17,255.98c5.7.07,10.39-1.5,8.02,5.96-1.33,4.19-5.23,1.2-8.02,2.04.71-.71-.48-5.77,0-8Z"/>
      <path class="cls-116" d="M256.17,251.98c1.43,1.02,8.76-.72,12,.04l-8,7.96-4-4c-.01-1.31.24-3.84,0-4Z"/>
      <path class="cls-336" d="M352.16,251.98c-4.25,4.25-12.43-3.52-7.98-7.98s12.23,3.73,7.98,7.98Z"/>
      <path class="cls-269" d="M312.14,236.01c4.36,4.36-3.59,12.32-7.96,7.96-4.36-4.36,3.59-12.32,7.96-7.96Z"/>
      <path class="cls-233" d="M356.16,223.99c-1.98,5.43-10.82,3.01-12,4-.21-2.63.31-5.4,0-8,3.84,1.94,7.7,3.44,12,4Z"/>
      <path class="cls-249" d="M244.17,215.99c12.53-2.22,11.88,10.45,0,8,.57-2.43-.77-6.42,0-8Z"/>
      <path class="cls-304" d="M340.16,219.99v4c-2.33-.74-6.3-4.11-8-4v-8c5.16,1.23,6.92,7.48,8,8Z"/>
      <path class="cls-272" d="M304.17,211.99v4c-2.62.21-5.41-.33-8,0h-8c-.22-4.01,1.38-3.31,4-4,2.88-.76,8.31.1,12,0Z"/>
      <path class="cls-100" d="M280.17,207.99h-4c-.62-.7-5.66.45-7.97-.04v-3.91c11.23-9.42,10.15-2.58,11.97,3.95Z"/>
      <path class="cls-136" d="M256.17,251.98c-.53-.33-6.34-.32-8,0l7.97-8c.55,2.22-.56,7.58.03,8Z"/>
      <path class="cls-83" d="M296.17,263.98c-.71.71-5.77-.48-8,0-.3-.71-.12-2.8,0-4,.07-.68,3.29-2.44,4-4,1.2-.24,2.74-.01,4,0-.48,2.23.71,7.29,0,8Z"/>
      <path class="cls-199" d="M332.16,259.98c-15.22,10.54-4.21-3.06-4-4l4,4Z"/>
      <path class="cls-373" d="M284.17,271.98c-6.01-1.4-7.56-3.9-8-4,2.44-5.21,7.45-.99,8,4Z"/>
      <path class="cls-291" d="M296.17,263.98c-1.72.52-4.17,9.14-8,0,2.23-.48,7.29.71,8,0Z"/>
      <path class="cls-315" d="M328.16,247.98c.23,1.16.08,2.79,0,4-1.96.21-3.96-.04-5.93-.04-2.66-.72-1.65-2.55-2.07-3.96h8Z"/>
      <path class="cls-26" d="M320.14,228.03c2.71,1.39-2.34,6.79-7.96,3.92-2.71-1.39,2.34-6.79,7.96-3.92Z"/>
      <path class="cls-65" d="M268.13,235.97c-1.39,2.71-6.79-2.34-3.92-7.96,1.39-2.71,6.79,2.34,3.92,7.96Z"/>
      <path class="cls-191" d="M268.13,223.97c-1.39,2.71-6.79-2.34-3.92-7.96,1.39-2.71,6.79,2.34,3.92,7.96Z"/>
      <path class="cls-76" d="M296.17,215.99c-.58.07-4.68,9.95-8,0h8Z"/>
      <path class="cls-286" d="M300.15,224.03c2.71,1.39-2.34,6.79-7.96,3.92-2.71-1.39,2.34-6.79,7.96-3.92Z"/>
      <path class="cls-190" d="M308.17,196c1.2-.37,2.73.27,4,0l-2,3.92-2-3.92Z"/>
      <path class="cls-174" d="M282.17,243.99c2.6,1.33,2.6,2.67,0,4v-4Z"/>
      <path class="cls-45" d="M260.17,259.98h-4c-.09-1.32.01-2.67,0-4l4,4Z"/>
      <path class="cls-205" d="M288.17,259.98c-.63-2.73,1.62-3.53,4-4-.71,1.56-3.93,3.32-4,4Z"/>
      <path class="cls-250" d="M314.17,263.98c2.6,1.33,2.6,2.67,0,4v-4Z"/>
      <path class="cls-355" d="M328.16,20.03l-.02,15.98-5.94-.02c-3.04-1.06-4.32-6.74-6.04-7.96,3.75-6.29,4.53-8.04,12-8Z"/>
      <path class="cls-235" d="M368.16,48.03c-2.59,2.72-3.35,8.23-4,12-5.51-6.22-9.32-1.32-3.97-15.97h5.93s2.04,3.97,2.04,3.97Z"/>
      <path class="cls-182" d="M316.17,40.03c.4.2-.24,2.64,0,4l-3.92,2,3.92,2c-.93,5.6.19,4.18-4,8l-4-4c-.15-4.42-1.88-8.23-4-12,3.27.73,9.97-1.04,12,0Z"/>
      <path class="cls-180" d="M312.17,100.02v4c-3.28,1.5-6.2,4.09-10.15,3.86-4.24-.25-4.63-3.2-5.84-3.86l16-4Z"/>
      <path class="cls-224" d="M344.16,44.03l-4,8c-.92,0-13.88-11.12-11.98-11.96,5.52.55,14.82-2.96,15.98,3.96Z"/>
      <path class="cls-126" d="M368.16,88.02c-1.56,2.51-2.47,5.48-4,8l-7.98-1.98c2.24-5.02,9.92-4.45,11.98-6.02Z"/>
      <path class="cls-202" d="M316.17,40.03c-2.03-1.04-8.72.73-12,0-.14-.25-4.65.55-4-3.96l16,3.96Z"/>
      <path class="cls-240" d="M348.14,28.05c4.36,4.36-3.59,12.32-7.96,7.96-4.36-4.36,3.59-12.32,7.96-7.96Z"/>
      <path class="cls-330" d="M352.14,96.04c4.36,4.36-3.59,12.32-7.96,7.96-4.36-4.36,3.59-12.32,7.96-7.96Z"/>
      <path class="cls-28" d="M332.16,96.02c1.04-1.07-2.21-8.35,1.98-7.98l6.03,7.95-8.01.03Z"/>
      <path class="cls-246" d="M304.17,60.03c-.75,1.47.64,5.58-.01,7.99l-7.98-.03c-.08-4.67,5.27-5.76,8-7.96Z"/>
      <path class="cls-200" d="M292.17,84.02c6.69,6.68,6.33,9.11-4.03,7.96l4.03-7.96Z"/>
      <path class="cls-160" d="M320.16,76.06l-7.96,7.96c-1.14-8.35-.4-9.1,7.96-7.96Z"/>
      <path class="cls-297" d="M292.17,84.02l-7.98-.03c-.27-7.69,3.87-4.07,7.98.03Z"/>
      <path class="cls-227" d="M368.16,88.02c.72-.55,1.29-6.55,4-8-.3.35-2.39,5.41-4,8Z"/>
      <path class="cls-134" d="M344.12,76c-1.39,2.71-6.79-2.34-3.92-7.96,1.39-2.71,6.79,2.34,3.92,7.96Z"/>
      <path class="cls-17" d="M376.16,68.02h-4c-.13-3.23,3.4-6.05,4-8,.28,2.58-.5,5.74,0,8Z"/>
      <path class="cls-125" d="M352.12,68c-1.39,2.71-6.79-2.34-3.92-7.96,1.39-2.71,6.79,2.34,3.92,7.96Z"/>
      <path class="cls-293" d="M332.12,64c-1.39,2.71-6.79-2.34-3.92-7.96,1.39-2.71,6.79,2.34,3.92,7.96Z"/>
      <path class="cls-213" d="M340.16,52.03l4-8c.71,4.26.73,7.96-4,8Z"/>
      <path class="cls-317" d="M332.16,96.02c.11,1.32-.15,2.69,0,4l-8-4c1.61-.93,7.09.94,8,0Z"/>
      <path class="cls-169" d="M356.16,112.01c-1.54,1.15-4.69-1.28-4-4h4c-.65.55.65,3.51,0,4Z"/>
      <path class="cls-111" d="M312.17,104.02v-4h4c-1.33.62-2.54,3.33-4,4Z"/>
      <path class="cls-48" d="M304.17,28.03c-1.38.28-2.97-.4-4,0h4Z"/>
      <path class="cls-172" d="M316.17,48.03l-3.92-2,3.92-2c.19,1.1.18,2.89,0,4Z"/>
      <path class="cls-146" d="M326.16,48.03c2.6,1.33,2.6,2.67,0,4v-4Z"/>
      <path class="cls-1" d="M312.17,56.03c-.73.66-3.26-.66-4,0,.15-1.27.04-2.71,0-4l4,4Z"/>
      <path class="cls-13" d="M304.17,60.03c.84-.68,2.4-2.57,4-4-.24,2.04-3.56,3.14-4,4Z"/>
      <path class="cls-150" d="M358.16,80.02c2.6,1.33,2.6,2.67,0,4v-4Z"/>
      <path class="cls-128" d="M116.19,120.01c-2.73,3.76-11.91,2.45-12,8-.07,4.87,3.75,4.35,8,4,1.58,9.27-11.54,18.82-12,23.99-.28,3.17.89,4.07,4,4,7.41-.17.1-5.67,1.16-7.03,4.23-5.47,9.65-4.06,14.84-16.96.81-2.02-.84-7.04.04-7.99,1.43-1.54,5.78,3.63,7.96,3.99v4c-1.83.78-4.25-.52-4,4,.33,5.89,6.2,5.82,8,0,2.58,0,5.71-.41,8,0,1.87.33,7.03,6.06,12,4,.08.44,3.62,7.76,4,8,2.01,1.27,13.55-1.83,16,8h4c.93,5.07,9.11,5.68,0,16l-2.47-3.3c-3.67-1.21-7.62,3.18-9.53,3.3-.21-1.33-3.56-2.81-4-4-1.4-3.82,2.17-9.39-4-12-.13-2.38.4-7.68,0-8-9-7.31-7.44,7.43-8,8s-16.43-.47-7.98,7.98,7.38-7.45,7.98-7.98c.3-.27,6.86-.48,8,0,.2,3.65-.83,9.4,0,12,1.62,5.08,2.68,4.34,8,4,.21,1.28-.1,2.68,0,4,.04.6-4.04,3.02-3.72,5.6l3.72,2.4c-.06.22,3.96,2.08,2.27,3.88-6.39,6.79-7.77,5.69-14.27.12.39-2.91-1.07-4.47-4-4-3.62.59-3.26,6.47-4,12-16.24,2.14-16.26,7.66-36,0,1.01-1.53,3.1-2.62,4-4,.12-.18,3.94.49,3.92-2-.69-2.68-2.88-1.51-3.92-2s-2.69.39-4,0l-4-4h-4c-.64-1.22-3.04-2.4-4-4,.14-3.22-3.42-6.07-4-8-.62-2.06.43-5.45-.04-7.99l-7.96,7.99c-.63.1-.94,4.81-3.93,4.01-9.68-23.05-3.04-48.74,19.93-60,8.06-3.95,9.66-2.26,16,0ZM130.19,148.01v4c2.6-1.33,2.6-2.67,0-4ZM120.17,168.04c-5.62-2.87-10.67,2.53-7.96,3.92,5.62,2.87,10.67-2.53,7.96-3.92ZM124.19,184c-.12,1.2-.3,3.29,0,4,3.83,9.14,6.28.52,8,0,2.79-.84,6.7,2.15,8.02-2.04,2.36-7.46-2.32-5.89-8.02-5.96-1.26-.01-2.8-.24-4,0-2.38.47-4.63,1.27-4,4Z"/>
      <path class="cls-130" d="M128.19,128.01v4c-2.18-.35-6.53-5.52-7.96-3.99-.88.95.77,5.96-.04,7.99-1.46-1.17-2.58-2.8-4-4-4.12-3.47-6.06-5.1-12-4,.08-5.55,9.27-4.24,12-8,1.29.46,3.17-.55,4,0,1.5,1,3.39,7.55,8,8Z"/>
      <path class="cls-130" d="M140.19,128.01h4c-.58,2.38.69,5.97,0,8-2.75.57-4.39.29-4,4-2.29-.41-5.42,0-8,0h-8c-.25-4.52,2.17-3.22,4-4,1.72-.73,5.5.49,7.99-.04l-3.99-3.96c1.29-.02,5.96-3.4,8-4Z"/>
      <path class="cls-33" d="M128.19,128.01c-4.61-.44-6.5-7-8-8l7.96-8c.09,5.31.04,10.67.04,16Z"/>
      <path class="cls-165" d="M108.19,192c1.31.39,3-.47,4,0v4c-.9,1.38-2.99,2.47-4,4-15.13-5.87-4.32-4.96-8-12h4c.77,1.68,2.26,3.48,4,4Z"/>
      <path class="cls-219" d="M144.19,136.01c19.83-4.1,7.68,6.29,8,8-4.97,2.06-10.13-3.67-12-4,4.07.48,3.26-1.83,4-4Z"/>
      <path class="cls-360" d="M100.19,112.01c1.17-3.58,2.74-16.05,11.98-7.98,10.49,9.16-11.2,7.36-11.98,7.98Z"/>
      <path class="cls-86" d="M160.19,144.01c-4.77-21.67,20.21,3.02,4,4l-4-4Z"/>
      <path class="cls-80" d="M188.18,148.01c-1.96.56-11.53,3.57-12,4,.62-2.02-.55-5.47.02-7.99l11.98,3.99Z"/>
      <path class="cls-328" d="M176.16,116.03c4.36,4.36-3.59,12.32-7.96,7.96s3.59-12.32,7.96-7.96Z"/>
      <path class="cls-278" d="M140.19,128.01c-.4-6.8-1.43-9.29,5.96-8.02,6.25,2.53-1.86,7.62-1.96,8.02h-4Z"/>
      <path class="cls-95" d="M92.2,176c-.63-.38-6.26-.27-8,0l7.96-7.99c.47,2.54-.59,5.92.04,7.99Z"/>
      <path class="cls-366" d="M100.19,120.01c-10.57-4.41-.18-7.45,0-8-.54.43.32,5.59,0,8Z"/>
      <path class="cls-112" d="M132.19,132.01l3.99,3.96c-2.49.53-6.27-.69-7.99.04v-4c1.24.2,2.72.02,4,0Z"/>
      <path class="cls-64" d="M176.18,160h-4c-.13-3.23,3.4-6.05,4-8-.3.27-.25,6.62,0,8Z"/>
      <path class="cls-158" d="M96.19,184c-1.6-2.68-3.61-7.77-4-8,.58,1.93,4.14,4.78,4,8Z"/>
      <path class="cls-207" d="M164.19,148.01c-3.86.23-3.39-1.22-4-4l4,4Z"/>
      <path class="cls-56" d="M160.19,104.02l-3.92-2c.82-1.54,2.31-2.7,3.92-2,.18.08.05,2.74,0,4Z"/>
      <path class="cls-29" d="M464.15,112.01c9.67-.25,12.99,2.67,20,4,6.7,1.27,7.15,2.17,12,4l1.98,3.93,2.02-3.93c1.14.53,3.08-.57,4,0,1.1.69,2.79,2.76,4,4,2.94,3,8,9.71,8.05,13.97l-8.05,2.03-2.04-3.96c-20.2,5.65.47,6.97,2.04,7.96,5.55,3.48,2.82,5.47,4,8,1.1,2.35-.29,6.8,4,8,.35,2.3,4.38,5.83,4.22,9.61-.18,4.21-7.76,1.82-8.22,2.39-6.26,1.74-12.69,9.76-4,12-.19.49,7.28,6.42-2.01,7.2-4.22.35-11.2-9.39-10.04,4.77h-3.88c2.04-11.84-10.17-6.65-12.06-7.97-.91-.63,2.23-6.68-2.01-8.06-12.01-3.92-2.09,7.29-1.99,8.06.43,3.26-4.9,8.28,4,15.96-13.14,1.48-20.34.49-32-3.96,1.22-1.45,2.61-2.72,4-4,.68-.63,3.66.64,4,0,14.14-13.45-25.02-10.75-21.98-.01-23.14-20.02-26.52-58.67,1.98-75.97.95-.58,2.91.55,4,0,2.99-1.51,15.12-7.83,16-8,2.29-.43,5.39.07,8,0ZM488.12,120.03c-4.36-4.36-12.32,3.59-7.96,7.96,4.36,4.36,12.32-3.59,7.96-7.96ZM446.15,128.01v4c2.6-1.33,2.6-2.67,0-4ZM476.12,132.05c-5.62-2.87-10.67,2.53-7.96,3.92,5.62,2.87,10.67-2.53,7.96-3.92ZM484.14,136.01c-5.2-.27-6.14,7.55-2,7.98l2-3.98c10.44,5.59,10.1-9.83,0-4ZM472.1,155.98c2.87-5.62-2.53-10.67-3.92-7.96-2.87,5.62,2.53,10.67,3.92,7.96ZM440.15,152.01l-3.96,2.01v17.98c6.04-1.01,7.68-6.53,7.96-12,.22-4.22.93-8.25-4-8ZM488.14,160c-1.36.76-5.6-.64-7.99.02-1.08,8.34-.38,9.08,7.97,7.95.27-2.61-.3-5.38.02-7.97,3.29-1.85,7.85-3.44,8-7.96-10.94-1.31-7.07.55-8,7.96ZM436.13,183.98c4.54-4.64-1.71-12.87-7.96-1.96-.5,3.48,7.67,2.25,7.96,1.96Z"/>
      <path class="cls-73" d="M504.14,120.01c-.92-.57-2.86.53-4,0-1.05-.49-2.79.46-4,0-4.85-1.83-5.3-2.73-12-4-1.89-9.33,9.84-11.54,16-16l4,20Z"/>
      <path class="cls-38" d="M452.15,192v4c-1.39,1.28-2.78,2.55-4,4-1.8-.69-5.52.6-7.99-.02-2.43-9.15,3.23-9.86,11.99-7.98Z"/>
      <path class="cls-347" d="M440.15,112.01c0,2.67,0,5.33,0,8-1.09.55-3.05-.58-4,0l-12-8c5.23-.42,10.8.61,16,0Z"/>
      <path class="cls-318" d="M508.14,140.01v4c-1.57-.99-22.24-2.3-2.04-7.96l2.04,3.96Z"/>
      <path class="cls-140" d="M516.14,152.01c-2.72-15.28,13.99-7.15,7.98-.01-.84,1-7.07-.85-7.98.01Z"/>
      <path class="cls-114" d="M508.14,184c-8.69-2.24-2.26-10.26,4-12-.4.49-2.78,8.84-4,12Z"/>
      <path class="cls-14" d="M476.14,188c-.1-.77-10.02-11.98,1.99-8.06,4.24,1.38,1.1,7.44,2.01,8.06h-4Z"/>
      <path class="cls-185" d="M508.14,124.01c-1.03-8.37-.41-9.1,8-7.96l-8,7.96Z"/>
      <path class="cls-293" d="M516.14,160c-4.29-1.2-2.9-5.65-4-8h4c-.29.28-.28,6.17,0,8Z"/>
      <path class="cls-156" d="M456.15,196c-.34.64-3.32-.63-4,0v-4c2.72.58,4.4.27,4,4Z"/>
      <path class="cls-157" d="M76.2,267.98c5.44,1.43,7.78,2.6,12,4,2.2.73,5.79,6.74,12,4-1.4,1.39,11,14.49,12.02,18.07.62,2.16-5.96,1.23-7.93,4.83-1.51,2.75.66,7.67-.09,9.09-.95,1.81-8.61,3.23-7.99,7.96l14.08,3.95c6.2,6.54-1.28,6.78-2.09,8.09-4.08-.37-5.49,1.9-8,4-1.41,1.18-2.88,2.54-4,4-4.12,5.36-9.11,9.87-4,16h-16c2.02-7.02,11.08-.45,7.96-11.99-6.33,4.82-9.49.21-11.96,0l-2.04-3.98-5.96,3.98c-.14,10.36,11.43,11.25,12,12,.38.5,4.03,11.37,4,12-16.47,1.68-25.78-1.33-39.99-4,.52-2.29-.78-6.91,0-8,.48-.67,3.28.65,4,0,1.68-1.52,10.36-5.47,7.99-7.96-2.63-.24-5.37.2-7.99-.04-19.39-1.79-16.61,8.55-17.98,7.98-22.75-9.47-12.78-34.25-14.16-35.87-1.25-1.47-10.38.95-11.86-.11-.43-.3.11-6.29,0-8,21.81,2.98,4.12-7.23,11.58-18.06,2.17-3.15,17.09-16.28,20.41-17.93,1.04-.51,2.83.49,4,0,16.37-6.79,23.44-8.34,39.99-4ZM80.18,276.02c-5.62-2.87-10.67,2.53-7.96,3.92,5.62,2.87,10.67-2.53,7.96-3.92ZM44.2,287.94l-7.96-7.96c-1.14,8.35-.4,9.1,7.96,7.96ZM68.2,283.98c-6.58-.79-9.53-1.02-8.02,5.96.95,4.41,5.84.88,8.02,2.04,1.44.77,2.9,3.81,4,4,1.28.22,2.68-.12,4,0,3.94.35,8.05-.18,12-.04-.72-7.39-7.89-6.11-12-7.96-2.37-1.07-3.53-3.46-8-4ZM100.17,292.02c-5.62-2.87-10.67,2.53-7.96,3.92,5.62,2.87,10.67-2.53,7.96-3.92ZM68.18,299.99h-7.96c-1.3,5.89,1.76,8.31,6,11.96l1.96-11.96ZM40.2,308.01c-8.36-1.14-9.1-.4-7.96,7.96l7.96-7.96ZM88.18,308.01c-5.62-2.87-10.67,2.53-7.96,3.92,5.62,2.87,10.67-2.53,7.96-3.92ZM80.18,316.01c-5.62-2.87-10.67,2.53-7.96,3.92,5.62,2.87,10.67-2.53,7.96-3.92ZM36.18,332.01c-16.64-1.99-16.64,5.9,0,3.92v-3.92Z"/>
      <path class="cls-225" d="M76.2,267.98l15.96-12c-1.1,11.3,10.59,17.9-3.96,15.99-4.22-1.4-6.56-2.57-12-4Z"/>
      <path class="cls-265" d="M36.2,267.98l-4-8c2.26-.67,5.38-4.01,6-3.88,6.99,1.41,6.54,10.14-2,11.88Z"/>
      <path class="cls-223" d="M108.19,327.97c-2.18,3.5-3.6,6.74-8,8v-4c2.51-2.1,3.92-4.37,8-4Z"/>
      <path class="cls-266" d="M116.17,300.01c2.71,1.39-2.34,6.79-7.96,3.92-2.71-1.39,2.34-6.79,7.96-3.92Z"/>
      <path class="cls-181" d="M100.19,275.98c3.88-4.61,9.19-6.64,7.98-.03-2.24.62-7.29-.65-7.98.03Z"/>
      <path class="cls-71" d="M100.19,335.96h-4c1.12-1.46,2.59-2.82,4-4v4Z"/>
      <path class="cls-295" d="M104.19,307.97c1.88-1.88,6.37,3.7,2,4-1.39.09-2.9-3.1-2-4Z"/>
      <path class="cls-360" d="M264.17,188c1.17-3.58,2.74-16.05,11.98-7.98,10.49,9.16-11.2,7.36-11.98,7.98Z"/>
      <path class="cls-57" d="M272.17,267.98c4.49,4.59-1.7,12.94-7.98,1.98-.51-3.45,7.69-2.27,7.98-1.98Z"/>
      <path class="cls-143" d="M264.17,196c-10.57-4.41-.18-7.45,0-8-.54.43.32,5.59,0,8Z"/>
      <path class="cls-31" d="M376.16,60.03c.67-2.2-.84-7.33.02-7.98,6.93-5.3,24.1,19.54-.02,7.98Z"/>
      <path class="cls-30" d="M360.16,8.04c.3.26.09,5.72,0,8l-8-7.96c2.48.23,7.33-.61,8-.04Z"/>
      <path class="cls-322" d="M368.16,32.03c-2.9-3.11,2.17-11.67,3.96-7.98,2.02,4.18-2.03,10.05-3.96,7.98Z"/>
      <path class="cls-101" d="M464.15,112.01c-2.61.07-5.71-.43-8,0l2-16.04,6,16.04Z"/>
      <path class="cls-372" d="M440.15,112.01c0-2.67-.14-5.33.02-7.99,9.64-.34,13.91-2.54,11.96,7.97-3.92.36-8.07-.44-11.98.02Z"/>
      <path class="cls-274" d="M176.18,176c-2.51,2.85-3.64,4.34-8,4h-4c-.1-1.32.21-2.72,0-4,1.91-.12,5.86-4.51,9.53-3.3l2.47,3.3Z"/>
      <path class="cls-209" d="M168.19,180c-.99,2.67-3.3,5.39-4,8l-3.72-2.4c-.32-2.58,3.77-5,3.72-5.6h4Z"/>
      <path class="cls-151" d="M152.19,192c-1.44-1.24-2.83-2.49-4-4,2.93-.47,4.39,1.09,4,4Z"/>
      <path class="cls-113" d="M332.16,196c.44.02,5.14-5.79,7.97-3.97,1.91,7.16-6.54,2.57-7.97,3.97Z"/>
      <path class="cls-87" d="M32.2,271.98c-1.88,1.88-6.37-3.7-2-4,1.39-.09,2.9,3.1,2,4Z"/>
      <path class="cls-232" d="M320.16,180c-1.88-1.88,3.7-6.37,4-2,.09,1.39-3.1,2.9-4,2Z"/>
      <path class="cls-92" d="M232.18,343.96c4.43-3.84,2.22-10.8,11.99-7.96,1.44,1.09-3.26,5.73-3.99,7.96v4c-.97.91-6.58.54-8,4-11.37,1.53-31.75,10.56-28-4,15.95,6.55,9.35,1.78,16-4,3.2,8.7,7.9,3.55,12,0Z"/>
      <path class="cls-287" d="M264.17,351.96l15.96-12c-1.1,11.3,10.59,17.9-3.96,15.99-5.7-2.66-6-2.58-12-4Z"/>
      <path class="cls-281" d="M256.15,383.97l-1.96,11.96c-4.24-3.64-7.3-6.06-6-11.96h7.96Z"/>
      <path class="cls-108" d="M224.18,395.95c2.17,8.39.93,14.61-7.99,11.97,2.96-5.67-1.44-16.04,3.99-15.97l4,4Z"/>
      <path class="cls-99" d="M264.17,371.96c5.53-1.16,10.65,2.14,12,7.96l-12,.04v-8Z"/>
      <path class="cls-256" d="M276.15,387.97c4.36,4.36-3.59,12.32-7.96,7.96-4.36-4.36,3.59-12.32,7.96-7.96Z"/>
      <path class="cls-55" d="M260.15,415.97c4.36,4.36-3.59,12.32-7.96,7.96-4.36-4.36,3.59-12.32,7.96-7.96Z"/>
      <path class="cls-363" d="M264.17,435.94c-2.65-.12-5.33.24-7.98-.01-1.1-8.32-.38-9.11,7.96-7.94.66,2.43-.67,6.26.02,7.95Z"/>
      <path class="cls-284" d="M228.16,435.92c-.29.29-8.46,1.52-7.96-1.96,6.25-10.91,12.5-2.68,7.96,1.96Z"/>
      <path class="cls-192" d="M212.18,415.95c0-1.84-.12-3.09,1.98-3.84,15.51-.85,13.51,10.38,2.02,7.84l-4-4Z"/>
      <path class="cls-184" d="M296.17,383.95c1.17.06,12.12-9.55,8.02,1.96-1.53,4.31-5.51,1-8.02,2.04v-4Z"/>
      <path class="cls-300" d="M288.17,375.96v4c-6.07-2.15-13.74,3.49-1.98-7.92l1.98,3.92Z"/>
      <path class="cls-8" d="M256.15,367.98c.29.29,1.52,8.46-1.96,7.96-10.91-6.25-2.68-12.5,1.96-7.96Z"/>
      <path class="cls-171" d="M268.15,363.94c-.29.29-8.46,1.52-7.96-1.96,6.25-10.91,12.5-2.68,7.96,1.96Z"/>
      <path class="cls-231" d="M228.14,371.94c-1.39,2.71-6.79-2.34-3.92-7.96,1.39-2.71,6.79,2.34,3.92,7.96Z"/>
      <polygon class="cls-229" points="264.17 379.95 260.19 377.91 264.17 371.96 264.17 379.95"/>
      <path class="cls-218" d="M268.15,399.99c2.71,1.39-2.34,6.79-7.96,3.92-2.71-1.39,2.34-6.79,7.96-3.92Z"/>
      <path class="cls-248" d="M296.17,411.95c-3.25,3.63-6.83,3.05-8,4,2.44-1.78,3.9-4.51,8-4Z"/>
      <path class="cls-104" d="M272.13,431.92c-1.39,2.71-6.79-2.34-3.92-7.96,1.39-2.71,6.79,2.34,3.92,7.96Z"/>
      <path class="cls-298" d="M240.16,427.98c2.71,1.39-2.34,6.79-7.96,3.92-2.71-1.39,2.34-6.79,7.96-3.92Z"/>
      <path class="cls-61" d="M284.17,419.95c1.37-1.25,2.51-2.91,4-4-1.43,1.16-2.6,2.76-4,4Z"/>
      <path class="cls-66" d="M216.18,419.95c-2.89-.64-4.02-.06-4-4l4,4Z"/>
      <path class="cls-342" d="M296.17,395.95l-4-4c.04.67,3.5,2.31,4,4Z"/>
      <path class="cls-162" d="M224.18,395.95l-4-4c3.85-.43,3.34,1.46,4,4Z"/>
      <path class="cls-257" d="M232.18,343.96c-4.1,3.55-8.8,8.7-12,0,4.1-3.56,8.8-8.7,12,0Z"/>
      <path class="cls-155" d="M288.17,359.96c-4.25-4.25,3.52-12.43,7.98-7.98s-3.73,12.23-7.98,7.98Z"/>
      <path class="cls-310" d="M240.18,347.96v-4c-.26.78,4.47-.16,0,4Z"/>
      <path class="cls-25" d="M596.13,267.98c-2.62-.25-5.35.11-8,0s-5.35-.05-8,0v-8c2.18.38,7.02,5.56,7.96,4.04l.08-12.02c6.26-1.14,5.82,9.9,7.96,15.98Z"/>
      <path class="cls-220" d="M580.13,259.98v8c-2.66.05-5.35-.14-8,0,0-2.67-.13-5.33.02-7.98,2.57.18,5.52-.44,7.97-.01Z"/>
      <path class="cls-348" d="M464.15,359.96c-4.25-4.25,3.52-12.43,7.98-7.98s-3.73,12.23-7.98,7.98Z"/>
      <path class="cls-335" d="M44.2,343.96c2.63.24,5.36-.2,7.99.04,2.37,2.49-6.31,6.44-7.99,7.96v-8Z"/>
      <path class="cls-356" d="M40.2,351.96c-1.88,1.88-6.37-3.7-2-4,1.39-.09,2.9,3.1,2,4Z"/>
      <path class="cls-5" d="M300.17,12.04c5.53-1.16,10.65,2.14,12,7.96l-11.98.02-.02-7.98Z"/>
      <path class="cls-352" d="M628.12,483.93c-1.12,2.66-2.56,5.5-4,8h-4c.44-2.94-1.06-4.38-4-4,.23-1,.18-3.9,0-4,2.03-.01,10.45-7.17,12,0Z"/>
      <path class="cls-109" d="M604.13,499.93h-4c.43-1.35-.59-3.2,2-3.92,2.46-.15,1.81,3.81,2,3.92Z"/>
      <path class="cls-314" d="M408.15,623.9c-3.72-.33-8.23,1.43-8-4,7.58-2.07,6.54,3.02,8,4Z"/>
      <path class="cls-364" d="M232.18,639.9c2.47.21,5.63,4.82,11.96,0,3.6,9.69-5.9,8.09-7.96,11.99-9.67-1.29-7.79-1.51-12-12,2.64.13,5.37-.23,8,0Z"/>
      <path class="cls-321" d="M232.18,639.9c-2.63-.23-5.36.13-8,0-1.44-12.14,3.2-9.31,8,0Z"/>
      <path class="cls-285" d="M188.18,631.9c2.04-.63,8.24-1.28,8.04,2,.2,3.28-6,2.63-8.04,2v-4Z"/>
      <path class="cls-362" d="M240.16,615.94c2.71,1.39-2.34,6.79-7.96,3.92-2.71-1.39,2.34-6.79,7.96-3.92Z"/>
      <path class="cls-177" d="M248.15,607.94c2.71,1.39-2.34,6.79-7.96,3.92-2.71-1.39,2.34-6.79,7.96-3.92Z"/>
      <path class="cls-183" d="M196.14,615.88c-1.39,2.71-6.79-2.34-3.92-7.96,1.39-2.71,6.79,2.34,3.92,7.96Z"/>
      <path class="cls-40" d="M224.14,607.88c-1.39,2.71-6.79-2.34-3.92-7.96,1.39-2.71,6.79,2.34,3.92,7.96Z"/>
      <path class="cls-11" d="M236.18,591.91c6.73,2.3,16.01,2.06,0,4v-4Z"/>
      <path class="cls-18" d="M236.18,591.91v4c-9.79-13.29-1.43-4.49,0-4Z"/>
      <path class="cls-353" d="M200.14,587.89c-1.39,2.71-6.79-2.34-3.92-7.96,1.39-2.71,6.79,2.34,3.92,7.96Z"/>
      <path class="cls-84" d="M240.16,575.95c2.71,1.39-2.34,6.79-7.96,3.92-2.71-1.39,2.34-6.79,7.96-3.92Z"/>
      <path class="cls-106" d="M188.18,635.9c-1.37-.43-3.2.58-3.92-2,0-2.48,2.62-1.59,3.92-2v4Z"/>
      <path class="cls-262" d="M572.13,431.94c.07.27,3.13,3.2,4,4-.51,1.42-2.96,6.06-4,8-2.65-.14-5.36.21-8,0-1.96-.15-3.97.24-5.94-.03-2.15-.79-2.05-2.07-2.06-3.97l11.99-.04-4-3.96c2.38-1.22,4.53-4.03,8-4Z"/>
      <path class="cls-296" d="M572.13,443.94c-5.73,10.74-7.61,21.51-8,0,2.64.21,5.35-.14,8,0Z"/>
      <path class="cls-189" d="M588.11,455.96c4.36,4.36-3.59,12.32-7.96,7.96-4.36-4.36,3.59-12.32,7.96-7.96Z"/>
      <path class="cls-7" d="M600.13,467.94c.32-2.59-.25-5.36.02-7.97,8.34-1.12,9.07-.39,7.95,7.95-2.6.27-5.38-.3-7.97.02Z"/>
      <path class="cls-36" d="M600.13,467.94c-.32,2.59.25,5.36-.02,7.97-8.34,1.12-9.07.39-7.95-7.95,2.6-.27,5.38.3,7.97-.02Z"/>
      <path class="cls-197" d="M584.13,495.93c.56-.57-.47-16.43,7.98-7.98,8.4,8.4-7,7.41-7.98,7.98Z"/>
      <path class="cls-97" d="M620.12,491.93c-.05.35-3.74,1.95-4,4-9.05-.48-.16-7.29,0-8,2.94-.38,4.43,1.05,4,4Z"/>
      <path class="cls-342" d="M560.13,467.9c-8.36,1.14-9.1.4-7.96-7.96l7.96,7.96Z"/>
      <path class="cls-206" d="M564.13,435.94l4,3.96-11.99.04c-.02-6.36,5.88-2.91,8-4Z"/>
      <path class="cls-93" d="M616.13,483.93c-2.97-1.63-9.83,3.24-7.96-3.97,2.67-1.7,7.03,3.97,7.96,3.97Z"/>
      <path class="cls-267" d="M616.13,495.93c.26-2.05,3.95-3.65,4-4,.35,3.09-.98,4.16-4,4Z"/>
      <path class="cls-196" d="M578.13,487.93c2.6,1.33,2.6,2.67,0,4v-4Z"/>
      <path class="cls-127" d="M570.13,475.93c2.6,1.33,2.6,2.67,0,4v-4Z"/>
      <path class="cls-326" d="M580.13,451.94c-9.15.75-.09-3.57,0-4v4Z"/>
      <rect class="cls-344" x="456.17" y="371.98" width="7.96" height="11.96"/>
      <path class="cls-244" d="M476.14,387.95c-1.08,1.76,1.9,14.66-8.04,5.96.06-4.16,3.65-13.2,8.04-13.96.54,2.26-.37,5.45,0,8Z"/>
      <path class="cls-193" d="M416.15,371.96c-2.65-.14-5.36.21-8,0-3.74-.29-8.23,1.4-8-4l12-4,3.96,2.05c-.07,1.98.23,4,.04,5.94Z"/>
      <polygon class="cls-85" points="412.15 363.96 400.15 367.96 410.2 360.06 412.15 363.96"/>
      <path class="cls-121" d="M416.15,371.96c-1.26,12.57-10.78,19.24-8,0,2.64.21,5.35-.14,8,0Z"/>
      <path class="cls-309" d="M436.15,371.96v4c-2.59.34-5.4-.32-8,0h-8c-.22-4.01,1.38-3.31,4-4,3.22-.84,8.29.57,12,0Z"/>
      <path class="cls-54" d="M440.15,371.96c1.22.78,5.61-.61,7.99.04l-.02,3.91c-5.07,4.18-11.38-.03-11.97.05v-4h4Z"/>
      <path class="cls-337" d="M444.15,395.95c.32-2.59-.25-5.36.02-7.97,8.34-1.12,9.07-.39,7.95,7.95-2.6.27-5.38-.3-7.97.02Z"/>
      <path class="cls-178" d="M444.15,395.95c-.32,2.59.25,5.36-.02,7.97-8.34,1.12-9.07.39-7.95-7.95,2.6-.27,5.38.3,7.97-.02Z"/>
      <path class="cls-135" d="M428.15,415.95c12.45-.82,13.84,8,0,8-.32-2.6.21-5.37,0-8Z"/>
      <path class="cls-212" d="M464.15,419.95c-.05.35-3.74,1.95-4,4-9.05-.48-.16-7.29,0-8,2.94-.38,4.43,1.05,4,4Z"/>
      <path class="cls-91" d="M428.15,423.95h-8c.33-1.33-.52-3.27,0-4,.29-.41,3.74-3.88,4-4,.82-.37,2.59.09,4,0,.21,2.63-.32,5.4,0,8Z"/>
      <path class="cls-370" d="M432.15,383.99l-7.96,7.96c-1.14-8.35-.4-9.1,7.96-7.96Z"/>
      <path class="cls-132" d="M440.15,363.96c.43,1.25-.48,2.96,0,4-2.96.47-7.09-3.96-8-4,2.44-.24,3.72-3.99,4-4,4.36-.09,3.21,1.71,4,4Z"/>
      <path class="cls-236" d="M436.15,359.96l2.04-3.96c6.2-.93,6.85-.28,5.92,5.92l-3.96,2.04c-.79-2.29.36-4.09-4-4Z"/>
      <path class="cls-345" d="M428.15,375.96c-.58.07-4.67,9.95-8,0h8Z"/>
      <path class="cls-90" d="M400.11,395.93c-1.39,2.71-6.79-2.34-3.92-7.96,1.39-2.71,6.79,2.34,3.92,7.96Z"/>
      <path class="cls-299" d="M460.15,411.95c-2.97-1.63-9.83,3.24-7.96-3.97,2.67-1.7,7.03,3.97,7.96,3.97Z"/>
      <path class="cls-204" d="M448.15,427.94h-4c.48-.7-.7-3.26,2-3.92,2.49,0,1.82,3.79,2,3.92Z"/>
      <path class="cls-341" d="M460.15,423.95c.26-2.05,3.95-3.65,4-4,.35,3.09-.98,4.16-4,4Z"/>
      <path class="cls-10" d="M420.15,419.95l4-4c-.26.12-3.71,3.59-4,4Z"/>
      <path class="cls-133" d="M414.15,403.95c2.6,1.33,2.6,2.67,0,4v-4Z"/>
      <path class="cls-283" d="M568.13,331.97c3.93-.35,8.05.18,12,.04-1,5.95-6.57,7.81-12,7.96v-8Z"/>
      <path class="cls-283" d="M580.13,267.98c2.65-.05,5.35-.11,8,0-4.16,4.94-10.67,5.37-16,8,0-2.67,0-5.33,0-8,2.65-.14,5.34.05,8,0Z"/>
      <path class="cls-351" d="M576.09,315.95c-1.39,2.71-6.79-2.34-3.92-7.96,1.39-2.71,6.79,2.34,3.92,7.96Z"/>
      <path class="cls-138" d="M628.1,308.01c2.71,1.39-2.34,6.79-7.96,3.92-2.71-1.39,2.34-6.79,7.96-3.92Z"/>
      <path class="cls-168" d="M620.1,316.01c2.71,1.39-2.34,6.79-7.96,3.92-2.71-1.39,2.34-6.79,7.96-3.92Z"/>
      <path class="cls-290" d="M616.13,291.97c2.04-.63,8.24-1.28,8.04,2,.2,3.28-6,2.63-8.04,2v-4Z"/>
      <path class="cls-283" d="M564.13,339.96l-3.98-2.04,3.98-5.96c-.35.63-.37,7.3,0,8Z"/>
      <path class="cls-294" d="M568.13,339.96c-1.27.03-3.91.18-4,0-.37-.7-.35-7.37,0-8,.17-.31,2.64.12,4,0v8Z"/>
      <path class="cls-39" d="M584.13,351.96v-8c10.28,3.63,1.52,6.29,0,8Z"/>
      <path class="cls-214" d="M608.11,288.02c2.71,1.39-2.34,6.79-7.96,3.92-2.71-1.39,2.34-6.79,7.96-3.92Z"/>
      <path class="cls-230" d="M620.1,276.02c2.71,1.39-2.34,6.79-7.96,3.92-2.71-1.39,2.34-6.79,7.96-3.92Z"/>
      <path class="cls-279" d="M578.13,283.98c2.6,1.33,2.6,2.67,0,4v-4Z"/>
      <path class="cls-283" d="M568.13,347.96l4-4c-.6.19-1.95,3.67-4,4Z"/>
      <path class="cls-105" d="M616.13,295.97c-1.37-.43-3.2.58-3.92-2,0-2.48,2.62-1.59,3.92-2v4Z"/>
      <path class="cls-9" d="M602.13,303.97c2.6,1.33,2.6,2.67,0,4v-4Z"/>
      <path class="cls-102" d="M580.13,351.96c-1.88,1.88-6.37-3.7-2-4,1.39-.09,2.9,3.1,2,4Z"/>
      <path class="cls-268" d="M332.16,108.02c-1.88,1.88-6.37-3.7-2-4,1.39-.09,2.9,3.1,2,4Z"/>
      <path class="cls-263" d="M120.19,136.01c-5.19,12.9-10.61,11.5-14.84,16.96-1.05,1.36,6.26,6.86-1.16,7.03l-4-4c.46-5.18,13.58-14.73,12-23.99h4c1.42,1.19,2.54,2.83,4,4Z"/>
      <path class="cls-34" d="M156.19,152.01c.4.32-.13,5.62,0,8-1.14-.48-7.7-.27-8,0,.56-.56-1-15.3,8-8Z"/>
      <path class="cls-292" d="M148.19,160c-.6.53.5,16.46-7.98,7.98s7.42-7.41,7.98-7.98Z"/>
      <path class="cls-210" d="M132.19,180c5.7.07,10.39-1.5,8.02,5.96-1.33,4.19-5.23,1.2-8.02,2.04.71-.71-.48-5.77,0-8Z"/>
      <path class="cls-349" d="M132.19,188c-.71.71-5.77-.48-8,0-.3-.71-.12-2.8,0-4,.07-.68,3.29-2.44,4-4,1.2-.24,2.74-.01,4,0-.48,2.23.71,7.29,0,8Z"/>
      <path class="cls-354" d="M160.19,172h-4c-.83-2.59.2-8.35,0-12,6.17,2.61,2.6,8.17,4,12Z"/>
      <path class="cls-20" d="M116.19,132.01h-4c-4.25.35-8.07.87-8-4,5.94-1.1,7.87.53,12,4Z"/>
      <path class="cls-245" d="M132.19,140.01c-1.8,5.82-7.67,5.89-8,0h8Z"/>
      <path class="cls-313" d="M120.17,168.04c2.71,1.39-2.34,6.79-7.96,3.92-2.71-1.39,2.34-6.79,7.96-3.92Z"/>
      <path class="cls-312" d="M164.19,176c-5.31.34-6.38,1.08-8-4h4c.44,1.19,3.79,2.67,4,4Z"/>
      <path class="cls-154" d="M132.19,188c-1.72.52-4.17,9.14-8,0,2.23-.48,7.29.71,8,0Z"/>
      <path class="cls-72" d="M112.19,196v-4c1.04.49,3.23-.68,3.92,2,.02,2.49-3.8,1.82-3.92,2Z"/>
      <path class="cls-365" d="M108.19,192c-1.74-.52-3.23-2.32-4-4l4,4Z"/>
      <path class="cls-334" d="M124.19,184c-.63-2.73,1.62-3.53,4-4-.71,1.56-3.93,3.32-4,4Z"/>
      <path class="cls-259" d="M104.19,160c-3.1.07-4.28-.83-4-4l4,4Z"/>
      <path class="cls-176" d="M130.19,148.01c2.6,1.33,2.6,2.67,0,4v-4Z"/>
      <path class="cls-69" d="M140.19,140.01c-.39-3.71,1.25-3.43,4-4-.74,2.17.07,4.48-4,4Z"/>
      <path class="cls-63" d="M444.15,160c-.28,5.47-1.92,10.98-7.96,12v-17.98s3.96-2.01,3.96-2.01l4,8Z"/>
      <path class="cls-12" d="M488.12,120.03c4.36,4.36-3.59,12.32-7.96,7.96-4.36-4.36,3.59-12.32,7.96-7.96Z"/>
      <path class="cls-242" d="M488.14,160c-.32,2.59.25,5.36-.02,7.97-8.35,1.12-9.05.39-7.97-7.95,2.39-.66,6.63.75,7.99-.02Z"/>
      <path class="cls-359" d="M436.13,183.98c-.29.29-8.46,1.52-7.96-1.96,6.25-10.91,12.5-2.68,7.96,1.96Z"/>
      <path class="cls-230" d="M488.14,160c.93-7.41-2.94-9.27,8-7.96-.14,4.52-4.71,6.11-8,7.96Z"/>
      <path class="cls-241" d="M476.12,132.05c2.71,1.39-2.34,6.79-7.96,3.92-2.71-1.39,2.34-6.79,7.96-3.92Z"/>
      <path class="cls-203" d="M484.14,140.01l-2,3.98c-4.14-.43-3.2-8.25,2-7.98-.17.1-.18,3.9,0,4Z"/>
      <path class="cls-163" d="M484.14,136.01c10.1-5.83,10.44,9.59,0,4-.18-.09-.17-3.9,0-4Z"/>
      <path class="cls-215" d="M472.1,155.98c-1.39,2.71-6.79-2.34-3.92-7.96,1.39-2.71,6.79,2.34,3.92,7.96Z"/>
      <path class="cls-89" d="M444.15,160l-4-8c4.93-.25,4.22,3.77,4,8Z"/>
      <path class="cls-194" d="M446.15,128.01c2.6,1.33,2.6,2.67,0,4v-4Z"/>
      <path class="cls-319" d="M496.14,120.01c1.21.46,2.95-.49,4,0l-2.02,3.93-1.98-3.93Z"/>
      <path class="cls-107" d="M72.2,339.96c2.47.21,5.63,4.82,11.96,0,3.11,11.55-5.94,4.97-7.96,11.99-.56-.74-12.14-1.64-12-12,2.64.13,5.37-.23,8,0Z"/>
      <path class="cls-122" d="M76.2,287.98c4.11,1.85,11.27.57,12,7.96-3.95-.14-8.06.39-12,.04l-4-4,4-4Z"/>
      <path class="cls-4" d="M68.18,299.99l-1.96,11.96c-4.24-3.64-7.3-6.06-6-11.96h7.96Z"/>
      <path class="cls-333" d="M76.2,287.98l-4,4v4c-1.1-.19-2.56-3.23-4-4v-8c4.47.54,5.62,2.93,8,4Z"/>
      <path class="cls-260" d="M68.2,283.98v8c-2.19-1.16-7.07,2.37-8.02-2.04-1.51-6.98,1.44-6.75,8.02-5.96Z"/>
      <path class="cls-173" d="M44.2,287.94c-8.36,1.14-9.1.4-7.96-7.96l7.96,7.96Z"/>
      <path class="cls-70" d="M36.18,332.01v3.92c-16.64,1.99-16.64-5.9,0-3.92Z"/>
      <path class="cls-78" d="M40.2,308.01l-7.96,7.96c-1.14-8.35-.4-9.1,7.96-7.96Z"/>
      <path class="cls-98" d="M88.18,308.01c2.71,1.39-2.34,6.79-7.96,3.92-2.71-1.39,2.34-6.79,7.96-3.92Z"/>
      <path class="cls-16" d="M80.18,316.01c2.71,1.39-2.34,6.79-7.96,3.92-2.71-1.39,2.34-6.79,7.96-3.92Z"/>
      <path class="cls-139" d="M100.17,292.02c2.71,1.39-2.34,6.79-7.96,3.92-2.71-1.39,2.34-6.79,7.96-3.92Z"/>
      <path class="cls-41" d="M72.2,339.96c-2.63-.23-5.36.13-8,0l5.96-3.98,2.04,3.98Z"/>
      <path class="cls-152" d="M80.18,276.02c2.71,1.39-2.34,6.79-7.96,3.92-2.71-1.39,2.34-6.79,7.96-3.92Z"/>
      <path class="cls-270" d="M76.2,295.97c-1.31-.12-2.72.22-4,0v-4l4,4Z"/>
    </g>
  </g>
</svg>