<?xml version="1.0" encoding="UTF-8"?>
<svg id="Layer_2" data-name="Layer 2" xmlns="http://www.w3.org/2000/svg" viewBox="0 0 234.02 176.01">
  <defs>
    <style>
      .cls-1 {
        fill: none;
      }

      .cls-2 {
        fill: #fff;
      }
    </style>
  </defs>
  <g id="Layer_1-2" data-name="Layer 1">
    <path class="cls-1" d="M117.76,155.04c42.44,0,102.8-29.3,102.8-29.3l.93,1.14c-.58.35-1.19.71-1.81,1.08-18.58,11.01-54.55,28.53-101.92,28.53-20.07,0-59.62-3.14-102.93-29.13-.27-.16-.53-.32-.8-.48"/>
    <path class="cls-2" d="M222.49,127.97h0l-1.01-1.24s-1.24.87-1.79,1.23c-18.17,11.68-54.55,28.53-101.92,28.53-20.07,0-62.97-3.53-102.93-29.13-.21-.14-1.2-.87-1.66-1.17l-.23.04c-4.26,5.23-8.53,10.46-12.79,15.69-.26.32-.17.8.18,1.01,49.09,29.53,93.94,33.08,116.68,33.08,54.81,0,96.13-20.72,116.7-33.1.34-.21.42-.67.16-.98l-11.38-13.96Z"/>
    <path class="cls-2" d="M218.91,123.72L117.44.22c-.25-.3-.7-.3-.95,0-16.92,20.73-33.8,41.49-50.63,62.3-16.68,20.62-34.14,40.6-50.73,61.29,0,0,.82.59.81.6,14.88,9.06,51.07,28.47,101.06,28.54,17.5.02,33.33-2.32,47.16-5.77.01,0,.02,0,.03-.01.03-.01.06-.02.09-.02,12.16-3.04,22.78-6.93,31.64-10.84.05,0,.09-.03.14-.05.03-.01.06-.03.09-.04h0c10.13-4.48,17.92-8.93,23.08-12.1l-.34-.41ZM80.55,113.69c-9.58,0-17.33-7.77-17.33-17.34s7.75-17.33,17.33-17.33,17.34,7.75,17.34,17.33-7.77,17.34-17.34,17.34ZM125.76,81.19c-8.1,0-14.66-6.56-14.66-14.66s6.56-14.66,14.66-14.66,14.65,6.57,14.65,14.66-6.56,14.66-14.65,14.66ZM155.68,128.96c-8.44,0-15.27-6.84-15.27-15.27s6.83-15.27,15.27-15.27,15.27,6.83,15.27,15.27-6.83,15.27-15.27,15.27Z"/>
  </g>
</svg>