<?xml version="1.0" encoding="UTF-8"?>
<svg id="Layer_2" data-name="Layer 2" xmlns="http://www.w3.org/2000/svg" viewBox="0 0 180 180">
  <defs>
    <style>
      .cls-1 {
        fill: #fff;
      }
    </style>
  </defs>
  <g id="Layer_9" data-name="Layer 9">
    <path class="cls-1" d="M108.24,49.69h-31.49v-8.86c0-.12.65-1.47.79-1.73,1.15-2.08,2.95-2.75,5.24-2.92,6.58-.49,13.82.33,20.47.09,1.01.14,2.54.79,3.28,1.5.42.4,1.71,2.62,1.71,3.06v8.86Z"/>
    <path class="cls-1" d="M133.16,133.37c-1.03,1.01-2.8,1.67-4.24,1.8H55.81c-8.18-1.49-7.98-12.66.56-13.5h72.25c5.94.32,8.91,7.42,4.54,11.7Z"/>
    <path class="cls-1" d="M133.16,110.88c-1.03,1.01-2.8,1.67-4.24,1.8H55.81c-8.18-1.49-7.98-12.66.56-13.51h72.25c5.94.33,8.91,7.43,4.54,11.71Z"/>
    <path class="cls-1" d="M133.16,88.39c-1.03,1.01-2.8,1.66-4.24,1.8H55.81c-8.18-1.49-7.98-12.66.56-13.51h72.25c5.94.32,8.91,7.43,4.54,11.71Z"/>
    <path class="cls-1" d="M147.83.02c-.37,0-.75-.02-1.13-.02H33.09C15.16.11.59,14.39.02,32.22c0,.36-.02.72-.02,1.08v113.6c.11,18.31,14.98,33.1,33.3,33.1h113.4c18.39,0,33.3-14.91,33.3-33.29V33.3C180,15.28,165.7.62,147.83.02ZM146.59,157.66H33.41c-4.93,0-8.92-3.99-8.92-8.91V58.61c0-4.93,3.99-8.92,8.92-8.92h29.85v-9.98c0-8.78,9.86-16.49,18.12-17.02,5.86-.39,20.07-.68,25.41.48,6.82,1.47,14.95,8.92,14.95,16.26v10.26h24.46c4.91,0,8.9,3.97,8.92,8.88l.39,90.14c.02,4.94-3.98,8.95-8.92,8.95Z"/>
  </g>
</svg>