<?xml version="1.0" encoding="UTF-8"?>
<svg id="Layer_2" data-name="Layer 2" xmlns="http://www.w3.org/2000/svg" viewBox="0 0 617.09 671.33">
  <defs>
    <style>
      .cls-1 {
        fill: #f15b4e;
      }

      .cls-2 {
        fill: #e14845;
      }

      .cls-3 {
        fill: #f26e63;
      }

      .cls-4 {
        fill: #e94235;
      }

      .cls-5 {
        fill: #f9c1a6;
      }

      .cls-6 {
        fill: #e85e5d;
      }

      .cls-7 {
        fill: #e5ae70;
      }

      .cls-8 {
        fill: #ed9a6a;
      }

      .cls-9 {
        fill: #edb395;
      }

      .cls-10 {
        fill: #ea5e5e;
      }

      .cls-11 {
        fill: #e64336;
      }

      .cls-12 {
        fill: #f16154;
      }

      .cls-13 {
        fill: #edaa69;
      }

      .cls-14 {
        fill: #f15f52;
      }

      .cls-15 {
        fill: #e85d5c;
      }

      .cls-16 {
        fill: #e7392d;
      }

      .cls-17 {
        fill: #eb3b2d;
      }

      .cls-18 {
        fill: #f15c4f;
      }

      .cls-19 {
        fill: #fdc694;
      }

      .cls-20 {
        fill: #e15959;
      }

      .cls-21 {
        fill: #ec9665;
      }

      .cls-22 {
        fill: #e73d30;
      }

      .cls-23 {
        fill: #e93c2d;
      }

      .cls-24 {
        fill: #e65a5b;
      }

      .cls-25 {
        fill: #f0b672;
      }

      .cls-26 {
        fill: #e99360;
      }

      .cls-27 {
        fill: #fcca9f;
      }

      .cls-28 {
        fill: #e0a789;
      }

      .cls-29 {
        fill: #e73d2f;
      }

      .cls-30 {
        fill: #e67a67;
      }

      .cls-31 {
        fill: #e55755;
      }

      .cls-32 {
        fill: #ee9367;
      }

      .cls-33 {
        fill: #f05142;
      }

      .cls-34 {
        fill: #e67967;
      }

      .cls-35 {
        fill: #f16457;
      }

      .cls-36 {
        fill: #e7b181;
      }

      .cls-37 {
        fill: #e69769;
      }

      .cls-38 {
        fill: #f04c40;
      }

      .cls-39 {
        fill: #d79e85;
      }

      .cls-40 {
        fill: #fdcea8;
      }

      .cls-41 {
        fill: #e95d5d;
      }

      .cls-42 {
        fill: #dfa168;
      }

      .cls-43 {
        fill: #dda081;
      }

      .cls-44 {
        fill: #e24845;
      }

      .cls-45 {
        fill: #e35a5a;
      }

      .cls-46 {
        fill: #eca967;
      }

      .cls-47 {
        fill: #f1ab6a;
      }

      .cls-48 {
        fill: #f16054;
      }

      .cls-49 {
        fill: #fbcab9;
      }

      .cls-50 {
        fill: #ec9462;
      }

      .cls-51 {
        fill: #e45a5a;
      }

      .cls-52 {
        fill: #f37268;
      }

      .cls-53 {
        fill: #f69374;
      }

      .cls-54 {
        fill: #dda365;
      }

      .cls-55 {
        fill: #e65b57;
      }

      .cls-56 {
        fill: #f0b89c;
      }

      .cls-57 {
        fill: #e89a6b;
      }

      .cls-58 {
        fill: #fccca9;
      }

      .cls-59 {
        fill: #f15749;
      }

      .cls-60 {
        fill: #e3b79f;
      }

      .cls-61 {
        fill: #e79669;
      }

      .cls-62 {
        fill: #f5a966;
      }

      .cls-63 {
        fill: #e93b2e;
      }

      .cls-64 {
        fill: #e83b2c;
      }

      .cls-65 {
        fill: #e4b798;
      }

      .cls-66 {
        fill: #d6ac90;
      }

      .cls-67 {
        fill: #fcc9b4;
      }

      .cls-68 {
        fill: #eb3d2f;
      }

      .cls-69 {
        fill: #e37662;
      }

      .cls-70 {
        fill: #e95b5a;
      }

      .cls-71 {
        fill: #eba968;
      }

      .cls-72 {
        fill: #f16155;
      }

      .cls-73 {
        fill: #e9bf91;
      }

      .cls-74 {
        fill: #e3392d;
      }

      .cls-75 {
        fill: #e3715c;
      }

      .cls-76 {
        fill: #e6806f;
      }

      .cls-77 {
        fill: #e75d5c;
      }

      .cls-78 {
        fill: #e55959;
      }

      .cls-79 {
        fill: #eb5e5d;
      }

      .cls-80 {
        fill: #ef8a60;
      }

      .cls-81 {
        fill: #d86d59;
      }

      .cls-82 {
        fill: #ea3b2c;
      }

      .cls-83 {
        fill: #db5e5b;
      }
    </style>
  </defs>
  <g id="olives">
    <g>
      <path class="cls-68" d="M312.26,3.41c37.66,7.15,73.92,53.82,57.91,91.9-4.14,9.85-24.79,18.75-29.52,26.47-9.59,15.66,1.53,33.33-24.4,45.59-24.71,11.68-62.02,10.94-85.34-4.65-22.73-15.19-14.5-25.96-21.7-46.28-3.52-9.95-11.86-16.57-16.94-25.06,14.64,2.57,2.78-7.58.95-19.06-1.05-6.58-1.85-14.4-.95-20.93,2.36-1.46,11.71-7.34,12-8-9.79,21.96-4.33,43.73,16,55.99-5.4,2.13-9.32,5.44-7.97,11.99,4.68.18,6.82-4.3,11.98-2.07,8.28,3.59-8.33,20.85,7.98,10.08-1.45,38.13,39.18,43.16,68.18,34.19,15.57-4.82,12.3-12.16,15.81-22.19,1.28-3.66,1.63-3.7,0-7.96,15.76,1.69,14.4,8.89,19.99-8l-15.98-.08c-.87-4.52,4.61-5.48,7.98-7.96,1.25-.92,5.6-.07,9.72-4.1,44.87-43.84-1.82-98.04-53.71-95.84l19.98,8c.79,5.18-7.9,6.33-11.98,7.96-2,.79-6.19-.82-8,0-3.06-17.18-27.21-14.3-41.16-11.15-10.11,2.28-34.68,21.83-38.83,31.15,1.01-2.31-.61-8.5-.04-11.98-2.03-4.3-11.18,14.36-11.96,19.98-2.51,1.56-5.42,2.55-8,4,2.38-17.23,31.04-49.13,47.81-54.15,9.77-2.92,68.23-.11,80.17,2.16ZM352.3,103.39c10.61-4.51,12.69-17.73,11.92-27.97-6.64,4.25-9.45,20.53-11.92,27.97Z"/>
      <path class="cls-17" d="M448.25,247.36c10.36-4.47-5.82-14.17-9.01-21.14-2.51-5.5-2.42-9.27-2.99-14.85,2.19-6.03,6.86-10.61,3.96-19.98h-3.92c.37,6.54-.7,13.49-.04,19.98-1.02,2.81-6.24,6.1-4,12-15.13-60.63,43.17-88,95.01-94.92,28.34-3.78,57.07,3.53,74.71,27.2,33.25,44.62-.96,48.44-5.02,74.54-3.79,24.35,16.7,26.42-14.82,53.07-22.83,19.31-51.4,27.08-80.8,17.01-22.31-7.64-20.86-26.85-33.25-38.73-3.62-3.47-13.14-8.66-19.84-14.18ZM580.23,223.36c33.51-32.25,8.66-82.87-33.89-88.05-10.91-1.33-34.03-3.03-38.1,8.03l15.98.07c1.87,5.49-3.88,7.49-3.98,7.97-1.85.48-3.87,2.15-4,4-15.84-13.78-21.37-8.36-36,0-2.14,1.22-10.53,6.75-12,8-22.66,19.29-37.66,54.27-10.06,76.19,8.38,6.65,11.98-2.16,14.06,11.79,2.36,15.82,2.24,3.94,13.67,3.94,1.45,7.01,9.72,7.43,10.32,8.05,3.24,3.38,2.59,13.25,14.52,19.47,24.21,12.61,70.95-5.58,69.47-35.46-.17-3.5-1.92-9.2-4-12,13.52.93,18.53,3.01,15.96-11.99l-13.9,4.06c-5.05-.21,1.92-3.71,1.94-4.07ZM604.17,207.33c2.08-7.52,4.22-13.14,3.8-21.36-.18-3.41-2.08-19.11-7.71-18.58l3.91,39.94Z"/>
      <path class="cls-82" d="M136.29,531.29c.48,6.13-2.59,13.43,3.96,11.97.54-2.46-.71-6.37.04-7.97,4.07,1.13,3.47,4.69,4,8,.4,2.53-.51,5.66,0,8,2.77,7.17-7.07,9.29-8,12-3.14,9.12,7.95,7.39,8.17,10.28.23,3.07-3.49,9.33-4.17,13.71-2.18,14.08-8.73,23.3-.19,38.21,5.94,10.37,36.1,31.57,48.5,28.13,3.79-1.05,6.03-5.68,7.68-6.36,14.5-5.97,13.85,5.75,27.97-.05l-11.96-9.98c-.98-11.39,3.29-2.9,7.98-1.96,20.51,4.11,22.78-3.37,39.99-4-8.11,9.32-14.08,8.44-19.97,15.96,10.65-1.5,23.64-5.29,27.96-15.92-2.65-.05-5.34-.14-7.99-.04,12.56-14.43,19.59-38.35,15.17-57.18-2.34-9.97-14.88-17.37-11.17-30.8,21.58,24.67,31.41,43.47,19.15,77.13-15.68,43.05-32.8,23.52-60.35,31.64-8.86,2.61-13.4,17.15-29.15,19.13-10.16,1.27-36.89-6.59-45.63-11.92-14.69-8.96-31.77-36.71-32.21-54.16-.47-18.34,12.44-26.69,15.33-40.69,2.51-12.14.98-19.47,4.88-33.13Z"/>
      <path class="cls-63" d="M308.26,283.35c4.15,2.56,10.86,17.24,16.29,21.71,7.04,5.79,18.82,9.15,27.7,14.29l-3.93,1.98c3.65,7.48,14.75,10.63,18.82,15.22,2.01,2.27.59,6.09,1.1,6.8-.74,1.53-3.91,3.27-4,4-3.23-15.97-34.88-21.06-36-23.99-1.41-3.72,3.02-18.15-7.92-11.92-.39.22-1.45,5.63-4.08,7.92-.03-1.63-3.02-5.61-4-8-21.38-52.33-102.91-6.15-100.01,25.62.65,7.1,7.83,14.68,8.02,18.37.13,2.57-6.29,10.45-3.97,16,6.26-4.96,9.7-.16,11.96,0-29.82,56.05,25.38,84.77,75.99,75.98v4c-29.72,11.39-70,9.77-91.99-16-1.34-1.57-11.72-23.71-12-26.33-1.64-15.07,10.64-28.96,10.99-40.35.32-10.2-11.65-19.74-9.33-33.5,3.15-18.66,36.38-51.94,54.34-55.78,1.25-.27,2.68.17,4,0,9.98-1.3,40.08-.88,47.99,4ZM216.24,419.3c-.98-7.04.36-25.29-7.92-27.95.19,7.71-1.5,25.31,7.92,27.95Z"/>
      <path class="cls-64" d="M440.25,463.31c-1.04,7.74-2.07,24.87,4,27.99,1.5.77,5.63-.52,8,0,.62,4.34,6.57,11.07,8,16-3.73,2.2-6.76,3.15-8,8-2.48,9.69,1.02,8.38,7.97,3.97-7.05,26.23-5.31,47.91,19.83,62.21,24.03,13.67,72.75,21.22,72.19-18.19,1.1.48,2.81-.45,4,0,.42.16.8,4.05,1.93,3.79,2.12-.49,9.35-8.34,10.07-11.75l-12-.04c16.08-11.98,39.9-14.26,43.74-38.22,5.22-32.59-3.98-46.93-27.74-65.76-1.58-1.25-2.57-7.16-4-8,35.89,18.44,55.11,40.98,47.03,85.05-5.73,31.26-26.25,24.45-42.97,36.99-13.64,10.24-10.14,29.9-34.3,33.69-30.97,4.85-73.76-4.19-89.24-34.26-10.43-20.26.01-30.51-1.37-46.57-1.41-16.32-22.21-36.66-7.14-54.9ZM588.27,551.29c7.31-4.26,16.97-11.59,15.92-19.99-7.31,4.26-16.97,11.59-15.92,19.99Z"/>
      <path class="cls-29" d="M368.26,343.33c5.12,7.02,8.23,14.81,8,0,10.04,20.65,3.44,53.33-10.25,71.73-6.99,9.4-48.88,31.31-61.74,36.24v-4c.3-1.31-.5-3.59,0-4,1.21-1,11.89-1.93,11.92-6,.03-3.82-8.18-7.34-11.92-2,.03-.44-6.01-5.66-4.03-7.94,2.83-3.25,21.15,2.62,36.03-8.06,5.42-3.89,11.91-10.66,16-16,18.4-24.01,8.96-29.69,12-55.99.08-.73,3.25-2.47,4-4Z"/>
      <path class="cls-41" d="M260.27,539.29c1.25,1.4,2.76,2.58,4,4-3.71,13.44,8.84,20.83,11.17,30.8,4.42,18.83-2.61,42.75-15.17,57.18-17.22.63-19.48,8.11-39.99,4-.48-2.44.72-6.2,0-8,34.91,10.11,64.56-30.06,38.01-56.1-4.17-4.09-11.67-5.57-14.01-7.88s-2.34-10.3,0-12c5.45-3.93,10.38,8.19,4.04-15.99l11.96,4Z"/>
      <path class="cls-22" d="M216.28,499.3c7.21,1.66,36.89,32.05,43.99,39.99l-11.96-4c6.34,24.18,1.41,12.06-4.04,15.99.73-.92-5.92-19.29-7.83-22.2-5.11-7.78-10.29-6.76-16.17-9.8-17.5-9.05-32.34-12.74-51.99-4-8.57-4.63,4.48-6.68,7.04-6.92,7.74-.74,25.89,1.72,28.94-5.04-20.3-4.07-31.32,2.56-47.97,7.96-2.02.65-5.51-.44-8,0,15.12-12.57,49.92-16.15,67.99-12Z"/>
      <path class="cls-4" d="M524.24,435.31c-5.01-.83-14.55-.44-20,0-30.99,2.52-56.79,22.39-51.99,55.99-2.37-.52-6.5.77-8,0l3.06-33.66-3.06-2.33c7.15-17.34,7.79-13.94,24-20,18.83-7.04,37.08-10.14,55.99,0ZM460.24,447.35c-8.36-1.14-9.1-.4-7.96,7.96l7.96-7.96Z"/>
      <path class="cls-74" d="M568.23,443.31c-.88-.52-19.2-4.6-19.99-3.96,3.13,6.63,3.48,14.28,12,11.96-2.45.63,2.19,3.24-12,4-.91-12.8-12.61-18.1-24-20-18.91-10.14-37.16-7.04-55.99,0,28.3-32.23,69.94-7.44,99.99,8Z"/>
      <path class="cls-81" d="M448.25,247.36c-.65-.54-5.05,1.06-8.16-2.72-5.93-7.23-5.85-13.3-7.84-21.28-2.24-5.9,2.98-9.19,4-12,.56,5.57.47,9.35,2.99,14.85,3.19,6.98,19.37,16.67,9.01,21.14Z"/>
      <path class="cls-69" d="M376.26,343.33c.24,14.81-2.88,7.02-8,0-.52-.71.91-4.53-1.1-6.8-4.07-4.59-15.17-7.74-18.82-15.22l3.93-1.98c16.14,9.34,15.19,5.87,24,23.99Z"/>
      <path class="cls-76" d="M444.25,491.3c-6.06-3.12-5.04-20.26-4-27.99.59-4.41,3.08-5.77,4-8l3.06,2.33-3.06,33.66Z"/>
      <path class="cls-23" d="M144.29,307.34c-8.9,2.24-22.62-2.27-33.19.82-10.28,3.01-11.15,17.09-28.61,19.4C42.36,332.88-5.24,296.15.47,253.66c.98-7.27,6.2-14.21,7.84-22.3.19-.95,3.23-3.79,4-8,20.09,15.89,6.64,7.93,1.79,23.77-10.21,33.41,5.77,52.36,34.04,66.36,23.68,11.72,31.82,13.08,48.16-10.15,4.94,4.01,11.89,2.88,11.93-2,.02-2.09-11.06-7.08-7.89-13.99,1.09-1.58,5.69,3.83,7.96,4,34.42,2.55,57.25-19.19,55.72-53.68-.7-15.84-16.65-25.95-15.72-42.3,25.05,27.68,37.72,54.87,16.83,90.81-3.04,5.24-16.39,20.05-20.83,21.16ZM148.26,291.38c-4.89-.92-20.47,5.86-15.95,7.93,4.89.92,20.47-5.86,15.95-7.93Z"/>
      <path class="cls-15" d="M144.29,191.37c1.26,1.39,2.73,2.6,4,4-.92,16.35,15.02,26.45,15.72,42.3,1.53,34.49-21.3,56.23-55.72,53.68-2.75-3.18-2.45-9.32-4-12,57.21,26.06,62.08-69.98,20-63.99-.52-2.38.77-6.47,0-8l20-.04c.44-4.81-6.41-5.86-8-7.96-2.33-3.08-6.19-3.63-3.96-12l11.96,4Z"/>
      <path class="cls-16" d="M92.29,151.38c1.32.13,2.7-.18,4,0l28,20c6.6,6.15,13.92,13.29,20,20l-11.96-4c-2.23,8.37,1.64,8.92,3.96,12l-2.04,3.98c-12.07.16-8.2-15-13.67-22.4-3.77-5.1-10.01-3.97-12.29-5.57-4.34-3.05-6.82-5.29-12-8-14.47-7.55-12.12-10.31-32-12v-4c1.33-.04,2.67.02,4,0,7.65-.14,16.61-.72,24,0Z"/>
      <path class="cls-75" d="M192.28,51.4c-.9,6.54-.1,14.36.95,20.93,1.83,11.48,13.69,21.62-.95,19.06-8.02-13.41-10.39-18.65-8-35.99,2.58-1.45,5.49-2.44,8-4Z"/>
      <path class="cls-34" d="M156.28,511.3c-6.15,8.08-11.58,14.57-16,23.99-.75,1.6.5,5.51-.04,7.97-6.55,1.46-3.48-5.83-3.96-11.97,3.31-11.59,2.52-12.12,12-20,2.49-.44,5.98.65,8,0Z"/>
      <path class="cls-11" d="M64.3,155.38c19.87,1.69,17.53,4.44,32,12-39.38-3.74-76.06,4.41-67.99,51.99-19.29-.32,3.83,8.64,0,23.99-1.11,4.44-7.45,8.03-8.33,17.92-2.15,24.18,35.33,55.76,57.67,49.42,5.22-1.48,5.18-6.05,6.66-7.36,2.16-1.92,4.31-4.92,4.06-7.98,3.51-1.77,6.13,6.52,7.94,7.98-16.34,23.23-24.48,21.87-48.16,10.15-28.26-13.99-44.25-32.95-34.04-66.36,4.84-15.85,18.3-7.89-1.79-23.77,2.36-12.91-1.1-19.74,4-35.99.48,6.13-2.59,13.43,3.95,11.97,1.95-10.8,4.86-23.28,16.05-27.96l16.04-6c-3.49-5.7-12.13.99-16.04,2-2.21.57-5.46-.38-8,0,2.22-2.28,14.41-11.54,16-12,1.15-.33,2.64.23,4,0,4.07-.69,11.57-.38,16,0Z"/>
      <path class="cls-10" d="M328.26,107.39l-16-8c59.04-4.92,38.05-81.21-16-67.98.03-.45-4.51-5.15-4-8,4.08-1.62,12.77-2.78,11.98-7.96l-19.98-8c51.89-2.2,98.58,52,53.71,95.84-4.12,4.02-8.47,3.18-9.72,4.1Z"/>
      <path class="cls-78" d="M284.27,23.41c-2.59,1.18-3.14.67-4,4-37.8-48.17-102.35,53.91-55.99,63.99l4,7.96c-2.49.58-6.21-.67-8,.04-20.33-12.26-25.78-34.03-16-55.99,4.15-9.32,28.73-28.86,38.83-31.15,13.95-3.15,38.1-6.03,41.16,11.15Z"/>
      <path class="cls-47" d="M312.26,99.39l16,8c-3.36,2.47-8.85,3.44-7.98,7.96l15.98.08c-5.59,16.88-4.22,9.68-19.99,8,1.62,4.26,1.27,4.3,0,7.96-4.94-2.3-5.64-9.27-8-12,18.73,3.82-7.86-22.73-4-4-2.51-3.58-11.53-4.47-7.98-15.98,5.27-.36,10.72.42,15.98-.02Z"/>
      <path class="cls-37" d="M224.28,91.39c9.93,2.16,27.48-5.34,31.99,7.95-4.44-.04-8.14,2.28-11.99,4.05l-2.43-3.22c-4.87-.62-17.48,4.74-13.54,7.18,2.33.5,7.31-.65,7.97.04,1.37,1.44-3.92,9.87-4,12-16.32,10.77.3-6.49-7.98-10.08-5.16-2.23-7.31,2.25-11.98,2.07-1.35-6.55,2.57-9.85,7.97-11.99,1.79-.71,5.51.54,8-.04l-4-7.96Z"/>
      <path class="cls-1" d="M352.3,103.39c2.47-7.44,5.28-23.72,11.92-27.97.77,10.24-1.3,23.46-11.92,27.97Z"/>
      <path class="cls-18" d="M204.28,43.4c-.29.66-9.64,6.54-12,8,.78-5.62,9.92-24.27,11.96-19.98-.57,3.47,1.05,9.67.04,11.98Z"/>
      <path class="cls-26" d="M292.27,23.41c-.51,2.85,4.03,7.55,4,8-.4,5.48-3.73,7-4,8l-8-8c-.24-2.61.43-5.57,0-8,1.81-.82,6,.79,8,0Z"/>
      <path class="cls-79" d="M580.23,223.36c.11-1.83.02-3.36-2.04-3.96-4.63.05-9.35-.39-13.95-.03,22.56-14.57,34.81-40.79,10.06-60.04-11.29-8.78-38.1-12.52-46.06.06-7.64,1.1-9.81.05-8-8,.11-.48,5.86-2.48,3.98-7.97l-15.98-.07c4.07-11.06,27.19-9.36,38.1-8.03,42.55,5.19,67.4,55.8,33.89,88.05Z"/>
      <path class="cls-70" d="M484.24,239.36c-2.95,2.27-5.48,10.83-12,12-2.08-13.95-5.68-5.14-14.06-11.79-27.6-21.92-12.61-56.89,10.06-76.19-14.71,29.49-31.3,70.66,16,75.98Z"/>
      <path class="cls-13" d="M564.23,219.36c4.6-.36,9.32.08,13.95.03,2.06.61,2.16,2.13,2.04,3.96-.02.36-6.99,3.85-1.94,4.07l13.9-4.06c2.57,15-2.44,12.93-15.96,11.99-4.98-6.71-11.74-8.59-19.98-7.96-.8,6.42,13.07,7.48,19.98,7.96,2.08,2.8,3.83,8.49,4,12-15.57-5.61-52.71-25.13-16-27.99Z"/>
      <path class="cls-61" d="M484.24,239.36c8-6.16,12.13-9.89,23.98-7.98,1.83,7.99-3.17,8.34-7.98,11.98l-2.04-3.96c-8.97-2.28-3.66,5.03-9.88,10l7.92-2.04v16c-.6-.62-8.88-1.04-10.32-8.05-11.44,0-11.31,11.88-13.67-3.94,6.52-1.17,9.04-9.72,12-12Z"/>
      <path class="cls-33" d="M604.17,207.33l-3.91-39.94c5.63-.52,7.53,15.18,7.71,18.58.42,8.21-1.72,13.84-3.8,21.36Z"/>
      <path class="cls-79" d="M516.24,155.38c-.09,1.26-.15,2.75,0,4-3.2-3.91-7.61.07-8,0-8.7-1.55-17.52-6.73-28-4,14.63-8.36,20.15-13.78,36,0Z"/>
      <path class="cls-54" d="M520.24,151.38c-1.81,8.05.36,9.1,8,8-3.09,4.88-3.44,17.7-4.04,23.99-4.44.68-3.74-3.82-3.96-4,.38-6.91-3.25-13.61-4-20-.15-1.25-.09-2.74,0-4,.13-1.85,2.15-3.52,4-4Z"/>
      <path class="cls-14" d="M436.25,211.36c-.66-6.48.41-13.44.04-19.98h3.92c2.9,9.36-1.77,13.95-3.96,19.98Z"/>
      <path class="cls-20" d="M220.28,519.3c-23.45-8.17-85.83,7.04-63.99,43.99-.38-.12-4.5.28-8,0,1.96-5.1-3.51-9.76-4-12-.51-2.34.4-5.47,0-8,5.33-9.43,13.89-23.5,24-27.99,19.65-8.74,34.49-5.05,51.99,4Z"/>
      <path class="cls-46" d="M220.28,627.27c.72,1.8-.48,5.56,0,8-4.7-.94-8.96-9.43-7.98,1.96l11.96,9.98c-14.12,5.8-13.47-5.92-27.97.05-7.42-27.14,10.76-53.11,24-20ZM208.24,639.27c.41-7.45,1.17-17.6-7.92-19.99-.41,7.45-1.17,17.6,7.92,19.99Z"/>
      <path class="cls-38" d="M156.28,511.3c16.65-5.4,27.68-12.03,47.97-7.96-3.05,6.76-21.19,4.3-28.94,5.04-2.56.24-15.61,2.29-7.04,6.92-10.11,4.5-18.67,18.56-24,27.99-.53-3.31.07-6.87-4-8,4.42-9.43,9.85-15.91,16-23.99Z"/>
      <path class="cls-32" d="M148.29,563.29c3.5.28,7.62-.12,8,0,8.19,2.57,18.06,11.28,20,19.96l-35.99,4.04c.68-4.39,4.4-10.65,4.17-13.71-.22-2.9-11.31-1.17-8.17-10.28,3.97.21,8.04-.32,12,0ZM168.26,575.33c-10.83.22-22.75-10.83-19.95,3.93l19.96-.02v-3.91Z"/>
      <path class="cls-59" d="M260.27,631.27c2.65-.1,5.35,0,7.99.04-4.32,10.63-17.31,14.42-27.96,15.92,5.89-7.52,11.86-6.65,19.97-15.96Z"/>
      <path class="cls-38" d="M148.29,563.29c-3.95-.32-8.03.21-12,0,.93-2.71,10.77-4.82,8-12,.49,2.24,5.96,6.9,4,12Z"/>
      <path class="cls-6" d="M244.27,371.33c-31.03,28.78-10.16,70.04,29.71,63.82,15.07-2.35,16.77-8.24,18.28-19.83,11.92,14.04,16.42.46,20,0,2.56-.33,17.31,7.37,24,4-14.88,10.68-33.2,4.8-36.03,8.06-1.98,2.28,4.06,7.5,4.03,7.94-.21,2.98-18.55,7.88,0,8-.5.41.3,2.68,0,4-50.61,8.79-105.81-19.94-75.99-75.98,5.29.37,10.69-.25,16,0Z"/>
      <path class="cls-44" d="M312.26,311.34c-2.36-.52-6.52.78-8,0-7.23-3.8-11.19-14.52-26.41-15.96-21.29-2.01-78.03,34.41-45.58,55.95-.82.16-2.44,3.26-4,4-2.03-.65-5.51.44-8,0-.19-3.69-7.37-11.28-8.02-18.37-2.9-31.76,78.63-77.95,100.01-25.62Z"/>
      <path class="cls-45" d="M364.26,347.33c-3.04,26.3,6.4,31.98-12,55.99,5.74-28.51,13.51-70.39-28-67.98.36-.68-6.64-10.18,4-12,1.11,2.93,32.77,8.02,36,23.99Z"/>
      <path class="cls-62" d="M228.27,355.33c6.57,2.09,13.92,8.08,21.95,8.05l-1.95-8.05c3.7,1.59,9.03.27,11.92,6-2.38,7.1-14.01,8.23-15.92,10-5.3-.25-10.71.37-16,0-2.26-.16-5.71-4.96-11.96,0-2.32-5.54,4.1-13.42,3.97-16,2.49.44,5.96-.65,8,0Z"/>
      <path class="cls-21" d="M316.26,319.34c2.63-2.29,3.69-7.7,4.08-7.92,10.94-6.23,6.51,8.2,7.92,11.92-10.64,1.81-3.64,11.32-4,12-.72,1.37-23.34,14.6-27.98,11.98-2.21-7.38,3.58-7.03,3.98-7.98,9.93.59,16.16-11.2,16-20Z"/>
      <path class="cls-1" d="M216.24,419.3c-9.41-2.64-7.73-20.25-7.92-27.95,8.27,2.67,6.94,20.92,7.92,27.95Z"/>
      <path class="cls-80" d="M312.26,311.34c.98,2.39,3.97,6.37,4,8-3.53,3.08-8.3,5.07-12,8,.62-5.2-.42-10.75,0-16,1.48.78,5.63-.52,8,0Z"/>
      <path class="cls-77" d="M572.23,451.31c23.76,18.83,32.96,33.17,27.74,65.76-3.84,23.95-27.66,26.24-43.74,38.22-1.43-4.47-3.16-14.97-4-16,40.24,5.9,57.37-45.85,23.64-65.67-6.83-4.01-14.24-3.76-19.64-6.32-8.3-3.93-5.88-2.83-12-8,1.58-.67,3.43-3.97,4-4,14.19-.75,9.55-3.37,12-4s8.59,4.13,12,0Z"/>
      <path class="cls-2" d="M468.24,519.3c-5.57,7.18.1,11.12,0,12-.92,8.25-6.48,10.87-2.29,24.16,6.84,21.71,74.3,44.92,74.28,11.83,7.56-13.17,5.19-6.95,12-4,.56,39.41-48.16,31.86-72.19,18.19-25.14-14.3-26.88-35.98-19.83-62.21-6.94,4.41-10.45,5.72-7.97-3.97,5.83-1.53,12,3.48,16,4Z"/>
      <path class="cls-51" d="M504.24,435.31v4c-26.87,3.02-59.07,38.11-36,63.99-.45.02-6.9,3.35-8,4-1.43-4.93-7.38-11.66-8-16-4.79-33.6,21-53.47,51.99-55.99Z"/>
      <path class="cls-36" d="M552.23,539.29c.84,1.02,2.57,11.53,4,16,.63,1.99,2.86,3.97,3.89,6.02l-3.89,1.98c-1.19-.45-2.9.48-4,0-6.81-2.95-4.44-9.17-12,4,0-11.44-9.68-23.06-8.01-29.91,2.08-8.54,15.55-3.5,20.01,1.92Z"/>
      <path class="cls-57" d="M468.24,503.3c6.69-.32,35.72,7.89,27.97,15.98-3.97.16-7.99-.12-11.98.02-4.02-7.12-11.73-5.51-16,0-3.99-.52-10.17-5.53-16-4,1.24-4.84,4.27-5.8,8-8,1.1-.65,7.55-3.98,8-4Z"/>
      <path class="cls-3" d="M568.23,443.31c1.43.84,2.42,6.75,4,8-3.41,4.13-9.67-.6-12,0-8.52,2.32-8.87-5.33-12-11.96.8-.64,19.11,3.45,19.99,3.96Z"/>
      <path class="cls-48" d="M588.27,551.29c-1.05-8.4,8.61-15.73,15.92-19.99,1.05,8.4-8.61,15.73-15.92,19.99Z"/>
      <path class="cls-53" d="M556.23,555.29l12,.04c-.72,3.4-7.95,11.25-10.07,11.75-1.13.26-1.51-3.63-1.93-3.79l3.89-1.98c-1.03-2.05-3.25-4.03-3.89-6.02Z"/>
      <path class="cls-52" d="M304.26,443.31c-18.55-.12-.21-5.02,0-8,3.74-5.34,11.95-1.82,11.92,2-.03,4.06-10.71,4.99-11.92,6Z"/>
      <path class="cls-42" d="M244.27,551.29c-2.34,1.69-2.41,9.62,0,12l-21.96,8.04c-7.46-4.81,1.57-7.3,1.96-8.04,3.99,10.43,9.96-10.35,12-12,1.15-.93,7.26.93,8,0Z"/>
      <path class="cls-83" d="M244.27,551.29c-.74.93-6.85-.93-8,0-.71-1.58-3.87-3.23-4-4-1.19-7.3-3.11-24.9-12-27.99,5.88,3.04,11.06,2.02,16.17,9.8,1.91,2.91,8.56,21.28,7.83,22.2Z"/>
      <path class="cls-31" d="M524.24,435.31c11.39,1.9,23.09,7.2,24,20-.57.03-2.42,3.33-4,4-1.42-1.2-2.57-2.78-4-4-13.26-11.38-13.17-18.56-36-16v-4c5.45-.44,14.98-.83,20,0Z"/>
      <path class="cls-72" d="M460.24,447.35l-7.96,7.96c-1.14-8.35-.4-9.1,7.96-7.96Z"/>
      <path class="cls-71" d="M104.29,279.35c1.55,2.67,1.25,8.82,4,12-2.27-.17-6.86-5.58-7.96-4-3.17,6.91,7.91,11.9,7.89,13.99-.04,4.88-6.99,6.01-11.93,2-1.81-1.47-4.43-9.75-7.94-7.98.25,3.07-1.89,6.06-4.06,7.98l.02-35.97c8.17-.57,15.74,4.68,19.98,11.98ZM92.25,291.33v-15.96h-3.92v15.96h3.92Z"/>
      <path class="cls-12" d="M148.26,291.38c4.53,2.07-11.05,8.85-15.95,7.93-4.53-2.07,11.05-8.85,15.95-7.93Z"/>
      <path class="cls-55" d="M136.29,199.37c1.58,2.1,8.44,3.14,8,7.96l-20,.04c-1.3-2.57-6.97-5.58-8-8-2.1-4.95-1.96-19.53-8-23.99,2.27,1.6,8.52.47,12.29,5.57,5.47,7.4,1.6,22.56,13.67,22.4l2.04-3.98Z"/>
      <path class="cls-65" d="M124.29,207.37c.77,1.53-.52,5.62,0,8-4.09.58-11.65,11.35-20,7.96l12-23.95c1.03,2.42,6.7,5.43,8,8Z"/>
      <path class="cls-24" d="M96.29,167.37c5.18,2.7,7.66,4.95,12,8-21.19-15.66-87.99,5.28-71.99,43.99-.38-.13-5.63.04-8,0-8.07-47.58,28.61-55.73,67.99-51.99Z"/>
      <path class="cls-30" d="M36.3,167.37v4c-11.18,4.69-14.1,17.16-16.05,27.96-6.54,1.46-3.47-5.84-3.95-11.97,3.03-9.65,4.99-12.82,12-20,2.54-.38,5.79.57,8,0Z"/>
      <path class="cls-35" d="M36.3,167.37c3.9-1.01,12.55-7.7,16.04-2l-16.04,6v-4Z"/>
      <path class="cls-25" d="M292.27,39.4c-1.43,5.29-3.13,10.59-4.05,15.99-3.66.42-3.42-1.23-3.95-3.99-1.1-5.72.58-13.66,0-20l8,8Z"/>
      <path class="cls-39" d="M284.27,31.4c.58,6.34-1.1,14.28,0,20-5.52-2.89-5.37-18.69-4-23.99.86-3.33,1.41-2.82,4-4,.43,2.42-.24,5.39,0,8Z"/>
      <path class="cls-27" d="M304.26,115.39c-3.86-18.73,22.73,7.82,4,4-1.21-1.39-2.93-2.48-4-4Z"/>
      <path class="cls-5" d="M244.27,103.39c-2.7,1.24-5.24,2.86-8,4-.66-.69-5.64.46-7.97-.04-3.94-2.44,8.68-7.8,13.54-7.18l2.43,3.22Z"/>
      <path class="cls-28" d="M516.24,159.38c.75,6.38,4.38,13.08,4,20-7.23-5.91-11.34-9.54-12-20,.39.07,4.79-3.91,8,0Z"/>
      <path class="cls-56" d="M500.24,243.36c-1.28.96-2.21,3.18-4,4l-7.92,2.04c6.21-4.97.91-12.27,9.88-10l2.04,3.96Z"/>
      <path class="cls-40" d="M576.23,235.36c-6.91-.48-20.78-1.54-19.98-7.96,8.24-.63,14.99,1.25,19.98,7.96Z"/>
      <path class="cls-60" d="M236.27,551.29c-2.04,1.65-8.01,22.43-12,12,2.78-5.27,5.38-10.65,8-16,.13.77,3.29,2.42,4,4Z"/>
      <path class="cls-19" d="M208.24,639.27c-9.09-2.4-8.33-12.54-7.92-19.99,9.09,2.4,8.33,12.54,7.92,19.99Z"/>
      <path class="cls-43" d="M168.26,575.33v3.91s-19.95.02-19.95.02c-2.8-14.76,9.12-3.71,19.95-3.93Z"/>
      <path class="cls-66" d="M312.26,415.32c-3.58.46-8.08,14.04-20,0,.84-6.46-.64-13.47.04-20l19.96,20Z"/>
      <path class="cls-73" d="M248.27,355.33l1.95,8.05c-8.02.03-15.38-5.96-21.95-8.05,1.56-.74,3.18-3.84,4-4,8.67-1.68,10.16,1.49,16,4Z"/>
      <path class="cls-9" d="M300.27,339.34c1.84-4.29,3.4-6.95,4-12,3.7-2.93,8.47-4.92,12-8,.16,8.8-6.07,20.59-16,20Z"/>
      <path class="cls-7" d="M544.23,459.31c6.12,5.17,3.7,4.07,12,8-1.26,1.41-2.66,2.67-4,4l-4,4c-3.58,3.34-3.37,10.39-11.98,7.98.5-6.49-.81-13.62-.02-19.98l4-4v-4c1.42,1.22,2.58,2.8,4,4Z"/>
      <path class="cls-50" d="M480.24,519.3l-12,12c.1-.88-5.57-4.82,0-12,3.76.49,8.08-.13,12,0Z"/>
      <path class="cls-67" d="M484.24,519.3c-1.32.05-2.68.04-4,0-3.92-.13-8.24.49-12,0,4.27-5.51,11.98-7.12,16,0Z"/>
      <path class="cls-8" d="M28.3,219.36c2.37.04,7.62-.13,8,0,9.28,3.15,19.58,11.04,24,19.96l-31.99,4.04c3.83-15.35-19.29-24.32,0-23.99ZM48.28,231.4h-15.96v3.92h15.96v-3.92Z"/>
      <rect class="cls-58" x="88.33" y="275.37" width="3.92" height="15.96"/>
      <path class="cls-77" d="M548.23,475.31l4-4c-1.34,1.33-2.62,2.71-4,4Z"/>
      <path class="cls-31" d="M536.23,463.31c.23-1.85,2.1-3.57,4-4l-4,4Z"/>
      <rect class="cls-49" x="32.32" y="231.4" width="15.96" height="3.92"/>
    </g>
  </g>
</svg>