<?xml version="1.0" encoding="UTF-8"?>
<svg id="Layer_2" data-name="Layer 2" xmlns="http://www.w3.org/2000/svg" viewBox="0 0 558.45 618.06">
  <defs>
    <style>
      .cls-1 {
        fill: #7c5f53;
      }

      .cls-2 {
        fill: #684b3d;
      }
    </style>
  </defs>
  <g id="sausage">
    <g>
      <g>
        <path class="cls-1" d="M15.54,236.64c1.31.15,2.74-.26,4,0,4.33,6.86,12.46,8.16,20,8,5.68,6.94.1,14.1-4,20,2.87-11.51-19.94-19.71-19.92-10,0,2.57,17.22,12.76,19.92,10-5.55,7.97-10.49,12.92-20,16-4.4-17.88-32.65-35.17,0-43.99Z"/>
        <path class="cls-1" d="M171.52,264.63c-9.17,2.36-13.09-1.21-20-4,.8.77,8.75-.47,11.98.02l-.02-20.02c-6.88.56-15.81,16.28-11.96,19.99-5.84-2.36-11.73-5.01-15.93-9.99,23.56-38.16,39.41-31.02,35.92,13.99Z"/>
        <path class="cls-1" d="M139.52,80.67c4.22,10.75-11.87,10.98-20,12-.53-15.41-15.29-18.63,4-27.99,2.71,2.55,15.58,14.94,16,16Z"/>
        <path class="cls-1" d="M123.52,64.67c-19.29,9.37-4.53,12.58-4,27.99.04,1.3.33,3.36,0,4l-16-4c.06-1.31-.21-2.73,0-4,.66-4.1,3.11-16.72,4-20l4-8c8.44-8.55,7.35-.37,12,4Z"/>
        <path class="cls-1" d="M319.5,616.55c5.49-7.5,5.89-16.94-3.96-20l-.04,20c-5.34.01-10.69.08-16.01,0,1.08-7.56-.63-35.82,9.95-36.2,20.86-.76,39.06,32.67,10.06,36.2Z"/>
        <path class="cls-1" d="M555.47,380.6c7.7,6.31-12.1,35.83-14.12,36.18-13.46,2.35-18.24-16.2-21.88-26.1.72-3.93,23.37-9.23,28.01-10.08,1.65-.31,7.69-.25,8,0Z"/>
        <path class="cls-1" d="M439.48,556.56l-16,15.96c8.35.46,16.8-3.49,16-11.96l4.02,24.01c-45.69,4.87-47.61-14.76-12.02-36.01h4c.53,3.02,3.03,5.21,4,8Z"/>
        <path class="cls-1" d="M503.47,256.63c8.25,5.94-.03,31.52-4.09,39.93-6.85,2.38-8.24-1.62-11.91-3.93l12-19.96c-9.8-1.5-16.14,3.37-20,11.96-2.25-1.67-5.55-2.49-8-4l4-16c1.04-.53,2.86.5,4,0,3.73-1.66,22.97-8.74,24-8Z"/>
        <path class="cls-1" d="M479.48,284.62c3.85-8.59,10.19-13.46,20-11.96l-12,19.96c-4.61-2.91-5.99-6.5-8-8Z"/>
        <path class="cls-1" d="M319.5,616.55c-1.28.16-2.69,0-4,0l.04-20c9.85,3.06,9.45,12.49,3.96,20Z"/>
        <path class="cls-1" d="M291.5,396.6c3.1-.29,9.55-.64,12,0,15.86,4.17-2.85,29.21-8,39.99-4.54-.04-8.71-5.49-12-8l12-19.96-16,15.96c-4.9-5.21-11.95-8.26-11.9-17.75,1.2-5.38,18.47-9.73,23.9-10.24Z"/>
        <path class="cls-1" d="M507.47,104.66c-.36,2.53.59,5.86,0,8-3.26,11.91-38.22,22.17-40.32,5.75-1.03-8.07,3.31-10.09,4.33-13.75-6.55,20.81,24.38,12.32,16.01,4.04-.59-.58-12.16-.34-16.01-4.04.98-3.53-2.33-11.53,2.05-12.05l33.95,12.05Z"/>
        <path class="cls-1" d="M71.53,480.58c12.91,4.07,13.65,5.46,12,20-.64.67-3.36-.67-4,0,2.42-8.97-7.96-11.76-15.98-11.98-1.48,7.94,5.66,12.27,11.98,15.98-3.02,3.09-4.99,9-8,12-2.24-.49-7.18.75-8,0-1.24-1.14-16.31-28.07-15.94-29.71,2.34-10.6,19.74-8.87,27.94-6.28Z"/>
        <path class="cls-1" d="M383.49,252.63c-.33,6.74-.39,22.28-9.95,23.02-1.48.11-26.13-12.02-26.37-13.48-3.34-20.4,21-23.72,36.35-21.53.24,2.64-.22,5.35-.03,7.99-39.4-5.35-11.59,22.25,0,4Z"/>
        <path class="cls-1" d="M187.51,392.6c34.19-10.87,26.18,16,10.03,35.91-3.96-1.93-6.76-5.19-10.03-7.91,6.32-3.71,13.46-8.03,11.98-15.98-7.94-1.48-12.27,5.66-15.98,11.98-2.46-1.76-5.07-7.02-8-8v-12c.53-.34,9.74-3.28,12-4Z"/>
        <path class="cls-1" d="M247.51,292.62c7.52-.94,16.24.65,24,0,.21,1.21.05,2.75,0,4l-23.98.02c-1.33,5.83,2.35,10.27,7.98,11.98,3.01.91,8.37-.62,12,0v4c-1.55,4.71,1.54,11.91-5.98,15.9-2.8-5.11-21.22-10.94-22.02-11.9-.47-.57.25-2.55,0-4-1.04-5.96.72-13.66,0-20,1.73-.66,5.44.32,8,0Z"/>
        <path class="cls-1" d="M319.5,152.65h4c1.29,2.62,2.83,5.42,4,8,.89,1.97,2.46,7.94,4,12,2.79,11.74-15.11,12.39-24,12-.96-1.52-2.31-3.35-4-4,6.38-10.55-.44-28.47,16-27.99Z"/>
        <path class="cls-1" d="M271.5,296.62c-.36,9.45-1.78,9.27-4,16v-4c-.27-6.17-11.73-6.17-12,0-5.63-1.71-9.31-6.14-7.98-11.98l23.98-.02Z"/>
        <path class="cls-1" d="M279.5,424.59l16-15.96-12,19.96c-1.42-1.08-2.76-2.67-4-4Z"/>
        <path class="cls-1" d="M75.53,504.58c-6.32-3.71-13.46-8.03-11.98-15.98,8.02.21,18.4,3,15.98,11.98-1.31,1.36-2.69,2.65-4,4Z"/>
        <path class="cls-1" d="M383.49,248.63c.1,1.29.06,2.7,0,4-11.59,18.25-39.4-9.35,0-4Z"/>
        <path class="cls-1" d="M183.52,416.6c3.71-6.32,8.03-13.46,15.98-11.98,1.48,7.94-5.66,12.27-11.98,15.98-1.44-1.2-2.62-3.01-4-4Z"/>
        <path class="cls-1" d="M271.5,288.62c.44.84-.25,2.57,0,4-7.76.65-16.48-.94-24,0,4.49-7.07,16.46-3.42,24-4Z"/>
        <path class="cls-1" d="M323.5,8.69c8.23,8.87,14.5,13.23,8,23.99-5.36,1.19-10.67,2.63-16,4l-8.04-21.96,8.01,2.01.03-12.04c2.65,1.37,5.31,2.71,8,4Z"/>
        <path class="cls-1" d="M239.51,312.62c-14.12,4.4-7.63-17.1,0-20,.72,6.33-1.04,14.04,0,20Z"/>
        <path class="cls-1" d="M299.5,180.65c-2.71-1.11-5.08-3.24-8-4-.3-.83-.09-2.75,0-4l4-4c.31-1.29-.36-2.81,0-4,2.08-2.81,6.38-5.3,8-8l-4,23.99Z"/>
        <path class="cls-1" d="M35.54,264.63c-2.7,2.77-19.91-7.43-19.92-10-.02-9.72,22.79-1.52,19.92,10Z"/>
        <path class="cls-1" d="M151.52,260.63c-3.85-3.71,5.08-19.43,11.96-19.99l.02,20.02c-3.23-.49-11.18.75-11.98-.02Z"/>
        <path class="cls-1" d="M107.53,68.67c1.27-4.68.21-4.16,4-8l-4,8Z"/>
        <path class="cls-1" d="M379.49,360.61c1.24-.03,2.89-.27,4,0,5.41,8.43,15.62,7.19,12,20-.57,1.09-2.78,2.75-4,4-6.69-2.03-11.3,7.77-12,8-3.78,1.23-11.26-.84-15.98.02v-16.01s15.98,11.96,15.98,11.96c-3.52-10.45-20.66-21.43-4-27.95.86-.34,2.62.04,4,0Z"/>
        <path class="cls-1" d="M371.49,352.61l4,8c-16.66,6.53.48,17.5,4,27.95l-16-11.96h-4c-.13-1.29-.02-2.69,0-4,.03-2.59-.39-5.62,0-8,5.01-1.72,9.01-4.4,4-8,.6-.82-.63-3.72,0-4,.92-.41,6.49-.39,8,0Z"/>
        <path class="cls-1" d="M299.5,432.59l4-4c-1.08,1.48-2.59,2.83-4,4Z"/>
        <path class="cls-1" d="M439.48,556.56c.35.99-.13,2.59,0,4,.81,8.46-7.65,12.42-16,11.96l16-15.96Z"/>
        <path class="cls-1" d="M471.48,104.66c3.85,3.69,15.42,3.45,16.01,4.04,8.37,8.28-22.56,16.78-16.01-4.04Z"/>
        <path class="cls-1" d="M267.5,308.62c-3.63-.62-8.98.91-12,0,.27-6.17,11.73-6.17,12,0Z"/>
        <path class="cls-1" d="M303.5,156.65c5.55-9.24,13.18-24.55,16-4-16.44-.48-9.62,17.45-16,27.99-1.17-.45-2.86.47-4,0l4-23.99Z"/>
        <path class="cls-1" d="M315.5,4.69l-.03,12.04-8.01-2.01,8.04,21.96c-3.64.93-8.6,7.1-15.98,4.01.87-8.88-1.33-19.54-.02-28,.28-1.81,6.33-6.95,4-12,7.11-2.45,8.72,2.3,12,4Z"/>
        <path class="cls-1" d="M359.49,364.61c.99-6.05,1.61-4.75,4-8,5.01,3.6,1.01,6.27-4,8Z"/>
      </g>
      <path class="cls-2" d="M321.53,25.95c.62,0,1.64.01,1.06-.74-.53-.68-2.54-.89-3.31-.89-.62,0-1.64-.01-1.06.74.53.68,2.54.89,3.31.89h0Z"/>
      <path class="cls-2" d="M310.64,13.45c1.06,0,2.49-.55,2.53-1.8s-1.44-1.89-2.47-1.89-2.49.55-2.53,1.8,1.44,1.89,2.47,1.89h0Z"/>
      <path class="cls-2" d="M308.15,32.05c1.12,0,.76-1.21.35-1.81-.59-.86-1.78-1.87-2.9-1.87s-.76,1.21-.35,1.81c.59.86,1.78,1.87,2.9,1.87h0Z"/>
      <path class="cls-2" d="M317.51,160.56c1.19,0,.81-1.47.39-2.05-.7-.98-1.85-1.61-3.06-1.61s-.81,1.47-.39,2.05c.7.98,1.85,1.61,3.06,1.61h0Z"/>
      <path class="cls-2" d="M320.38,175.81c1.34,0-.32-4.56-1.65-4.56s.32,4.56,1.65,4.56h0Z"/>
      <path class="cls-2" d="M310.7,174.41c1.2,0,2.49-.89,2.47-2.18s-1.33-2.12-2.53-2.12-2.49.89-2.47,2.18,1.33,2.12,2.53,2.12h0Z"/>
      <path class="cls-2" d="M313.14,172.25v-.85c-.03-.28-.14-.52-.31-.73-.14-.25-.34-.46-.59-.63-.26-.2-.55-.34-.86-.41-.31-.12-.64-.18-.98-.17l-.62.07c-.38.08-.72.24-1.02.49l-.34.4c-.19.31-.25.64-.21,1v.85c.03.28.14.52.31.73.14.25.34.46.59.63.26.2.55.34.86.41.31.12.64.18.98.17l.62-.07c.38-.08.72-.24,1.02-.49l.34-.4c.19-.31.25-.64.21-1h0Z"/>
      <path class="cls-2" d="M297.66,170.5c1.09,0,2.31-.48,3.31-.87.27-.1,1.69-.67.74-.67-1.09,0-2.31.48-3.31.87-.27.1-1.69.67-.74.67h0Z"/>
      <path class="cls-2" d="M480.61,102.28c.87,0,2.48-.29,2.53-1.42s-1.67-1.51-2.47-1.51c-.87,0-2.48.29-2.53,1.42s1.67,1.51,2.47,1.51h0Z"/>
      <path class="cls-2" d="M494.09,113.7c.86,0,.84-.26.06-.48-1.12-.32-2.35-.42-3.51-.42-.86,0-.84.26-.06.48,1.12.32,2.35.42,3.51.42h0Z"/>
      <path class="cls-2" d="M475.17,115.12c.99,0-.68-.49-.81-.53-1.07-.28-2.26-.56-3.38-.56-.99,0,.68.49.81.53,1.07.28,2.26.56,3.38.56h0Z"/>
      <path class="cls-2" d="M484,107.51c1.77,0-.2-4.48-1.89-4.48s.2,4.48,1.89,4.48h0Z"/>
      <path class="cls-2" d="M480.72,125.64c.61,0-.77-1.51-.87-1.62-.49-.52-1.62-1.89-2.45-1.89-.61,0,.77,1.51.87,1.62.49.52,1.62,1.89,2.45,1.89h0Z"/>
      <path class="cls-2" d="M497.68,268.73c1.16,0,2.61-.55,3-1.76.36-1.11-.59-2.01-1.67-2.01-1.16,0-2.61.55-3,1.76-.36,1.11.59,2.01,1.67,2.01h0Z"/>
      <path class="cls-2" d="M482.92,278.14c1.14,0,2.52-.93,2.59-2.14.08-1.31-1.24-1.85-2.33-1.85s-2.52.93-2.59,2.14c-.08,1.31,1.24,1.85,2.33,1.85h0Z"/>
      <path class="cls-2" d="M496.01,289.89h1.33c.15-.01.23-.08.25-.21.07-.14.06-.28-.02-.43-.08-.22-.19-.42-.33-.6-.15-.24-.33-.47-.54-.68l-.48-.46c-.31-.28-.65-.54-1.02-.76l-.46-.24c-.23-.12-.47-.17-.72-.16h-1.33c-.15.01-.23.08-.25.21-.07.14-.06.28.02.43.08.22.19.42.33.6.15.24.33.47.54.68l.48.46c.31.28.65.54,1.02.76l.46.24c.23.12.47.17.72.16h0Z"/>
      <path class="cls-2" d="M493.94,282.64c1.03,0,2.32-.5,2.21-1.74s-1.67-1.93-2.7-1.93-2.32.5-2.21,1.74,1.67,1.93,2.7,1.93h0Z"/>
      <path class="cls-2" d="M368.24,254.31c2.48,0,.03-4.2-1.76-4.2-2.48,0-.03,4.2,1.76,4.2h0Z"/>
      <path class="cls-2" d="M370.79,267.82c.96,0,2.44-.67,2.39-1.81-.06-1.23-1.7-1.48-2.6-1.48-.96,0-2.44.67-2.39,1.81.06,1.23,1.7,1.48,2.6,1.48h0Z"/>
      <path class="cls-2" d="M379.01,249.03c1.14,0,2.32-.63,3.15-1.38.37-.34,1.3-1.55.16-1.55s-2.32.63-3.15,1.38c-.37.34-1.3,1.55-.16,1.55h0Z"/>
      <path class="cls-2" d="M359.3,256.95c1.06,0,.25-1.84.02-2.23-.5-.84-1.44-1.93-2.52-1.93s-.25,1.84-.02,2.23c.5.84,1.44,1.93,2.52,1.93h0Z"/>
      <path class="cls-2" d="M256.66,293.56c1.12,0,2.32-.68,3.13-1.41.37-.33,1.31-1.5.18-1.5s-2.32.68-3.13,1.41c-.37.33-1.31,1.5-.18,1.5h0Z"/>
      <path class="cls-2" d="M240.12,308.88c2.77,0,3.74-4.29.49-4.29-2.77,0-3.74,4.29-.49,4.29h0Z"/>
      <path class="cls-2" d="M264.79,310.64c1.09,0,.84-1.08.44-1.76-.49-.83-1.68-2.07-2.75-2.07s-.84,1.08-.44,1.76c.49.83,1.68,2.07,2.75,2.07h0Z"/>
      <path class="cls-2" d="M252.86,312.59c1.97,0-1.03-3.74-2.39-3.74-1.97,0,1.03,3.74,2.39,3.74h0Z"/>
      <path class="cls-2" d="M166.11,251.11c1.03,0,.25-.98-.13-1.37-.65-.66-1.94-1.75-2.95-1.75s-.25.98.13,1.37c.65.66,1.94,1.75,2.95,1.75h0Z"/>
      <path class="cls-2" d="M162.51,241.47c1.18,0,.89-1.42.48-2.05-.64-.98-1.8-1.73-2.99-1.73s-.89,1.42-.48,2.05c.64.98,1.8,1.73,2.99,1.73h0Z"/>
      <path class="cls-2" d="M144.75,246c1,0-.72-.46-.84-.49-1.11-.23-2.26-.39-3.4-.39-1,0,.72.46.84.49,1.11.23,2.26.39,3.4.39h0Z"/>
      <path class="cls-2" d="M153.13,254.02c1.09,0-.2-1-.48-1.18-.92-.57-2.14-1.11-3.24-1.11s.2,1,.48,1.18c.92.57,2.14,1.11,3.24,1.11h0Z"/>
      <path class="cls-2" d="M152.63,247.24c1.05,0,2.58-.82,2.91-1.87.37-1.16-.72-1.49-1.64-1.49-1.05,0-2.58.82-2.91,1.87-.37,1.16.72,1.49,1.64,1.49h0Z"/>
      <path class="cls-2" d="M122.55,83.88c2.05,0-.95-3.76-2.38-3.76-2.05,0,.95,3.76,2.38,3.76h0Z"/>
      <path class="cls-2" d="M113.88,63.43c.79,0,2.22-.38,1.93-1.44s-2.09-1.31-2.94-1.31c-.79,0-2.22.38-1.93,1.44s2.09,1.31,2.94,1.31h0Z"/>
      <path class="cls-2" d="M117.3,86.48c1.06,0,.66-1.05.26-1.64-.53-.77-1.75-2.01-2.79-2.01s-.66,1.05-.26,1.64c.53.77,1.75,2.01,2.79,2.01h0Z"/>
      <path class="cls-2" d="M118.26,76.3c2.02,0,.1-4.54-1.78-4.54-2.02,0-.1,4.54,1.78,4.54h0Z"/>
      <path class="cls-2" d="M301.26,408.64c1.12,0,2.31-.74,3.1-1.49.38-.36,1.25-1.54.12-1.54s-2.31.74-3.1,1.49c-.38.36-1.25,1.54-.12,1.54h0Z"/>
      <path class="cls-2" d="M280.11,408.22c.94,0,2.06-.69,2.88-1.11.24-.12,1.68-1.08,1.42-1.08-.94,0-2.06.69-2.88,1.11-.24.12-1.68,1.08-1.42,1.08h0Z"/>
      <path class="cls-2" d="M288.71,419.03c1.14,0-.03-1.19-.35-1.42-.94-.66-2.1-1.11-3.25-1.11s.03,1.19.35,1.42c.94.66,2.1,1.11,3.25,1.11h0Z"/>
      <path class="cls-2" d="M299.59,424.41c.77,0-.34-1.65-.48-1.85-.39-.57-1.42-2.13-2.26-2.13-.77,0,.34,1.65.48,1.85.39.57,1.42,2.13,2.26,2.13h0Z"/>
      <path class="cls-2" d="M292.02,413.7c.22.22.44.44.66.66.17.16.36.3.56.4.25.15.51.27.79.36.31.12.63.2.96.26.3.07.61.11.93.12h.52c.26-.03.5-.1.72-.24l.14-.21c.02-.21-.06-.38-.22-.52-.22-.22-.44-.44-.66-.66-.17-.16-.36-.3-.56-.4-.25-.15-.51-.27-.79-.36-.31-.12-.63-.2-.96-.26-.3-.07-.61-.11-.93-.12h-.52c-.26.03-.5.1-.72.24l-.14.21c-.02.21.06.38.22.52h0Z"/>
      <path class="cls-2" d="M370.69,370.28c1,0,2.48-.51,2.5-1.71s-1.56-1.71-2.5-1.71c-1,0-2.48.51-2.5,1.71s1.56,1.71,2.5,1.71h0Z"/>
      <path class="cls-2" d="M378.18,379.99c2.5,0,.11-4.23-1.7-4.23-2.5,0-.11,4.23,1.7,4.23h0Z"/>
      <path class="cls-2" d="M374.56,391.8c.75,0,2.2-.4,1.88-1.41s-2.16-1.18-2.98-1.18c-.75,0-2.2.4-1.88,1.41s2.16,1.18,2.98,1.18h0Z"/>
      <path class="cls-2" d="M393.17,370.39c.66,0,2.19-.23,1.88-1.21s-2.24-1.11-2.98-1.11c-.66,0-2.19.23-1.88,1.21s2.24,1.11,2.98,1.11h0Z"/>
      <path class="cls-2" d="M536.69,405.09c1.12,0-.02-1.13-.35-1.37-.89-.65-2.09-1.21-3.21-1.21s.02,1.13.35,1.37c.89.65,2.09,1.21,3.21,1.21h0Z"/>
      <path class="cls-2" d="M529.81,395.27c.93,0,2.61-.36,2.89-1.44s-1.22-1.44-1.99-1.44c-.93,0-2.61.36-2.89,1.44s1.22,1.44,1.99,1.44h0Z"/>
      <path class="cls-2" d="M555.07,388.2c1.15,0,2.51-.66,3.13-1.65.54-.86.18-1.7-.9-1.7-1.15,0-2.51.66-3.13,1.65-.54.86-.18,1.7.9,1.7h0Z"/>
      <path class="cls-2" d="M540.82,396.06c3.07,0,3.39-4.46.15-4.46-3.07,0-3.39,4.46-.15,4.46h0Z"/>
      <path class="cls-2" d="M545.15,403.93c.91,0,1.84-.64,1.33-1.59-.55-1.03-2.17-1.31-3.2-1.31-.91,0-1.84.64-1.33,1.59.55,1.03,2.17,1.31,3.2,1.31h0Z"/>
      <path class="cls-2" d="M438.98,580.16c1.14,0,.57-1.88.3-2.39-.51-.96-1.43-1.92-2.58-1.92s-.57,1.88-.3,2.39c.51.96,1.43,1.92,2.58,1.92h0Z"/>
      <path class="cls-2" d="M430.72,562.64c1.12,0,2.31-.55,3.22-1.19.33-.23,1.49-1.31.38-1.31s-2.31.55-3.22,1.19c-.33.23-1.49,1.31-.38,1.31h0Z"/>
      <path class="cls-2" d="M419.15,568.08c3.05,0,.99-4.09-1.19-4.09-3.05,0-.99,4.09,1.19,4.09h0Z"/>
      <path class="cls-2" d="M427.41,578.54c.6,0-.66-1.53-.77-1.66-.41-.5-1.53-2.06-2.3-2.06-.6,0,.66,1.53.77,1.66.41.5,1.53,2.06,2.3,2.06h0Z"/>
      <path class="cls-2" d="M426.77,573.26c1.1,0,1.65-.98,1.2-1.95-.5-1.09-1.82-1.86-3.01-1.86-1.1,0-1.65.98-1.2,1.95.5,1.09,1.82,1.86,3.01,1.86h0Z"/>
      <path class="cls-2" d="M319.52,606.28c1.24,0,2.31-.69,2.29-2.04-.01-1.15-1.08-2.64-2.35-2.64s-2.31.69-2.29,2.04c.01,1.15,1.08,2.64,2.35,2.64h0Z"/>
      <path class="cls-2" d="M307.42,588.56c1.17,0,.92-1.37.51-2.03-.61-.97-1.78-1.79-2.96-1.79s-.92,1.37-.51,2.03c.61.97,1.78,1.79,2.96,1.79h0Z"/>
      <path class="cls-2" d="M326.12,599.65c1.08,0,2.59-.69,2.97-1.78s-.66-1.61-1.61-1.61c-1.08,0-2.59.69-2.97,1.78s.66,1.61,1.61,1.61h0Z"/>
      <path class="cls-2" d="M308.75,601.83c1.12,0,.82-1.19.41-1.83-.56-.87-1.74-1.93-2.86-1.93s-.82,1.19-.41,1.83c.56.87,1.74,1.93,2.86,1.93h0Z"/>
      <path class="cls-2" d="M312.7,618.06c1.21,0,2.54-.92,2.61-2.2s-1.15-2.11-2.34-2.11-2.54.92-2.61,2.2,1.15,2.11,2.34,2.11h0Z"/>
      <path class="cls-2" d="M67.81,503.01c1.09,0,.18-1.11-.19-1.44-.77-.69-2.01-1.49-3.1-1.49s-.18,1.11.19,1.44c.77.69,2.01,1.49,3.1,1.49h0Z"/>
      <path class="cls-2" d="M51.93,486.77c.77,0,1.79-.46,1.18-1.31-.65-.9-2.29-1.06-3.28-1.06-.77,0-1.79.46-1.18,1.31.65.9,2.29,1.06,3.28,1.06h0Z"/>
      <path class="cls-2" d="M71.99,489.16c.83,0-.79-1.65-.89-1.74-.73-.63-1.75-1.43-2.77-1.43-.83,0,.79,1.65.89,1.74.73.63,1.75,1.43,2.77,1.43h0Z"/>
      <path class="cls-2" d="M58.2,495.24c.44,0,2.89.13,3.07-.34.16-.41-1.52-.36-1.76-.36-.44,0-2.89-.13-3.07.34-.16.41,1.52.36,1.76.36h0Z"/>
      <path class="cls-2" d="M208.57,403.33c2.7,0,.51-4.36-1.57-4.36-2.7,0-.51,4.36,1.57,4.36h0Z"/>
      <path class="cls-2" d="M203.02,410.64c.64,0-.98-1.45-1.06-1.51-.66-.53-1.78-1.51-2.7-1.51-.64,0,.98,1.45,1.06,1.51.66.53,1.78,1.51,2.7,1.51h0Z"/>
      <path class="cls-2" d="M186.23,410.35c1.2,0,2.51-.66,3.06-1.78.46-.95-.03-2.01-1.17-2.01-1.2,0-2.51.66-3.06,1.78-.46.95.03,2.01,1.17,2.01h0Z"/>
      <path class="cls-2" d="M184.35,399.7c1.13,0-.09-1.16-.4-1.36-.95-.64-2.11-1.07-3.26-1.07s.09,1.16.4,1.36c.95.64,2.11,1.07,3.26,1.07h0Z"/>
      <path class="cls-2" d="M200.38,396.07c1.22,0,2.5-.6,2.56-1.99.06-1.21-1.13-2.5-2.37-2.5s-2.5.6-2.56,1.99c-.06,1.21,1.13,2.5,2.37,2.5h0Z"/>
      <path class="cls-2" d="M195.9,421.51c1.08,0,2.56-.85,2.88-1.93.35-1.18-.76-1.57-1.7-1.57-1.08,0-2.56.85-2.88,1.93-.35,1.18.76,1.57,1.7,1.57h0Z"/>
      <path class="cls-2" d="M18.85,267.17c.56,0,2.16-.07,1.87-.98-.27-.85-2.33-1.02-2.98-1.02-.56,0-2.16.07-1.87.98.27.85,2.33,1.02,2.98,1.02h0Z"/>
      <path class="cls-2" d="M7.97,260.64c.97,0,2.62-.32,3.23-1.16s-.53-1.06-1.19-1.06c-.97,0-2.62.32-3.23,1.16s.53,1.06,1.19,1.06h0Z"/>
      <path class="cls-2" d="M9.35,247.61c1.05,0,2.62-.24,3.22-1.24.56-.93-.41-1.52-1.28-1.52-1.05,0-2.62.24-3.22,1.24-.56.93.41,1.52,1.28,1.52h0Z"/>
      <path class="cls-2" d="M28.88,256.24c1.11,0,2.3-.39,3.34-.75.26-.09,1.72-.66.76-.66-1.11,0-2.3.39-3.34.75-.26.09-1.72.66-.76.66h0Z"/>
      <path class="cls-2" d="M19.64,256.89c1,0,0-1.81-.2-2.11-.51-.76-1.46-1.93-2.49-1.93s0,1.81.2,2.11c.51.76,1.46,1.93,2.49,1.93h0Z"/>
      <path class="cls-2" d="M29.06,269.25c3.06,0,2.49-4.83-.25-4.83-3.06,0-2.49,4.83.25,4.83h0Z"/>
    </g>
  </g>
</svg>