<?xml version="1.0" encoding="UTF-8"?>
<svg id="Layer_2" data-name="Layer 2" xmlns="http://www.w3.org/2000/svg" viewBox="0 0 605.08 604.69">
  <defs>
    <style>
      .cls-1 {
        fill: #e46f4a;
      }

      .cls-2 {
        fill: #d93926;
      }

      .cls-3 {
        fill: #e5663f;
      }

      .cls-4 {
        fill: #fbb44c;
      }

      .cls-5 {
        fill: #f37354;
      }

      .cls-6 {
        fill: #f47942;
      }

      .cls-7 {
        fill: #e94f30;
      }

      .cls-8 {
        fill: #f2876b;
      }

      .cls-9 {
        fill: #ed4a2c;
      }

      .cls-10 {
        fill: #f58641;
      }

      .cls-11 {
        fill: #ee775a;
      }

      .cls-12 {
        fill: #f26c4c;
      }

      .cls-13 {
        fill: #c83f2f;
      }

      .cls-14 {
        fill: #eb452a;
      }

      .cls-15 {
        fill: #ec3824;
      }

      .cls-16 {
        fill: #e6673e;
      }

      .cls-17 {
        fill: #cd3c2d;
      }

      .cls-18 {
        fill: #e77d5c;
      }

      .cls-19 {
        fill: #e25934;
      }

      .cls-20 {
        fill: #e94027;
      }

      .cls-21 {
        fill: #e56d49;
      }

      .cls-22 {
        fill: #f39279;
      }

      .cls-23 {
        fill: #eb987c;
      }

      .cls-24 {
        fill: #e26743;
      }

      .cls-25 {
        fill: #f39982;
      }

      .cls-26 {
        fill: #e5714b;
      }

      .cls-27 {
        fill: #f47a3c;
      }

      .cls-28 {
        fill: #e83f28;
      }

      .cls-29 {
        fill: #ec815b;
      }

      .cls-30 {
        fill: #f37e60;
      }

      .cls-31 {
        fill: #c73c2d;
      }

      .cls-32 {
        fill: #c4382d;
      }

      .cls-33 {
        fill: #ed482b;
      }

      .cls-34 {
        fill: #f69c78;
      }

      .cls-35 {
        fill: #dd3926;
      }

      .cls-36 {
        fill: #ed9272;
      }

      .cls-37 {
        fill: #e56d48;
      }

      .cls-38 {
        fill: #f5876a;
      }

      .cls-39 {
        fill: #e56e4a;
      }

      .cls-40 {
        fill: #e88361;
      }

      .cls-41 {
        fill: #b9352d;
      }

      .cls-42 {
        fill: #f47836;
      }

      .cls-43 {
        fill: #f47e3a;
      }

      .cls-44 {
        fill: #e88362;
      }

      .cls-45 {
        fill: #f1876b;
      }

      .cls-46 {
        fill: #ed4b28;
      }

      .cls-47 {
        fill: #f15e34;
      }

      .cls-48 {
        fill: #e94329;
      }

      .cls-49 {
        fill: #f18f75;
      }

      .cls-50 {
        fill: #e77953;
      }

      .cls-51 {
        fill: #f26937;
      }

      .cls-52 {
        fill: #c24534;
      }

      .cls-53 {
        fill: #f47c3f;
      }

      .cls-54 {
        fill: #f4793e;
      }

      .cls-55 {
        fill: #f47b5d;
      }

      .cls-56 {
        fill: #eb906e;
      }

      .cls-57 {
        fill: #f47859;
      }

      .cls-58 {
        fill: #f2785a;
      }

      .cls-59 {
        fill: #df563c;
      }

      .cls-60 {
        fill: #ec462a;
      }

      .cls-61 {
        fill: #e3633c;
      }

      .cls-62 {
        fill: #f39880;
      }

      .cls-63 {
        fill: #d44e37;
      }

      .cls-64 {
        fill: #e4704b;
      }

      .cls-65 {
        fill: #e66f49;
      }

      .cls-66 {
        fill: #ec472b;
      }

      .cls-67 {
        fill: #dc3926;
      }

      .cls-68 {
        fill: #ea8362;
      }

      .cls-69 {
        fill: #e76e47;
      }

      .cls-70 {
        fill: #d4402f;
      }

      .cls-71 {
        fill: #f15d33;
      }

      .cls-72 {
        fill: #e7714b;
      }

      .cls-73 {
        fill: #ed3a25;
      }

      .cls-74 {
        fill: #d3382a;
      }

      .cls-75 {
        fill: #faaa49;
      }

      .cls-76 {
        fill: #f2967f;
      }

      .cls-77 {
        fill: #f3704f;
      }

      .cls-78 {
        fill: #e94127;
      }

      .cls-79 {
        fill: #e25b35;
      }

      .cls-80 {
        fill: #ea7955;
      }

      .cls-81 {
        fill: #e57450;
      }

      .cls-82 {
        fill: #e5744f;
      }

      .cls-83 {
        fill: #f58568;
      }

      .cls-84 {
        fill: #da3926;
      }

      .cls-85 {
        fill: #cf362b;
      }

      .cls-86 {
        fill: #ec8e6d;
      }

      .cls-87 {
        fill: #e67f5d;
      }

      .cls-88 {
        fill: #dd3d26;
      }

      .cls-89 {
        fill: #f26d4c;
      }

      .cls-90 {
        fill: #ec3a25;
      }

      .cls-91 {
        fill: #c24030;
      }

      .cls-92 {
        fill: #bd4131;
      }

      .cls-93 {
        fill: #f3957d;
      }

      .cls-94 {
        fill: #ec3925;
      }

      .cls-95 {
        fill: #f3723b;
      }

      .cls-96 {
        fill: #fbb44e;
      }

      .cls-97 {
        fill: #e46842;
      }

      .cls-98 {
        fill: #faab4c;
      }

      .cls-99 {
        fill: #faaf4c;
      }

      .cls-100 {
        fill: #e46843;
      }

      .cls-101 {
        fill: #be382d;
      }

      .cls-102 {
        fill: #e7825f;
      }

      .cls-103 {
        fill: #ec3825;
      }

      .cls-104 {
        fill: #faac4b;
      }

      .cls-105 {
        fill: #f37353;
      }

      .cls-106 {
        fill: #e25b34;
      }

      .cls-107 {
        fill: #f26f4f;
      }

      .cls-108 {
        fill: #f5823d;
      }

      .cls-109 {
        fill: #f3937b;
      }

      .cls-110 {
        fill: #e6704b;
      }

      .cls-111 {
        fill: #f47d3d;
      }

      .cls-112 {
        fill: #f47a5c;
      }

      .cls-113 {
        fill: #ce362b;
      }
    </style>
  </defs>
  <g id="tomato">
    <g>
      <path class="cls-14" d="M433.27,16.35c37.42,4.51,62.22,51.5,53.23,87.25-6.69,26.61-21.78,36.98-41.23,52.72-60.7,18.05-114.44-23.35-103.99-87.98,2.61-16.11,16.06-30.07,28-39.99,3.03,9.19,9.63.56,12,0,14.26-3.4,33.39-2.78,43.99-12,2.63.15,5.41-.31,8,0ZM405.28,48.35c1.62,4.63-1.21,14.44,4,20-.93-.61-3.02.59-4,0-4.55-2.75-6.96-11.78-12-12,.23-3.64,7.13-8.59,2.14-16.08-6.6-9.91-9.96-1.5-14.14,4.08.37-4.15.79-8.28-4-8-34.83,15.91-35.85,78.9-4,95.98,23.45,12.58,24.55-7.39,32-23.99,1.13,5.4,3.1,10.55,4.05,15.97,7.36,1.77,1.36-8.05,5.95-8.01,4.6.04-1.42,9.77,5.95,8.01l.05-27.96c1.33.3,2.88-.38,4,0,.48.16-.19,7.77,6.04,0,4.58-4.07-2.02-3.78-2.04-4-.11-1.41.36-3.1,0-4l15.97-4.04c1.47-6.39-8.55-2.97-11.49-10.56-2.02-5.22.2-12.08-.49-17.39,37.42,29.31-4.66,45.12-3.16,61.36,3.4,36.92,42.71,10.5,46.82-23.74,2.78-23.11-15.43-74.42-43.84-55.78-8.66,5.68-.4,13.65.18,18.16l-3.95,2.03c-3.33,5.1-1.63,15.39-8.01,13.94-.02-6.63-.15-13.33-.04-19.98.04-2.45,6.68-10.96-.19-19.92-7.91,3.65-15.91,3.37-23.77-.07-2.83,7.93,6.65,12.25,7.96,15.99ZM381.26,140.37c-5.62-2.87-10.67,2.53-7.96,3.92,5.62,2.87,10.67-2.53,7.96-3.92ZM447.27,140.33v4c2.6-1.33,2.6-2.67,0-4Z"/>
      <path class="cls-48" d="M553.26,224.31c34.42,5.82,56.23,48.72,51.07,81.01-6.96,43.52-46.45,63.43-87.06,62.96-.74-1.69-2.24-3.55-4-4-48.74-12.57-60.05-43.91-55.99-91.98,7.88-17.8,15.83-28.76,32-39.99h4c10.73,7.54,35.09-4,47.99-8,3.9.19,8.46-.6,12,0ZM485.27,248.3c-10.7,8.3-20.62,32.11-20.18,45.85.78,24.85,15.89,30.11,24.18,46.13.51.98-.44,2.73,0,4,.57,1.65-1.4,5.6.5,7.4,7.76,7.34,45.82,10.02,57.36,8.37,9.13-1.3,9.84-5.66,14.13-7.77,1.12-.55,3.13.6,4,0,2.95-2.03,7.98-3.2,8-7.96-25.97,2.77-26.51-1.61-31.99-24.03-.31-1.26.3-2.73,0-4-.73-3.11.1-6.7-4-8-.28-2.6.14-5.37,0-8,2.46,1.6,5.33,2.72,7.95,4.03-4.43-9.63,8.25-13.21,8.25-14.22.06-10.3-13.01-20.87-16.21-25.8-.85-1.31,1.65-8.11-.64-11.07-7.63-9.85-15.63-2.17-15.36,11.07-5.26-19.42-20.13-36.18-36-16ZM565.26,252.3c-1.05-.42-2.31-3.33-4-4-2.83-1.12-12.88-9.41-15.99,2.07-3.55,13.1,26.42,22.94,19.3,47.02-2.69,9.1-27.62,24.34-9.61,39.25,16.94,14.02,36.41-23.43,38.03-38.77,1.52-14.44-5.38-40.83-19.72-47.44-3.8-1.75-7.6,2.03-8,1.87Z"/>
      <path class="cls-20" d="M505.27,572.23l-4-3.92c4.93,1.3,18.22-10.19,16-12.04-5.59-2.31-9.97,3.9-12,3.96-1.29.04-2.73.15-4,0-12.11-1.42-16.66-14.02-20-23.99-2.14-6.39-4.23-13.15-3.97-20.03l7.94,4.08c-4.21-17.36,10.96-9.99,16.02-19.97-12.36-.55-12.97-9.22-12.03-20.08l-11.92,11.97c.25-3.88-.59-8.21-.04-11.97.06-.44,2.52-4.07,4-8,.46-1.22-.5-2.97,0-4,2.5-5.11,4.53-5.15,8-8-7.39,10.01,19,33.3,18.45,46.05-.52,12-29.81,27.61-14.68,44.16,29.16,20.19,63.46-63.83,16.23-90.21-.87-.49-2.62.35-4,0-3.15-.8-12.64-4.54-16,0,.95-.78,1.22-4.38,4.02-5.95,6.12-3.42,16.46,1.35,15.95-6-9.43-1.46-17.1-5.45-23.97-12.05,67.47,11.7,83.11,105.12,20,135.97Z"/>
      <path class="cls-78" d="M445.27,452.26v4c-3.77.07-3.36,3.9-4,4-2.54.4-6.31-.69-8,0-46.54,18.98-24.7,102.98,9.44,91.52,21.99-7.38-5.17-30.89-7.38-35.57-14.22-30.21,30.87-38.6,9.93-59.95,8.41-.16,13.46,8.91,16,16,1.6,4.47,1.59,12.4,3.07,17.6l-3.07,2.4c-2.02-1.42-3.16-8.49-7.96-7.99-7.97,16.29-1.43,24.01-4.01,39.98.7,1.09,5.59-3.03,7.96-4s7.17-5.07,7.96-4c.6,5.8-2.5,10.66-3.96,15.99-3.91,14.25-6.12,28.04-24,27.99-1.3,0-2.73.18-4,0-.52-.07-.86-6.22-8-3.96l7.93,9.98-3.94,1.98c-30.69-25.93-45.29-61.2-24-99.98,5.06-9.22,18.17-14.73,24-20-2.97,4.32,11.17,4.86,16,4Z"/>
      <path class="cls-33" d="M461.27,532.24l7.96,12.01,4-8h8.04c3.33,9.96,7.88,22.56,20,23.98l1.98,3.93,2.02-3.93c2.03-.06,6.41-6.27,12-3.96,2.22,1.85-11.07,13.34-16,12.04l4,3.92c-27.4,13.39-40.07,7.81-67.99,4-2.86-2.42-5.15-5.59-8-8l3.94-1.98-7.93-9.98c7.14-2.27,7.48,3.89,8,3.96l2.01,3.94,1.99-3.94c17.88.04,20.08-13.74,24-27.99Z"/>
      <path class="cls-7" d="M481.27,432.26c1.24,1.43,2.64,2.69,4,4,6.87,6.6,14.53,10.59,23.97,12.05.51,7.34-9.83,2.58-15.95,6-2.8,1.57-3.07,5.17-4.02,5.95-3.47,2.85-5.49,2.89-8,8-7.29-3.11-17.1-5.46-20,4-2.54-7.08-7.59-16.16-16-16v-4c9.68-1.73,22.79-14.81,35.95-8.01,3.36-12.78-11.71-7.53-19.96-7.99,3.46-6.93,13.85-3.16,20-4Z"/>
      <path class="cls-70" d="M553.26,224.31c-3.54-.6-8.1.19-12,0-7.91-.39-20.82-1.18-28,0v-4c10.51-1.42,32.18-2.15,39.99,4Z"/>
      <path class="cls-113" d="M433.27,16.35c-2.59-.31-5.37.15-8,0-8.67-.5-24.22-1.36-32,0,12.14-2.78,28.83-9.84,39.99,0Z"/>
      <path class="cls-52" d="M513.26,220.31v4c-5.2.86-12.81,8.56-20,8h-4c8.49-5.9,12.5-10.44,24-12Z"/>
      <path class="cls-91" d="M453.27,436.26v4c-7.56,3.15-16.17,5.41-24,8,1.81-1.63,11.97-11.15,12-12h12Z"/>
      <path class="cls-92" d="M393.28,16.35c-1.32.23-9.57,10.07-16,8h-4c10.08-6.55,8.34-5.33,20-8Z"/>
      <path class="cls-59" d="M377.28,24.35l4,4c-2.37.56-8.97,9.19-12,0,1.41-1.17,2.56-3.06,4-4h4Z"/>
      <path class="cls-9" d="M517.26,368.28c-1.33-.02-2.68.09-4,0v-4c1.76.45,3.26,2.31,4,4Z"/>
      <path class="cls-60" d="M301.29,192.32c2.48-.14,5.62-.33,8,0,1.37.19,2.87-.32,4,0l32,27.99c20.41,38.34,7.5,96.35-36,111.98-76.39,27.45-144.74-70.91-71.99-127.97,1.44,3.97,4.98,3.11,8,4-.34,1.1.2,2.62,0,4-.19,1.3.29,3.92,0,4-1.26.35-5.02-4.04-6-3.85-4.59.9-17.1,19.35-18.93,24.92-17.94,54.67,36.34,101.94,47.42,55.05,2.36-9.99-4.63-4.39-6.5-20.14l17.91,8.02c7.03-16.37,9.17-15.28,26.08-20.01-.02,4.24-24.26,44.81,2.79,51.48,31.64,7.81,53.3-74.01,17.33-97.6-12.79-8.39-2.51,2.83-8.12,6.13-1.16-1.51-2.56-2.76-4-4-16.16-13.97-29.84,24.26-12.03,11.97-1.43,14.17.13,25.95,16,28.08,1.02,7.38-7.8,2.78-11.97,3.95.02-3.36-16.85-29.93-22.05-31.96-9.61-3.75-6.85,17.3-10.17,19.83-.63.48-8.36-7.32-11.77,4.13h-4c5.66-9.32-.44-12.98.24-17.8,1.19-8.49,15.22,2.57,11.7-8.11-4.18-12.69-12.96-14.86-23.94-18.08.41-1.34-.52-3.16,0-4,14.17-.99,34.86-10.71,47.99-12,2.62-.26,5.36.15,8,0ZM249.28,316.33c-5.62-2.87-10.67,2.53-7.96,3.92,5.62,2.87,10.67-2.53,7.96-3.92ZM317.27,316.33c-5.62-2.87-10.67,2.53-7.96,3.92,5.62,2.87,10.67-2.53,7.96-3.92Z"/>
      <path class="cls-60" d="M261.3,460.26c78.84,12.97,68.32,156.58-33.64,143.61-20.57-2.62-51.17-24.37-58.34-43.63-13.21-35.46.84-73,32-91.98h4c7.75,10.92,17.93-3.69,20-4,5.42-.8,20.91,7.49,28-4,2.6.25,5.52-.41,8,0ZM249.3,504.25l3.92-18.12-7.62,1.82-2.3-11.73c-.52,12.7-8.73,3.47-9.78,4.19-1.61,1.1-4.97,19.36-4.21,23.85-1.32.33-2.9-.41-4,0l-2-3.92-2,3.92c-.53.8.4,2.64,0,4-2.37-2.67-4.64-1.9-4-8,.88-8.36,11.18-18.88-8-20-4.75-.29-4.38,3.88-4,8-8.47-20.03-26.53,16.2-28.08,29.89-2.12,18.82,4.04,46.56,20.08,58.09,15.99,11.5,25.89-.97,32-16,2.46,2.27,3.61,11.61,4.13,11.97.82.57,18.76-3.75,19.53-4.4,2.07-1.73-.62-9.21.33-11.57.89-2.21,2.95-2.8,4-4-3.55,45.14,43.41,20.59,44.23-14.31.13-5.57-4.24-9.16-4.23-9.69,0-1.32.08-2.68,0-4-.04-.6,4.07-3.43,3.94-6.37-.49-10.9-8.02-24.63-15.94-32.09-7.11-6.7-7.52-1.4-8-1.53-1.08-.3-2.62.09-4,0-1.31-.08-5.42-7.46-12.2-2.24-5.28,4.06-2.52,11.61-3.79,14.23-1.67,3.44-3.61,7.81-8,8ZM203.31,584.23v4c2.6-1.33,2.6-2.67,0-4ZM277.28,584.27c-5.62-2.87-10.67,2.53-7.96,3.92,5.62,2.87,10.67-2.53,7.96-3.92Z"/>
      <path class="cls-66" d="M193.31.36c1.51.18,9.64,3.07,12,4v4l19.96,23.99c-10.06-8.56-22.6-19.48-35.96-8-13.72,6.06,19.73,32.4,16,47.99h-12c5.8-9.99-6.89-14.98-4.04-27.97l-11.92,11.98c-2.49-6.82,4.55-17.51,3.91-21.92-1.01-6.98-15.23,1.31-12.01-10.01-13.04,6.03-3.8,24.7-3.94,35.93l-10-16.04c-2.76.11-1.42,9.46-6,16.04.2-6.65-.29-13.36,0-20,.1-2.16,9.41-7.19-1.73-16.35-9.09-7.48-9.74-1.31-14.26.36-38.48,14.19-29.99,64.79-8,91.98,2.01,2.49,5.51,5.95,8,8,.72.59.66,3.96,2,3.94,1.16-.02,1.26-3.57,2-3.94,12.95-6.45,21.31-12.24,24-27.99,8.73,23.56,2.08,2.99,20,4,7.43,20.98,16.73,19.02,20,23.99.28.42.34,7.18,0,8-5.54,13.12-43.43,2.99-51.99,12-41.92-8.94-60.43-61.23-47.99-99.98,1.75-5.46,8.15-15.62,12-20,7.22-8.22,21.06-18.19,32-20l-11.99,11.96c11.42.35,21.24-5.64,31.99-7.96,8.94-1.93,18.62,5.37,16-8,3.95.24,8.1-.46,12,0Z"/>
      <path class="cls-28" d="M213.3,8.36l16,16c17.9,27.3,17.59,45.06,12,75.98-13.26,21.18-20.54,30.86-43.99,39.99-1.63.63-2.97,2.54-4,4-4.67.74-10.87-.12-16,0-3.94.09-8.08.27-12,0-5.06-.35-11.63.93-16,0,8.56-9.01,46.45,1.12,51.99-12l3.98-5.98-3.98-2.02c-3.27-4.98-12.56-3.02-20-23.99-.71-1.99.6-5.65,0-8,1.25-2.7,2.79-5.28,4-8,3.73-8.37,6.06-8.66,8-12h12c-2.5,10.43-33.08,46.88-1.96,46.59,27.52-.26,46.88-71.42,5.96-90.58-2.42-1.13-3.68-3.53-8-4-2.63-.29-10.65-.6-12,0,13.36-11.48,25.89-.56,35.96,8l-19.96-23.99h4c1.23.33,2.87-.45,4,0Z"/>
      <path class="cls-74" d="M297.29,188.32c1.33.04,2.68-.1,4,0v4c-2.64.15-5.38-.26-8,0-10.43.76-21.72-1.09-32,0,1.44-.95,2.49-3.15,4-4,10.64.24,21.36-.34,32,0Z"/>
      <path class="cls-85" d="M261.3,456.26v4c-2.48-.41-5.4.25-8,0-7.86-.76-20.16-.78-28,0-1.32.13-2.7-.19-4,0,13.63-3.11,24.56-6.12,39.99-4Z"/>
      <path class="cls-13" d="M157.31.36v4c-3.56-.23-8.75-.54-12,0V.36c1.27-.25,2.69.15,4,0,2.61-.29,5.36.17,8,0Z"/>
      <path class="cls-67" d="M433.27,56.35c-.59-4.5-8.84-12.48-.18-18.16,28.41-18.65,46.62,32.67,43.84,55.78-4.12,34.25-43.42,60.66-46.82,23.74-1.49-16.24,40.58-32.06,3.16-61.36ZM449.27,44.35c5.16,0,5.16-4,0-4s-5.16,4,0,4ZM473.25,80.38c-5.62-2.87-10.67,2.53-7.96,3.92,5.62,2.87,10.67-2.53,7.96-3.92Z"/>
      <path class="cls-84" d="M381.28,44.35c4.18-5.58,7.54-13.99,14.14-4.08,4.99,7.49-1.92,12.44-2.14,16.08-11.68,5.68-14.82,11.84-16,23.99-.12,1.25-.12,2.75,0,4,1.97,19.81,36.53,42.09-4,47.99-31.86-17.08-30.83-80.07,4-95.98l.03,5.94,3.97,2.06ZM369.26,56.39c-5.62-2.87-10.67,2.53-7.96,3.92,5.62,2.87,10.67-2.53,7.96-3.92ZM379.28,120.33v4c2.6-1.33,2.6-2.67,0-4Z"/>
      <path class="cls-95" d="M405.28,68.34l-4.01,23.96c8.43-3.19,14.91,2.89,20,4.03l-.05,27.96c-7.37,1.76-1.35-7.98-5.95-8.01-4.58-.04,1.41,9.78-5.95,8.01-.95-5.42-2.92-10.56-4.05-15.97-.73-3.49.52-8.18-.03-12.02-13.94,10.82-2.42-16.25-23.96-11.98v-4c1.27-.27,2.79.36,4,0,1.9-.56,3.32-2.15,4-4,1.08-1.34,3.71-2.84,4-4l4-5.92-4-2.08c.43-2.36-.16-5.37,0-8,5.04.22,7.45,9.25,12,12Z"/>
      <path class="cls-15" d="M381.28,84.34c21.54-4.27,10.02,22.79,23.96,11.98.55,3.84-.7,8.53.03,12.02-7.45,16.61-8.54,36.57-32,23.99,40.53-5.9,5.96-28.18,4-47.99h4Z"/>
      <path class="cls-27" d="M421.28,52.35c-.11,6.64.02,13.34.04,19.98,6.38,1.44,4.68-8.84,8.01-13.94l3.95-2.03c.69,5.3-1.53,12.16.49,17.39,2.94,7.59,12.95,4.17,11.49,10.56l-15.97,4.04c-5.96-14.92-10.6-13.84-20-20-5.21-5.55-2.38-15.36-4-20,6.03-5.02,12.05-2.05,16,4Z"/>
      <path class="cls-96" d="M409.28,68.34c9.4,6.15,14.04,5.08,20,20,.36.9-.11,2.59,0,4l-4,4c-1.12-.38-2.67.3-4,0-5.1-1.15-11.57-7.22-20-4.03l4.01-23.96c.98.59,3.07-.61,4,0Z"/>
      <path class="cls-47" d="M405.28,48.35c-1.31-3.75-10.79-8.06-7.96-15.99,7.86,3.44,15.86,3.71,23.77.07,6.87,8.96.23,17.48.19,19.92-3.95-6.05-9.97-9.02-16-4Z"/>
      <path class="cls-76" d="M425.28,16.35c-10.6,9.21-29.73,8.6-43.99,12l-4-4c6.43,2.07,14.67-7.77,16-8,7.77-1.36,23.32-.5,32,0Z"/>
      <path class="cls-107" d="M381.26,140.37c2.71,1.39-2.34,6.79-7.96,3.92-2.71-1.39,2.34-6.79,7.96-3.92Z"/>
      <path class="cls-69" d="M381.28,44.35l-3.97-2.06-.03-5.94c4.79-.28,4.37,3.85,4,8Z"/>
      <path class="cls-27" d="M425.28,96.34l4-4c.02.22,6.62-.07,2.04,4-6.23,7.77-5.56.16-6.04,0Z"/>
      <path class="cls-38" d="M447.27,140.33c2.6,1.33,2.6,2.67,0,4v-4Z"/>
      <path class="cls-2" d="M561.26,248.3l4,4c.41.16,4.21-3.62,8-1.87,14.34,6.61,21.24,33,19.72,47.44-1.62,15.34-21.09,52.8-38.03,38.77-18.01-14.91,6.92-30.15,9.61-39.25,7.13-24.08-22.84-33.92-19.3-47.02,3.11-11.48,13.16-3.19,15.99-2.07ZM589.23,288.34c-5.62-2.87-10.67,2.53-7.96,3.92,5.62,2.87,10.67-2.53,7.96-3.92Z"/>
      <path class="cls-84" d="M493.27,244.3c-1.44,12.14,3.2,9.31,8,0,21.72,6.72-4.93,27.38-7.21,34.87-8.5,27.92,41.18,52.99-4.79,61.11-8.3-16.01-23.4-21.28-24.18-46.13-.43-13.75,9.48-37.56,20.18-45.85,1.46-1.13,6.42-3.7,8-4ZM485.25,264.34c-5.62-2.87-10.67,2.53-7.96,3.92,5.62,2.87,10.67-2.53,7.96-3.92ZM495.27,328.29v4c2.6-1.33,2.6-2.67,0-4Z"/>
      <path class="cls-9" d="M541.26,320.29c5.48,22.43,6.02,26.8,31.99,24.03-.02,4.75-5.05,5.93-8,7.96l-2.03-3.93-1.97,3.93c-4.29,2.11-4.99,6.47-14.13,7.77-11.54,1.64-49.6-1.03-57.36-8.37-1.9-1.79.07-5.74-.5-7.4,24.19,3.55,26.91-8.13,32-27.99,2.94,10.77,11.65,4.51,20,4Z"/>
      <path class="cls-90" d="M521.26,264.3c.03,1.32-.15,2.71,0,4l-4,4c-2.16-2.25-3.12-8.25-7.97-7.99,6.89,17.19.86,16.65-12.01,26.01,5.56,1.92,10.48,3.57,15.98,5.98l.04,16,7.96-4c-.49,2.46.58,5.74,0,8-5.08,19.86-7.8,31.55-32,27.99-.44-1.27.51-3.02,0-4,45.96-8.12-3.71-33.19,4.79-61.11,2.28-7.49,28.93-28.15,7.21-34.87-1.4-.43-6.23-.33-8,0-1.58.3-6.54,2.87-8,4,15.87-20.19,30.74-3.42,36,16Z"/>
      <path class="cls-10" d="M521.26,264.3c-.27-13.24,7.73-20.92,15.36-11.07,2.29,2.95-.21,9.75.64,11.07-12.4-8.05-6.12-2.06-7.82,6.09-3.6,17.29-7.7,19.82,7.82,29.9.14,2.63-.28,5.4,0,8,.37,3.4,0,6.81,4,8,.3,1.26-.31,2.74,0,4-8.35.51-17.06,6.77-20-4,.58-2.26-.49-5.54,0-8,.1-.48,6.44-5.04,4.01-7.94-.41-.49-8.7-2.61-12.01-4.06-5.5-2.41-10.42-4.06-15.98-5.98,12.87-9.36,18.9-8.81,12.01-26.01,4.85-.26,5.81,5.74,7.97,7.99s3.07,8.25,7.96,8c2.62-6.11-3.73-10.05-3.96-12-.15-1.29.03-2.68,0-4Z"/>
      <path class="cls-104" d="M537.26,264.3c3.19,4.93,16.26,15.5,16.21,25.8,0,1.01-12.68,4.59-8.25,14.22-2.62-1.31-5.49-2.43-7.95-4.03-15.52-10.09-11.41-12.61-7.82-29.9,1.69-8.15-4.58-14.14,7.82-6.09Z"/>
      <path class="cls-93" d="M541.26,224.31c-12.9,4-37.27,15.54-47.99,8,7.19.56,14.8-7.14,20-8,7.17-1.18,20.09-.39,28,0Z"/>
      <path class="cls-9" d="M541.26,316.29c-4.01-1.18-3.63-4.6-4-8,4.1,1.3,3.27,4.89,4,8Z"/>
      <path class="cls-58" d="M565.26,352.28c-.87.6-2.88-.55-4,0l1.97-3.93,2.03,3.93Z"/>
      <path class="cls-29" d="M565.26,252.3l-4-4c1.69.67,2.94,3.58,4,4Z"/>
      <path class="cls-2" d="M505.27,460.26l-3.98,2c.43,4.14,8.25,3.2,7.98-2,47.23,26.38,12.93,110.41-16.23,90.21-15.13-16.55,14.16-32.16,14.68-44.16.55-12.76-25.84-36.04-18.45-46.05,3.35-4.54,12.84-.8,16,0ZM529.24,500.27c-4.36-4.36-12.32,3.59-7.96,7.96,4.36,4.36,12.32-3.59,7.96-7.96Z"/>
      <path class="cls-54" d="M481.27,468.25c-.5,1.03.46,2.78,0,4l-4,8c-.55,3.76.29,8.1.04,11.97l11.92-11.97c-.94,10.86-.33,19.53,12.03,20.08-5.06,9.98-20.23,2.62-16.02,19.97l-7.94-4.08c-.26,6.88,1.83,13.64,3.97,20.03h-8.04s-4,8.01-4,8.01l-7.96-12.01c1.46-5.33,4.56-10.19,3.96-15.99-.79-1.07-5.52,3.01-7.96,4,5.96-9.49,16.91-15.52,27.97-16.04-4.72-7.23-14.65-5.41-23.97-11.95l3.07-2.4c-1.48-5.19-1.47-13.13-3.07-17.6,2.9-9.46,12.7-7.11,20-4Z"/>
      <path class="cls-7" d="M477.27,480.25l4-8c-1.48,3.93-3.93,7.56-4,8Z"/>
      <path class="cls-82" d="M509.26,460.26c.27,5.2-7.55,6.14-7.98,2l3.98-2c1.38.35,3.13-.49,4,0Z"/>
      <path class="cls-112" d="M501.27,560.23c1.27.15,2.71.04,4,0l-2.02,3.93-1.98-3.93Z"/>
      <path class="cls-2" d="M433.27,460.26l2.08,4,5.92-4c.64-.1.22-3.93,4-4,20.93,21.35-24.15,29.74-9.93,59.95,2.2,4.68,29.37,28.19,7.38,35.57-34.14,11.45-55.98-72.54-9.44-91.52ZM425.24,484.23c2.87-5.62-2.53-10.67-3.92-7.96-2.87,5.62,2.53,10.67,3.92,7.96ZM435.27,540.24v4c2.6-1.33,2.6-2.67,0-4Z"/>
      <path class="cls-99" d="M461.27,492.25c9.32,6.54,19.25,4.72,23.97,11.95-11.06.52-22.01,6.55-27.97,16.04-2.37.96-7.27,5.09-7.96,4,2.57-15.98-3.96-23.69,4.01-39.98,4.8-.49,5.94,6.58,7.96,7.99Z"/>
      <path class="cls-8" d="M461.27,436.26c8.25.46,23.31-4.79,19.96,7.99-13.16-6.8-26.28,6.27-35.95,8.01-4.83.86-18.97.32-16-4,7.83-2.59,16.43-4.85,24-8,1.65-.69,2.96-2.55,4-4,1.33,0,2.68-.07,4,0Z"/>
      <path class="cls-87" d="M441.27,460.26l-5.92,4-2.08-4c1.69-.69,5.46.4,8,0Z"/>
      <path class="cls-55" d="M433.27,560.23c1.27.18,2.7,0,4,0l-1.99,3.94-2.01-3.94Z"/>
      <path class="cls-7" d="M453.27,440.26v-4c1.33,0,2.67,0,4,0-1.04,1.45-2.35,3.31-4,4Z"/>
      <path class="cls-14" d="M37.33,284.3h4c2.02,2.11,5.09,4.09,8,4,10.98-.35,28.63-3.82,36-12,1.32.13,2.69-.17,4,0,87.31,11.13,75.78,158.13-29.65,143.6-64.84-8.94-83.53-100.33-22.34-135.6ZM29.33,392.27c26.22,18.82,34.43-7.65,28-31.99h4c.79,1.65,3.49,2.88,4,4,1.06,2.33,3.72,24.73,16.03,14.18,6.77-5.81-2.25-10.98.82-17.16.48-.97,4.47-1.07,5.44-2.62,5.76-9.24,2.11-13.67,17.75-16.39-11.35-5.05-13.57-8.99-12.08-21.99l-11.92,11.98c1.13-18.5,2.38-31.21-20.04-27.94l4,19.96h-4c-.83-3.34-4.3-7.97-8-8,.21-2.57,5.33-5.53,2.2-11.83-6.41-12.9-13.3-4.13-14.2-4.17-1.21-.05-2.87-.26-4,0-.21.05-1.66-3.14-3.91-2.02-30.31,15.13-30.69,74.91-4.09,94ZM105.32,304.29c1.4-1.26,2.8-2.54,4-4,.18-.22,4.68.48,4-3.96-51.49-1.74-4.23,28.06-4.23,45.95,0,15.47-37.53,38.58-7.66,52.11,21.02,9.52,36.97-34.84,36.06-51.97-.52-9.74-12.07-41.12-22.17-41.05-3.45.02-8.46,11.59-9.99,2.92ZM41.31,400.31c-5.62-2.87-10.67,2.53-7.96,3.92,5.62,2.87,10.67-2.53,7.96-3.92ZM107.32,400.27v4c2.6-1.33,2.6-2.67,0-4Z"/>
      <path class="cls-63" d="M261.3,192.32c-3.97,2.61-14.19,9.11-16,12-.52.84.41,2.66,0,4-3.02-.89-6.56-.03-8-4,10.42-8.17,6.81-10.17,24-12Z"/>
      <path class="cls-41" d="M89.32,276.3c-1.31-.17-2.68.13-4,0-7.64-.74-20.49-.89-28,0,6.53-6.56,25.27-6.83,32,0Z"/>
      <path class="cls-32" d="M221.3,460.26c-.63.09-9.56,3.18-12,4,5.13-2.15,6.14-2.66,12-4Z"/>
      <path class="cls-66" d="M177.31,144.33c-.56,6.02-11.44,6.02-12,0,3.92.27,8.06.09,12,0Z"/>
      <path class="cls-101" d="M53.33,276.3v4c-2.56.32-5.57-.47-8,0,1.67-.55,3.4-3.25,8-4Z"/>
      <path class="cls-17" d="M45.33,280.3c-.85.16-2.46,3.23-4,4h-4c2.84-1.64,4.59-2.89,8-4Z"/>
      <path class="cls-31" d="M209.3,464.26c-1.08.36-2.46,3.16-4,4h-4c2.94-1.79,4.85-2.68,8-4Z"/>
      <path class="cls-14" d="M57.33,280.3h-4v-4c1.29-.21,2.69.16,4,0-.67.67.66,3.26,0,4Z"/>
      <path class="cls-66" d="M193.31,144.33c1.03-1.46,2.37-3.36,4-4-.45,1.92-2.11,3.7-4,4Z"/>
      <path class="cls-35" d="M245.3,208.31c10.98,3.22,19.75,5.39,23.94,18.08,3.52,10.69-10.51-.38-11.7,8.11-.67,4.82,5.42,8.48-.24,17.8-1.17,1.93-8.55,3.2-8,7.96l12,.04c0,3.89-.45,8.21,0,12,1.87,15.75,8.86,10.15,6.5,20.14-11.08,46.88-65.36-.39-47.42-55.05,1.83-5.57,14.34-24.01,18.93-24.92.97-.19,4.74,4.19,6,3.85l2,3.98c4.14-.43,3.2-8.25-2-7.98.2-1.38-.34-2.9,0-4ZM237.28,232.35c-5.62-2.87-10.67,2.53-7.96,3.92,5.62,2.87,10.67-2.53,7.96-3.92ZM249.28,296.33c-5.62-2.87-10.67,2.53-7.96,3.92,5.62,2.87,10.67-2.53,7.96-3.92Z"/>
      <path class="cls-88" d="M313.29,216.31l4,4c5.61-3.3-4.67-14.51,8.12-6.13,35.97,23.59,14.31,105.41-17.33,97.6-27.05-6.68-2.81-47.25-2.79-51.48,4.17-1.17,12.99,3.43,11.97-3.95-15.87-2.12-17.43-13.9-16-28.08-17.81,12.3-4.13-25.94,12.03-11.97ZM341.27,256.34c-5.62-2.87-10.67,2.53-7.96,3.92,5.62,2.87,10.67-2.53,7.96-3.92Z"/>
      <path class="cls-4" d="M305.29,260.3c-16.91,4.74-19.05,3.64-26.08,20.01l-17.91-8.02c-.45-3.79,0-8.11,0-12v-8c3.41-11.46,11.14-3.65,11.77-4.13,3.32-2.53.56-23.57,10.17-19.83,5.2,2.03,22.07,28.59,22.05,31.96Z"/>
      <path class="cls-62" d="M293.29,192.32c-13.13,1.29-33.82,11.01-47.99,12,1.81-2.89,12.03-9.38,16-12,10.28-1.09,21.56.76,32,0Z"/>
      <path class="cls-42" d="M261.3,252.3v8l-12-.04c-.55-4.75,6.83-6.03,8-7.96h4Z"/>
      <path class="cls-72" d="M245.3,212.31c5.2-.27,6.14,7.55,2,7.98l-2-3.98c.29-.08-.19-2.7,0-4Z"/>
      <path class="cls-89" d="M249.28,316.33c2.71,1.39-2.34,6.79-7.96,3.92-2.71-1.39,2.34-6.79,7.96-3.92Z"/>
      <path class="cls-77" d="M317.27,316.33c2.71,1.39-2.34,6.79-7.96,3.92-2.71-1.39,2.34-6.79,7.96-3.92Z"/>
      <path class="cls-36" d="M317.29,220.31l-4-4c1.44,1.24,2.84,2.49,4,4Z"/>
      <path class="cls-2" d="M273.3,484.25l-3.98,2c.43,4.14,8.25,3.2,7.98-2,.47.13.89-5.17,8,1.53,7.92,7.47,15.46,21.2,15.94,32.09.13,2.94-3.98,5.78-3.94,6.37l-3.92,2,3.92,2c0,.53,4.36,4.12,4.23,9.69-.82,34.9-47.78,59.44-44.23,14.31,21.98-25.01,25.84-25.47,0-55.99,1.27-2.62-1.48-10.17,3.79-14.23,6.79-5.22,10.89,2.15,12.2,2.24Z"/>
      <path class="cls-2" d="M205.31,488.25l3.97-2.06.03-5.94c19.18,1.11,8.88,11.63,8,20-7.79,5-16.39,16.77-16.41,26.02-.03,14.91,42.36,47.52-3.59,49.96-16.04-11.53-22.2-39.27-20.08-58.09,1.54-13.7,19.61-49.93,28.08-29.89ZM191.31,500.25v4c2.6-1.33,2.6-2.67,0-4ZM209.28,564.27c-5.62-2.87-10.67,2.53-7.96,3.92,5.62,2.87,10.67-2.53,7.96-3.92Z"/>
      <path class="cls-94" d="M221.3,508.25c-3.13,10.66,1.58,10.04-11.99,19.95,10.97-.63,16.5,2.27,16.03,13.97,5.85,6.98,3.11-4.28,3.96-5.93h4c-.42,2.51.62,5.9,0,8-1.43,4.82-3.36,14.42-4,16-6.1,15.03-16.01,27.49-32,16,45.95-2.44,3.56-35.05,3.59-49.96.02-9.25,8.62-21.03,16.41-26.02-.64,6.09,1.63,5.33,4,8Z"/>
      <path class="cls-75" d="M249.3,504.25c5.2,2.7,16.86,22.73,15.98,23.87-.33.42-5.31.09-7.58,2.57-3.22,3.52-4.34,9.02-4.75,9.38-1.46,1.28-5.18-3.06-7.66-3.82-4.56-1.4-6.79-4.21-12,0h-4c12.11-23.3,6.12-12.07-8-27.99.4-1.36-.53-3.2,0-4,.39-.59,2.73.47,4,0,1.1-.41,2.68.33,4,0,9.37-2.36,8.51-5.97,20,0Z"/>
      <path class="cls-46" d="M257.3,552.24c-1.05,1.19-3.1,1.79-4,4h-4l-4-20c2.48.76,6.2,5.11,7.66,3.82.41-.36,1.53-5.86,4.75-9.38,2.27-2.48,7.25-2.15,7.58-2.57.88-1.14-10.78-21.16-15.98-23.87,4.39-.19,6.33-4.56,8-8,25.84,30.52,21.98,30.97,0,55.99Z"/>
      <path class="cls-51" d="M229.3,504.25c-.76-4.5,2.61-22.75,4.21-23.85,1.05-.72,9.27,8.51,9.78-4.19l2.3,11.73,7.62-1.82-3.92,18.12c-11.48-5.97-10.62-2.36-20,0Z"/>
      <path class="cls-71" d="M233.3,544.24c-3.02,12.3,4.63,17.21,16,12h4c-.96,2.36,1.73,9.84-.33,11.57-.77.64-18.71,4.97-19.53,4.4-.52-.36-1.67-9.7-4.13-11.97.64-1.57,2.57-11.18,4-16Z"/>
      <path class="cls-109" d="M253.3,460.26c-7.09,11.49-22.58,3.2-28,4v-4c7.84-.78,20.13-.76,28,0Z"/>
      <path class="cls-49" d="M225.3,464.26c-2.07.31-12.24,14.92-20,4,1.54-.84,2.92-3.64,4-4,2.44-.82,11.37-3.91,12-4,1.3-.19,2.68.13,4,0v4Z"/>
      <path class="cls-105" d="M277.28,584.27c2.71,1.39-2.34,6.79-7.96,3.92-2.71-1.39,2.34-6.79,7.96-3.92Z"/>
      <path class="cls-50" d="M277.3,484.25c.27,5.2-7.55,6.14-7.98,2l3.98-2c1.38.09,2.92-.3,4,0Z"/>
      <path class="cls-110" d="M205.31,488.25c-.38-4.12-.75-8.29,4-8l-.03,5.94-3.97,2.06Z"/>
      <path class="cls-51" d="M225.3,504.25c-1.27.47-3.61-.59-4,0l2-3.92,2,3.92Z"/>
      <path class="cls-44" d="M297.29,528.24l-3.92-2,3.92-2c.08,1.32,0,2.68,0,4Z"/>
      <path class="cls-30" d="M203.31,584.23c2.6,1.33,2.6,2.67,0,4v-4Z"/>
      <path class="cls-2" d="M149.31,40.35c-6.85,8.07-15.75,14.72-16.43,25.99-1.02,16.86,42.75,55.33-7.56,49.99-21.99-27.19-30.48-77.79,8-91.98-2.08,1.93,3.8,5.98,7.98,3.96,3.69-1.79-4.87-6.86-7.98-3.96,4.52-1.67,5.17-7.84,14.26-.36,11.14,9.16,1.83,14.19,1.73,16.35ZM125.28,48.33c2.87-5.62-2.53-10.67-3.92-7.96-2.87,5.62,2.53,10.67,3.92,7.96ZM137.27,112.31c2.87-5.62-2.53-10.67-3.92-7.96-2.87,5.62,2.53,10.67,3.92,7.96Z"/>
      <path class="cls-2" d="M201.31,24.35c-.39,6.8-1.44,9.36,5.96,7.96l2.04-3.96c40.92,19.15,21.56,90.31-5.96,90.58-31.12.3-.54-36.16,1.96-46.59,3.74-15.59-29.72-41.93-16-47.99,1.35-.6,9.37-.29,12,0ZM229.28,64.37c-4.36-4.36-12.32,3.59-7.96,7.96s12.32-3.59,7.96-7.96Z"/>
      <path class="cls-53" d="M165.31,60.35c.14-11.23-9.1-29.9,3.94-35.93-3.22,11.32,11,3.03,12.01,10.01.64,4.41-6.41,15.11-3.91,21.92l11.92-11.98c-2.85,12.99,9.84,17.98,4.04,27.97-1.94,3.34-4.27,3.62-8,12-14.92-8.96-5.91.55-4,8,.6,2.35-.71,6,0,8-17.91-1.01-11.27,19.56-20-4,.18-1.09.21-2.92,0-4,19.73,4.79,8.53-18.29,19.91-26.04l-15.91-1.96c.21-1.24-.02-2.71,0-4Z"/>
      <path class="cls-103" d="M149.31,60.35c-3.03,4.35-10.98,6.08-12,11.96,10.26.52,18.47-3.96,16,8.04-.27.44-.15,2.87,0,4,.31,2.41,2.07,3.17,4,4,1.24,1.19,3.58,1.79,4,4,.21,1.07.18,2.91,0,4-2.68,15.75-11.05,21.54-24,27.99h-4c-2.49-2.05-5.99-5.51-8-8,50.31,5.34,6.54-33.13,7.56-49.99.68-11.27,9.58-17.92,16.43-25.99-.29,6.64.2,13.35,0,20Z"/>
      <path class="cls-43" d="M165.31,60.35c-.02,1.29.21,2.76,0,4-2.35,13.69-9.36,11.79-12,16,2.47-12-5.74-7.52-16-8.04,1.02-5.88,8.96-7.6,12-11.96,4.58-6.57,3.24-15.92,6-16.04l10,16.04Z"/>
      <path class="cls-22" d="M157.31,4.36c3.39.22,6.91.14,8,4-10.75,2.32-20.58,8.31-31.99,7.96l11.99-11.96c3.25-.54,8.44-.23,12,0Z"/>
      <path class="cls-11" d="M181.31.36c2.62,13.37-7.06,6.07-16,8-1.09-3.85-4.61-3.78-8-4V.36c7.5-.49,16.49-.47,24,0Z"/>
      <path class="cls-12" d="M201.31,132.33c.34-.81.28-7.58,0-8l3.98,2.02-3.98,5.98Z"/>
      <path class="cls-57" d="M133.31,124.33h4c-.74.37-.83,3.92-2,3.94-1.34.02-1.29-3.35-2-3.94Z"/>
      <path class="cls-66" d="M185.31,84.34c-1.21,2.72-2.75,5.3-4,8-1.91-7.45-10.93-16.96,4-8Z"/>
      <path class="cls-39" d="M473.25,80.38c2.71,1.39-2.34,6.79-7.96,3.92-2.71-1.39,2.34-6.79,7.96-3.92Z"/>
      <path class="cls-56" d="M449.27,44.35c-5.16,0-5.16-4,0-4v4Z"/>
      <path class="cls-14" d="M449.27,44.35v-4c5.16,0,5.16,4,0,4Z"/>
      <path class="cls-15" d="M393.28,64.34c-.45,2.5.56,5.73,0,8-.29,1.16-2.92,2.66-4,4-1.15,1.43-2.9,2.48-4,4-1.21.36-2.73-.27-4,0h-4c1.18-12.16,4.32-18.31,16-23.99-.16,2.63.43,5.64,0,8Z"/>
      <path class="cls-64" d="M369.26,56.39c2.71,1.39-2.34,6.79-7.96,3.92-2.71-1.39,2.34-6.79,7.96-3.92Z"/>
      <path class="cls-14" d="M381.28,84.34h-4c-.12-1.25-.12-2.75,0-4h4v4Z"/>
      <path class="cls-68" d="M379.28,120.33c2.6,1.33,2.6,2.67,0,4v-4Z"/>
      <path class="cls-14" d="M393.28,72.34c.56-2.27-.45-5.5,0-8l4,2.08-4,5.92Z"/>
      <path class="cls-14" d="M385.28,80.34c1.1-1.52,2.85-2.57,4-4-.68,1.85-2.1,3.44-4,4Z"/>
      <path class="cls-65" d="M589.23,288.34c2.71,1.39-2.34,6.79-7.96,3.92-2.71-1.39,2.34-6.79,7.96-3.92Z"/>
      <path class="cls-97" d="M501.27,244.3c-4.8,9.31-9.44,12.14-8,0,1.76-.33,6.6-.43,8,0Z"/>
      <path class="cls-37" d="M485.25,264.34c2.71,1.39-2.34,6.79-7.96,3.92-2.71-1.39,2.34-6.79,7.96-3.92Z"/>
      <path class="cls-80" d="M495.27,328.29c2.6,1.33,2.6,2.67,0,4v-4Z"/>
      <path class="cls-9" d="M513.26,296.29c3.31,1.45,11.6,3.57,12.01,4.06,2.43,2.91-3.91,7.46-4.01,7.94l-7.96,4-.04-16Z"/>
      <path class="cls-48" d="M521.26,268.3c.23,1.95,6.58,5.89,3.96,12-4.89.25-5.85-5.8-7.96-8l4-4Z"/>
      <path class="cls-79" d="M529.24,500.27c4.36,4.36-3.59,12.32-7.96,7.96-4.36-4.36,3.59-12.32,7.96-7.96Z"/>
      <path class="cls-61" d="M425.24,484.23c-1.39,2.71-6.79-2.34-3.92-7.96,1.39-2.71,6.79,2.34,3.92,7.96Z"/>
      <path class="cls-81" d="M435.27,540.24c2.6,1.33,2.6,2.67,0,4v-4Z"/>
      <path class="cls-67" d="M105.32,304.29c1.53,8.66,6.55-2.9,9.99-2.92,10.11-.07,21.66,31.31,22.17,41.05.91,17.13-15.04,61.48-36.06,51.97-29.87-13.52,7.66-36.63,7.66-52.11,0-17.89-47.25-47.69,4.23-45.95.68,4.44-3.82,3.74-4,3.96l-4,4ZM133.29,340.3c-4.36-4.36-12.32,3.59-7.96,7.96s12.32-3.59,7.96-7.96Z"/>
      <path class="cls-84" d="M37.33,300.29l2,3.92,2-3.92c.9.04,7.79-8.73,14.2,4.17,3.13,6.3-1.99,9.26-2.2,11.83-6.75-.05-19.8,22.59-19.16,29.39,1.28,13.54,45.79,43.03-4.84,46.59-26.6-19.09-26.22-78.87,4.09-94,2.24-1.12,3.69,2.07,3.91,2.02ZM29.31,316.33c-5.62-2.87-10.67,2.53-7.96,3.92,5.62,2.87,10.67-2.53,7.96-3.92ZM39.33,380.27v4c2.6-1.33,2.6-2.67,0-4Z"/>
      <path class="cls-111" d="M65.32,324.29l-4-19.96c22.41-3.27,21.17,9.43,20.04,27.94l11.92-11.98c-1.5,13.01.73,16.94,12.08,21.99-15.64,2.72-11.99,7.15-17.75,16.39-.97,1.55-4.96,1.65-5.44,2.62-3.06,6.18,5.96,11.36-.82,17.16-12.3,10.55-14.97-11.85-16.03-14.18l-.04-7.99-3.96,3.99h-4c-2.76-10.44,2.2-16.54-15.97-16.04-.6-6.77,8.7-3.25,11.49-10.57,1.92-5.02.04-12.01.48-17.38,3.69.03,7.16,4.66,8,8,.07.29-3.65,3.07-2.83,5.24,4.62,12.23,10.35,32.26,24.81,26.77,9.48-8.55-6.07-7.34-6.31-10.54-.87-11.43,10.91-12.46-11.67-21.47ZM83.32,340.28v4c2.6-1.33,2.6-2.67,0-4Z"/>
      <path class="cls-73" d="M53.33,316.29c-.44,5.37,1.43,12.37-.48,17.38-2.79,7.32-12.1,3.79-11.49,10.57,18.17-.5,13.22,5.6,15.97,16.04,6.43,24.34-1.78,50.81-28,31.99,50.63-3.56,6.12-33.06,4.84-46.59-.64-6.8,12.4-29.44,19.16-29.39Z"/>
      <path class="cls-4" d="M65.32,324.29c22.58,9.01,10.8,10.04,11.67,21.47.24,3.2,15.79,1.99,6.31,10.54-14.46,5.48-20.19-14.54-24.81-26.77-.82-2.17,2.9-4.95,2.83-5.24h4Z"/>
      <path class="cls-45" d="M85.32,276.3c-7.37,8.18-25.02,11.65-36,12,2.86-2.48,5.47-5.19,8-8,.66-.73-.67-3.33,0-4,7.51-.89,20.35-.74,28,0Z"/>
      <path class="cls-25" d="M53.33,280.3h4c-2.53,2.81-5.14,5.52-8,8-2.91.09-5.98-1.89-8-4,1.54-.77,3.15-3.83,4-4,2.43-.47,5.44.32,8,0Z"/>
      <path class="cls-5" d="M41.31,400.31c2.71,1.39-2.34,6.79-7.96,3.92-2.71-1.39,2.34-6.79,7.96-3.92Z"/>
      <path class="cls-73" d="M65.32,364.28c-.51-1.12-3.21-2.35-4-4l3.96-3.99.04,7.99Z"/>
      <path class="cls-83" d="M107.32,400.27c2.6,1.33,2.6,2.67,0,4v-4Z"/>
      <path class="cls-86" d="M37.33,300.29c1.13-.26,2.79-.05,4,0l-2,3.92-2-3.92Z"/>
      <path class="cls-26" d="M237.28,232.35c2.71,1.39-2.34,6.79-7.96,3.92-2.71-1.39,2.34-6.79,7.96-3.92Z"/>
      <path class="cls-21" d="M249.28,296.33c2.71,1.39-2.34,6.79-7.96,3.92-2.71-1.39,2.34-6.79,7.96-3.92Z"/>
      <path class="cls-1" d="M341.27,256.34c2.71,1.39-2.34,6.79-7.96,3.92-2.71-1.39,2.34-6.79,7.96-3.92Z"/>
      <path class="cls-110" d="M209.28,564.27c2.71,1.39-2.34,6.79-7.96,3.92-2.71-1.39,2.34-6.79,7.96-3.92Z"/>
      <path class="cls-40" d="M191.31,500.25c2.6,1.33,2.6,2.67,0,4v-4Z"/>
      <path class="cls-108" d="M229.3,536.24c-.86,1.65,1.88,12.92-3.96,5.93.47-11.7-5.06-14.6-16.03-13.97,13.57-9.91,8.87-9.29,11.99-19.95,14.12,15.92,20.11,4.69,8,27.99Z"/>
      <path class="cls-6" d="M245.3,536.24l4,20c-11.37,5.21-19.02.3-16-12,.62-2.1-.42-5.49,0-8,5.21-4.21,7.44-1.4,12,0Z"/>
      <path class="cls-3" d="M137.27,112.31c-1.39,2.71-6.79-2.34-3.92-7.96,1.39-2.71,6.79,2.34,3.92,7.96Z"/>
      <path class="cls-100" d="M125.28,48.33c-1.39,2.71-6.79-2.34-3.92-7.96,1.39-2.71,6.79,2.34,3.92,7.96Z"/>
      <path class="cls-102" d="M133.31,24.35c3.11-2.9,11.67,2.17,7.98,3.96-4.18,2.02-10.05-2.03-7.98-3.96Z"/>
      <path class="cls-106" d="M229.28,64.37c4.36,4.36-3.59,12.32-7.96,7.96s3.59-12.32,7.96-7.96Z"/>
      <path class="cls-16" d="M209.3,28.35l-2.04,3.96c-7.39,1.4-6.35-1.16-5.96-7.96,4.32.47,5.58,2.87,8,4Z"/>
      <path class="cls-98" d="M165.31,64.34l15.91,1.96c-11.39,7.75-.18,30.83-19.91,26.04-.42-2.2-2.76-2.81-4-4-1.35-1.29-2.42-2.92-4-4-.15-1.13-.27-3.56,0-4,2.63-4.2,9.65-2.3,12-16Z"/>
      <path class="cls-43" d="M157.31,88.34c-1.93-.83-3.69-1.59-4-4,1.58,1.08,2.65,2.71,4,4Z"/>
      <path class="cls-19" d="M133.29,340.3c4.36,4.36-3.59,12.32-7.96,7.96s3.59-12.32,7.96-7.96Z"/>
      <path class="cls-23" d="M105.32,304.29l4-4c-1.2,1.46-2.6,2.74-4,4Z"/>
      <path class="cls-24" d="M29.31,316.33c2.71,1.39-2.34,6.79-7.96,3.92-2.71-1.39,2.34-6.79,7.96-3.92Z"/>
      <path class="cls-18" d="M39.33,380.27c2.6,1.33,2.6,2.67,0,4v-4Z"/>
      <path class="cls-34" d="M83.32,340.28c2.6,1.33,2.6,2.67,0,4v-4Z"/>
    </g>
  </g>
</svg>