<?xml version="1.0" encoding="UTF-8"?>
<svg id="Layer_2" data-name="Layer 2" xmlns="http://www.w3.org/2000/svg" viewBox="0 0 110.15 110.15">
  <defs>
    <style>
      .cls-1 {
        fill: #fff;
      }
    </style>
  </defs>
  <g id="Layer_1-2" data-name="Layer 1">
    <path class="cls-1" d="M106.73,42.87h-39.44V3.42c0-1.89-1.53-3.42-3.42-3.42h-17.57c-1.89,0-3.42,1.53-3.42,3.42v39.44H3.42c-1.89,0-3.42,1.53-3.42,3.42v17.57c0,1.89,1.53,3.42,3.42,3.42h39.44v39.44c0,1.89,1.53,3.42,3.42,3.42h17.57c1.89,0,3.42-1.53,3.42-3.42v-39.44h39.44c1.89,0,3.42-1.53,3.42-3.42v-17.57c0-1.89-1.53-3.42-3.42-3.42Z"/>
  </g>
</svg>