<?xml version="1.0" encoding="UTF-8"?>
<svg id="Layer_2" data-name="Layer 2" xmlns="http://www.w3.org/2000/svg" viewBox="0 0 657.28 664.16">
  <defs>
    <style>
      .cls-1 {
        fill: #8b4136;
      }

      .cls-2 {
        fill: #893931;
      }

      .cls-3 {
        fill: #94594c;
      }

      .cls-4 {
        fill: #8c4239;
      }

      .cls-5 {
        fill: #874a40;
      }

      .cls-6 {
        fill: #883e34;
      }

      .cls-7 {
        fill: #84382f;
      }

      .cls-8 {
        fill: #894238;
      }

      .cls-9 {
        fill: #92544a;
      }

      .cls-10 {
        fill: #955e52;
      }

      .cls-11 {
        fill: #93594d;
      }

      .cls-12 {
        fill: #782325;
      }

      .cls-13 {
        fill: #925347;
      }

      .cls-14 {
        fill: #914d43;
      }

      .cls-15 {
        fill: #934f44;
      }

      .cls-16 {
        fill: #925044;
      }

      .cls-17 {
        fill: #8b4439;
      }

      .cls-18 {
        fill: #893f35;
      }

      .cls-19 {
        fill: #884035;
      }

      .cls-20 {
        fill: #863a30;
      }

      .cls-21 {
        fill: #89453a;
      }

      .cls-22 {
        fill: #89463c;
      }

      .cls-23 {
        fill: #84362e;
      }

      .cls-24 {
        fill: #8e4c41;
      }

      .cls-25 {
        fill: #873c32;
      }

      .cls-26 {
        fill: #8a4037;
      }

      .cls-27 {
        fill: #863a31;
      }

      .cls-28 {
        fill: #8e5045;
      }

      .cls-29 {
        fill: #873d33;
      }

      .cls-30 {
        fill: #8d4d42;
      }

      .cls-31 {
        fill: #7d1c21;
      }

      .cls-32 {
        fill: #8d5247;
      }

      .cls-33 {
        fill: #883d33;
      }

      .cls-34 {
        fill: #8a5043;
      }

      .cls-35 {
        fill: #894137;
      }

      .cls-36 {
        fill: #853a32;
      }

      .cls-37 {
        fill: #873d34;
      }

      .cls-38 {
        fill: #874036;
      }

      .cls-39 {
        fill: #7a1b21;
      }

      .cls-40 {
        fill: #94554b;
      }

      .cls-41 {
        fill: #935146;
      }

      .cls-42 {
        fill: #8b483d;
      }

      .cls-43 {
        fill: #8d463c;
      }

      .cls-44 {
        fill: #89453b;
      }

      .cls-45 {
        fill: #873e34;
      }

      .cls-46 {
        fill: #86352d;
      }

      .cls-47 {
        fill: #8a4136;
      }

      .cls-48 {
        fill: #945a4e;
      }

      .cls-49 {
        fill: #88473d;
      }

      .cls-50 {
        fill: #853a30;
      }

      .cls-51 {
        fill: #8d4e42;
      }

      .cls-52 {
        fill: #833930;
      }

      .cls-53 {
        fill: #8a483d;
      }

      .cls-54 {
        fill: #863b32;
      }

      .cls-55 {
        fill: #86382f;
      }

      .cls-56 {
        fill: #894036;
      }

      .cls-57 {
        fill: #985c51;
      }

      .cls-58 {
        fill: #884037;
      }

      .cls-59 {
        fill: #926256;
      }

      .cls-60 {
        fill: #873f34;
      }

      .cls-61 {
        fill: #772d29;
      }

      .cls-62 {
        fill: #873d32;
      }

      .cls-63 {
        fill: #7f2426;
      }

      .cls-64 {
        fill: #782d27;
      }

      .cls-65 {
        fill: #893c32;
      }

      .cls-66 {
        fill: #883e35;
      }

      .cls-67 {
        fill: #8a4237;
      }

      .cls-68 {
        fill: #925244;
      }

      .cls-69 {
        fill: #8c4a40;
      }

      .cls-70 {
        fill: #853f35;
      }

      .cls-71 {
        fill: #893e35;
      }

      .cls-72 {
        fill: #863c33;
      }

      .cls-73 {
        fill: #782d29;
      }

      .cls-74 {
        fill: #7c2325;
      }

      .cls-75 {
        fill: #8e4e44;
      }

      .cls-76 {
        fill: #89392f;
      }

      .cls-77 {
        fill: #884d42;
      }

      .cls-78 {
        fill: #873f36;
      }

      .cls-79 {
        fill: #915347;
      }

      .cls-80 {
        fill: #8e4f42;
      }

      .cls-81 {
        fill: #93554a;
      }

      .cls-82 {
        fill: #8c4339;
      }

      .cls-83 {
        fill: #883d34;
      }

      .cls-84 {
        fill: #95574b;
      }

      .cls-85 {
        fill: #884237;
      }

      .cls-86 {
        fill: #65423f;
      }

      .cls-87 {
        fill: #83382f;
      }

      .cls-88 {
        fill: #87372e;
      }

      .cls-89 {
        fill: #894237;
      }
    </style>
  </defs>
  <g id="bbq_sauce" data-name="bbq sauce">
    <g>
      <path class="cls-73" d="M28.31,188.23c1.01,9.33,12.52,21.03,12.13,29.64-.07,1.54-17.7,13.1-12.09,26.34,10.75-4.83,18.65-21.01,29.18-25.16,8.89-3.5,16.83,2.24,18.77,1.14.44-.25-4-6.23-.33-9.87,6.54-6.49,23.78-9.05,32.28-14.1-.96,14.44,5.46,27.38,4.27,41.98-.85,10.38-6.95,15.63-8.23,22-.52,2.59.25,8.42,4,8-4.72,4.32-11.3,5.58-16.15,9.82-20.01,17.49-37.75,40.37-57.89,58.13-9.63,1.75-4.79-4.44-5.8-10.03-1.34-7.5-4.98-41.23-12.58-20.38-3.85,10.56.93,31.04-15.56,18.45v-4c0-2.67-.03-5.33,0-8v-8c.3-5.27-.57-10.79,0-16h4c.18,3.98-.17,8.01.02,11.97h7.96c-.07-5.02,3.37-32.11-7.98-23.97.52-5.08-.93-11.45,0-16,5.09-24.98,15.8-48.23,24-71.98ZM106.3,236.22v4c2.6-1.33,2.6-2.67,0-4ZM44.3,268.17l-7.96-7.96c-1.14,8.35-.4,9.1,7.96,7.96ZM40.28,300.23l-11.96,1.96,11.94,10.02.02-11.98Z"/>
      <path class="cls-73" d="M56.3,180.23c3.15,2.38,6.83,3.51,8,8-7.2,12.26-11.3-7.41-13.99-8.09-15.96-4.06-7.73,9.32-10.02,12.09l-11.99-8c.43-1.18-.45-2.84,0-4v-4c3.03-6.16,9.28-19.49,12-23.99,1.64-2.72,6.03-5.15,8-8-1.03,20.96-10.38,22.09,8,35.99Z"/>
      <path d="M28.31,180.23c.13-.33-3,2.1,0-4v4Z"/>
      <path class="cls-31" d="M608.23,152.24c7.29,11.76,12.86,27.39,24,35.99,2.23,4.26,5.85,14.5,8,20l8,16c.34,1.2-.3,2.7,0,4,1.15,5.01,3.38,12.13,4,16,1.13,7.08,3.58,21.97,4,27.99,2.17,31.34.39,68.07,0,99.98-6.91,4.43-3.63,16.42-4,23.99-.06,1.33.12,2.68,0,4-8.74,14.59-7.75,36.64-12,51.99-7.87,8.59-10.88,21.24-16,31.99-.3.63-2.87,1.79-4,4-.54,1.06.56,2.97,0,4l-12.2-85.76c15.96-4.65,2.11-4.65.29-16.3-1.06-6.79-1.26-23.29-.09-29.91,3.79-21.37,27.95-64.48,31.17-86.84.36-2.48-8.23-42.03-10.06-48.26-5.58-19.07-28.92-57.66-29.11-72.86,2.5.42,5.92-.63,8,0ZM644.2,368.21c-.29-.29-8.46-1.52-7.96,1.96,6.25,10.91,12.5,2.68,7.96-1.96Z"/>
      <path class="cls-86" d="M608.23,148.24c.6.94-.6,3.03,0,4-2.08-.63-5.49.42-8,0-.04-3.05.84-4.35,4-4h4Z"/>
      <path class="cls-39" d="M276.27.27c2.65-.18,5.35.13,8,0,13.21-.67,26.75.1,39.99,0,7.99-.06,16-.04,24,0,7.99.04,16.01-.13,24,0,2.66.04,5.34-.1,8,0s5.51-.36,8,0c1.83.26,3.46,2.18,4,4-3.97.08-8.06-.33-12,0l-68.02.03,4.03,7.89c-36.63,2.56-56.88,10.87-87.99,28.07-1.4.78-5.56-.51-7.99.04l7.99,7.96c-11.64,16.99-9.39-5.05-13.94-3.94-7.6,1.84-36.07,19.36-41.68,26.36-4.46,5.58-7.06,25.6-12.91,7.81-3.9-11.84,6.71-15.45-15.45-18.24,10.29-7.45,21.07-20.72,32-27.99C209.35,10.27,236.65,2.91,276.27.27Z"/>
      <path class="cls-64" d="M652.22,396.19c.37-7.58-2.91-19.56,4-23.99-.09,7.54,2.71,19.65-4,23.99Z"/>
      <path class="cls-74" d="M4.31,276.21c11.35-8.13,7.91,18.95,7.98,23.97h-7.96c-.19-3.97.16-8-.02-11.98-.06-1.31-.06-2.69,0-4,.06-1.39-.34-3.09,0-4,.48-1.27-.6-3.57,0-4Z"/>
      <path class="cls-64" d="M392.26,4.27c77.62-1.62,169.8,83.52,211.97,143.97-3.16-.35-4.04.95-4,4,.19,15.19,23.53,53.79,29.11,72.86,1.82,6.23,10.41,45.77,10.06,48.26-3.22,22.35-27.38,65.47-31.17,86.84,1.03-8.37.41-9.1-8-7.96l8,7.96c-1.17,6.62-.97,23.12.09,29.91,1.82,11.64,15.67,11.65-.29,16.3l12.2,85.76c-6.9,12.76-11.48,20.22-20,31.99-7.73-6.67-41.71-9-47.38-12.62-1.56-1-5.2-19.93-16.58-21.42-.4-15.05,11.44,1.21,13.97,1.08,7.96-.42,37.65-51.75,26-62.99l15.99,3.93c-14.92-16.92-1.03-44.69-.04-65.99,1.42-30.42,3.82-64.98-12-91.9l12.02-.02c-11.7-3.28-13-24.94-14.12-26.18-4.45-4.95-17.57-5.36-21.84-13.85,3.08-6.39,9.22,1.37,11.98,2.02,2.31.54,8.24,1.31,7.98-1.98l-11.98-6.02c-2.01-4.07-5.46-6.25-3.96-11.99l15.94,2.01c-13.37-9.31-8.48-26.5-27.95-26.06l19.95-1.93c-17.27-34.99-31.48-60.6-62.06-85.91-14.45-11.96-39.07-20.09-45.95-36.04l-7.9,7.93c.24-2.74-.49-6.48-2.83-8-27.05-17.57-53.27-27.33-82.15-47.24-2.44-1.68-11.06,4.5-19.1-2.67-13.13-11.7,21.5-9.71,25.69-10.34,3.26-.49,5.67-3.64,6.35-3.7,3.93-.33,8.03.08,12,0ZM624.21,248.26c-5.62-2.87-10.67,2.53-7.96,3.92,5.62,2.87,10.67-2.53,7.96-3.92ZM608.21,304.23c-.29-.29-8.46-1.52-7.96,1.96,6.25,10.91,12.5,2.68,7.96-1.96ZM604.21,372.21c-4.36-4.36-12.32,3.59-7.96,7.96s12.32-3.59,7.96-7.96ZM602.23,388.19v4c2.6-1.33,2.6-2.67,0-4ZM576.19,476.15c2.87-5.62-2.53-10.67-3.92-7.96-2.87,5.62,2.53,10.67,3.92,7.96ZM562.24,500.16v4c2.6-1.33,2.6-2.67,0-4ZM588.21,508.18c-4.36-4.36-12.32,3.59-7.96,7.96,4.36,4.36,12.32-3.59,7.96-7.96Z"/>
      <path class="cls-61" d="M232.28,272.21c1.4,4.34,4.42,5.86,8,8,1.84,1.1,6.97,4.8,7.94,4l4.11-15.98c4.45-.68,3.73,3.82,3.95,3.99l4,12c-2.64,3.61-14.43,11.89-14.76,12.81-.8,2.24-11.74,42.91-11.7,45.28.07,4.31,6.12,1.75,2.46,13.89-.16.54-4.7.06-4.11,5.99.27,2.72,8.14,1.55,8.32,4.23.77,11.34-13.75,35.47,11.76,41.82,2.04,7.03-9.47,1.84-7.94,5.93,12.11,32.2,32.05,32.2,57,46.14,5.04,2.81,20.59,21.76,26.94,15.86,1.18-1.09-1.16-10.72.02-11.99.74-.8,6.24.82,7.99,0,2.97-.03,2.94,2.5,4,4,1.5,2.12,11.83,14.99,12.75,15.36,4.59,1.88,18.1-8.99,23.22,2.65.74,1.68-28.05,15.78-31.98,17.98-12.97-7.75-12.62-7.29-8,4,1.22,2.99,3.84,5.05,4,7.96-1.23.92-15.43-3.36-16-3.96-.87-.93.99-7.14-.01-7.98-7.24-6.08-15.07,10.89.01,7.98-1.46,7.12-7.95,8.02-14.14,8.39-5.89.35-9.28-15.04-17.85-8.35-2.1,1.64,10.16,10.35,8,11.92-10.07-.67-39.83,2.08-33.88-11.81-23.92,7.07-14.95-8.55-19.99-16.16-.85-1.28-21.04-12.7-26.13-15.98v-4c-.89-1.7-2.93-2.65-4-4-1.16-1.46-2.77-2.6-4-4-3.06-3.47-11.56-11.27-12-12-8.77-14.65-7.36-45.09-16-51.99l11.99-4.04c-10.2-7.64-15.42-16.8-15.57-30.27-.01-1.25,3.93,2.01,3.55-19.68-.27-15.32.18-30.69.05-45.98l11.93,3.98-3.94-27.98,11.95,4.01c3.37-4.08-.67-15.61.03-15.99,2.03-1.1,6.97,2.62,10.07,2.08,23.16-4.06,9.89.04,17.91,1.89ZM234.28,288.21v4c2.6-1.33,2.6-2.67,0-4ZM204.26,432.2c-.29-.29-8.46-1.52-7.96,1.96,6.25,10.91,12.5,2.68,7.96-1.96ZM280.27,492.13c1.94-1.52-6.99-10.59-12-7.92-1.94,1.52,6.99,10.59,12,7.92Z"/>
      <path class="cls-63" d="M108.3,316.2c.79-15.87,8.65-12.23,7.99-13.97-1.58-4.13-20.48-21.56-15.96-26.01l15.94,4c-4.01-17.36,11.7-23.46,14.98-28.73,1.5-2.42-3.59-26.08-2.92-27.28.34-.61,9.48,5.27,11.97-2.06-9.68-20.84.93-10.08,10.26-17.57,8.11-6.51,9.49-32.16,25.7-36.35.93,12.57-14.44,33.2-15.3,42.71-.63,6.92,9.5,9.5,7.3,17.27-14.63-13.15-23.97-9.22-8.04,6.04l-7.35-1.52c-.37,6.63-5.43,15.19-4.88,21.07.18,1.92,16.07,3.78,8.28,10.39-1.87,1.58-14.03-5.92-15.95-3.97l3.94,19.98-15.94-7.97,7.95,31.96-11.95-3.97c5.55,28.55-9.67,48.22,13.38,74.57,12.64,14.46,36.49,21.29,46.6,29.37,8.64,6.9,7.22,37.34,16,51.99-.26,16.59.13,35.93,4,51.99-4.59-4.69-6.4-.35-8,0-2.3.51-5.4-.38-7.98.02-4.96,6.27,15.01,21.74,11.98,3.98h4c2.24,7.7,8.65,12.97,11.99,19.96-17.94-7.72-10.99.64-23.99,4.03-.45-1.15-3.33-2.43-4-4-1.23-2.88-4.33-11.96-7.29-19.06-1.47-3.52-2.89-25.07-8.66-20.91-.75.54,2.57,17-12.23,2.16-11.83-11.86-11.55-28.19-18.11-37.86-16.34-24.08-21.75-32.37-29.7-64.3,2.58.32,5.38-.1,8-.04-6.26-16.24-13.38-21.58-8,.04-7.8-.98-11.25-4.23-15.98-10.02,19.74-4.42-.96-24.56.08-25.84,14.38.97,4.28-9.04,5.9-16.63,1.48-6.94,4.27-7.18,6-19.5v-4ZM122.29,360.19v4c2.6-1.33,2.6-2.67,0-4ZM128.25,396.19c-7.49-6.13-12.63,7.45-1.89,11.95,9.47,3.97,2.61-11.36,1.89-11.95ZM134.29,396.19v4c2.6-1.33,2.6-2.67,0-4Z"/>
      <path class="cls-64" d="M332.27,128.25c-2.06,2.15,6.18,6.14,8,8,5.79,5.9,8.23,15.14,8,0,11.98,2.52,31.64,14.76,33.98,0,5.41,16.52,30.59,19.75,38.43,29.8,2.85,3.65.88,31.8,9.57,10.2,25.58,23.34,52.88,60.39,62.43,93.94,1.82,6.38.71,7.62-.46,14.02-13.71-17.97-19.06-37.61-33.9-56.03-46.14-57.27-103.73-86.65-179.06-74.85-15.4,2.41-15.99,11.4-16.94,10.9-5.31-2.84-3.44-12.69-9.98-11.97,3.03,18.59-5.63,9.1-13.04,12.09-5.42,2.19.65,11.67-14.97,3.9l3.97,15.95c-13.48-6.18-28.74-9.47-29.97,8.02-19.73-11.52-8.07-42.95,11.95-44.12.87-.05,5.24,14.83,14.01,8.12,3.06-2.34-3.93-7.53-3.98-7.97-.38-2.83-.72-10.36.4-11.72,2.4-1.27,5.85.31,7.6-.28l6.02,3.89,1.98-3.89c31.67-4.21,66.72.13,95.99-8Z"/>
      <path class="cls-12" d="M156.29,600.14c-24.4-17.03-17.68-63.43-24.88-89.1-2.7-9.62-11.18-13.31-11.08-22.88,18.8,16.75,36.82,34.01,58.03,47.95,9.23,6.07,3.14,3.64,9.93-3.96.67,1.57,3.55,2.85,4,4,9.55,24.45,17.52,19.73,21.95,27.8,1.74,3.17-2.89,9.76-.14,15.99,3.28,7.43,16.75,11.95,22.17,18.21-13.31,3.8-5.76,6.7-4,17.95-24.66-.25-50.77,3.81-71.98-11.97-1.24-1.39-2.46-2.92-4-4Z"/>
      <path class="cls-12" d="M144.29,608.14c-10.13-3.23-11.36-8.93-16-12,9.38-1.02,16.41,1.6,16,12Z"/>
      <path class="cls-46" d="M356.24,348.22v7.96c-2.21,2.18-20.8-5.75-15.96-7.94l15.96-.02Z"/>
      <path class="cls-47" d="M476.21,152.24l-11.96-11.96c7.57-1.32,13.31,4.66,11.96,11.96Z"/>
      <path class="cls-23" d="M340.23,384.19l-11.96-11.96c7.57-1.32,13.31,4.66,11.96,11.96Z"/>
      <path class="cls-60" d="M64.3,188.23c-1.17-4.49-4.85-5.62-8-8l2.04-3.98c7.3-.68,14.95,9.92,5.96,11.98Z"/>
      <path class="cls-12" d="M160.29,616.14c-3.4-1.99-10.58-.37-12-8,.82.3,7.24-5.6,12,8Z"/>
      <path class="cls-87" d="M232.28,272.21c1.03.24,9.8-5.86,11.99-3.97l-3.99,11.97c-3.58-2.14-6.59-3.66-8-8Z"/>
      <path class="cls-71" d="M420.25,564.11c-5.01,2.67-13.94-6.4-12-7.92,5.01-2.67,13.94,6.4,12,7.92Z"/>
      <path class="cls-55" d="M372.26,556.11c-5.01,2.67-13.94-6.4-12-7.92,5.01-2.67,13.94,6.4,12,7.92Z"/>
      <path class="cls-70" d="M344.26,504.16c-2.36,1.32-4.32,4.25-8,4-4.62-11.29-4.97-11.75,8-4Z"/>
      <path class="cls-38" d="M228.28,40.26c5.2,6.2,1.71,5.5,0,8l-7.99-7.96c2.43-.55,6.58.74,7.99-.04Z"/>
      <path class="cls-63" d="M212.28,468.17c1.23,1.4,2.84,2.54,4,4l-3.92,2,3.92,2h4v4c-4.04-2.61-12.57-2.46-15.98-10.02l7.98-1.98Z"/>
      <path class="cls-29" d="M296.27,64.22c-5.01,2.67-13.94-6.4-12-7.92,5.01-2.67,13.94,6.4,12,7.92Z"/>
      <path class="cls-50" d="M120.25,476.17c-1.52,1.94-10.59-6.98-7.92-11.99,1.52-1.94,10.59,6.98,7.92,11.99Z"/>
      <path class="cls-76" d="M456.21,468.17c-1.52,1.94-10.59-6.98-7.92-11.99,1.52-1.94,10.59,6.98,7.92,11.99Z"/>
      <path class="cls-64" d="M372.26,128.25c.39.22,4.39,7.66,4,7.96-5.9,1.34-8.33-1.74-11.98-5.98-.5-3.28,6.95-2.55,7.98-1.98Z"/>
      <path class="cls-66" d="M92.3,140.2c-5.01,2.67-13.94-6.4-12-7.92,5.01-2.67,13.94,6.4,12,7.92Z"/>
      <path class="cls-1" d="M460.21,144.24c-1.52,1.94-10.59-6.98-7.92-11.99,1.52-1.94,10.59,6.98,7.92,11.99Z"/>
      <path class="cls-88" d="M336.26,232.18c-5.01,2.67-13.94-6.4-12-7.92,5.01-2.67,13.94,6.4,12,7.92Z"/>
      <path class="cls-27" d="M564.24,228.22l11.98,6.02c.26,3.29-5.67,2.52-7.98,1.98-1.31-2.68-2.68-5.33-4-8Z"/>
      <path class="cls-54" d="M472.25,404.14c-5.01,2.67-13.94-6.4-12-7.92,5.01-2.67,13.94,6.4,12,7.92Z"/>
      <path class="cls-25" d="M524.22,236.24c4.36,4.36-3.59,12.32-7.96,7.96-4.36-4.36,3.59-12.32,7.96-7.96Z"/>
      <polygon class="cls-42" points="16.29 388.21 16.27 396.18 4.34 392.14 4.33 388.23 16.29 388.21"/>
      <path class="cls-63" d="M104.3,260.22c9.9-1.13,11.06,1.54,4,8-3.75.42-4.52-5.41-4-8Z"/>
      <path class="cls-52" d="M260.28,284.21l-4-12c7.77,5.94,10.58,3.02,4,12Z"/>
      <path class="cls-54" d="M100.3,372.19h-4c-3.07-2.04-12.49-8.51-5.96-8.04l9.96,8.04Z"/>
      <path class="cls-2" d="M580.23,320.16c-5.01,2.67-13.94-6.4-12-7.92,5.01-2.67,13.94,6.4,12,7.92Z"/>
      <path class="cls-62" d="M148.29,332.16c-8.36,1.14-9.1.4-7.96-7.96l7.96,7.96Z"/>
      <path class="cls-44" d="M348.24,288.23c4.54,4.64-1.71,12.87-7.96,1.96-.5-3.48,7.67-2.25,7.96-1.96Z"/>
      <path class="cls-19" d="M532.22,372.21c4.54,4.64-1.71,12.87-7.96,1.96-.5-3.48,7.67-2.25,7.96-1.96Z"/>
      <path class="cls-35" d="M428.23,272.23c4.54,4.64-1.71,12.87-7.96,1.96-.5-3.48,7.67-2.25,7.96-1.96Z"/>
      <path class="cls-26" d="M352.24,268.24c4.54,4.64-1.71,12.87-7.96,1.96-.5-3.48,7.67-2.25,7.96-1.96Z"/>
      <path class="cls-29" d="M304.25,268.24c4.54,4.64-1.71,12.87-7.96,1.96-.5-3.48,7.67-2.25,7.96-1.96Z"/>
      <path class="cls-17" d="M108.27,404.21c4.54,4.64-1.71,12.87-7.96,1.96-.5-3.48,7.67-2.25,7.96-1.96Z"/>
      <path class="cls-18" d="M200.26,204.25c4.54,4.64-1.71,12.87-7.96,1.96-.5-3.48,7.67-2.25,7.96-1.96Z"/>
      <path class="cls-83" d="M540.22,164.26c4.54,4.64-1.71,12.87-7.96,1.96-.5-3.48,7.67-2.25,7.96-1.96Z"/>
      <path class="cls-29" d="M460.23,424.2c4.54,4.64-1.71,12.87-7.96,1.96-.5-3.48,7.67-2.25,7.96-1.96Z"/>
      <path class="cls-45" d="M348.26,136.24c.23,15.14-2.21,5.9-8,0,2.56.33,5.64-.5,8,0Z"/>
      <path class="cls-58" d="M236.28,136.24l-1.98,3.89-6.02-3.89c8.52-2.85,7.36.09,8,0Z"/>
      <path class="cls-7" d="M484.24,124.21c-8.36,1.14-9.1.4-7.96-7.96l7.96,7.96Z"/>
      <path class="cls-43" d="M444.23,112.27c4.54,4.64-1.71,12.87-7.96,1.96-.5-3.48,7.67-2.25,7.96-1.96Z"/>
      <path class="cls-82" d="M336.27,464.17c6.61-3.11,12.59-8.68,4,4-1.06-1.5-1.03-4.03-4-4Z"/>
      <path class="cls-18" d="M540.22,464.19c4.54,4.64-1.71,12.87-7.96,1.96-.5-3.48,7.67-2.25,7.96-1.96Z"/>
      <path class="cls-21" d="M416.23,56.28c4.54,4.64-1.71,12.87-7.96,1.96-.5-3.48,7.67-2.25,7.96-1.96Z"/>
      <path class="cls-63" d="M148.29,484.13c-8.36,1.14-9.1.4-7.96-7.96l7.96,7.96Z"/>
      <path class="cls-20" d="M228.28,500.12c-8.36,1.14-9.1.4-7.96-7.96l7.96,7.96Z"/>
      <path class="cls-8" d="M316.25,48.28c4.54,4.64-1.71,12.87-7.96,1.96-.5-3.48,7.67-2.25,7.96-1.96Z"/>
      <path class="cls-33" d="M380.26,52.22c-8.36,1.14-9.1.4-7.96-7.96l7.96,7.96Z"/>
      <path class="cls-65" d="M204.28,508.16c.31,1.28-.35,2.79,0,4h-4l-4-4c1.6-.35,3.41-4.69,8,0Z"/>
      <path class="cls-18" d="M468.23,504.18c4.54,4.64-1.71,12.87-7.96,1.96-.5-3.48,7.67-2.25,7.96-1.96Z"/>
      <path class="cls-25" d="M284.25,536.18c4.54,4.64-1.71,12.87-7.96,1.96-.5-3.48,7.67-2.25,7.96-1.96Z"/>
      <path class="cls-67" d="M252.28,556.11c-8.36,1.14-9.1.4-7.96-7.96l7.96,7.96Z"/>
      <path class="cls-82" d="M304.25,552.17c4.54,4.64-1.71,12.87-7.96,1.96-.5-3.48,7.67-2.25,7.96-1.96Z"/>
      <path class="cls-6" d="M292.27,600.1c-8.36,1.14-9.1.4-7.96-7.96l7.96,7.96Z"/>
      <path class="cls-66" d="M400.24,608.16c4.54,4.64-1.71,12.87-7.96,1.96-.5-3.48,7.67-2.25,7.96-1.96Z"/>
      <path class="cls-56" d="M332.27,128.25c.65-.18,8.43-10.11,7.97-.03-2.23.58-7.36-.61-7.97.03Z"/>
      <path class="cls-4" d="M460.23,156.28c2.71,1.39-2.34,6.79-7.96,3.92-2.71-1.39,2.34-6.79,7.96-3.92Z"/>
      <path class="cls-89" d="M308.25,188.27c2.71,1.39-2.34,6.79-7.96,3.92-2.71-1.39,2.34-6.79,7.96-3.92Z"/>
      <path class="cls-53" d="M316.25,204.27c2.71,1.39-2.34,6.79-7.96,3.92-2.71-1.39,2.34-6.79,7.96-3.92Z"/>
      <path class="cls-44" d="M444.23,284.25c2.71,1.39-2.34,6.79-7.96,3.92-2.71-1.39,2.34-6.79,7.96-3.92Z"/>
      <path class="cls-21" d="M88.28,328.24c2.71,1.39-2.34,6.79-7.96,3.92-2.71-1.39,2.34-6.79,7.96-3.92Z"/>
      <path class="cls-77" d="M268.25,328.24c2.71,1.39-2.34,6.79-7.96,3.92-2.71-1.39,2.34-6.79,7.96-3.92Z"/>
      <path class="cls-61" d="M244.24,388.17c-1.39,2.71-6.79-2.34-3.92-7.96,1.39-2.71,6.79,2.34,3.92,7.96Z"/>
      <path class="cls-12" d="M146.29,500.16c2.6,1.33,2.6,2.67,0,4v-4Z"/>
      <path class="cls-10" d="M498.24,444.18c2.6,1.33,2.6,2.67,0,4v-4Z"/>
      <path class="cls-30" d="M550.24,428.18c2.6,1.33,2.6,2.67,0,4v-4Z"/>
      <path class="cls-51" d="M266.27,372.19c2.6,1.33,2.6,2.67,0,4v-4Z"/>
      <path class="cls-63" d="M96.3,372.19h4l-2,3.92c-2.55-.19-1.82-3.8-2-3.92Z"/>
      <path class="cls-62" d="M394.22,364.27c2.22,2.55,8.05,5.21,4.08,7.84-1.93-2.34-8.03-5.05-4.08-7.84Z"/>
      <path class="cls-28" d="M102.3,536.15c2.6,1.33,2.6,2.67,0,4v-4Z"/>
      <path class="cls-81" d="M562.24,360.19c2.6,1.33,2.6,2.67,0,4v-4Z"/>
      <path class="cls-59" d="M236.28,356.19c1.88-1.88,6.37,3.7,2,4-1.39.09-2.9-3.1-2-4Z"/>
      <path class="cls-15" d="M378.26,348.2c2.6,1.33,2.6,2.67,0,4v-4Z"/>
      <path class="cls-9" d="M108.3,320.2c.18-1.29-.07-2.68,0-4v4Z"/>
      <path class="cls-75" d="M578.23,300.21c2.6,1.33,2.6,2.67,0,4v-4Z"/>
      <path class="cls-40" d="M294.27,288.21c2.6,1.33,2.6,2.67,0,4v-4Z"/>
      <path class="cls-48" d="M182.29,280.21c2.6,1.33,2.6,2.67,0,4v-4Z"/>
      <path class="cls-68" d="M522.24,548.15c2.6,1.33,2.6,2.67,0,4v-4Z"/>
      <path class="cls-24" d="M262.28,264.22c2.6,1.33,2.6,2.67,0,4v-4Z"/>
      <path class="cls-73" d="M70.3,204.23c2.6,1.33,2.6,2.67,0,4v-4Z"/>
      <path class="cls-3" d="M486.25,572.15c2.6,1.33,2.6,2.67,0,4v-4Z"/>
      <path class="cls-14" d="M220.28,148.24c1.88,1.88-3.7,6.37-4,2-.09-1.39,3.1-2.9,4-2Z"/>
      <path class="cls-64" d="M394.26,140.24c2.6,1.33,2.6,2.67,0,4v-4Z"/>
      <path class="cls-5" d="M160.29,604.14c-1.48-1.1-2.6-2.78-4-4,1.54,1.07,2.76,2.61,4,4Z"/>
      <path class="cls-69" d="M106.3,128.25c2.6,1.33,2.6,2.67,0,4v-4Z"/>
      <path class="cls-30" d="M372.26,128.25c-1.88-1.88,3.7-6.37,4-2,.09,1.39-3.1,2.9-4,2Z"/>
      <path class="cls-79" d="M322.27,108.25c2.6,1.33,2.6,2.67,0,4v-4Z"/>
      <path class="cls-80" d="M110.3,104.25c2.6,1.33,2.6,2.67,0,4v-4Z"/>
      <path class="cls-13" d="M354.26,620.14c2.6,1.33,2.6,2.67,0,4v-4Z"/>
      <path class="cls-16" d="M342.26,72.26c2.6,1.33,2.6,2.67,0,4v-4Z"/>
      <path class="cls-32" d="M346.26,52.26c2.6,1.33,2.6,2.67,0,4v-4Z"/>
      <polygon class="cls-74" points="40.28 300.23 40.26 312.2 28.33 302.19 40.28 300.23"/>
      <path class="cls-36" d="M44.3,268.17c-8.36,1.14-9.1.4-7.96-7.96l7.96,7.96Z"/>
      <path class="cls-74" d="M106.3,236.22c2.6,1.33,2.6,2.67,0,4v-4Z"/>
      <path class="cls-85" d="M644.2,368.21c4.54,4.64-1.71,12.87-7.96,1.96-.5-3.48,7.67-2.25,7.96-1.96Z"/>
      <path class="cls-64" d="M620.23,488.17c1.13-2.21,3.7-3.37,4-4l-4,4Z"/>
      <path class="cls-74" d="M588.21,508.18c4.36,4.36-3.59,12.32-7.96,7.96-4.36-4.36,3.59-12.32,7.96-7.96Z"/>
      <path class="cls-31" d="M604.21,372.21c4.36,4.36-3.59,12.32-7.96,7.96s3.59-12.32,7.96-7.96Z"/>
      <path class="cls-22" d="M608.21,304.23c4.54,4.64-1.71,12.87-7.96,1.96-.5-3.48,7.67-2.25,7.96-1.96Z"/>
      <path class="cls-72" d="M608.23,360.19l-8-7.96c8.4-1.14,9.03-.41,8,7.96Z"/>
      <path class="cls-49" d="M624.21,248.26c2.71,1.39-2.34,6.79-7.96,3.92-2.71-1.39,2.34-6.79,7.96-3.92Z"/>
      <path class="cls-74" d="M576.19,476.15c-1.39,2.71-6.79-2.34-3.92-7.96,1.39-2.71,6.79,2.34,3.92,7.96Z"/>
      <path class="cls-34" d="M562.24,500.16c2.6,1.33,2.6,2.67,0,4v-4Z"/>
      <path class="cls-31" d="M602.23,388.19c2.6,1.33,2.6,2.67,0,4v-4Z"/>
      <path class="cls-74" d="M380.26,4.27c-.68.06-3.09,3.21-6.35,3.7-4.19.63-38.82-1.36-25.69,10.34,8.04,7.16,16.66.99,19.1,2.67,28.89,19.92,55.1,29.67,82.15,47.24,2.34,1.52,3.07,5.26,2.83,8l7.9-7.93c6.88,15.95,31.5,24.08,45.95,36.04,30.58,25.31,44.79,50.92,62.06,85.91l-19.95,1.93c19.47-.44,14.58,16.75,27.95,26.06l-15.94-2.01c-1.5,5.74,1.95,7.92,3.96,11.99,1.32,2.67,2.69,5.32,4,8-2.76-.65-8.9-8.41-11.98-2.02,4.27,8.49,17.38,8.9,21.84,13.85,1.12,1.24,2.42,22.9,14.12,26.18l-12.02.02c15.81,26.92,13.41,61.48,12,91.9-.99,21.3-14.88,49.06.04,65.99l-15.99-3.93c11.64,11.23-18.04,62.56-26,62.99-2.53.13-14.37-16.12-13.97-1.08,11.38,1.49,15.02,20.42,16.58,21.42,5.67,3.61,39.65,5.94,47.38,12.62-19.27,26.66-53.28,61-79.99,79.98-12.49,8.88-41.24,24.08-55.99,31.99-19.45,3.05-36.99,13.06-55.95,18.03-16.61,4.35-36.07,7.18-52.03,9.96-13.3-.07-26.69.1-39.99,0-8.18-7.96-24.53-2.95-36-4-1.32-.12-2.68.13-4,0-.82-.08-10.07-3.08-16-4-1.3-.2-2.71.22-4,0-34.42-11.88-64.44-21.48-95.99-39.99-4.76-13.6-11.17-7.7-12-8-1.16-.42-2.77.39-4,0,.41-10.4-6.62-13.02-16-12-1.2-.79-5.07-.17-7.82-2.12C58.91,550.24,15.33,482.05.31,408.18c-.11-1.32.08-2.67,0-4-.87-14.52.41-29.42,0-43.99-.3-10.62.02-21.36,0-31.99v-4c16.49,12.59,11.71-7.89,15.56-18.45,7.61-20.85,11.24,12.88,12.58,20.38,1,5.6-3.84,11.78,5.8,10.03,20.14-17.76,37.88-40.64,57.89-58.13,4.85-4.24,11.43-5.5,16.15-9.82,7.06-6.46,5.9-9.13-4-8,1.27-6.38,7.38-11.62,8.23-22,1.19-14.6-5.23-27.54-4.27-41.98-8.51,5.04-25.74,7.6-32.28,14.1-3.67,3.64.78,9.62.33,9.87-1.94,1.11-9.88-4.64-18.77-1.14-10.53,4.15-18.43,20.33-29.18,25.16-5.61-13.24,12.02-24.8,12.09-26.34.38-8.62-11.12-20.32-12.13-29.64.41-1.19-.43-2.82,0-4l11.99,8c2.28-2.78-5.95-16.16,10.02-12.09,2.69.68,6.79,20.35,13.99,8.09,8.99-2.06,1.34-12.66-5.96-11.98l-2.04,3.98c-18.38-13.9-9.03-15.04-8-35.99,29.66-42.82,55.23-54.47,95.99-83.98,22.16,2.79,11.56,6.4,15.45,18.24,5.86,17.79,8.45-2.24,12.91-7.81,5.61-7.01,34.08-24.52,41.68-26.36,4.55-1.1,2.3,20.93,13.94,3.94,1.71-2.5,5.2-1.79,0-8,31.11-17.2,51.36-25.51,87.99-28.07l-4.03-7.89,68.02-.03ZM380.26,52.22l-7.96-7.96c-1.14,8.35-.4,9.1,7.96,7.96ZM316.25,48.28c-.29-.29-8.46-1.52-7.96,1.96,6.25,10.91,12.5,2.68,7.96-1.96ZM346.26,52.26v4c2.6-1.33,2.6-2.67,0-4ZM296.27,64.22c1.94-1.52-6.99-10.59-12-7.92-1.94,1.52,6.99,10.59,12,7.92ZM416.23,56.28c-.29-.29-8.46-1.52-7.96,1.96,6.25,10.91,12.5,2.68,7.96-1.96ZM342.26,72.26v4c2.6-1.33,2.6-2.67,0-4ZM110.3,104.25v4c2.6-1.33,2.6-2.67,0-4ZM322.27,108.25v4c2.6-1.33,2.6-2.67,0-4ZM444.23,112.27c-.29-.29-8.46-1.52-7.96,1.96,6.25,10.91,12.5,2.68,7.96-1.96ZM484.24,124.21l-7.96-7.96c-1.14,8.35-.4,9.1,7.96,7.96ZM332.27,128.25c-29.27,8.12-64.32,3.79-95.99,8-.64.09.52-2.85-8,0-1.75.59-5.2-.99-7.6.28-1.12,1.36-.78,8.89-.4,11.72-.9-.9-4.09.61-4,2,.3,4.37,5.88-.12,4-2,.06.44,7.04,5.63,3.98,7.97-8.77,6.71-13.14-8.17-14.01-8.12-20.02,1.17-31.68,32.59-11.95,44.12,1.24-17.49,16.49-14.19,29.97-8.02l-3.97-15.95c15.62,7.76,9.55-1.71,14.97-3.9,7.41-2.99,16.07,6.5,13.04-12.09,6.54-.72,4.66,9.14,9.98,11.97.95.51,1.54-8.48,16.94-10.9,75.34-11.81,132.92,17.58,179.06,74.85,14.84,18.42,20.2,38.06,33.9,56.03,1.17-6.4,2.27-7.64.46-14.02-9.54-33.54-36.84-70.6-62.43-93.94-8.69,21.6-6.72-6.55-9.57-10.2-7.84-10.04-33.02-13.28-38.43-29.8-2.34,14.75-22,2.51-33.98,0-2.36-.5-5.44.33-8,0-1.82-1.86-10.06-5.84-8-8,.61-.64,5.74.55,7.97-.03.46-10.07-7.33-.15-7.97.03ZM372.26,128.25c-1.03-.57-8.48-1.3-7.98,1.98,3.65,4.24,6.08,7.31,11.98,5.98.39-.3-3.61-7.74-4-7.96.9.9,4.09-.61,4-2-.3-4.37-5.88.12-4,2ZM106.3,128.25v4c2.6-1.33,2.6-2.67,0-4ZM92.3,140.2c1.94-1.52-6.99-10.59-12-7.92-1.94,1.52,6.99,10.59,12,7.92ZM460.21,144.24c2.67-5.01-6.4-13.94-7.92-11.99-2.67,5.01,6.4,13.94,7.92,11.99ZM394.26,140.24v4c2.6-1.33,2.6-2.67,0-4ZM476.21,152.24c1.35-7.29-4.39-13.28-11.96-11.96l11.96,11.96ZM460.23,156.28c-5.62-2.87-10.67,2.53-7.96,3.92,5.62,2.87,10.67-2.53,7.96-3.92ZM540.22,164.26c-.29-.29-8.46-1.52-7.96,1.96,6.25,10.91,12.5,2.68,7.96-1.96ZM184.29,404.18c-10.11-8.08-33.96-14.92-46.6-29.37-23.05-26.36-7.83-46.02-13.38-74.57l11.95,3.97-7.95-31.96,15.94,7.97-3.94-19.98c1.92-1.95,14.08,5.55,15.95,3.97,7.79-6.62-8.1-8.48-8.28-10.39-.55-5.88,4.51-14.44,4.88-21.07l7.35,1.52c-15.94-15.26-6.59-19.19,8.04-6.04,2.2-7.77-7.93-10.35-7.3-17.27.86-9.51,16.24-30.15,15.3-42.71-16.2,4.18-17.59,29.83-25.7,36.35-9.33,7.5-19.94-3.27-10.26,17.57-2.5,7.33-11.63,1.45-11.97,2.06-.67,1.2,4.42,24.86,2.92,27.28-3.28,5.27-18.99,11.36-14.98,28.73l-15.94-4c-4.52,4.45,14.38,21.88,15.96,26.01.66,1.74-7.2-1.9-7.99,13.97-.07,1.32.18,2.71,0,4-1.74,12.31-4.52,12.56-6,19.5-1.62,7.59,8.48,17.6-5.9,16.63-1.04,1.28,19.66,21.42-.08,25.84,4.74,5.79,8.19,9.04,15.98,10.02-5.38-21.62,1.73-16.28,8-.04-2.62-.06-5.42.36-8,.04,7.94,31.92,13.36,40.21,29.7,64.3,6.56,9.67,6.29,26.01,18.11,37.86,14.8,14.84,11.48-1.62,12.23-2.16,5.77-4.16,7.19,17.38,8.66,20.91,2.96,7.1,6.06,16.18,7.29,19.06-6.79,7.6-.7,10.03-9.93,3.96-21.21-13.94-39.23-31.2-58.03-47.95-.1,9.57,8.38,13.26,11.08,22.88,7.2,25.67.48,72.06,24.88,89.1,1.4,1.22,2.52,2.9,4,4,21.21,15.78,47.31,11.72,71.98,11.97-1.76-11.24-9.31-14.15,4-17.95-5.42-6.26-18.89-10.79-22.17-18.21-2.75-6.23,1.87-12.83.14-15.99-4.43-8.06-12.4-3.34-21.95-27.8,13-3.4,6.05-11.76,23.99-4.03-3.34-6.99-9.75-12.26-11.99-19.96-.35-1.21.31-2.72,0-4-3.87-16.06-4.26-35.4-4-51.99.44.73,8.94,8.53,12,12l-7.98,1.98c3.41,7.55,11.94,7.41,15.98,10.02,5.09,3.28,25.28,14.7,26.13,15.98,5.04,7.61-3.93,23.24,19.99,16.16-5.96,13.89,23.81,11.14,33.88,11.81,2.16-1.57-10.1-10.28-8-11.92,8.57-6.69,11.97,8.69,17.85,8.35,6.19-.37,12.68-1.26,14.14-8.39-15.08,2.91-7.25-14.07-.01-7.98,1.01.84-.86,7.05.01,7.98.56.6,14.76,4.88,16,3.96-.15-2.91-2.77-4.96-4-7.96,3.68.25,5.64-2.68,8-4,3.93-2.2,32.71-16.3,31.98-17.98-5.12-11.64-18.63-.77-23.22-2.65-.92-.38-11.25-13.25-12.75-15.36,8.59-12.68,2.61-7.11-4-4-1.75.82-7.24-.79-7.99,0-1.19,1.27,1.15,10.9-.02,11.99-6.35,5.9-21.91-13.05-26.94-15.86-24.96-13.94-44.89-13.94-57-46.14-1.54-4.09,9.98,1.1,7.94-5.93-25.5-6.34-10.99-30.48-11.76-41.82-.18-2.69-8.05-1.51-8.32-4.23-.59-5.92,3.95-5.45,4.11-5.99-.9.9.61,4.09,2,4,4.37-.3-.12-5.88-2-4,3.66-12.14-2.39-9.58-2.46-13.89-.04-2.38,10.9-43.04,11.7-45.28.33-.92,12.12-9.2,14.76-12.81,6.58-8.98,3.77-6.05-4-12-.22-.17.51-4.67-3.95-3.99l-4.11,15.98c-.97.8-6.1-2.89-7.94-4l3.99-11.97c-2.19-1.89-10.96,4.2-11.99,3.97-8.02-1.85,5.25-5.95-17.91-1.89-3.11.55-8.04-3.17-10.07-2.08-.7.38,3.33,11.91-.03,15.99l-11.95-4.01,3.94,27.98-11.93-3.98c.13,15.29-.32,30.66-.05,45.98.38,21.69-3.56,18.43-3.55,19.68.15,13.47,5.37,22.63,15.57,30.27l-11.99,4.04ZM308.25,188.27c-5.62-2.87-10.67,2.53-7.96,3.92,5.62,2.87,10.67-2.53,7.96-3.92ZM70.3,204.23v4c2.6-1.33,2.6-2.67,0-4ZM200.26,204.25c-.29-.29-8.46-1.52-7.96,1.96,6.25,10.91,12.5,2.68,7.96-1.96ZM316.25,204.27c-5.62-2.87-10.67,2.53-7.96,3.92,5.62,2.87,10.67-2.53,7.96-3.92ZM336.26,232.18c1.94-1.52-6.99-10.59-12-7.92-1.94,1.52,6.99,10.59,12,7.92ZM524.22,236.24c-4.36-4.36-12.32,3.59-7.96,7.96,4.36,4.36,12.32-3.59,7.96-7.96ZM262.28,264.22v4c2.6-1.33,2.6-2.67,0-4ZM304.25,268.24c-.29-.29-8.46-1.52-7.96,1.96,6.25,10.91,12.5,2.68,7.96-1.96ZM352.24,268.24c-.29-.29-8.46-1.52-7.96,1.96,6.25,10.91,12.5,2.68,7.96-1.96ZM428.23,272.23c-.29-.29-8.46-1.52-7.96,1.96,6.25,10.91,12.5,2.68,7.96-1.96ZM182.29,280.21v4c2.6-1.33,2.6-2.67,0-4ZM444.23,284.25c-5.62-2.87-10.67,2.53-7.96,3.92,5.62,2.87,10.67-2.53,7.96-3.92ZM294.27,288.21v4c2.6-1.33,2.6-2.67,0-4ZM348.24,288.23c-.29-.29-8.46-1.52-7.96,1.96,6.25,10.91,12.5,2.68,7.96-1.96ZM578.23,300.21v4c2.6-1.33,2.6-2.67,0-4ZM580.23,320.16c1.94-1.52-6.99-10.59-12-7.92-1.94,1.52,6.99,10.59,12,7.92ZM148.29,332.16l-7.96-7.96c-1.14,8.35-.4,9.1,7.96,7.96ZM88.28,328.24c-5.62-2.87-10.67,2.53-7.96,3.92,5.62,2.87,10.67-2.53,7.96-3.92ZM268.25,328.24c-5.62-2.87-10.67,2.53-7.96,3.92,5.62,2.87,10.67-2.53,7.96-3.92ZM356.24,348.22l-15.96.02c-4.84,2.19,13.75,10.12,15.95,7.94v-7.96ZM378.26,348.2v4c2.6-1.33,2.6-2.67,0-4ZM562.24,360.19v4c2.6-1.33,2.6-2.67,0-4ZM96.3,372.19c.18.12-.55,3.72,2,3.92l2-3.92-9.96-8.04c-6.53-.48,2.89,5.99,5.96,8.04ZM394.22,364.27c-3.95,2.78,2.15,5.49,4.08,7.84,3.98-2.63-1.86-5.29-4.08-7.84ZM266.27,372.19v4c2.6-1.33,2.6-2.67,0-4ZM340.23,384.19c1.35-7.29-4.39-13.28-11.96-11.96l11.96,11.96ZM532.22,372.21c-.29-.29-8.46-1.52-7.96,1.96,6.25,10.91,12.5,2.68,7.96-1.96ZM244.24,388.17c2.87-5.62-2.53-10.67-3.92-7.96-2.87,5.62,2.53,10.67,3.92,7.96ZM16.29,388.21l-11.96.02v3.91s11.94,4.05,11.94,4.05l.02-7.98ZM472.25,404.14c1.94-1.52-6.99-10.59-12-7.92-1.94,1.52,6.99,10.59,12,7.92ZM108.27,404.21c-.29-.29-8.46-1.52-7.96,1.96,6.25,10.91,12.5,2.68,7.96-1.96ZM460.23,424.2c-.29-.29-8.46-1.52-7.96,1.96,6.25,10.91,12.5,2.68,7.96-1.96ZM550.24,428.18v4c2.6-1.33,2.6-2.67,0-4ZM498.24,444.18v4c2.6-1.33,2.6-2.67,0-4ZM456.21,468.17c2.67-5.01-6.4-13.94-7.92-11.99-2.67,5.01,6.4,13.94,7.92,11.99ZM120.25,476.17c2.67-5.01-6.4-13.94-7.92-11.99-2.67,5.01,6.4,13.94,7.92,11.99ZM540.22,464.19c-.29-.29-8.46-1.52-7.96,1.96,6.25,10.91,12.5,2.68,7.96-1.96ZM148.29,484.13l-7.96-7.96c-1.14,8.35-.4,9.1,7.96,7.96ZM228.28,500.12l-7.96-7.96c-1.14,8.35-.4,9.1,7.96,7.96ZM146.29,500.16v4c2.6-1.33,2.6-2.67,0-4ZM468.23,504.18c-.29-.29-8.46-1.52-7.96,1.96,6.25,10.91,12.5,2.68,7.96-1.96ZM102.3,536.15v4c2.6-1.33,2.6-2.67,0-4ZM284.25,536.18c-.29-.29-8.46-1.52-7.96,1.96,6.25,10.91,12.5,2.68,7.96-1.96ZM252.28,556.11l-7.96-7.96c-1.14,8.35-.4,9.1,7.96,7.96ZM372.26,556.11c1.94-1.52-6.99-10.59-12-7.92-1.94,1.52,6.99,10.59,12,7.92ZM522.24,548.15v4c2.6-1.33,2.6-2.67,0-4ZM304.25,552.17c-.29-.29-8.46-1.52-7.96,1.96,6.25,10.91,12.5,2.68,7.96-1.96ZM420.25,564.11c1.94-1.52-6.99-10.59-12-7.92-1.94,1.52,6.99,10.59,12,7.92ZM486.25,572.15v4c2.6-1.33,2.6-2.67,0-4ZM292.27,600.1l-7.96-7.96c-1.14,8.35-.4,9.1,7.96,7.96ZM400.24,608.16c-.29-.29-8.46-1.52-7.96,1.96,6.25,10.91,12.5,2.68,7.96-1.96ZM354.26,620.14v4c2.6-1.33,2.6-2.67,0-4Z"/>
      <path class="cls-37" d="M280.27,492.13c-5.01,2.67-13.94-6.4-12-7.92,5.01-2.67,13.94,6.4,12,7.92Z"/>
      <path class="cls-78" d="M204.26,432.2c4.54,4.64-1.71,12.87-7.96,1.96-.5-3.48,7.67-2.25,7.96-1.96Z"/>
      <path class="cls-74" d="M220.28,476.17h-4v-4c1.07,1.35,3.11,2.3,4,4Z"/>
      <path class="cls-11" d="M234.28,288.21c2.6,1.33,2.6,2.67,0,4v-4Z"/>
      <path class="cls-74" d="M196.28,508.16l4,4c3.04,17.76-16.93,2.29-11.98-3.98,2.58-.4,5.68.48,7.98-.02Z"/>
      <path class="cls-74" d="M128.25,396.19c.72.59,7.58,15.92-1.89,11.95-10.73-4.5-5.6-18.08,1.89-11.95Z"/>
      <path class="cls-41" d="M134.29,396.19c2.6,1.33,2.6,2.67,0,4v-4Z"/>
      <path class="cls-57" d="M122.29,360.19c2.6,1.33,2.6,2.67,0,4v-4Z"/>
      <polygon class="cls-84" points="216.28 476.17 212.36 474.17 216.28 472.17 216.28 476.17"/>
    </g>
  </g>
</svg>