<?xml version="1.0" encoding="UTF-8"?>
<svg id="Layer_2" data-name="Layer 2" xmlns="http://www.w3.org/2000/svg" viewBox="0 0 103.38 92.13">
  <defs>
    <style>
      .cls-1 {
        fill: #fff;
      }

      .cls-2 {
        fill: none;
        stroke: #fff;
        stroke-linecap: round;
        stroke-linejoin: round;
        stroke-width: 4.97px;
      }
    </style>
  </defs>
  <g id="Layer_1-2" data-name="Layer 1">
    <g>
      <g>
        <path class="cls-1" d="M100.33,60.87c.1-6.17-.63-16.69-5.95-28.22-6.16-13.36-15.39-21.35-20.6-25.17-.65-.48-1.55-.35-2.05.29l-3.46,4.42c5.93,4.57,13.45,12.03,18.77,23.18,3.99,8.38,6.11,17.66,6.2,26.97h5.6c.81,0,1.47-.66,1.49-1.47Z"/>
        <path class="cls-1" d="M64.58,16.91L30.96,59.97c-.76.98-.07,2.4,1.17,2.4l55.11-.02c-.06-6.31-1.19-15.1-5.61-24.39-4.82-10.13-11.66-16.9-17.05-21.04ZM57.47,38.53c-1.04-2.08-.19-4.61,1.9-5.65s4.61-.19,5.65,1.9.19,4.61-1.9,5.65-4.61.19-5.65-1.9ZM80.2,48.8c1.42,2.86.26,6.34-2.61,7.76s-6.34.26-7.76-2.61-.26-6.34,2.61-7.76,6.34-.26,7.76,2.61ZM52.03,55.05c-1.82.9-4.03.16-4.93-1.66s-.16-4.03,1.66-4.93,4.03-.16,4.93,1.66.16,4.03-1.66,4.93Z"/>
      </g>
      <path class="cls-2" d="M89.17,81.79c0,4.34-3.52,7.85-7.86,7.85s-7.86-3.52-7.86-7.85,3.52-7.85,7.86-7.85,7.86,3.52,7.86,7.85h0Z"/>
      <path class="cls-2" d="M48.43,81.79c0,4.34-3.52,7.85-7.86,7.85s-7.86-3.52-7.86-7.85,3.52-7.85,7.86-7.85,7.86,3.52,7.86,7.85h0Z"/>
      <polyline class="cls-2" points="2.49 2.49 21.04 6.23 36.49 56.53 24.3 72.16 100.89 72.16"/>
    </g>
  </g>
</svg>