<?xml version="1.0" encoding="UTF-8"?>
<svg id="Layer_2" data-name="Layer 2" xmlns="http://www.w3.org/2000/svg" viewBox="0 0 796.96 805.26">
  <defs>
    <style>
      .cls-1 {
        fill: #ffdca9;
      }

      .cls-2 {
        fill: #f7af5f;
      }

      .cls-3 {
        fill: #f9b067;
      }

      .cls-4 {
        fill: #ffe3b6;
      }

      .cls-5 {
        fill: #f9bc72;
      }

      .cls-6 {
        fill: #eeb772;
      }

      .cls-7 {
        fill: #ffe2b6;
      }

      .cls-8 {
        fill: #fde1b5;
      }

      .cls-9 {
        fill: #d9ba90;
      }

      .cls-10 {
        fill: #f4983d;
      }

      .cls-11 {
        fill: #fbc380;
      }

      .cls-12 {
        fill: #ffe3b7;
      }

      .cls-13 {
        fill: #f8b263;
      }

      .cls-14 {
        fill: #ffe1af;
      }

      .cls-15 {
        fill: #fed099;
      }

      .cls-16 {
        fill: #fcc07d;
      }

      .cls-17 {
        fill: #f8d5a9;
      }

      .cls-18 {
        fill: #fac17b;
      }

      .cls-19 {
        fill: #ffddac;
      }

      .cls-20 {
        fill: #fabc72;
      }

      .cls-21 {
        fill: #f5aa57;
      }

      .cls-22 {
        fill: #f7ab58;
      }

      .cls-23 {
        fill: #f7aa5b;
      }
    </style>
  </defs>
  <g id="crust">
    <g>
      <path class="cls-21" d="M705.61,141.66c4.62,17.19,22.49,29.53,33.6,43.2,4.33,5.33,11.41,10.44,14.4,14.4,19.6,48.21,35.44,97.03,43.2,148.79.16,48.05,1.15,96.29-4.8,143.99-3.7,5.62-8.09,17.69-9.6,24l-2.39-4.72c-9.42,14.99-12.73,23.77-12.01-.08,2.15-9.31,4.45-26.22,4.99-35.87.29-5.24,3.1-18.16-4.93-16.89-3.12,22.62-14.42,42.27-24.05,62.37-2.9.76-4.77-2.53-4.8-4.8-.14-9.58,9.53-30.69,12.16-43.03,23.93-112.36,30.11-196.16-37.05-294.45-12.72-18.61-30.42-34.03-42.31-51.28-1.96-2.84-2.93-6.63-4.8-9.6v-4.8c11.68,9.13,27.29,16.95,38.4,28.8Z"/>
      <path class="cls-5" d="M67.21,199.25c-6.25,15.7-10.11,36.12-14.35,52.79l33.55-38.39c-27.24,55.05-35.36,90.56-38.4,148.79-1.31,25.05-6.26,48.95-4.7,74.34,2.95,48.3,29.49,89.53,28.7,136.84-40.86-76.46-55.47-144.36-47.38-232.16,3.74-40.64,24.92-82.13,28.18-118.21.29-3.15-.19-6.43,0-9.6,4.31-2.28,8.07-12.28,14.4-14.4Z"/>
      <path class="cls-17" d="M705.61,136.86v4.8c-11.11-11.85-26.72-19.67-38.4-28.8-8.15-6.37-14.57-12.21-24-19.2-13.03-9.67-24.67-13.19-33.6-19.2-.65-.44-.48-9.06-7.65-13.74-32.63-21.35-87.89-44.44-126.7-46.76-11.85-.71-13.67.06-14.45,12.51-36.83-12.45-19.92,5.34-48,9.6.7-7.48-.74-6.28-4.8-9.6-15.03-12.27-82.46-.85-105.6-4.8,9.61-4.7,20.03-8.28,28.8-14.4,150.56-25.42,274.56,15.37,374.4,129.59Z"/>
      <path class="cls-8" d="M235.21,60.06c-69.31,41.84-86.34,54.23-129.6,124.79-5.74,9.36-12.68,15.62-19.2,28.8l-33.55,38.39c4.25-16.67,8.1-37.09,14.35-52.79,17.27-43.38,64.06-103.13,105.6-124.79,14.17-7.39,48.96-22.71,62.4-14.4Z"/>
      <path class="cls-6" d="M331.21,7.27c-8.77,6.12-19.19,9.7-28.8,14.4-25.16,12.3-43.77,24.25-67.2,38.4-13.44-8.31-48.23,7.01-62.4,14.4,43.28-37.87,102-57.67,158.4-67.19Z"/>
      <path class="cls-9" d="M739.21,184.85c-11.11-13.66-28.98-26.01-33.6-43.2v-4.8c12.38,14.17,28.95,27.66,33.6,48Z"/>
      <path class="cls-10" d="M72.01,573.61c5.97,11.16,8.27,14.37,14.4,24,3.66,5.74,5.64,8.8,9.6,14.4,15.52,21.92,41.97,63.92,66.69,74.04,3.42,1.4,11.21-2.94,14.91.05,11.75,9.52,7.93,22.8,38.4,36.3,32,14.18,62.47,30.48,100.8,33.6,13.8,7.09,55.29,19.2,69.6,19.2h76.8c9.02,0,31.32,9.85,45.6,4.8-12.35,3.55-26.67,8.84-38.4,14.4-1.58.12-3.21-.05-4.8,0-9.09.28-23.52-3.38-28.8,4.8-3.2.05-6.4-.02-9.6,0-17.49.13-35.33.6-52.8,0-1.6-.06-3.2.07-4.8,0l-3.25-3.81c-16.6-1.18-33.14-3.47-49.54-5.78-1.57-.22-3.24.24-4.8,0-7.28-9.64-20.12-6.82-28.8-9.6-1.45-.46-3.33.44-4.8,0-1.35-.4-11.43-6.83-19.2-9.6-1.42-.51-3.4.52-4.8,0l-38.4-19.2c-7.06-4.3-18.51-10.63-24-14.4-74.73-51.29-129.08-120.07-168-201.58-.28-1.55-7.7-14.09-8.05-15.6-1.97-8.45,5.6-7.01-1.55-13.2-.31-1.54,1.1,1.2-.45-1.8-3.43-6.64-4.01-15.8-4.35-17.4s-.27-3.1-.65-4.6c-1.13-4.46,2.84-12.14-4.15-14.6-.07-1.6.07-3.2,0-4.8-.42-9.09,3.49-23.48-4.8-28.8,2.88-75.75,7.59-146.26,52.8-211.18-3.27,36.08-24.44,77.57-28.18,118.21-8.08,87.8,6.53,155.7,47.38,232.16Z"/>
      <path class="cls-5" d="M427.21,799.19c-12.18,8.19-41.57,7.99-52.8,0,17.47.6,35.31.13,52.8,0Z"/>
      <path class="cls-10" d="M552.01,770.39c-21.24,9.42-43.16,20.27-67.2,24-4.42.69-9.72-.36-14.4,0,11.73-5.56,26.05-10.85,38.4-14.4,13.77-3.96,29.05-6.89,43.2-9.6Z"/>
      <path class="cls-5" d="M369.61,799.19c-17.41-.74-37.81,1.77-52.8-9.6,16.4,2.32,32.95,4.6,49.54,5.78l3.25,3.81Z"/>
      <path class="cls-5" d="M465.61,794.39c-5.22,8.06-19.74,4.67-28.8,4.8,5.28-8.18,19.71-4.52,28.8-4.8Z"/>
      <path class="cls-5" d="M312.01,789.59c-10.22-1.58-21.07-.92-28.8-9.6,8.68,2.78,21.52-.04,28.8,9.6Z"/>
      <path class="cls-5" d="M254.41,770.39c-17.18-6.4-23.12-9.88-38.4-19.2l38.4,19.2Z"/>
      <path class="cls-5" d="M278.41,779.99l-19.2-9.6c7.77,2.77,17.85,9.2,19.2,9.6Z"/>
      <path class="cls-10" d="M4.81,463.22l5.15,23.4C1.96,480.62-.19,439.69.01,434.43c8.29,5.32,4.38,19.7,4.8,28.8Z"/>
      <path class="cls-9" d="M24.01,530.42c-14.05-9.8-17.28-46.03-19.05-54.8,7.15,6.19,17.08,46.34,19.05,54.8Z"/>
      <path class="cls-10" d="M14.41,501.62l-4.8-14.4c.34,1.6,3.37,7.07,4.8,14.4Z"/>
      <path class="cls-10" d="M9.61,482.42c-6.29-2.44-4.56-9.1-4.8-14.4,6.99,2.45,3.67,9.94,4.8,14.4Z"/>
      <path class="cls-5" d="M768.01,511.22c-.72,23.85,2.6,15.07,12.01.08l2.39,4.72c-30.7,128.57-112.51,202.09-230.4,254.38-14.15,2.71-29.43,5.64-43.2,9.6-14.28,5.05-36.58-4.8-45.6-4.8h-76.8c-14.31,0-55.8-12.1-69.6-19.2,31.29,2.54,73.71,1.35,105.6,0,5.26-.22,12.08,1.47,14.4-4.8,3.17-.23,6.42.15,9.6,0,5.56.17,4.48-4.69,4.8-4.8,56.44-19.69,98.22-25.3,148.8-62.39l9.6,4.8c-1.95,1.59-23.88,15.84-7.32,14.31,80.01-33.74,145.95-106.43,165.72-191.89Z"/>
      <path class="cls-20" d="M460.81,26.47c49.19,16.62,88.49,34.53,135.77,53.83,9.15,3.74,14.71,9.2,13.03-5.84,8.92,6.01,20.57,9.53,33.6,19.2-20.05,4.66,11.05,28.71,19.2,36,7.14,6.39,10.57,13.59,9.6-2.4,11.89,17.25,29.6,32.68,42.31,51.28,67.16,98.28,60.98,182.08,37.05,294.45-2.63,12.34-12.3,33.46-12.16,43.03h-4.8c13.57-39.93,16.16-82.84,14.4-124.79.21,1.61,5.48,24.94,9.55,23.97,4.54-94.81-28.36-184.1-91.15-254.35-41.88-46.86-78.22-68.14-129.6-86.39-41.79-14.84-83.82-35.84-129.6-33.66-1.25-3.69,4.73-3.97,4.8-4.74,28.08-4.26,11.17-22.05,48-9.6Z"/>
      <path class="cls-4" d="M768.01,511.22c-19.76,85.46-85.71,158.15-165.72,191.89-16.56,1.53,5.37-12.71,7.32-14.31,66.33-54.25,96.93-89.8,134.4-167.98,9.63-20.1,20.93-39.75,24.05-62.37,8.03-1.27,5.23,11.65,4.93,16.89-.54,9.66-2.83,26.56-4.99,35.87Z"/>
      <path class="cls-2" d="M744.01,520.82c-37.47,78.18-68.07,113.73-134.4,167.98l-9.6-4.8c50.01-36.67,114.31-108.84,134.4-167.98h4.8c.03,2.27,1.9,5.56,4.8,4.8Z"/>
      <path class="cls-19" d="M667.21,117.66c1.87,2.97,2.84,6.76,4.8,9.6.97,15.99-2.46,8.79-9.6,2.4-8.15-7.29-39.25-31.34-19.2-36l24,24Z"/>
      <path class="cls-11" d="M667.21,112.86v4.8l-24-24c9.43,6.99,15.85,12.83,24,19.2Z"/>
      <path class="cls-1" d="M542.41,79.26c35.57,13.62,61.73,34.11,91.2,57.59,5.53,12.92,20.68,19.93,28.8,28.8,66.27,72.38,74.39,133.42,86.4,225.58,1.76,41.94-.83,84.85-14.4,124.79-20.09,59.14-84.39,131.31-134.4,167.98-50.58,37.09-92.36,42.7-148.8,62.39-54.28-8.99-109.61-1.05-163.17-19.15l60.56,18.57c33.03,2.06,66.51,4.44,97.81,5.38-3.18.15-6.43-.23-9.6,0-5.23.38-12.01-1.59-14.4,4.8-31.89,1.35-74.31,2.54-105.6,0-38.33-3.12-68.8-19.42-100.8-33.6,9.72-2.71,5.09-17.53,6.19-18.44,2.97-2.49,10.12,2.45,8.18-5.49-76.76-43.57-140.12-120.51-163.22-206.41-9.62-.62-3.86,14.45-2.41,19.23,5.03,16.7,41.32,81.2,40.87,86.33-6.3-4.83-12.81-4.89-19.2,0-6.13-9.62-8.43-12.83-14.4-24,.79-47.32-25.75-88.54-28.7-136.84-1.55-25.39,3.4-49.28,4.7-74.34,5.29-28.48,10.17-55.48,20.35-82.84,8.19-22.03,33.75-57.18,37.25-75.54,36.3-45.71,75.45-90.09,129.6-115.19,99.47-46.11,205.11-48.69,307.2-9.6ZM412.55,165.98c-9.22-11.78-60.45-9.93-75.84-6.82-15.84,3.19-32.8,14.88-46.91,15.97-17.3,1.34-26.25-11.21-46.81-9.24-49.53,4.73-103.87,72.38-127.74,112.59-1.99,5.87,24.36-3.55,19.12,9.5-8.04,20.04-27.49,6.08-28.72,7.22-3.96,3.65-12.64,63-15.55,73.32-7.05,24.95-25.38,51.26-22.67,82.15,4.83,55.05,83.22,150.06,122.13,190.22,63.23,65.27,205.31,77,292.33,66.59,16.13-1.93,46.16-12.63,58.2-23.39,15.85-14.16,29.96-61.56,35.82-64.98,7.49-4.37,22.89-1.53,33.88-4.51,63.97-17.38,75.27-148.7,14.33-177.75,3.07-7.86,17.53-5.96,18.89-7.47,1.67-1.87-7.99-43.6-9.68-48.97-1.3-4.14-8.6-3.53-9.35-6.86-3.34-14.9,7.56-33.64-1.25-60.21-8.23-24.82-56.34-67.52-80.21-73.91-11.34-3.04-15,7.66-16.9,7.76-6.08.3-6.54-20.37-11.96-26.34-3.29-3.63-79.38-49.05-84.12-50.3-13.55-3.57-1.21,19.69-14.24,14.28-11.47-4.76-2.15-18.08-2.73-18.83ZM283.19,722.45c-6.74-3.45-12.81,3.04-9.55,4.7,6.74,3.45,12.81-3.04,9.55-4.7Z"/>
      <path class="cls-13" d="M105.61,204.05c-3.5,18.36-29.06,53.51-37.25,75.54-10.18,27.37-15.06,54.36-20.35,82.84,3.04-58.22,11.16-93.74,38.4-148.79,6.52-13.17,13.46-19.43,19.2-28.8-7.49,9.94.2,18.14,0,19.2Z"/>
      <path class="cls-22" d="M408.01,26.47c2.66,14.96-7.5,8.8-16.65,9.53-54.8,4.39-112.86,17.02-156.15,52.86-54.15,25.1-93.3,69.48-129.6,115.19.2-1.05-7.49-9.25,0-19.2,43.26-70.56,60.29-82.95,129.6-124.79,23.43-14.14,42.04-26.1,67.2-38.4,23.14,3.95,90.57-7.47,105.6,4.8Z"/>
      <path class="cls-12" d="M609.61,74.46c1.68,15.03-3.87,9.58-13.03,5.84-47.28-19.3-86.58-37.21-135.77-53.83.77-12.45,2.6-13.22,14.45-12.51,38.82,2.33,94.07,25.41,126.7,46.76,7.16,4.69,6.99,13.3,7.65,13.74Z"/>
      <path class="cls-15" d="M412.81,36.07c-.07.77-6.05,1.06-4.8,4.74,45.78-2.19,87.81,18.81,129.6,33.66l4.8,4.8c-102.09-39.09-207.73-36.51-307.2,9.6,43.29-35.84,101.34-48.47,156.15-52.86,9.15-.73,19.31,5.43,16.65-9.53,4.06,3.32,5.5,2.12,4.8,9.6Z"/>
      <path class="cls-7" d="M105.61,597.61c.46-5.13-35.84-69.63-40.87-86.33-1.44-4.78-7.21-19.86,2.41-19.23,23.1,85.91,86.45,162.84,163.22,206.41,1.94,7.94-5.21,3-8.18,5.49-1.09.92,3.54,15.74-6.19,18.44-30.47-13.5-26.65-26.78-38.4-36.3-3.69-2.99-11.49,1.34-14.91-.05-24.73-10.11-51.17-52.11-66.69-74.04,1.78-4.18,9.29-10.96,9.6-14.4Z"/>
      <path class="cls-18" d="M105.61,597.61c-.31,3.44-7.82,10.22-9.6,14.4-3.96-5.6-5.94-8.65-9.6-14.4,6.39-4.89,12.9-4.83,19.2,0Z"/>
      <path class="cls-16" d="M436.81,751.2c-2.32,6.27-9.14,4.58-14.4,4.8,2.39-6.39,9.17-4.42,14.4-4.8Z"/>
      <path class="cls-16" d="M451.21,746.4c-.32.11.76,4.97-4.8,4.8-31.3-.95-64.78-3.32-97.81-5.38l-60.56-18.57c53.56,18.1,108.89,10.16,163.17,19.15Z"/>
      <path class="cls-23" d="M667.21,160.85c62.79,70.25,95.69,159.54,91.15,254.35-4.07.97-9.34-22.36-9.55-23.97-12.01-92.16-20.13-153.2-86.4-225.58v-4.8h4.8Z"/>
      <path class="cls-3" d="M667.21,160.85h-4.8c-10.31-7.18-18.95-16.15-28.8-24-29.47-23.48-55.63-43.98-91.2-57.59l-4.8-4.8c51.38,18.25,87.71,39.53,129.6,86.39Z"/>
      <path class="cls-14" d="M412.55,165.98c.59.75-8.73,14.07,2.73,18.83,13.02,5.4.69-17.86,14.24-14.28,4.74,1.25,80.82,46.67,84.12,50.3,5.42,5.97,5.88,26.64,11.96,26.34,1.9-.09,5.56-10.79,16.9-7.76,23.87,6.39,71.97,49.08,80.21,73.91,8.81,26.58-2.09,45.32,1.25,60.21.75,3.33,8.05,2.72,9.35,6.86,1.69,5.37,11.36,47.1,9.68,48.97-1.36,1.51-15.82-.39-18.89,7.47,60.94,29.05,49.64,160.37-14.33,177.75-11,2.99-26.4.15-33.88,4.51-5.86,3.41-19.97,50.81-35.82,64.98-12.04,10.76-42.07,21.47-58.2,23.39-87.02,10.4-229.11-1.33-292.33-66.59-38.91-40.16-117.3-135.17-122.13-190.22-2.71-30.88,15.62-57.2,22.67-82.15,2.91-10.31,11.6-69.67,15.55-73.32,1.23-1.14,20.68,12.82,28.72-7.22,5.24-13.05-21.11-3.63-19.12-9.5,23.88-40.22,78.22-107.86,127.74-112.59,20.57-1.97,29.52,10.58,46.81,9.24,14.11-1.09,31.07-12.78,46.91-15.97,15.39-3.1,66.63-4.96,75.84,6.82Z"/>
      <path class="cls-16" d="M283.19,722.45c3.26,1.67-2.81,8.15-9.55,4.7-3.26-1.67,2.81-8.15,9.55-4.7Z"/>
      <path class="cls-20" d="M662.41,160.85v4.8c-8.12-8.86-23.27-15.88-28.8-28.8,9.85,7.85,18.49,16.82,28.8,24Z"/>
    </g>
  </g>
</svg>