<?xml version="1.0" encoding="UTF-8"?>
<svg id="Layer_2" data-name="Layer 2" xmlns="http://www.w3.org/2000/svg" viewBox="0 0 195.79 192.79">
  <defs>
    <style>
      .cls-1 {
        fill: #fff;
      }
    </style>
  </defs>
  <g id="Layer_1-2" data-name="Layer 1">
    <path class="cls-1" d="M104.45,0c72.42,5.06,115.03,83.94,77.32,146.09-38.35,63.21-132.18,61.97-169.07-2C-22.69,82.74,19.84,3.9,91.28,0h13.17ZM153.36,56.79H42.13l.7,1.05c14.57,14.01,28.92,28.29,43.43,42.37,2.09,2.03,4.23,4.65,6.42,6.53,1.11.95,2.57,2.3,4.1,1.47,19.22-16.38,37.22-34.3,56.28-50.9.16-.14.45.02.3-.53ZM158.3,61.19l-36.46,33.03c6.56,7.26,13.63,14.08,20.47,21.09,4.27,4.36,8.43,8.86,12.68,13.22.92.95,1.91,1.83,2.83,2.78l.47-.23V61.19ZM37.43,61.42v69.77l34.34-36.27-34.34-33.49ZM42.25,136.06h111.35l-36.57-37.56c-.19,0-1.92,1.47-2.24,1.74-3.58,3.13-12.49,12.63-16.33,13.8-2.95.9-5.77.33-8.24-1.41l-13.38-13.11-.63-.22-34.21,36.28.24.46Z"/>
  </g>
</svg>