<?xml version="1.0" encoding="UTF-8"?>
<svg id="Layer_2" data-name="Layer 2" xmlns="http://www.w3.org/2000/svg" viewBox="0 0 180 180">
  <defs>
    <style>
      .cls-1 {
        fill: #fff;
      }
    </style>
  </defs>
  <g id="Layer_1-2" data-name="Layer 1">
    <path class="cls-1" d="M179.97,46.01c.15-10.27-.25-21.41-6.55-29.96C166.08,5.03,152.81,0,140.1,0c-.8,0-1.58.02-2.37.06-35.03.19-70.08-.25-105.09.4C15.72,1.27,1.33,16.17.56,33.43c-1.06,32.45-.19,64.93-.56,97.38.02,12.49-.11,26.64,8.71,36.46,6.68,8.16,16.98,12.8,27.37,12.58,15.56.1,31.12.15,46.68.15,20.39,0,40.78-.1,61.15-.34,17.81-.42,35.06-15.31,35.5-34.09.48-14.64.59-29.29.59-43.94,0-18.54-.18-37.08-.03-55.62ZM142.16,43.45c-17.58,16.77-35.48,33.21-52.3,50.81-17.46-17.39-36.81-32.76-53.32-51.1,35.21.04,70.43-.41,105.62.29ZM153.4,124.71c.17,5.31-3.44,9.8-7.77,12.32-6.64,1.7-13.59,1-20.35,1.23-29.05-.21-58.09.17-87.14-.1-5.25.55-9.44-3.54-12.13-7.63-1.79-5.38-1.23-11.14-1.35-16.66.2-19.78-.34-39.58.66-59.34,12.75,12.51,26.24,24.25,38.93,36.87,7.55,6.54,13.83,14.82,22.62,19.76,3.65,2.3,7.28-1.04,10.25-2.99,8.44-6.69,15.51-14.93,23.25-22.43,10.8-11.03,22.87-20.71,33.28-32.17.4,23.7.52,47.44-.25,71.14Z"/>
  </g>
</svg>