<?xml version="1.0" encoding="UTF-8"?>
<svg id="Layer_2" xmlns="http://www.w3.org/2000/svg" version="1.1" viewBox="0 0 231.9 305.7">
  <!-- Generator: Adobe Illustrator 29.5.0, SVG Export Plug-In . SVG Version: 2.1.0 Build 137)  -->
  <defs>
    <style>
      .st0, .st1 {
        fill: none;
      }

      .st2 {
        fill: #d97d84;
      }

      .st3 {
        fill: #fefdfd;
      }

      .st4 {
        fill: #73bd57;
      }

      .st5 {
        fill: #912721;
      }

      .st1 {
        stroke: #d84428;
        stroke-linecap: round;
        stroke-linejoin: round;
      }

      .st6 {
        fill: #e3dfd9;
      }

      .st7 {
        fill: #bbd663;
      }

      .st8 {
        fill: #d84428;
      }

      .st9 {
        fill: #ca2227;
      }

      .st10 {
        fill: #3b322f;
      }

      .st11 {
        fill: #bbaf9b;
      }

      .st12 {
        fill: #bdb48f;
      }

      .st13 {
        fill: #f3d44d;
      }

      .st14 {
        stroke: #da342b;
        stroke-miterlimit: 10;
        stroke-width: .2px;
      }

      .st14, .st15 {
        fill: #da342b;
      }

      .st16 {
        fill: #d39d29;
      }

      .st17 {
        fill: #0f0f0e;
      }

      .st18 {
        fill: #e29225;
      }
    </style>
  </defs>
  <g id="Layer_2-2">
    <g>
      <path class="st11" d="M202.7,97.1h-.2c0-1.6,0-3.5,0-5.1h.2v5.1Z"/>
      <path class="st11" d="M95.3,235.5c0-.2,0-.5,0-.7l1.8-.5-.2,1.8c-.2,0-.5,0-.7,0,0,0-.4-.2-.5-.2,0,0-.1-.2-.2-.2,0,0-.2-.2-.2-.2h0Z"/>
      <path class="st10" d="M85.6,236.9c-.2,0-.3,0-.5-.2.2,0,.4,0,.5.2Z"/>
      <path class="st10" d="M95.5,235.8c0,0-.2-.1-.2-.2,0,0,.2.1.2.2Z"/>
      <path class="st10" d="M95.8,236c0,0-.2-.2-.2-.2,0,0,.2.2.2.2Z"/>
      <path class="st10" d="M96.2,236.2c-.2,0-.2,0-.5-.2,0,0,.4.2.5.2Z"/>
      <path class="st9" d="M85.1,236.7c.2.2.3.2.5.2.2.6-.7.5-1.2.7-.3.1-.5.4-.6.4,0,0-.2,0-.2,0l-.5.2c0,0-.2,0-.2,0l-.5.2c0,0-.2,0-.2,0l-.5.2c0,0-.2,0-.2,0l-.5.2c0,0-.2,0-.2,0-2,.5-4,1-6,1.4l1.4-1.6c0,0,.2,0,.2,0,.6-.2,1.5-.3,1.4-.9,0,0,.2,0,.2,0,.9-.5,1.6-.9,2.4-1.7.3-.3.6-.2.4-.8,0,0,.1,0,.2,0,2-.2,2.6.7,4.2,1.4h0Z"/>
      <path class="st10" d="M76.1,238.8l-1.4,1.6c2-.4,4-.8,6-1.4-1.8,1.3-4.4,1-6.3,2.1,0,0-.3-.2-.2-.6,0-.9,1.1-1.4,1.9-1.8h0Z"/>
      <path class="st10" d="M91.6,240.4c-1.5.4-2.9,1-4.4,1.4-.1-.6.3-.5.7-.6.9-.3,3-.3,2.7-1.5l1,.7h0Z"/>
      <path class="st4" d="M74.5,242.5c.6.1.4,1,.5,1.1.2.2,2.3-.3,2.8.2,0,0-.3.2-.6.2-1.9.1-2.3.2-2.7-1.6Z"/>
      <path class="st10" d="M80.7,235.3c.2.7-.2.6-.4.8-.8.8-1.4,1.2-2.4,1.7l1.8-2c.3-.2.6-.5.9-.6Z"/>
      <path class="st11" d="M84.6,231.6l1.4.5h-1.9c.2-.2.3-.3.5-.5Z"/>
      <path class="st10" d="M77.7,237.8c.1.6-.8.7-1.4.9.3-.4,1-.7,1.4-.9Z"/>
      <path class="st9" d="M136,233.2c-.6.8-2.4,1.4-2.9,2.5-.2,0-.4-.1-.6-.2-.8-.6-1.2-3-1.4-3.9,1.7,0,3.5.6,4.9,1.6h0Z"/>
      <path class="st5" d="M140.7,236.9c.3.7-1.5.4-1.8.4-.3,0-.8-.3-.5-.6.2-.2,1.8.4,2.3.2h0Z"/>
      <path class="st5" d="M147.8,232.1c0,.8.4,1.6-.7,1.4l.2-.9-.9-.2,1.4-.2h0Z"/>
      <path class="st5" d="M139,238.3c.2.9-1.1.3-1.6.5v-.7l1.6.2h0Z"/>
      <polygon class="st5" points="137.9 237.4 137.9 237.8 136.5 237.8 136.5 237.6 137.9 237.4"/>
      <path class="st5" d="M146.9,232.8c0,0,.1.9-.3.7-.8-.3,0-1.1.3-.7Z"/>
      <rect class="st5" x="138.1" y="237.6" width=".9" height=".5"/>
      <path class="st5" d="M141.6,236.2v.7c-.4-.2-.8-.1-.7-.7h.7Z"/>
      <path class="st5" d="M137.2,239s0,.3,0,.5h-.7v-.7c.2.2.7.2.7.2h0Z"/>
      <rect class="st5" x="140.2" y="236" width=".5" height=".7"/>
      <rect class="st5" x="136.5" y="238.1" width=".7" height=".5"/>
      <rect class="st5" x="140.9" y="237.2" width=".7" height=".5"/>
      <path class="st5" d="M139.7,236.5s-.5,0-.5-.1c.4-.6.7-.2.5.1Z"/>
      <path class="st10" d="M95.3,236.7c.2,0-.1.4-.5.2-.2,0,.1-.4.5-.2Z"/>
      <path class="st10" d="M83.5,238.1c0,0-.2.1-.5.2l.5-.2Z"/>
      <path class="st10" d="M82.8,238.3s-.2.1-.5.2l.5-.2Z"/>
      <path class="st10" d="M82.1,238.5s-.2.1-.5.2l.5-.2Z"/>
      <path class="st10" d="M81.4,238.8s-.2.1-.5.2l.5-.2Z"/>
      <path class="st10" d="M88.6,238.1c0,.2-.4-.1-.2-.5,0-.2.4.1.2.5Z"/>
      <path class="st10" d="M88.9,238.1c.1,0,.1.2,0,.2v-.2Z"/>
      <rect class="st10" x="89.8" y="238.2" width=".1" height="1.5" transform="translate(-142.6 133.5) rotate(-45)"/>
      <path class="st5" d="M108.5,232.5c0,.4,0,1.2-.5,1.4,0-.7-.7-1.7.2-2.1-.1.3.2.6.2.7h0Z"/>
      <path class="st2" d="M92.5,234.4h-3.1s-1.5.6-1.5.6c1.2-1.3,3-1.1,4.6-.6h0Z"/>
      <g>
        <path class="st14" d="M52.3,253.2h-4.6c-.3,0-1-.3-1,7.1,0,5.6.4,5.3.8,5.3h2c.1,0,.4,0,.4-.1s-.5-1.9-.5-3.2c0-1.9,5.9-2.5,5.9-6.5,0-.9-.5-2.7-3-2.7h0ZM49.6,259.2c-.4,0-.5-.3-.5-.7,0-3.4.9-3.6,1.9-3.6s1.8.3,1.8,1.4c0,1.1-2.5,2.9-3.3,2.9h0Z"/>
        <path class="st14" d="M64,253.2h-1.5c-.1,0-.6,0-.6.2s.7,1.6.7,5.5c0,4.1-1.6,4.3-2.4,4.3s-2.1-1-2.1-4.5.8-5,.8-5.4-.2-.2-.3-.2h-2.1c-.2,0-.8,1.2-.8,6,0,4.5,1.7,6.6,4.5,6.7,3.2,0,4.6-2.6,4.6-7,0-5.4-.6-5.6-.9-5.6h0Z"/>
        <path class="st14" d="M74.2,253.2h-1.1c-.3,0-.6,0-.6.2,0,.3.8,2.8.8,5.6s0,.9-.1.9-.2-.2-.3-.3c-2.8-5.2-3.9-6.4-4.5-6.4h-1.2c-.3,0-1-.3-1,7.1,0,5.6.4,5.3.8,5.3h1.4c.1,0,.4,0,.4-.1,0-.8-.6-2.3-.6-6.5s-.1-1.9.3-1.9,1.8,2.5,2,2.9c2.3,4.7,1.4,5.7,2.4,5.7h1.6c.4,0,.8.3.8-5.3,0-7.4-.7-7.1-1-7.1h0Z"/>
        <path class="st14" d="M84.9,253.4c0-.2-.3-.2-.5-.2h-1.4c-.3,0-.3,0-.4.4-.7,2.5-2.9,5.1-3.3,5.1-.3,0-.3-.8-.3-.9,0-2.2.7-4.3.7-4.3,0-.3-.3-.2-.5-.2h-1.5c-.3,0-1-.3-1,7.1,0,5.6.4,5.3.8,5.3h1.8c.2,0,.3,0,.3-.3s-.5-2.8-.5-3.4c0-.9,1.3-2,1.6-2s1.6,1.6,1.6,5c0,.2,0,.6.3.6h1.8c.3,0,.6,0,.6-.3,0-4.4-2.9-6.8-2.9-7.1s2.5-2.6,2.5-4.9h0Z"/>
        <path class="st14" d="M99.3,256c0-1.3-.7-2.8-3.5-2.8h-4c-.3,0-1-.3-1,7.1,0,5.6.4,5.3.8,5.3h1.7c.1,0,.5,0,.5-.2s-.6-2.2-.6-3.3,1.1-1.5,1.5-1.5c.9,0,2.1,3,2.1,4.7s.5.2.7.2h1.7c.3,0,.4,0,.4-.2,0-3.5-2.7-5.5-2.7-5.9s2.2-1.2,2.2-3.5h0ZM93.7,259c-.4,0-.5-.6-.5-.9,0-2.6.6-3.1,1.9-3.1.8,0,1.7.3,1.7,1.3,0,1.4-2.7,2.7-3.2,2.7Z"/>
        <path class="st14" d="M105.4,253c-2.8,0-5,4.3-5,8.1,0,2.6,1.2,4.8,4.2,4.8h1.5c3,0,4.2-2.2,4.2-4.8,0-3.8-2.1-8.1-4.9-8.1h0ZM105.3,263.3c-1.6,0-2.5-.7-2.5-2.4,0-3.3,1.5-5.4,2.5-5.4,1,0,2.5,2.1,2.5,5.4s-.9,2.4-2.5,2.4Z"/>
        <path class="st14" d="M119.5,261.1c-.1,0-.3,2.2-2.8,2.2-1.3,0-3.2-1.2-3.2-4s.9-4.1,3.1-4.1,1.1,1.4,1.7,1.4c.9,0,1.5-.5,1.5-1.4,0-1.6-2-2.2-3.3-2.2-3.6,0-5.5,3.5-5.5,6.8s1.6,6.1,5,6.1c2.1,0,3.8-1.3,3.8-3.5s-.1-1.3-.3-1.3h0Z"/>
        <path class="st14" d="M129.3,253.4c0-.2-.3-.2-.5-.2h-1.4c-.3,0-.3,0-.4.4-.7,2.5-2.9,5.1-3.3,5.1s-.3-.8-.3-.9c0-2.2.7-4.3.7-4.3,0-.3-.3-.2-.5-.2h-1.5c-.3,0-1-.3-1,7.1,0,5.6.4,5.3.8,5.3h1.8c.2,0,.3,0,.3-.3s-.5-2.8-.5-3.4c0-.9,1.3-2,1.6-2s1.6,1.6,1.6,5c0,.2,0,.6.3.6h1.8c.3,0,.6,0,.6-.3,0-4.4-2.9-6.8-2.9-7.1s2.5-2.6,2.5-4.9h0Z"/>
        <path class="st14" d="M140.8,253.3h-4.6c-.3,0-1-.3-1,7.1,0,5.6.4,5.3.8,5.3h2c.1,0,.4,0,.4-.1s-.5-1.9-.5-3.2c0-1.9,5.9-2.5,5.9-6.5,0-.9-.5-2.7-3-2.7h0ZM138.1,259.3c-.4,0-.5-.3-.5-.7,0-3.4.9-3.6,1.9-3.6s1.8.3,1.8,1.4c0,1.1-2.5,2.9-3.3,2.9h0Z"/>
        <path class="st14" d="M147.4,253.3h-1.6c-.3,0-1-.3-1,7.1,0,5.6.4,5.3.8,5.3h2.1c.1,0,.2,0,.2-.2,0-.2-.7-2.7-.7-6.5,0-2.9.8-5.4.8-5.5,0-.3-.4-.2-.6-.2h0Z"/>
        <path class="st14" d="M157.1,253.3h-6.9c-.1,0-.6,0-.6.1s.6,2.5,1,2.5.7-.9,2.2-.9.9.1.9.6c0,1-4.9,5.9-4.9,9.4s.4.6,1,.6h6.8c.5,0,.7,0,.7-.2s-.9-2.8-1.2-2.8-.9,1.1-2.5,1.1-1.5-.3-1.5-.9c0-1.9,5.5-7.3,5.5-9.1s-.3-.5-.6-.5h0Z"/>
        <path class="st14" d="M166.4,253.3h-6.9c-.1,0-.6,0-.6.1s.6,2.5,1,2.5.7-.9,2.2-.9.9.1.9.6c0,1-4.9,5.9-4.9,9.4s.4.6,1,.6h6.8c.5,0,.7,0,.7-.2s-.9-2.8-1.2-2.8-.9,1.1-2.5,1.1-1.5-.3-1.5-.9c0-1.9,5.5-7.3,5.5-9.1s-.3-.5-.6-.5h0Z"/>
        <path class="st14" d="M172.8,253.1c-.7,0-5.1,3-5.1,9.4,0,1.9.2,3.3,1,3.3h2.1c.2,0,.3,0,.3-.1,0-.2-1-1.5-1-2.7,0-1.7,2.2-1.9,3.5-1.9s1.3.3,1.3.9c0,1.7-1.2,3.2-1.2,3.6s.4.2.6.2h1.7c.4,0,1.1.4,1.1-3.6,0-6.9-3.9-9.1-4.3-9.1h0ZM173.8,259c-1.3,0-2.8.4-3,.4s-.3-.1-.3-.3c0-1.1,1.6-3.5,2.4-3.5s1.7,1.9,1.7,2.9-.2.5-.8.5h0Z"/>
      </g>
      <g>
        <rect class="st0" x="138.1" y="237.6" width=".9" height=".5"/>
        <rect class="st0" x="140.9" y="237.2" width=".7" height=".5"/>
        <rect class="st0" x="140.2" y="236" width=".5" height=".7"/>
        <path class="st0" d="M137.4,238.1v.7c.5-.1,1.8.4,1.6-.5l-1.6-.2h0Z"/>
        <path class="st0" d="M139.7,236.5c.3-.3-.1-.7-.5-.1,0,.2.4.1.5.1Z"/>
        <path class="st0" d="M138.3,236.7c-.3.3.2.5.5.6.3,0,2.2.4,1.8-.4-.5.1-2.1-.4-2.3-.2h0Z"/>
        <path class="st0" d="M137.2,239s-.5,0-.7-.2v.7h.7c0-.1,0-.4,0-.5h0Z"/>
        <polygon class="st0" points="137.9 237.4 136.5 237.6 136.5 237.8 137.9 237.8 137.9 237.4"/>
        <rect class="st0" x="136.5" y="238.1" width=".7" height=".5"/>
        <path class="st0" d="M147.8,232.1l-1.4.2.9.2-.2.9c1.1.2.6-.6.7-1.4h0Z"/>
        <path class="st0" d="M95.8,236c.2.2.3.1.5.2.2,0,.5,0,.7,0l.2-1.8-1.8.5c0,.2,0,.5,0,.7,0,0,.1.2.2.2,0,0,.2.2.2.2h0Z"/>
        <path class="st0" d="M88.9,238.1v.2c.1,0,.1-.2,0-.2Z"/>
        <path class="st0" d="M92.5,234.4c-1.6-.6-3.4-.8-4.6.6l1.5-.6h3.1s0,0,0,0Z"/>
        <path class="st0" d="M88.4,237.6c-.2.3.1.6.2.5.2-.3-.1-.6-.2-.5Z"/>
        <path class="st0" d="M141.6,236.9v-.7h-.7c-.1.6.2.4.7.7Z"/>
        <path class="st0" d="M94.8,236.9c.3.2.6-.1.5-.2-.3-.2-.6.1-.5.2Z"/>
        <path class="st0" d="M133.1,235.8c.5-1.2,2.3-1.7,2.9-2.5-1.4-1.1-3.1-1.6-4.9-1.6.1.6.3,1.8.7,2.7.2.3.4.7.7,1.2.1.1.4.3.6.2h0Z"/>
        <rect class="st0" x="89.8" y="238.2" width=".1" height="1.5" transform="translate(-142.6 133.5) rotate(-45)"/>
        <path class="st0" d="M146.6,233.4c.5.2.4-.6.3-.7-.4-.4-1.2.4-.3.7Z"/>
        <path class="st0" d="M108.2,231.8c-.9.4-.1,1.3-.2,2.1.6-.2.5-.9.5-1.4,0-.1-.3-.4-.2-.7h0Z"/>
        <path class="st17" d="M89.7,96.9c.2.4.2.9.2,1.4h-1.2c.6.6.9.8,1.6,1.2.4,0,1.6.1,1.9,0,0,0-.2-.3-.1-.5.2-.2.7-.3.8-.6,0-.3-.9-2.2-1.1-2.6-.3-.5-.5-.3-1-.3-.3,1.1-.2.6-.7.9-.1,0-.2.4-.5.5h0Z"/>
        <path class="st17" d="M126.1,218.4c.4-.1.7-.1.9-.2,0,0,.2,0,.2,0,.2,0,.4-.6,1.2-.7,0,0,.1-.2.2-.2.7-.6,1.8-1.2,2.3-1.6.2-.2.2-1.1,1.2-1.2,0-.1.2-.2.2-.2.5-1,1-1.2,1.6-1.7.3-.3-.2-.9,1-.9s.2,0,.2,0l.2-.5v-.2c-.7,0-1.5.3-2,0-.5-.2-3.3-2.7-3.3-3.1l5.2-14.1c.3-.4,1.3.2,2.1-.2,2.8-1.2,1.1-5.7,1.5-7.8.1-.9,1.3-3.3,1.7-4.5.8-2.6,1.2-5.2,1.7-7.9.3-.3,1.3,1.2,1.5,1.4,2.2,2.9,3.6,6.6,4.1,10.1-4.5,1-7.6,8-3.2,11,.4.2,1.1.3,1.1.4.1.1,0,1.8,0,2.4.3,1.9,2.4,3.1,4.2,2.9.5,0,1.7-.6,1.9-.6.2,0,1.3,1.1,2.1,1.4,1.3.4,2.4.4,3.5-.5.6-.4,1-1.3,1.4-1.6,1-.5,2.2,0,3.3-.9,2.8-2.2,2.1-7.6.4-10.4-.6-1-3.2-3.2-3.3-3.4-.3-.7-.3-2.1-.5-2.9-2-7.6-6.2-14-12.6-18.7l-.2-.5c3.9-12,9.4-23.4,13.9-35.2.3-.2.8,0,1.2-.2,1.6-.6,2.7-6,2.8-7.6,0-.9-.3-3.3-.2-3.6,0-.2,1.6-2.1,1.9-2.7,4.1-7.9-.2-14.6-6.6-19.1-14.6-10.3-39.2-15.5-56.8-14-6.4.6-13.5,1.9-17.4,7.6-.3.5-1.1,2.2-1.3,2.3-.6.5-6.9,2.5-8.4,3.3-4.8,2.3-16.5,9.4-18.4,14.2-1.5,3.7,0,8.4,1.8,11.7.5.9,3.2,4.3,3.3,4.8.1,1.1-.9,3.5-1.1,4.9-.2,2.3-.2,5.7,3,4.7.4,3.2,2.6,5.7,3.7,8.7,1.2,3.3,1.5,7.5,2.9,10.5.6,1.2,1.8,2.2,2.4,3.4,1.1,2.4.9,5.4,3.1,7.6-1.5,1.8-3.1,3.3-4.5,5.2-2.2,3-4.3,6.9-5.3,10.4-.4,1.3-.6,3.8-1,4.8-.3.6-2.8,2.5-3.5,3.4-2.2,2.8-3,6.6-.9,9.7,1.3,1.8,2.3,1.4,4,2.1,1.9.8,1.9,2.3,4.9,1.7.8-.2,1.4-1,1.9-1.1.6,0,1.4.4,2.1.4,2.1.2,4.1-.3,4.8-2.6.2-.6.2-2.5.4-2.7.1-.2,1.7-.3,2.6-1.4,2.4-3,0-6.4-2.6-8.3-.8-.6-2.6-1.3-2.7-2.2-.1-2.8,3.2-8.7,5.2-10.8,1.2,2.6,2.7,5.2,3.3,8.1.6,2.7.1,5.1,2.4,7.1,2.5,2.3,3.4,2,5.1,5.6,2.9,6.1,2.5,9.7,2.8,16.2,0,1.4.5,3.1.5,4.5v.5c.7,0,1.3.5,2.1.7l-1.4-.8c0-1.5-1.1-10.7-.4-11.2l1.8,1.2c0-.9-.5-1.7.1-2.5,1.3,1.7,2.5,3.7,3.6,5.5.4.6.8,1.1,1.1,1.8.8,2.1,1.1,5,1.7,7.2.3,0,.6,0,.9,0,.8,0,.4.4.5.5.2.1.7,0,1,.5.6,1,.6,3.6,2.1,4.4.5.2.3-.6.8-.7.2.6.3,1.6.6,2.1.3.4.8.4,1.2.8,1,1,2.8,6,4.1,6.1,1.4.1,1.4-3.1,1.7-3.5.5-.6.6,1.3.7,1.4.1,0,1.2.1,1.4-.1.2-.2.9-2,1.1-2.4.5-1.5,1.7-8.8,2.6-9.4.6-.4,1.1,1,1.5,1,.4,0,1.2-1.6,1.9,0-.7,0-.8.6-.7,1.2.3-.5.5-.5.9-.7h0ZM162.4,191.3c1.3,1.5.7,4.8-.2,6.5-.7,1.2-1.3,1.7-2.8,1.6-.1,0,1.1-2.5,1.2-2.8,0-.4.3-2.6.2-2.9h-.2c-.3,2.6-3,10.2-6.7,7.3-.2-.2-.7-.4-.7-.8.1-.8,3.4-3.7,3-5.2-1.3,1.8-2.4,3.9-4.5,4.8-3,1.3-5.2,0-4.4-3.4.4-1.5,3.7-4,.8-5.3-.5-.2-1.1-.2-1.6-.2.1.5.9.6,1.2.9,1.5,1.6-1.5,5.3-3.4,2.4-.8-1.2-1-3-.3-4.2,0-.1,0-.3,0-.5,0-.2.2-.2.2-.2.7-1.5,1.4-2,2.8-2.8,5.5-3.1,13.5-1.6,15.5,4.9h0ZM146.9,166.1c4.9,3.9,7.8,7.7,10.1,13.6.7,1.8,1.6,4,1.6,5.8-.7-.3-1.5-.7-2.2-.9-2-.5-3.8-.5-5.8-.2-.3,0-1.6.7-1.8.5-.8-4.7-2.6-9.3-6-12.7-.2-.6.4-.8.4-1,.7-2.2,1.3-4.3,2.1-6.5.8.1,1.2,1,1.6,1.4h0ZM156,95.8c.1,0,.1.2,0,.2v-.2ZM144.1,89.7c.2,0-.1.4-.5.2-.2,0,.1-.4.5-.2ZM142.7,89.1c.2,0-.1.4-.5.2-.2,0,.1-.4.5-.2ZM142,88.8c.2,0-.1.4-.5.2-.2,0,.1-.4.5-.2ZM141.3,88.6c.2,0-.1.4-.5.2-.2,0,.1-.4.5-.2ZM140.7,88.4c.2,0-.1.4-.5.2-.2,0,.1-.4.5-.2ZM85.8,90.9c.2-.6.3-1.6,1.2-1.6.4,2.1,1.1,4.5,2,6.5.2.4.5.6.6.7.2,0,.6,0,.7,0,0,0,.1-1.3.7-1.4,0,0,.2-.2.2-.4,0-1.1-.8-1.5-1.1-2.4-.6-1.6-.7-3.7-1.4-5.3,1.4-.8,2.8-1.7,4.3-2.3,11.8-4.6,34.5-1,46.3,3.2.3,0,.6,0,.7.5h-.6v-.2c-.1,0-.6.2-.6.2.2,0,.3,0,.5.2,2.3,2.6,5.4,5.6,6.5,9.1.9,0,1.8.9,2.3,1.6.7.1.5-.3.4-.7-.4-1.8-2.4-4.7-3.6-6.1-.4-.5-1.1-.9-1.4-1.5.5,0,1.2.2,1.5.5.7.6,3.6,4.2,4,5.1.7,1.3.6,1.8.9,3,0,.2.8.3.4,1.1-.5-.5-1.1-.3-1.6-.5,0,0-.4-.4-.8-.6-.8-.5-1.4-1.1-2.3-1.4.2.7.5,2.9,1,3.4.3.4,4.4,1.4,4.6,1.2,0,0,0-.5,0-.6.2-.2.8-.2.9-.3.1-.2,0-2.2,0-2.6-.4-2.8-3-4.8-4.8-6.7l-3-2.4c3,1,5.8,2.4,8.6,3.9.9.5,2,1,2.8,1.7l-2.3-.8,1.2,1.4c1.2,1.1,2.2,2.2,3.8,2.8l-1.3-1.6c4,.9,7.6,4.8,7.6,9-.7.1-2.6-.2-3-.8-.1-.2-1.2-3.3-1.4-3.7-.3-.9,1.6.5,1.8,0-.7-.8-2.1-2.4-2.9-1-.1,0-2.7-2.2-2.2-1,.3.7.8,1.2,1,2.2.3,1.1.3,3.9.8,4.5.4.4,5.2,2.7,6,1.9.1.1-.4,1.3-.5,1.6-.3,1.3-.6,2.5-1.1,3.8,0,.3.1.4-.4.3-5.5-2.8-10.6-5.9-16.5-8-16-5.8-33-6.5-49.6-3.2-2.7.5-5.3,1.2-7.9,1.9-3.5-3.4-4.8-9.4-3.1-14h0ZM78.4,187.6c.8.7,1.4,1.1,1.9,2.1,0,0,.2,0,.2.2,0,.1,0,.3,0,.5,1.5,2.1-1,6-3.5,4.5-.4-.2-1.8-2.1-1.8-2.3,0-.6,1.4-1.4,1.8-1.7.3-.2.6-.6.9-.8-2,0-3.3,1-3.2,3.1.2.7,2.5,2.6,2.6,2.9.8,5.3-5.3,5.4-7.9,1.9-.4-.6-.7-1.3-1-2-.2-.3,0-.6-.6-.5-.5,1.3,2.5,4.1,2.5,4.5,0,.8-1.7,1.3-2.4,1.3-2.6-.3-4.1-3.7-4.3-6,0-.6,0-1.2,0-1.7,0-.3.2-.9-.2-.8-.3,1.2-.7,2.7-.5,3.9,0,.3,1,2.2.9,2.3-1.6.2-2.9-1.3-3.2-2.8-.6-2.5,0-4.5,1.4-6.5,4-5.6,11.1-6.5,16.4-2.1h0ZM79.1,174.4c-2,3.1-3.5,6.3-4.2,10-2.2-.5-4.4-.7-6.7-.2-.4,0-2.3,1-2.5.7,1.3-7.2,5.4-14.3,10.8-19.2.3,0,.3.2.3.2,1.6,1,3.4,4.4,3.7,6.2.1,1-.8,1.5-1.3,2.3h0ZM110.3,221.3c0,.2-.1,1.3-.4,1.3,0-1.1-.4-2-.7-3l-1.4,1.4c-.3-.6-.3-1.3-.5-1.8-.3-1.2-.4-2.4-.9-3.5-.5.4-1.4,1.3-2,.6-.6-.6-1.3-5.4-1.9-6.8-.6-1.5-1.9-3-2.8-4.4-.8-1.3-1.5-4.4-3.5-2.4,0,.3.1.8-.1.9-.6-.3-.9-.5-1.2-1.2-.4-.9-1.7-6.6-1.7-7.6-1.1-2.5-1.9-3.7-3.9-5.6-2.3-2.1-2.6-1.5-3.5-4.9-1.2-4.7-2.2-6.9-3.9-11.3-1-2.6-1.2-5.2-3.1-7.6-1-1.2-2.7-2.3-3.5-3.7-1.1-1.8-1.1-4-1.9-5.7-1.1-2.4-2.3-2.8-3.1-6-.3-1.3-.4-3-.7-4.2-.3-1.3-1.2-3.6-1.7-4.9-1.3-3.2-4.4-6.8-3.2-10.4.7,1.2.9,2.7,1.7,3.9.4.6,1.1,1,1.3,1.5.5,1,.6,3.4.9,4.7.4,1.5,1,3.3,2.2,4.3-.4-1.5-1-2.8-1.4-4.2-.6-2.2-.6-5.1-1.4-7.1-.3-.8-.9-1.2-1.3-2-.6-1.3-.9-4.9-3.1-2-.9,1.2-.4,3-1.2,3.6-.1,0,0,.4-.5.1-1.7-1.3.4-6.3.7-8.1.2-1.4-.2-1.8.5-3.3.5-1.2,1.2-1.9,2.1-2.8-.2.1-.6.1-.9.4-1,.6-2,2.2-2.3,3.3-.1.1-.3,0-.5-.1-.4-.5-.9-1.8-1.1-2.4-2-3-3.1-7.6-2-11.1,1.7-5,13.5-11.5,18.2-13.7,1.5-.7,4.6-2.1,6.1-2.5.5-.1.3.5.3.9.4,4.7,1.4,8.8,4.6,12.4-5,2.8-10.4,4.8-15.4,7.7-2.6,1.5-5,3-7,5.1,7-4.5,15.6-8.7,23.3-12,5.5-2.3,13.7-3.4,19.6-4,10.3-1,20.9-.5,30.9,2.3,2.4.3,6.9,2.1,9.3,3,3.3,1.3,6.8,2.9,9.9,4.6.7.4,2.7,1.4,3.1,1.9.6.6.5,1.6.6,2.3.6,2.7.5,2.7,0,5.3-.2,1.3-.3,3.2-1.4,4.2,0-2.8.9-5.6,0-8.3l-1.1,2.2-1.3,1.5c-.7,0-.3-3.9-.3-4.4-.1-1.1-.7-3-1.7-3.7-1.8-1.2-4.3.2-6-.3-.9-.3-.9-2.9-1.9-3.4v.5c0,1.8.4,3.7-.1,5.5-.5.1-.5-.3-.7-.5-1.4-1.2-5-7.1-6.9-6.6-1.5.4-1.4,3.6-2.7,3.3-.7-.2-2.4-3.5-3.2-4.3-4.1-4.3-13.6-3.9-18.8-1.9-3.3,1.3-6.3,4-10,3.9-1.3,0-3.7-.9-4.8-.2-1.6,1,.2,5.7-.1,7.4-4-3.3-6-9.7-11.8-4.5-1.9,1.7-3.3,4.8-6.1,4.8s-2.2-.4-3.2-.5c-6.4-.4-11.3,4.2-11.9,10.6-.3,3.6,1.3,4.1,2.1,6.8.8,2.7.2,5.2,1.5,7.9,1.1,2.2,3.2,3.6,4.2,6,1.3,3.3.7,8.7,2.7,11.2,1.5,1.9,3.8,3.1,4.8,5.4,1.8,3.9.4,8.2,2.7,12.1,1.2,2,3.1,3.5,4.2,5.5,1.1,1.9,1.4,4.2,2.4,6.1,1,1.9,2.8,3.1,3.8,5,1.1,2.1,1.4,4.5,2.7,6.5,1.5,2.3,3.7,3.5,5.2,5.4,1.8,2.3,1.1,4.5,2,7,1.1,3.3,4.3,4.1,4.1,8.4h0ZM124.2,217c-.5.1-.4,0-.5-.3-.4-.7-.7-1.5-1.3-2.2-.1-.2,0-.4-.5-.3l-3.6,13c-.2.3-.2.3-.5,0-.1-.2-1.7-4.4-2.4-3.7-.4,1.6-.2,3.7-.7,5.2-.1.3.1.4-.5.3-.8-1.8-2.9-3.9-3.3-5.8-.3-1.4,0-2.8-.2-4.2-.4-2.7-3.2-4.1-4-6.4-.5-1.4-.4-2.8-.6-4.2-.7-3.9-4.6-5.2-6.5-8.5-1.1-1.9-1.4-4.1-2.4-5.9-1.4-2.6-3.6-3.9-4.8-6.8-1.8-4.5-2-4.9-5-8.8-3.2-4.2-1.9-5.5-2.3-10.3-.5-5.5-4.6-5.9-6.7-9.6-1.8-3.2-.5-7.6-2.4-11.3-2.1-3.9-3.4-3.3-4.3-8.6-.2-1.4-.2-2.8-.6-4.1-.8-2.6-2.4-3.5-2.1-6.6.4-4.8,4.2-9.2,9.1-9.4,2.2,0,4.6,1.1,6.8.3,3.1-1.1,6-8.5,9.9-5.8.6.4,1.7,1.7,2.3,2.3,1.3,1.4,2.4,3.9,4.7,3.5.4-1,.6-1.6.5-2.8,0-.8-1.3-4.2-.5-4.8,2.3-.2,4.3.8,6.7.1,0,0-.4.6-.5.7.6,0,1-.5,1.5-.6.4-.1.9,0,1.3,0,.2,0,0-.4.5-.5,1.2-.2,1,.4,1.2.5.3,0,.6,0,.8,0,.5.2,1.1.3,1.5.7.2.2.1.4.2.5.7.8,1.3,1.2,1.6,2.3,1.1,3.9-2.8,6.8-6.4,5.8-3.6-1-4.5-5.4-2.1-8.1,0,0,0-.3,0-.5,0,0-.4,0-.6.2-.9,1-1.3,1.9-1.3,3.2-.2,7.3,9.4,8.1,11.3,1.4,0-2.3-.6-4-2.5-5.3-1.2-.8-2.5-1.1-3.9-1.3,5.6-3.8,13.8-5.2,20.1-2.5,3,1.2,3.1,3,4.9,5.1,3.5,4.1,3.9-2.1,4.5-2.2,2.3,1.3,3.5,3.9,5.2,5.7,2.3,2.4,3.6,2,3.5-1.5,3,.4,6.7-1.9,7.3,2.5.1.7.2,2.9-.2,3.3-.3.3-.6.2-.9.5.5,0,.8.1,1.2.5,2.2,2.2-1.9,4.5-2.1.7h-.2c-.2,2.3.9,3.2,3,2.1.5-1.6.8-1.5,2.3-2.1l-.3,2.4c-4,13.2-10.1,25.6-14.7,38.5-2.3,6.4-4.6,13-5.5,19.8-.4,0-.2-.5-.2-.8,0-1.1,0-2.2,0-3.2-.3-3.5-1.3-4.4,0-8.2.1-.3.5-.7.5-1,0-.2-.4-.1-.5-.1,0,0-1,1.8-1.1,2-.3.9-.3,1.6-.3,2.6,0,.5.2,1.2.2,1.9.3,3.2.5,5.7.5,8.9,0,1.6,0,3.8,0,5.3-.3,5.4-5.6,1.9-3.2-1.3-.2,0-1.7.5-1.9.5-1.9-.1-2.2-5.1-2.1-6.5-.7,1.3-.6,3.2-.2,4.6.3,1,.7,1.7,1.6,2.3.3.2.8.2.9.3.1.1.2,1,.3,1.4.1.4.8,1.4.8,1.4,0,.2-.5,1-.6,1.4-1.4,4.2-2.6,8.5-4.2,12.6-.2.2-1.2-1.5-1.2-1.8l-.6.6-3.5,11.4h0ZM125.2,216.3c0-.6,1.7-5,2.1-6,.1-.3.4-.5.4-.6.2-.5.2-1.2.4-1.8.4-.9,1.1.7,1.5,1.1.6.6,3,2.3,3.3,2.8.3.6-.8,1.1-1.1,1.4-1.3,1.4-3.3,3.7-5.1,4.3-.6.2-1.6-.6-1.6-1.1h0Z"/>
        <path class="st10" d="M129.5,218.6c.1.2.3.4.5.7,0,0,0-.6,0-.7-.1,0-.3,0-.5,0Z"/>
        <path class="st10" d="M129.1,218.2c.1.1-.3.4.5.5-.2-.2-.4-.4-.5-.5Z"/>
        <path class="st10" d="M135.3,212.2c0-.1.1-.3-.2-.5,0,0-.1,0-.2,0,0,.2.4.4.5.5h0Z"/>
        <path class="st10" d="M135.7,212.5c-.1-.3-.4-.3-.4-.4.4.9,0,1.3.7,2.3-.2-.6-.1-1.4-.3-1.9h0Z"/>
        <path class="st10" d="M132.1,216.8c.3,0,.7-.4,1.2,0,.4.3,1.4,2.6,2.5,2.6.4-.4-2.8-2.7-2.8-3.1,0-.3.9-.5.9-.6.2-.3-.2-1.3,1.2-.7-.3-.7-.2-1.8-1-2.3.8,1.6.3,2.8-.9.9.2.6.6.9.2,1.6-.3.6-.6-.6-1-.7.5,1.1,0,1.5-.2,2.3h0Z"/>
        <path class="st10" d="M132.3,214.5v-.2c0,0-.2.1-.2.2,0,0,.2,0,.2,0Z"/>
        <path class="st10" d="M136.3,214.7c0,0-.1-.1-.2-.1,0,0,.1,0,.2.1Z"/>
        <path class="st10" d="M136.5,214.9c0,0-.2-.1-.2-.2,0,0,.2.1.2.2Z"/>
        <path class="st10" d="M135.3,215.2c0,0-.2-.2-.2-.2,0,0,.1.2.2.2Z"/>
        <path class="st10" d="M136.9,215.4c0,0-.1-.2-.2-.2,0,0,.2.1.2.2Z"/>
        <path class="st10" d="M135.6,215.4c0,0,.1.2.2.2,0,0-.2-.1-.2-.2Z"/>
        <path class="st10" d="M131.4,216.2c.4,1.7-.6,1.6-1.3.3.7,1.2,0,1.3-.1,2.1.2,0,1.1-.2,1.2-.2.1-.2-.3-1.1.9-.7,0-.2,0-.7,0-.9-.4,0-.6-1.6-1.2-1.2-.4.4.4.5.5.6Z"/>
        <path class="st10" d="M134.2,215.9s0-.3-.2-.2c0,.3.2.2.2.2Z"/>
        <path class="st10" d="M134.6,216.3c0,0-.1-.2-.2-.2,0,0,.2.1.2.2Z"/>
        <path class="st10" d="M138.1,216.6c-.1,0-.2-.2-.5-.5.2.2.3.3.5.5Z"/>
        <path class="st10" d="M134.6,216.3s0,.3,0,.4c0,.1.4,0,.4,0-.2-.2-.3-.3-.5-.5h0Z"/>
        <path class="st10" d="M136.7,216.6c.5.5.5.6,1.2,1.2-.5-.5-.5-.6-1.2-1.2Z"/>
        <path class="st10" d="M135.3,217.3c0,0,0-.3-.2-.5,0,0,0,.3.2.5Z"/>
        <path class="st10" d="M128.6,217.5v-.2c0,0-.2.1-.2.2,0,0,.2,0,.2,0Z"/>
        <path class="st10" d="M133.9,222.1c-.3-.3-.3-.3-.7-.7.3.9.4.4.7.7Z"/>
        <path class="st10" d="M133.2,221.4c0-.1,0-.4-.1-.7-.2-.3-.5-.5-.8-.7,0,.2,0,.4.1.7.2.3.6.5.8.7Z"/>
        <path class="st10" d="M131.9,220c.1.1.4,0,.4,0-.2-.8-.4-.3-.5-.5,0,0,0,.3,0,.4h0Z"/>
        <path class="st10" d="M128.6,217.5c-.2.8.4.6.5.7-.1-.2,0-.5-.5-.7Z"/>
        <path class="st10" d="M130.2,219.6c.4.6.6.6.7.7,0,0,0-.3-.2-.6-.1-.1-.4,0-.5-.1h0Z"/>
        <path class="st10" d="M132.1,217.7c0,.3.2.3.2.5,0,0,0-.4-.2-.5Z"/>
        <path class="st10" d="M138.1,217.9c0,0-.2-.2-.2-.2,0,0,.1.1.2.2Z"/>
        <path class="st10" d="M131.6,219.1c0,0,0,.3.2.5,0,0,0-.3-.2-.5Z"/>
        <path class="st10" d="M138.6,218.2c0,0-.4-.2-.5-.2.2.2.4.2.5.2Z"/>
        <path class="st10" d="M166.1,219.3c.3.2.7,1.5.7,2s-.6,2.5-.7,2.7c0,0,.3-.2.4-.4.5-1.1.9-2.9.1-4-.2-.3-.5-.3-.5-.3h0Z"/>
        <path class="st10" d="M165.6,223.8c.4-1,.2-2.3-1-2.4-2.3-.2-6.9,3.9-8.9,5.2-.4.3-4.2,2.6-4.4,2.4,0-1.4,0-3.1.9-4.3.6-.9,2.8-2.2,3.8-2.8-1,.7-3.6,1.9-4.9,2.5-.2.1-.4.3-.7.2,0-3.2,1.5-5.6,4.4-6.8.6-.3.9-.2,1.4-.3,2.5-.6,6.2-1.5,8.1.7-3.1-.1-5.6,1.8-8.2,3.2-.2.1-.1.4-.2.5,1.6-1,4.5-2.7,6.3-3.1,1.2-.2,2.9-.2,3.9.5-.5-.5-1.1-1.3-1.7-1.8-3.2-2.5-6.5,0-9.5-.5-.7-.1-1-.7-1.5-.8-.5-.1-.7.1-1,.1s-.1-.4-.4-.5c-.5-.2-2.5-.7-3.1-.8-1.7-.3-3.8-.4-5.5-.5-.7,0-.3-.4-.1-.7-.4.4-.4.8-.9.7.5-4.6,6.2-1.1,8.9-3.2l-.3.7c1-.6,2.1-1.7,2-3-.8.3-1.4,1.9-2.1,2.3-2,1.1-4.7-.3-7,.6-1.7.6-1,1.5-1.8,2.2-.5.5-2.1.6-2.2,1.6.8-.2.8-1,2.2-.9,1.7.1,0,1.7-.5,1.8-.5.1-1.1-.3-1.7-.2,0-.2,0-.5,0-.7-.9.3-1.5-.4-2.1-1.2,0,0,0,.4.2.6.6.7,1.3.6,1.2,1.8,0,.2-.3.1-.5.1.5.5.9.6.7,1.4-.2-.1-.5-.1-.7-.2,0,0,0,.3,0,.4.4.5.9.1.4,1.4,0,.2,0,.5-.4.3-.4-.2-1.8-1.9-2.3-2.3-.2-.2-.5-.2-.6-.2,0,0,0,.4.2.6.6.7,2.8,2.2,2.4,3.1-.4,1-1.2-.9-1.7-1.1,0,.9,1.2,1,1.2,1.9,0,.2-.7,1.5-.7,1.5,0,0-.5-.2-.7-.2,0,0-.2.2-.4.2-1,0-1.3-.7-1.9-1.4.1.2,0,.9.5,1.2-2,.1-2.2-1.5-3.1-2.8-.2-.2-.5-.4-.6-.5,0,0,0,.4.1.7.5.8,1,1.6,1.5,2.3-1.9.5-2-1.5-3.2-2.3,0,.8.9,1.2,1.2,2,.2.4-.3.4-.6.3-.2,0-1.4-1.9-1.9-2.3-.4-.4-1-.6-1.2-.8-.2-.2-.6-1.4-.8-1.8-.4.2-.6.2-.9.7,0,.2.2.2.2.2.3.3,1,.8,1.4,1.2.2.3.6.7.9,1,.3.3,1.5,2,1.4,2.2-2,.5-2.8,2.8-2.8,4.6.8.1.6-1.1,1-1.7.1-.3.9-1.2,1.1-1.5-.2,0-.5,0-.5-.1,1.9-3.1,9.8.1,11.4-1,.2-.1.1-.4.1-.5-.1.1-1.8.6-2.1.3.4-.8,1-1.5,1.4-2.3.4-.9.4-2.5,1.6-2.2.1.1-.2,2.7-.3,3.1,0,0-.6,1.1-.6,1.1,0,0,.4,0,.6-.2,0,0,.6-1.4.6-1.5v-4c.5,0,.4,0,.5.3.2,1.6.5,5.2-1.1,6.1-1.4.8-7.5-.2-9.7,0-.8,0-1.5.3-2,.9.6,0,1.3-.5,1.4-.5,0,0,1,2.2.9,2.3,0,0-.7,0-1,.5-.6.7-.4,2.7.6,2.8-.3-1.2-1.1-2,.3-3,.7,0-.4.8.7.9.3,0,2.1-.5,2.4-.6.4-.2.3-.5.3-.5-.9.4-1.6-1.9-1.8-2.5,1.1-.6,2.9,2.1,1.8,2.5.5-.3,1-.3,1.7-.9.3-.3.9-1.1,1-1.2.7-.2,1.6.2,2.3.1.3,0,.8-.5,1.3-.3-1.1.9-.2,1.6-.5,2.6-.1.4-.8.8-.9,1.3l-4.3,2.8c-1.2-.4-3.2,0-4-.9v-.2h-.2c.5,2.2.9,2.8,1.6,4.1-.3-.9-.6-2.1-.7-2.7,0,0-.3-.2-.2-.5.5-.4,3.8.9,4.6.9-.1-.2-.5-.5-.4-.7l4.9-3.7c.4-.6-.2-1.3,0-1.9.1-.5,1.4-1.3,1.7-1.8s0-.6.1-.7c-.1,0-.3,0-.5,0,.3-1.3.2-2.6.2-3.9v-.5l-.5-1.4c0,0-.4,0-.5,0-.3.3-.2,1.3-.2,1.4,0,0-.9,0-.9,0-.1,0,0-1.6.2-1.9.5-.6,1.9,0,2.5,0-.3.5-.2.9-.2,1.4.7,0,.7-.4.9-.9-.1,0-.3.3-.5.2-.1-.2.2-1.9.7-2.1,0,.6,0,1.3-.2,1.8.9-.1.8,0,.5.7.4.2,1.4-.6,1.6-.5,0,0-.4.8.1.9.5,0,.5-.4.6-.7-.2,0-.6.6-.5-.1,0-.4.6-2.9.8-2.9.8,0-.2,2.6-.3,3,.2,0,.5,0,.7,0v.9l1.4-.7.3.9c.3-.2.3-.5.3-.7-.2,0-.3.3-.5.1.3-.3.3-3.8,1.2-3.1.4.3-.5,2.5-.7,3,.3,0,.6,0,.9,0l-.2.9,1.2-.5c.1.1-.3,1.5.7.8.3-.2.2-.8.2-.8,0,.1-.3.5-.5.5v-.6s.8-2.7.8-2.7c.6.4,0,2.2-.3,2.8,0,0,1.1-.2.9.3-1.4,1.6-2.7,1-4.4.8-.9,0-1.9,0-2.8-.2-.3-.1-.6.2-.7.2-.7,1.3-1.8,1.9-2.5,3.2,1.8-.2,2.3-4.2,4.6-2.9-1.5,1.8-3.4,3.2-5.2,4.7-.4,1.5.4,2.9-.9,4.1-.7.6-2.7,1.6-3.3,2.2-.1.1,0,.3,0,.4.3,0,.6-.2.9-.4.8-1,3.7-2.2,3.8-3.4.2-2.1-1-1.8,1-3.8,1.1-.2,3.6-3.9,4.3-3.9l3.5.6-.8,4.3c-4.1,2.7-8.5,5-12.8,7.5-.6-.4-.1-.5.1-.9-.3,0-1.1.2-1.4.2.3.5.7.8.5,1.2-.6.8-2.4,1.4-2.9,2.5-.2,0-.4-.1-.6-.2.6,1-.3,2.6,1.2,3.8,1.3,1.1,2.8.9,4.3.4,7.5-4.2,15.6-7.1,23-11.5,2.1-1.3,3.8-2.2,5.1-4.3,0,0-.7.2-.9.2,0-.4.3-.1.4-.4h0ZM132.8,227.4c-.1.1-.8,0-.9-.4,0-.5-1.3-2.5-1.2-2.6.7-.6,2.2,2.9,2.1,3ZM133.9,224.8h2.1c-.7,1.5-1.4,1.8-2.1,0ZM144.1,215.6c-1.2.1,0-1.4,1.2-.9-.2.4-.8.5-1.2.9.2,0,1.4-.5,1.4.1,0,.8-3.1,1.9-1.4-.1ZM147.7,217c-2.1,1.1-1.4-1.3.6-.9,0,.4-.3.7-.6.9ZM149.2,217.7c-.2-.8,1.3-1.2,1.6-.9.5.5-1,1.5-1.6.9ZM137.2,239.5h-.7v-.7c.2.2.7.2.7.2,0,0,0,.3,0,.5h0ZM137.2,238.1v.5h-.7v-.5h.7ZM136.5,237.8v-.2l1.4-.2v.5h-1.4ZM137.4,238.8v-.7l1.6.2c.2.9-1.1.3-1.6.5h0ZM138.1,238.1v-.5h.9v.5h-.9ZM138.8,237.3c-.3,0-.8-.3-.5-.6.2-.2,1.8.4,2.3.2.3.7-1.5.4-1.8.4h0ZM139.3,236.3c.4-.6.7-.2.5.1,0,0-.5,0-.5-.1ZM140.2,236.7v-.7h.5v.7h-.5ZM141.6,237.6h-.7v-.5h.7v.5ZM141.6,236.9c-.4-.2-.8-.1-.7-.7h.7v.7ZM146.6,233.4c-.8-.3,0-1.1.3-.7,0,0,.1.9-.3.7ZM147.1,233.4l.2-.9-.9-.2,1.4-.2c0,.8.4,1.6-.7,1.4h0ZM151.1,229.2l-15.6,8.3c-.4.2-.8.6-.9,1.1-.7-.9-1.8-1.6-.9-2.7,1.6-1.9,7.7-4.5,10.1-5.9,2.5-1.4,4.8-2.9,7.1-4.4.8-.5.8-.6.1.1v3.5h0ZM153,230.4c-.4-.3-.4-.5-.3-.9h.5v.9ZM153.4,228.8h.7v.5h-.7v-.5ZM154.1,230.2h-.5v-.7c.3,0,.5.4.5.7Z"/>
        <path class="st10" d="M132.6,235.5c-.3-.5-.5-.9-.7-1.2.2.5.4,1,.7,1.2Z"/>
        <path class="st10" d="M132.3,218.2c.7,1.7,2.9,3.9,4.2,5.3,0-.7-.6-1.2-.9-1.7-.9-1.2-2.1-2.8-3.2-3.6h0Z"/>
        <path class="st10" d="M131.6,219.1c-.1-.1,0-.7-.5-.7-.2.9.4.6.5.7Z"/>
        <path class="st11" d="M105.7,235.6c.5-.2,2.5-.7,2.6-.8.3-.4,0-.9-.7-.5l-.3-2.5c-1.1.7-9,1.9-9.4,2.3-.2.2.6,1.6-.2,2.7-.5.6-1.7.9-2.1.1l1.6-.3c-.3-.1-.6-.2-.9-.3-.2,0-.2,0-.5-.2,0,0-.2-.2-.2-.2,0,0-.2-.1-.2-.2-2.3-2.9.3-5.6-.3-8.4,0-.3-.7-1.5-.9-1.5-.1,0-1.4-.3-1.3.2.3,0,1.2.1,1.3.3s0,.5,0,.6c0,0,0,0,0,0,.5,1.9,0,2.1-.2,3.5,0,0,0,.1,0,.1-.2,1.7-.3,3.2.2,4.9-2.1.4-4.4,1.9-6.4,2.3-1.3.2-2.7,0-4,.5,0,0-.2,0-.2,0,0,0-.2.1-.5.2,0,0-.2,0-.2,0,0,0-.2.1-.5.2,0,0-.2,0-.2,0,0,0-.2.1-.5.2,0,0-.2,0-.2,0,0,0-.2.1-.5.2,0,0-.2,0-.2,0-1.8,1.3-4.4,1-6.3,2.1,0,.7-.2.4,0,1.4.6.1.4,1,.5,1.1.2.2,2.3-.3,2.8.2,3.3-.4,6.3-1.2,9.5-2.1-.1-.6.3-.5.7-.6.9-.3,3-.3,2.7-1.5l1,.7c4.5-1.3,9-2.5,13.4-4.2,0-.6.3-.4.7-.6h0ZM88.6,238.1c0,.2-.4-.1-.2-.5,0-.2.4.1.2.5ZM88.9,238.3v-.2c.1,0,.1.2,0,.2ZM90.3,239.5l-1-1h.1c0-.1,1,.9,1,.9h-.1ZM94.8,236.9c-.2,0,.1-.4.5-.2.2,0-.1.4-.5.2Z"/>
        <path class="st11" d="M93.8,229.5c-1.4.2-3.1-.6-4,.8.6,0,4,.3,4.2.1,0,0,0,0,0-.1,0-.3,0-.8-.2-.8Z"/>
        <path class="st10" d="M86.8,224.2c-1.2-.3-1.6,0-2.1.9.8-.5,2.2-.7,3-.1.2.2.8,1.7,1.2,1.3.3-.3-1.5-1.9-2-2h0Z"/>
        <path class="st10" d="M104.5,217.3c-.3.7-.5,1.2-.7,2-.2,1.2,0,3.7-.3,4.6,0,.3-.3.4-.7.4.1-.8.3-1.6.2-2.4,0-.3-.2-.7-.5-.3-.2,1,.5,2.8-.5,3.5v-4c0-.6.4-1.9.7-2.5-.2-.4-.6.7-.6.8-.4,1.4-.2,5.7-.4,6s-1,.3-1.1.3c0-1.9.3-3.9.6-5.8,0-.2.3-.7-.1-.7-.6,2.2-.8,4.4-.7,6.7-.2,0-.9,0-.9,0-.3-.2.7-6.7.9-6.9.1-.1,1.3,0,1.6,0-.3-.5-.2-.9-.2-1.4-.2,0-.8.2-.9.2-.2,0-.2.6-.8.7-.6,0-1.4-.3-2.2-.2.2.1.3.3.7.3-.7.8-1.3,6.8-1.6,7-.2.2-1.2,0-1.1-.5,0-.7,1-3.3,1.2-4.3.2-.8.4-1.7.3-2.5.1,0,.3,0,.5,0-.5-.3-.5-.5-1.4-.5.2.2.7.5.7.8l-1.6,6.6h-1.1l1.6-7.4c.1,0,.3,0,.4,0-.3-.2-.4-.6-.9-.5,0,.3.2.4.2.7-.2,2.1-1.6,4.6-1.6,6.9-.8.1-1-.3-.9-1,0-1.5,1.8-4.1,1.6-5.9-.3,0-.3.4-.4.6-.4,1.1-1.2,4.6-1.7,5.2-.2.3-.6.1-.9.1.7-1.6,1.6-3.2,2.1-4.9.3-1,.4-2.1.9-3.1l-.5-.3c.1,0,.3,0,.5,0v-.5c-1,0-.7.7-.9,1.2.4.4,0,1.3-.2,1.8-.4,1.4-.9,2.7-1.7,4,0,0-.3.2-.4.4-.2.3-.2,1-.6,1.3-.6.5-2,0-2,1.4-1-.9-2.1-1.8-3.6-1.6-1.7.1-1.6,1.5-2.7,1.9-.6.3-2.1.4-2.2-.4,0-.4,1.5-2.4.2-2.4-.2.9-.9,1.8-.9,2.7,0,.4.4.3.4.5,0,.2-.3.5.1,1,.8.9,2.4.4,3.2-.3.3-.2.3-.6.4-.7-1,0-2.1,1.5-3,.2,1.3.8,3.2-2,3.6-2.1,1.5-.3,3.4.4,4.2,1.7.7,1-.1.7-.2.8-.6.5-1.5,2.1-2.1,2.8.1,0,1.3,0,1.6,0v.5c.2,0,.6,0,.7,0,0,0-.2-.5-.1-.7.2-.4.8-.3,1-.5.2-.2,0-.8.3-1,.2-.2.7-.2.8-.3.1-.2,0-.5,0-.7,0,0,0-.2,0-.2-.1.1-1.3.3-1.4.2-.6-2.2,1.2-2.9,3-2.2.6.2.2.3,0,.4-.6.4-.9.7-1.1,1,.6-.5,1.6-.9,2.1-.6.2,1-1.8,0-1.1,1.1,0,0,.6,0,.4.4-.1.3-.6.3-.7.3-.1,0-.3.3-.5.5-.1.1-.3.3-.5.5-2.4,2.5-4.4,5.4-7,7.8-.3.1-1.3,0-1.4-.4.4-.1,1.2-.2,1.5-.5.5-.6-.8-.4-.4-.9,0,0,1.3-.2,1.4-.2.1-.1-.3-.6-.1-.9.4-.6,1.8.1,1.1-1.4.3,0,1.3-.2,1.4-.3.2-.2-.3-1.1.5-1.4l-1.7.2c0-.1,0-.7.1-.7-.7.8-1.5,1.8-2.1,2.5l1.4.5h-1.9c-.5.5-1.3,1.4-1.8,1.8-.5.4-1.3.4-1.5,1.4,2-.2,2.6.7,4.2,1.4,0,0-.4-.9-.4-.9l4.3-4.8c1.5-.2,3-.4,4.6-.3-.3,1.3-.3,2.7,0,3.9-.3,0-.6,0-.9.1-1.6.6-5,2.1-6.5,2.3-.4,0-.4,0-.7-.1.2.6-.7.5-1.2.7-.3.1-.5.4-.6.4,1.3-.5,2.7-.3,4-.5,2-.3,4.4-1.9,6.4-2.3-.6-1.7-.4-3.1-.2-4.9-.1.1-3.6,0-4.2-.1.9-1.4,2.6-.6,4-.8.2,0,.2.5.2.8.2-1.4.7-1.6.2-3.5,0,.3,0,2.2,0,2.2-.3.3-2.7.3-3.2.3.3-.5,1.8-2.5,2.1-2.7.3-.2,1.1,0,1.2.1,0-.2.1-.5,0-.6-.1-.1-1.1-.2-1.3-.3,0-.4,1.2-.3,1.3-.2.1,0,.8,1.3.9,1.5.7,2.7-1.9,5.4.3,8.4,0-.2,0-.5,0-.7l1.8-.5-.2,1.8c-.2,0-.5,0-.7,0,.3.2.6.2.9.3l-1.6.3c.3.8,1.6.5,2.1-.1.8-1,0-2.5.2-2.7.4-.4,8.2-1.6,9.4-2.3l.3,2.5c.6-.5,1,0,.7.5,0,.1-2,.6-2.6.8-.3.1-.8,0-.7.6,2.5-.9,4.2-.5,3.5-3.7,0,.4,0,1.2-.5,1.4,0-.7-.7-1.7.2-2.1-.1.3.2.6.2.7-.2-1.1-.9-1.7-.9-1.8-.4-1.8-.1-1.5-.9-3.3.1.1.8,3.5.7,3.7-.9.4-1.8.4-2.8.5,0,0-.5.6-.4-.1,0-.6.9-3.8,1.1-4.3,0,0-.3.1-.4.4-.3.5-.3,1.4-.9,1.7-.3.1-3.1.7-3.4.8-.3,0-1.4-.4-1.5-.5.2.2,0,.8.8.9,1,.1,2.6-.6,3.7-.7.5,0,.7-.1.6.5-1.3,0-4.3,1.5-5.3,1,0,0-.6-.5-.7-.6.2.3-.1,1.1,1.1,1.2.7,0,4.5-1.4,4.7-1.1.3.3-.3,1.6-.6,1.6-.3,0-.6-.2-1-.1-1.3.3-2.7.7-4,1.1-.5-1.9-.9,0-1.3.3,0,0-2,.7-2.1.6.1-.7-.2-2.7.1-3.2.4-.5,2.9-.6,3.1-.2,0,0,0-.3,0-.4-.5-.5-2,.1-2.7,0,0-.2,0-.6,0-.7.2-.2,3.3-.4,3.7,0,0-.1.1-.6-.1-.7-.5-.1-3.3.6-3.6.2,0-.6,0-1.3,0-1.9,0,0,0-.2,0-.2,0-.3-1.2-1.6-1.2-1.6,2.9.4,6.4,1.6,8.9-.5.5-.4.6-1.4,1.7-.8.4.2.9,2,.9,2.4,0,.3-.3.5-.4.8,0,0,.7-.5.7-.5,0,0,0,.4,0,.5.1.1.7.2.7.2-.2-.4-.4-.8-.6-1.2-.5-1.3-.1-2.9-2.2-2.8.4-1.6.2-3.2.5-4.9,0-.4,0-1,.6-.9-.1,0,.3-.4-.5-.5h0ZM99.2,225.6h-1.6c-.3-.3,1.1-6.7,1.4-7,.2-.3,1,0,1.4-.1l-1.2,7.2h0Z"/>
        <path class="st10" d="M93.9,230.4s0,0,0-.1c0,0,0,0,0,.1Z"/>
        <path class="st9" d="M86.3,237.1c1.5-.2,4.8-1.8,6.5-2.3.3-.1.6-.1.9-.1-.4-1.3-.3-2.6,0-3.9-1.5,0-3.1,0-4.6.3l-4.3,4.8c0,0,.3.9.4.9.2,0,.4,0,.5.2.3.1.3.2.7.1h0ZM92.5,234.4h-3.1s-1.5.6-1.5.6c1.2-1.3,3-1.1,4.6-.6h0Z"/>
        <path class="st11" d="M142.3,214.5c.6,0,.5-.3.9-.7.1-.1.4,0,.7-.5,0,0-.2-.1-.1-.2.6-.8,4-.7,5-.2.9-.2,1.4-.5,2.1-.9l.3-.7c-2.7,2.1-8.4-1.4-8.9,3.2h0Z"/>
        <path class="st12" d="M129.1,218.2c0,0,.3.2.5.5.1,0,.3,0,.5,0,.2-.7.8-.9.1-2.1.7,1.3,1.6,1.4,1.3-.3,0-.1-.9-.2-.5-.6-.5.5-1.6,1-2.3,1.6v.2c.5.1.3.5.5.7h0Z"/>
        <path class="st12" d="M132.1,216.8c.2-.8.7-1.2.2-2.3,0,0-.2,0-.2,0-1,0-1,1-1.2,1.2.5-.4.7,1.1,1.2,1.2h0Z"/>
        <path class="st12" d="M137,214.2c-.3-.3-.7-2-.9-2.5-.2-.5,0-.6-.8-.5l-.2.5c.3.1.2.4.2.5,0,0,.3,0,.4.4.2.5,0,1.4.3,1.9-.7-1-.3-1.4-.7-2.3,0,0-.4-.2-.5-.5-1.2,0-.7.6-1,.9-.5.5-1.1.6-1.6,1.7v.2c.4.1.7,1.3,1,.7.4-.7,0-1-.2-1.6,1.2,1.9,1.7.7.9-.9.9.5.7,1.6,1,2.3,0,0,.2.1.2.2,0,0-.2-.2-.2-.2-1.4-.6-.9.4-1.2.7.3,0,.2.2.2.2,0,0-.3,0-.2-.2,0,0-.9.3-.9.6,0,.5,3.2,2.7,2.8,3.1-1.1,0-2.1-2.3-2.5-2.6-.5-.3-1,0-1.2,0,0,.2,0,.7,0,.9.2,0,.2.4.2.5,1.1.8,2.3,2.4,3.2,3.6.4.5,1,1,.9,1.7.2,0,.6.3.7.2,0,0,.7-1.3.7-1.5,0-.9-1.1-1.1-1.2-1.9.4.2,1.2,2.1,1.7,1.1.4-.9-1.8-2.3-2.4-3.1-.2-.2-.2-.5-.2-.6,0,0,.4,0,.6.2.5.4,1.9,2.2,2.3,2.3.4.2.3-.2.4-.3.5-1.2,0-.9-.4-1.4-.1-.1,0-.4,0-.4,0,0-.3,0-.5-.2,0,0-.2-.2-.2-.2-.6-.6-.6-.6-1.2-1.2.6.6.6.6,1.2,1.2,0,0,.1.2.2.2,0,0,.4.2.5.2.2,0,.5.1.7.2.2-.8-.2-.9-.7-1.4.1,0,.5,0,.5-.1.1-1.3-.6-1.2-1.2-1.8-.2-.2-.2-.5-.2-.6,0,0-.2-.2-.2-.2,0,0-.3,0-.4,0h0ZM136.3,214.7c0,0,.2.1.2.2,0,0-.2-.1-.2-.2,0,0-.1-.1-.2-.1,0,0,.1,0,.2.1ZM135.1,216.8s-.3,0-.4,0c-.1-.1,0-.4,0-.4,0,0-.2-.1-.2-.2,0,0,.2.1.2.2.1.1.3.2.5.5.1.2.2.4.2.5-.2-.1-.2-.4-.2-.5h0ZM135.6,215.4c0,0,.2.1.2.2,0,0-.1-.2-.2-.2ZM136.7,215.2c0,0,.1.2.2.2,0,0-.2-.1-.2-.2ZM138.1,216.6c-.1-.1-.3-.2-.5-.5.3.2.4.4.5.5Z"/>
        <path class="st12" d="M132.1,217.7c-1.3-.4-.8.5-.9.7.4,0,.4.6.5.7.1.2.2.4.2.5,0,.1.3-.3.5.5.3.2.6.4.8.7.1.3,0,.5.1.7.4.4.4.4.7.7-.3-.3-.4.2-.7-.7-.3-.2-.6-.4-.8-.7-.1-.3,0-.5-.1-.7,0,0-.3,0-.4,0-.1-.1,0-.4,0-.4-.1-.2-.2-.4-.2-.5,0,0-.7.2-.5-.7,0,0-.9.2-1.2.2,0,.1,0,.6,0,.7-.2-.3-.3-.5-.5-.7-.8,0-.3-.3-.5-.5s-.7.1-.5-.7c0,0-.2,0-.2,0-.8,0-1,.6-1.2.7l1.7,2.5c-.7-.9-1.9-1.2-2-2.5-.2,0-.6,0-.9.2.1.4.6,1.6.8,1.8.2.2.8.3,1.2.8.4.4,1.7,2.2,1.9,2.3.2.1.7,0,.6-.3-.3-.7-1.2-1.2-1.2-2,1.3.9,1.3,2.8,3.2,2.3-.5-.8-1-1.6-1.5-2.3-.1-.2,0-.6-.1-.7,0,0-.3-.1-.7-.7,0,0,.3,0,.5.1.2.2.2.5.2.6,0,.1.4.2.6.5,1,1.3,1.2,2.9,3.1,2.8-.4-.3-.4-1-.5-1.2.6.6,1,1.3,1.9,1.4.2,0,.3-.2.4-.2-1.2-1.4-3.5-3.6-4.2-5.3,0-.1-.2-.2-.2-.5h0Z"/>
        <path class="st11" d="M89.1,225.5c-.9-1.3-2.7-2.1-4.2-1.7-.4,0-2.3,2.8-3.6,2.1.9,1.3,2-.3,3-.2,0,0,0,.2.5-.5.5-.9.9-1.2,2.1-.9.5.1,2.3,1.7,2,2,0,0,.9.2.2-.8h0Z"/>
        <path class="st17" d="M94.1,216.1c-.7,1.8-1.5,3.9-1.9,5.8.8-1.3,1.2-2.5,1.7-4,.1-.5.6-1.4.2-1.8Z"/>
        <path class="st10" d="M143.8,213.1c0,0,.1.2.1.2.7-.1,1.5-.4,2.2-.5.8,0,1.6.2,2.7,0-.9-.5-4.4-.5-5,.2h0Z"/>
        <path class="st17" d="M126.8,220.5c-.3-.4-1-.9-1.4-1.2-.1.9.6,1.2,1.4,1.2Z"/>
        <path class="st10" d="M136.1,211.7c.2.5.7,2.2.9,2.5.1.1.4,0,.4,0,0-.5-.5-.8-.7-1.3-.3-.7,0-1.7-.9-2.1-.3-.1-.4.1-.4.1v.2c.8,0,.6,0,.8.5h0Z"/>
        <path class="st13" d="M95.1,117c.2,2.6-2.7,4.6-4.5,2.1,0-.1-.6-1.1-.6-1.1-2.3.9-3.4,3.7-5.5,4.8-3.5,1.7-12.4.7-10.9,7.3.5-4.4,6.2-6.5,9.5-3.6l1.6,2c2.3-5.7,8.3-6.3,13.5-4.3,3.1,1.2,5.4,3.4,8.3,4.7.7.3,1.9.4,2.5.8.6.1.6-.8,1.2-.9-1.1-.9.1-2.1.9-1.3.3.3.2,1,.3,1.1.1.1.7,0,.9,0,1.4.3,2.4.6,3.2,1.9.4-2.3,3-2.3,4.8-3.5,2.5-1.6,4.6-4.6,7.7-5.1-.1-.4-.9-.2-1.3-.4-1.3-.5-2-2.5-1.3-3.7,1.4-2.4,5.4-.1,4.4,2.8-.2.6-.7.5-.8.9,5.4-.6,9.6,3,12.1,7.4,1.3,2.2,1.4,2.8,1.5,5.3h.5c.1-1.2.5-1.6,1.6-1.9-.2-.7-1-1-1.5-1.6-1.2-1.7-1.1-2.9-.8-4.8.3-1.9.7-3.6,2.2-4.9,2.7-2.3,7.9-1.3,9.1,2.2.7,2,.2,3.5-.5,5.5-.9,2.5-2.6,4.6-5.6,4.4.9,1,.7,1.4.5,2.5-.2,1-.1,1.5-1.2,2.1-1.8,1-3.2-.1-3.6-1.9,0-.3-.2-.5-.2-.9h-.2v.7c0,.3-.2,2-.3,2.2-.1.4-.8.6-.9,1.2,0,.9.9,2.6.9,2.9,1,.4,1.7,2.8,1.4,3.7.5-.1.4.4.5.5,0,0,.4,0,.6.2.8,1,1.8,3.3,1.7,4.6,1.3-2.4,2.1-5.1,3.1-7.6,2.7-6.4,5.3-12.1,7.5-18.8-2.1,1.1-3.2.2-3-2.1,0-.6.6-.8,1.2-1.2.3-.2.7-.2.9-.5.5-1.2-1.4-2-2.4-2.4-1-.4-4.4-.7-5.3-.4-.5.1.3,2.6-2.7.3-.7-.5-1.1-1.2-1.8-1.7-.7-.5-3.7-2.5-4.3-2.3-.3,0-.6.5-1,.6-1.7.4-5.4-2.1-7.2-2.8-5.6-2.2-9.9-2.1-15.6-.8-.4,0-.8,0-1,.5,1.9,1.4,2.5,3,2.5,5.3,0,2.9-.8,5.1-3.6,6.2-4.9,1.8-9.2-2.7-7.9-7.6-1,0-1.9,0-2.9,0-.4,0-.9-.2-.8.5.1,1.2,0,1.8-.5,2.8-.1.3-.2,1.1-.4,1.3-.9.6-5.1-2.5-6.3-2.9h0ZM138.7,119.9c.9.9-.8,2.1-1.8,1.3-.4-1.2.9-2.1,1.8-1.3ZM119.9,118.4c.8-1.5,3.1.1,1.9,1.3-.8.8-2.6,0-1.9-1.3Z"/>
        <path class="st18" d="M128.4,205c0,.4.9,2,1.2,1.8,1.5-4.1,2.8-8.4,4.2-12.6.1-.4.6-1.2.6-1.4,0,0-.6-1.1-.8-1.4-.2-.4-.2-1.3-.3-1.4-.1-.2-.7-.2-.9-.3-.9-.6-1.3-1.3-1.6-2.3h-.5c.1,5.9-5.9,9.1-11.1,7.1-3.1-1.2-4.4-4-5.1-7.1-8.5,1.2-16.3-2.2-18.2-11.1-.2-1.1-.2-2.2-.3-3.1-.2-1.2-.3-2.6-.5-3.7,0,0-.2-.2-.2-.2.1,2.7-2.9,2.9-4.6,1.6.5,1.1.6,1.6,2,1.8,1.3.1,1.8-.5,2.8-.9v3.8c0,1.3,1.5,5.4,2.2,6.6l1.5,2.3c0,0,.4.2.5.2.9.5,2,1.9,2.9,2.5,3.8,2.7,7.3,3.2,11.9,3.1.5,3.1,2.9,4.2,5.1,6.1-1.1,1.3-2.1,2.6-2.8,4.2,4.5,1.1,5.6,7.7,1.5,10.2-2.7,1.6-8.3.7-9.4-2.6-.2-.7-.6-2.4.2-2.9,0-.1-.3-.3-.2-.6,0,0,.5-.5.7-.8-1.3-.4-2.7-1.3-3.7-2.3-2.1,1.7-3-.6-2.8-2.5-.7-1.3-.9-2.8-1.6-4.1-.3-.7-3.5-6-3.7-6.3,0,0-.6-.2-.9-.7-.2-.4-.1-.5-.2-.7-.5-1.4-.4-2.7-.8-4-.5-1.7-2.5-2.9-3.6-4.2-.5-.6-1.3-1.5-1.7-2l-2.8,1.2c3,3.9,3.2,4.3,5,8.8,1.1,2.8,3.4,4.2,4.8,6.8,1,1.9,1.3,4.1,2.4,5.9,1.9,3.4,5.8,4.6,6.5,8.5.3,1.4.1,2.8.6,4.2.8,2.3,3.6,3.7,4,6.4.2,1.4-.2,2.8.2,4.2.5,1.9,2.5,4,3.3,5.8.6,0,.4,0,.5-.3.5-1.5.3-3.6.7-5.2.7-.7,2.3,3.5,2.4,3.7.2.3.2.3.5,0l3.6-13c.5-.1.4.1.5.3.5.7.8,1.5,1.3,2.2.1.2,0,.4.5.3l3.5-11.4.6-.6h0ZM122.6,199.5c-.2-.2-.2-.5-.2-.6,0,0-.3-.1-.4-.4-.2-.6-.1-1.1.4-1.5.6-.3,1.5-.6,2.1-.2,1.7,1-.3,4-1.9,2.7Z"/>
        <path class="st6" d="M90.9,95.5c.5,0,.7-.2,1,.3.2.4,1.2,2.3,1.1,2.6-.1.3-.6.4-.8.6-.1.1.1.4.1.5-.2.1-1.5,0-1.9,0,2.6,1.3,4.1.6,6.7.2-.2-1.5,1.1-1.6,1.4-.2,1-.2,2-.5,2.8-.7-.8-.4-1.2-1.3-1.8-1.8-.2-.2-.6-.2-.7-.3-.7-.7,0-1.6-2.1-.6l.5,1.9c-1.7,2.4-2.4.7-3.2-1.2-1.4-2.9-1.9-6.5-2.6-9.7,1-.3,2.9-2,3.9-1.3.4.3.7,1.6,1.1,2.2.6.9,3.1,3.7,3,4.6-.4.3-2,.9-2.3.7-.7-.3-2.1-3.9-3-4.5.2,1.4.6,2.9,1.2,4.2.9-.1,1.5.3.9,1.2.4,0,.8-.4,1.5-.2.3,0,.3.8.7.7.3,0,1.2-1.4,1.7-1l3.9,4.9c-.1.3-.7,0-.9.1.4.3.8.3,1.3.2,18.2-1.5,34.2,0,51,7.4,3.1,1.4,6,3.4,9.3,4,0-.3.6-1.5.5-1.6-.8.7-5.7-1.5-6-1.9-.5-.6-.5-3.4-.8-4.5-.3-1-.8-1.5-1-2.2-.5-1.2,2.1,1,2.2,1,.8-1.4,2.2.3,2.9,1-.3.5-2.1-.9-1.8,0,.1.5,1.2,3.6,1.4,3.7.5.6,2.3.9,3,.8,0-4.2-3.6-8.2-7.6-9l1.3,1.6c-1.6-.6-2.6-1.7-3.8-2.8l-.2.2c1.1,1.4,2.1,3.5,2.5,5.3.1.4.7,3.5.2,3.5-.3-.2-1.9-.9-1.9-1-.1-.2,0-1,0-1.4-.8-3.4-2.6-7.1-5.2-9.6-.3-.3-.3-.4-.8-.3h.7c.8,0,1.9.8,2.5,1.4l.7-.5c-2.7-1.5-5.6-2.9-8.6-3.9l3,2.4c1.8,1.9,4.5,4,4.8,6.7,0,.4,0,2.5,0,2.6,0,.1-.7,0-.9.3-.1.1,0,.5,0,.6-.2.2-4.2-.8-4.6-1.2-.4-.5-.8-2.7-1-3.4,0-.1,0-.3,0-.5-1.1-3.5-4.2-6.4-6.5-9.1-.1-.1-.3-.2-.5-.2l.5-.2v-.2c-11.9-4.2-34.6-7.8-46.3-3.2-1.5.6-2.9,1.5-4.3,2.3.7,1.6.9,3.8,1.4,5.3.3.8,1.1,1.3,1.1,2.4,0,.2-.2.3-.2.4,0,.1,0,.3,0,.5h0ZM140.1,94.1c.7-.1,1.1,1.2.2,1.4-.7.1-.8-1.3-.2-1.4ZM134.8,88.3c.7.5,2.5,2.5,2.5,3.3,0,.3-.4.5-.4.8,0,.4,2.9,4.3,3.3,5,0,.2.4,1.7.3,1.8,0,0-.6.2-.4.8-.4-.4-1.6-.5-1.8-.7-.1-.1-.9-2.9-1.2-3.6-.2-.4-1.4-2.8-1.5-2.9-1.4-.5.2,1.7.2,1.9.2.6,1.3,3.9,1,4.2-.6,0-2.1-.2-2.5-.6-.3-.3-1.1-3.5-1.4-4.3-1.1-2.7-3-4.9-4.6-7.3,2.3.4,4.5.3,6.5,1.7h0ZM120.9,85.8c.7-1,3.7,0,4.6.5,2.8,1.4,7.3,7.3,6.4,10.4,0,0-.2.1-.2.2,0,.1.4.4.2.7-.8-.4-1.5.5-1.7.5-.4,0-2.3-.4-2.7-.6-.7-.3.7-.3.1-1.1-.6-.8-2.4.4-2.4-1.1.7,0,1.2-.9,1.7-.9,1.1-.1,1,1.9,1.9,2.1.4,0,1.5-.5,1.2-.9,0,0-.4,0-.6-.2-.6-.9-1.1-2.5-1.7-3.6-.6-1.1-2.9-4.9-4.1-4.9-.2,0-.3.5-.3.6,0,.9,4,5.7,3.4,6.5,0,0-1.8,1-2.1.6-.7-1.7-5.1-7-3.8-8.7h0ZM115.9,91.1h-2.3c-.2.2,1.5,4,2.2,4.2,1.9.4,3.4-1,3.8,1.8h-6.1c-.8-.3-1.6-3.3-2-4.1-.2-.4-1.2-2.1-1.2-2.3.2-1,2.3.6,2.5.3,0,0-.2-1.5,1.3-1.4.6,0,1.4.9,1.8,1.4h0ZM111.8,84.2c.2,0,1.6.3,1.7.3.4.2.7,1.3.7,1.7l-3-.2c-.3,1.6,1.8,2.3,1.7,3.7-1.4-.8-2.9-.8-3.9-2.1-.6-.8-1.3-2.5-1.5-3.4,1.4.1,2.9-.1,4.3,0h0ZM102.2,87.1c.1.3.4,1,.7,1,.3-1.5,0-2.9.2-4.4h2.5c.3,1-.3,2.2-.4,2.9-.1,1.8,5.9,7.6,6.4,9.9,0,.3-2,.2-2.4-.1-.5-.3-2.7-3.5-3.2-4.2-.4-.6-1.3-2.9-1.5-1.1,0,.1,0,.4,0,.5,0,0,.4,0,.5.1.1.4,0,1.1.1,1.7.1.5,1.9,3.3,1.7,3.5-1.2-.1-2,.7-3-.3-.5-.6-2-4-2.4-5-.4-.9-.8-2.5-1.3-3.6-.5-1.2-1.4-2.2-1.4-3.7,3.4-1.3,2.7.6,3.5,2.8h0ZM90.2,92.3c-.1-1.2.2-1.5,1.4-1.4.1,1.2-.2,1.5-1.4,1.4Z"/>
        <path class="st8" d="M104.2,205.9c-1.5-1.9-3.7-3.1-5.2-5.4-1.3-2-1.6-4.5-2.7-6.5-1-1.9-2.8-3.1-3.8-5-1.1-1.9-1.3-4.2-2.4-6.1-1.1-2-3.1-3.5-4.2-5.5-2.3-3.9-.9-8.2-2.7-12.1-1-2.3-3.3-3.5-4.8-5.4-2-2.5-1.4-7.9-2.7-11.2-.9-2.4-3.1-3.8-4.2-6-1.3-2.8-.7-5.3-1.5-7.9-.8-2.8-2.5-3.3-2.1-6.8.6-6.3,5.5-10.9,11.9-10.6,1,0,2.2.5,3.2.5,2.8,0,4.3-3.1,6.1-4.8,5.8-5.2,7.8,1.2,11.8,4.5.4-1.6-1.5-6.3.1-7.4,1.1-.7,3.5.2,4.8.2,3.7.1,6.7-2.6,10-3.9,5.2-2,14.7-2.4,18.8,1.9.7.8,2.4,4.1,3.2,4.3,1.3.3,1.1-2.9,2.7-3.3,1.9-.5,5.5,5.3,6.9,6.6-.7-1.9,0-3.3.5-5.1.2-.8.1-1.6.5-2.3-2.4-.9-6.8-2.7-9.3-3-6.2-.7-12.7-2.1-19.1-1.9-7.2.3-16.1,1.6-23.3,2.9-8,1.5-14.8,5.2-22.1,8.6-2.4,1.1-4.7,2.5-7.1,3.8-.3.2-.7,0-.6.7.3-.1.7-.7.9-.3-1.1,1-2.5,2.3-3,3.8-.1.4,0,1-.2,1.5-.6,1.9-2.4,3.9-2.4,6.1,0,.8.4,1.8.2,2.7.7-.6.2-2.3,1.2-3.6,2.2-2.9,2.5.7,3.1,2,.3.7,1,1.2,1.3,2,.8,2,.9,4.9,1.4,7.1.4,1.5,1.1,2.8,1.4,4.2-1.3-1-1.9-2.8-2.2-4.3-.3-1.3-.4-3.7-.9-4.7-.2-.4-.9-.9-1.3-1.5-.8-1.2-1-2.7-1.7-3.9-1.2,3.6,1.9,7.3,3.2,10.4.5,1.2,1.4,3.6,1.7,4.9,2.3,1.4,2.3,3.9,2.8,6.3.5.5,2.8,6.9,3.7,8.3,2.2,3.7,4.5,4.3,5.9,9.2,2.5,9,7.2,15.6,11.6,23.6,1.5,2.8,2.6,6.1,4.5,8.6,1.5,2,5.2,5,5.8,7.3.4,1.4.2,3.9,1.3,5,.4.4.9.8,1.4,1.3,0,0,.4,0,.7.4.5.7,1.3,2.8.3,3.3.1.6.1,1.2.5,1.8l1.4-1.4c.3,1,.8,1.9.7,3,.3,0,.4-1.1.4-1.3.2-4.3-2.9-5.1-4.1-8.4-.9-2.5-.2-4.7-2-7h0ZM144.9,109c.7.7,1.7,1.8,1.5,2.8-1.5-1.2-4.1-4.6-6.3-3.8-1.3.4-1,2.7-2.1,3.4-1.4-6.1,3.5-5.8,6.8-2.3h0ZM100.3,107.6c1.3-.2,3.1-.4,4.4-.5.7,0,1.9-.2,2.4.3.3,1.3-5.1,1.1-5.9,1-.7,0-1.5-.3-2.2-.5,0-.4,1-.4,1.3-.4h0ZM97.4,108.5s-.2.5,0,.9c.2.6,1.4,1.7,1.9,2.8.4.8.7,1.7.7,2.6l-3.6-5.1c-.4-.6.7-1.5,1.1-1.2h0ZM80,114.3c0-.1,1.4-.3,1.8-.4,2.2-.8,3.1-2.9,5.4-3.8l-.3,1c-2,1.5-2.6,6.1-5.9,4.8-.6-.2-1.4-1-1-1.6Z"/>
        <path class="st13" d="M82.8,160.3c0,0,.2.2.2.2,0,0-.1-.2-.2-.2Z"/>
        <path class="st13" d="M82.3,158.7c-.4-1.9,0-3.9,2.3-3,1.5.5,1.3,1.3,1.2,2.5-.2,1.5-.7,2.9-2.5,2.5,4.1,3.9,1.5,8.5,4.2,12.6.7,1,2,3,2.7,3.9.4.5,1.2,1.4,1.7,2,1.1,1.3,3,2.5,3.6,4.2.4,1.3.2,2.5.8,4,0-1,.5-1.7,1.2-2.3.6-.6.3-.8,1.4-.5l-1.5-2.3c-.7-1.2-2.2-5.3-2.2-6.6v-3.8c-1.1.4-1.6,1-2.8.9-1.5-.1-1.5-.7-2-1.8-.2-.5-.6-1-.6-1.6,0-.4.4-.4.4-.5.3-.5.3-.9.9-1.3.6-.4.6-.1.9-.1.5,0,1.1,0,1.6,0,0,0,0-.2.2-.1.6.2,1,1.4,1.2,2,0,0,.2.2.2.2,2.1-.3,1.5-2.5,1.6-3.8.3-2.3.8-4.6,1.4-6.9-3.9,1.9-9.6-.3-10.5-4.6-.4-1.9.9-1.4.8-3,0-.6-.8-.8-1.2-1.3-1.6-1.9-2.7-4-3.3-6.4-.1-.4-.3-2.4-.4-2.5,0,0-1.1-.2-1.6-.5-.8-.4-1.2-1.2-2-1.4-.4,0-.9-.2-.8.4.2.2.7,1.6.7,1.9-.5,2.1-5.5,1.5-3.7-1.2-1.3-1-2.6-2.2-4.4-1.9.8,5.3,2.2,4.7,4.3,8.6,2,3.7.6,8.1,2.4,11.3l4.4,1.9c-.1-.2-.4-1.3-.5-1.6h0ZM79.1,148.9c-.5-.3-.6-1.3-.4-1.8.1-.4.6-.3.7-.4,0,0-.3-.7.8-.5,1.7.3.5,3.4-1,2.7ZM82.7,150.6c2.6.4,1.1,4.2-.6,2.6-.7-.7-.3-2.2.6-2.6Z"/>
        <path class="st13" d="M83.3,160.8c0,0-.1-.2-.2-.2,0,0,.1.2.2.2Z"/>
        <path class="st11" d="M96.9,103c16.6-3.3,33.6-2.6,49.6,3.2,5.9,2.1,11,5.2,16.5,8,.5,0,.3,0,.4-.3.5-1.3.8-2.5,1.1-3.8-3.4-.5-6.3-2.6-9.3-4-16.8-7.4-32.8-8.8-51-7.4-.4,0-.9,0-1.3-.2-.5,0-1.2.1-1.6.2-.8.2-1.8.5-2.8.7-.5,0-.9.2-1.4.2-2.6.4-4.1,1.1-6.7-.2-.7-.3-1.1-.6-1.6-1.2-1.9-1.9-2.4-4.9-3-7.4-1.7,4.6-.4,10.6,3.1,14,2.6-.7,5.3-1.4,7.9-1.9h0Z"/>
        <path class="st16" d="M76.1,140.4c.6-.8,2.2-1.3,3-.7-.1-.7.4-.5.8-.4.8.1,1.2,1,2,1.4l.2-.7c-1.2-.5-1.2-2.8-1.4-3-.1-.1-1.5,0-1.9,0-3.6-.6-5.7-3.2-5.2-6.9-1.5-6.6,7.4-5.5,10.9-7.3,2.1-1,3.2-3.9,5.5-4.8,0-.3.5-1.6.7-1.9.9-1.2,2.3-1.1,3.4-.2.2.2.2.5.2.6,0,0,.7,0,.7.7,1.1.4,5.4,3.5,6.3,2.9.3-.2.3-.9.4-1.3-2.3.4-3.4-2.1-4.7-3.5-.6-.6-1.7-1.9-2.3-2.3-3.9-2.7-6.8,4.7-9.9,5.8-2.1.8-4.6-.4-6.8-.3-4.9.2-8.8,4.6-9.1,9.4-.2,3.2,1.3,4,2.1,6.6.4,1.3.4,2.7.6,4.1,1.8-.3,3,.8,4.4,1.9h0Z"/>
        <path class="st5" d="M67.4,118.9c2.4-1.3,4.7-2.6,7.1-3.8,7.3-3.4,14.1-7.2,22.1-8.6,7.1-1.3,16-2.6,23.3-2.9,6.4-.3,12.9,1.1,19.1,1.9-10-2.8-20.6-3.3-30.9-2.3-6,.6-14.2,1.6-19.6,4-7.7,3.3-16.3,7.5-23.3,12-.8.9-1.6,1.6-2.1,2.8,1.3-.8,2.4-1.6,3.7-2.3-.1-.6.3-.5.6-.7h0Z"/>
        <path class="st5" d="M72.2,114c5-2.9,10.4-4.9,15.4-7.7-3.2-3.6-4.3-7.7-4.6-12.4-.5.3-.8.7-1.4.9-.9,2.4-1.8,4.5-2.1,7.1,0,.9.2,2.4-.2,3-3,2-6.4,3.6-9.3,5.7-1.9,1.4-6.8,6-9.1,5.9-.5,0-1.1-.9-1.7-.8.2,1.5.7,3.3,1.2,4.6.2.6.7,1.9,1.1,2.4.2.2.4.2.5.1.3-1.1,1.4-2.7,2.3-3.3.3-.2.8-.3.9-.4,2-2.2,4.4-3.6,7-5.1Z"/>
        <path class="st13" d="M150.5,186.2c-1.2,0-2.5.8-3.6.2-1.4.8-2.1,1.2-2.8,2.8l-.2.2c0,.1,0,.3,0,.5.4,1.2.1,1.9,1,3,1.4,1.7,2.8.9,2.7-1.2-.3-.3-1-.4-1.2-.9.5,0,1.2,0,1.6.2l1.4-.9c-.2.9.7,2,.8,2.8,0,.4-1.4,2-1.5,2.9-.5,2.9.7,3.1,3.1,2.1,1.6-.7,2.2-1.6,3.4-2.6.1,0,.8-.8.9-.4.5,1.6-2.9,4.4-3,5.2,0,.4.4.6.7.8,4.2-.3,4.8-4.6,6.7-7.4h.2c0,.4-.1,2.6-.2,3-.2,1.3.6,1.2,1.6,1.2,1-1.6,1.5-4.9.2-6.5-2.9-3.5-7.4-5.4-11.9-5.1h0Z"/>
        <path class="st13" d="M75.6,186.6c-2.9-1.1-5.3-1.1-8.2.1-1.9.8-3.5,2.6-5.5,3-1.4,2-2,3.9-1.4,6.5.8.2,1.4.6,2.3.5-.2-1.3.1-2.7.5-3.9.4,0,.2.5.2.8,0,.6,0,1.2,0,1.7.8.8,2.2,2.8,3.4,3,.5,0,.3,0,.4-.3.4-1,.1-2.3.2-3.4.4-.5,1.8,1.3,2.2,1.6,1.7,1.3,4.8,1.9,6.3,0-.5-1.3-1.3-1.6-1.4-3.1-.1-2.1,1.3-3.2,3.2-3.1-.4.2-.6.6-.9.8-.4,1.7,2.1,2.9,3,1.5.1-.2.5-1.7.5-1.9,0-.1,0-.3,0-.5l-.2-.2c-.5-1-1-1.4-1.9-2.1-.9.3-1.9-.7-2.8-1h0Z"/>
        <path class="st18" d="M146.7,150.6c0,.8-.5,1.4-.7,2.1-.5,2-.8,4.2-1.9,6,1.3,7.3-9.1,9.3-10.6,2.8-.5.7-.2,1.6-.2,2.3.4.1,1.3,1.6,1.7,2.1,1.7,1.6,3.5,1.8,5.7,1.4.3.3-.8,3.4-1.8,3.2-1.3,3.8-.3,4.7,0,8.2,0,1,0,2.2,0,3.2,0,.3-.2.9.2.8,1-6.8,3.2-13.3,5.5-19.8,4.6-12.9,10.8-25.3,14.7-38.5l.3-2.4c-1.5.6-1.8.5-2.3,2.1-2.2,6.6-4.9,12.3-7.5,18.8-1,2.5-1.8,5.2-3.1,7.6h0Z"/>
        <path class="st4" d="M76.8,165.9c-4.2,5.3-7.5,11.6-8.6,18.3,2.3-.4,4.5-.2,6.7.2.7-3.7,2.2-6.9,4.2-10,.5-.7,1.4-1.3,1.3-2.3-.2-1.8-2-5.2-3.7-6.2Z"/>
        <path class="st4" d="M143.2,171.2c3.9,3.5,5.4,7.7,6.8,12.6.1.4,0,.7.6.6,2-.3,3.8-.3,5.8.2-.6-5.5-3.5-11.2-7.2-15.4-.9-1-2.5-1.7-2.3-3.1-.4-.3-.8-1.3-1.6-1.4-.8,2.1-1.4,4.3-2.1,6.5h0Z"/>
        <path class="st16" d="M116,111c5.8-1.3,10.1-1.3,15.6.8,1.8.7,5.6,3.2,7.2,2.8.4-.1.7-.6,1-.6.6-.1,3.6,1.8,4.3,2.3.7.5,1.1,1.2,1.8,1.7,3,2.3,2.2-.2,2.7-.3.9-.3,4.3,0,5.3.4.9.3,2.8,1.2,2.4,2.4.4-.4.3-2.6.2-3.3-.6-4.3-4.3-2.1-7.3-2.5.1,3.5-1.2,3.9-3.5,1.5-1.7-1.8-2.9-4.3-5.2-5.7-.6,0-1,6.3-4.5,2.2-1.8-2.1-1.9-3.8-4.9-5.1-6.4-2.6-14.5-1.3-20.1,2.5,1.4.2,2.7.4,3.9,1.3.2-.4.6-.4,1-.5h0Z"/>
        <path class="st4" d="M136.4,174.9c-.7,0-1.3.7-2,.9-.5,1-.8,1.9-1.2,3-.3,1-.2,2.2-.9,3-.1,1.1-.2,1.9-.2,3.1,0,.2,0,.8-.2.5,0-1.5,0-2.9,0-4.4,0-.5-.1-.8.5-.3,0,0,.1,0,.2-.5-1.3-.2-1.2.7-1.4,1.6,0,.3-.2.5-.2.9-.1,1.4.2,6.3,2.1,6.5l-.2-1.2c1.6.2,2.4-1.5,2.8-2.8.4,0,.2.5.2.8,0,.9,0,2.2-.9,2.7-2.4,3.2,2.9,6.7,3.2,1.3,0-1.5,0-3.7,0-5.3,0-3.2-.2-5.8-.5-8.9-.7,0-.5-.9-1.3-.9h0Z"/>
        <path class="st7" d="M101.1,217.5c.1,0,.7-.2.9-.2-.5-3-1.3-6-1.2-9-1.1-1.9-2.3-3.9-3.6-5.5-.7.8-.1,1.7-.1,2.5l-1.8-1.2c-.7.5.5,9.7.4,11.2l1.4.8c1.2.4,1.8.5,2.7.9.4.2.9,0,1.2.5h0Z"/>
        <path class="st18" d="M105,214.1c-1-1.1-.9-3.5-1.3-5-.6-2.3-4.3-5.3-5.8-7.3-1.9-2.5-2.9-5.8-4.5-8.6-4.4-8-9.1-14.6-11.6-23.6-1.4-4.9-3.7-5.5-5.9-9.2-.8-1.4-3.1-7.8-3.7-8.3,0,0-.4,0-.6-.2-.5-.5-.5-1.8-1.5-1.9.8,3.2,2,3.6,3.1,6,.8,1.7.8,4,1.9,5.7.8,1.3,2.5,2.4,3.5,3.7,1.8,2.3,2,5,3.1,7.6,1.7,4.4,2.7,6.6,3.9,11.3.5-.4,0-1.6.9-1.4l2.5,6.2c2,1.9,2.8,3,3.9,5.6,0-.2,0-.7.2-.3.9,2.5,2.8,5.5,2.8,8.2,2-2,2.7,1,3.5,2.4.9,1.4,2.1,2.9,2.8,4.4.6,1.4,1.3,6.2,1.9,6.8.7.7,1.5-.3,2-.6v-.2c-.4-.4-1-.9-1.4-1.3h0Z"/>
        <path class="st13" d="M140.7,167.3c-2.2.5-4,.2-5.7-1.4-.5-.4-1.3-2-1.7-2.1,0,1.5.3,3.1.2,4.5,0,3.6-1.6,7.2-2.3,10.7-.1.8-.5,2.2,0,2.8.2-.9,0-1.8,1.4-1.6.1-.7.3-1.2.5-1.9.4-1.3.8-3.8,2.3-4.2.6-.1,1.5,0,2.1-.2,0-1,0-1.7.3-2.6,0-.3,1-1.9,1.1-2,0,0,.5,0,.5.1,0,.4-.3.7-.5,1,1,.1,2.2-2.9,1.8-3.2h0Z"/>
        <path class="st2" d="M81.6,94.8c.6-.2.9-.6,1.4-.9,0-.4.2-1-.3-.9-1.5.3-4.6,1.8-6.1,2.5-4.8,2.2-16.5,8.7-18.2,13.7-1.2,3.5,0,8.1,2,11.1-.5-1.4-.9-3.2-1.2-4.6-1.6-11,14.2-17.3,22.5-20.8h0Z"/>
        <path class="st18" d="M69.7,196.2c-.4-.3-1.8-2.1-2.2-1.6,0,1.1.2,2.4-.2,3.4,0,.2.1.4-.4.3-1.2-.2-2.6-2.2-3.4-3,.2,2.3,1.7,5.8,4.3,6,.7,0,2.4-.4,2.4-1.3,0-.4-3.1-3.2-2.5-4.5.6-.1.4.2.6.5.4.6.6,1.4,1,2,2.6,3.5,8.7,3.5,7.9-1.9,0-.3-2.4-2.1-2.6-2.9,0,1.5.9,1.8,1.4,3.1-1.5,1.8-4.6,1.2-6.3,0h0Z"/>
        <path class="st8" d="M113.3,112c-1.1.9-1.7,0-2.4,0-1.4,0-.4.7-.4,1.1,0,.5-.6.9-.7,1.4,0,.5,0,1.4,0,2,0,0,0,.2,0,.2.2,1.4.3.9,1.1,1.3.3.2.5.5.5.5.4.2.7.3,1.2.6.3.2,1.3.2,1.1.7-.4.7-3.1.4-3.7.8,3.6,1,7.5-2,6.4-5.8-.3-1-.8-1.5-1.6-2.3-.6.1-1.5.3-1.6-.5h0Z"/>
        <path class="st16" d="M85.8,158.2c-1.1,1-1.9,1.7-3.2.5h-.2c0,.3.3,1.4.5,1.6,0,0,.1.2.2.2,0,0,.1.2.2.2,1.9.3,2.4-1.1,2.5-2.5h0Z"/>
        <path class="st16" d="M87.5,173.4c-2.7-4.1-.1-8.7-4.2-12.6,0,0-.2-.2-.2-.2,0,0-.2-.2-.2-.2l-4.4-1.9c2.1,3.7,6.2,4.1,6.7,9.6.4,4.8-.9,6.1,2.3,10.3l2.8-1.2c-.7-.9-2.1-2.8-2.7-3.9h0Z"/>
        <path class="st5" d="M148.1,110.8v-.5c1.1.6,1.1,3.1,2,3.4,1.7.5,4.1-1,6,.3,1,.7,1.6,2.6,1.7,3.7.6.2.7-.7.6-1,0-1.1-.6-1.9-.9-2.9,1.9,0,2.8,1.9,3.8,3.2.2.2.5.2.6.2-.1-.7,0-1.7-.6-2.3-.5-.5-2.4-1.5-3.1-1.9-3.1-1.7-6.6-3.3-9.9-4.6-.3.7-.3,1.6-.5,2.3h.2Z"/>
        <path class="st7" d="M76.5,165.7c-5.4,4.9-9.5,12-10.8,19.2.3.3,2.1-.6,2.5-.7,1.1-6.7,4.4-13,8.6-18.3,0,0,0-.3-.3-.2h0Z"/>
        <path class="st7" d="M149.2,169.2c3.6,4.1,6.6,9.9,7.2,15.4.7.2,1.5.6,2.2.9,0-1.8-.9-4.1-1.6-5.8-2.3-5.9-5.2-9.7-10.1-13.6-.2,1.4,1.4,2.1,2.3,3.1h0Z"/>
        <path class="st4" d="M126.8,217.4c1.8-.6,3.8-2.9,5.1-4.3l-4.2-3.5c0,.1-.3.3-.4.6-.4,1-2.1,5.4-2.1,6,0,.5.9,1.3,1.6,1.1h0Z"/>
        <path class="st18" d="M113.9,123c2.9-1.1,3.7-3.3,3.6-6.2-1.9,6.7-11.5,5.9-11.3-1.4h-.2c-1.3,4.9,3,9.4,7.9,7.6h0Z"/>
        <path class="st8" d="M157.5,113.8c.3,1,.9,1.8.9,2.9,0,.3,0,1.2-.6,1,0,.5-.4,4.4.3,4.4l1.3-1.5,1.1-2.2c.9,2.7,0,5.5,0,8.3,1.1-1,1.1-2.8,1.4-4.2-1.1-.7.2-5.1,0-5.3,0,0-.4,0-.6-.2-1-1.3-1.9-3.2-3.8-3.2h0Z"/>
        <path class="st18" d="M155.2,195.4c-1.2,1-1.8,1.9-3.4,2.6-2.4,1-3.5.7-3.1-2.1.1-.9,1.5-2.5,1.5-2.9,0-.8-1-1.8-.8-2.8l-1.4.9c2.9,1.3-.4,3.8-.8,5.3-.9,3.4,1.4,4.7,4.4,3.4,2.1-.9,3.3-3.1,4.5-4.8,0-.4-.8.3-.9.4h0Z"/>
        <path class="st16" d="M103,115.4c1,0,1.9,0,2.9,0h.2c0-1.3.4-2.3,1.3-3.2.2-.2.5-.2.6-.2,0,0,.5-.7.5-.7-2.4.7-4.4-.3-6.7-.1-.9.6.4,3.9.5,4.8-.1-.7.4-.4.8-.5Z"/>
        <path class="st12" d="M102,217.3c0,.4,0,.9.2,1.4-.3,0-1.5-.1-1.6,0-.3.2-1.2,6.7-.9,6.9,0,0,.7,0,.9,0-.1-2.3.1-4.5.7-6.7.4,0,.1.4.1.7-.2,1.9-.5,3.8-.6,5.8,0,0,1-.1,1.1-.3.2-.3,0-4.6.4-6,0,0,.3-1.2.6-.8-.3.6-.7,1.9-.7,2.5v4c.9-.7.3-2.4.5-3.5.3-.4.4,0,.5.3.1.8-.1,1.6-.2,2.4.3,0,.6,0,.7-.4.3-.9.1-3.4.3-4.6.1-.7.4-1.3.7-2-.3,0-.6,0-.9,0s-1.3,0-1.6,0h0Z"/>
        <path class="st6" d="M146.9,186.5c1.1.6,2.4-.1,3.6-.2,4.5-.3,9,1.6,11.9,5.1-2-6.5-10-8-15.5-4.9h0Z"/>
        <path class="st5" d="M113.8,119.7c.2-.4-.8-.5-1.1-.7-.5-.3-.9-.4-1.2-.6-.7.7-1.2,0-1.6-.3-.4-.3-.8.1-.7-.7,0-.4.3-.6.7-.8,0,0,0-.2,0-.2-.4-.1-1.5-.6-1.6-1.1-.1-.5,1.1-.6.9-1.3h-.7l.5-.8-.9-.8c-2.4,2.7-1.5,7.1,2.1,8.1.6-.4,3.3-.1,3.7-.8h0Z"/>
        <path class="st16" d="M131.2,179c.6-3.5,2.2-7.1,2.3-10.7,0-1.5-.2-3-.2-4.5-.1,0-.3,0-.5,0,.7,5.4-.2,10.4-2.8,15.1-.2.4-1.5,2-1.5,2.1,0,.3,1.3,3,1.4,3.8.2.7.3,1.9.3,2.6h.5c-.4-1.4-.5-3.3.2-4.6,0-.4.2-.6.2-.9-.4-.7,0-2.1,0-2.8h0Z"/>
        <path class="st10" d="M150,183.8c-1.4-4.9-2.9-9-6.8-12.6,0,.2-.6.4-.4,1,3.4,3.4,5.2,8,6,12.7.2.2,1.5-.4,1.8-.5-.6.1-.5-.3-.6-.6Z"/>
        <path class="st12" d="M95.1,215.7c-.4,1-.5,2.1-.9,3.1-.6,1.7-1.4,3.3-2.1,4.9.3,0,.7.1.9-.1.5-.7,1.3-4.2,1.7-5.2,0-.2,0-.7.4-.6.2,1.8-1.6,4.4-1.6,5.9,0,.7.1,1.2.9,1,0-2.2,1.3-4.7,1.6-6.9,0-.3,0-.5-.2-.7.5-.1.7.2.9.5.9,0,.8.1,1.4.5.8,0,1.6.3,2.2.2.6,0,.7-.6.8-.7-.3-.4-.8-.3-1.2-.5-.9-.4-1.5-.5-2.7-.9-.7-.2-1.3-.7-2.1-.7h-.5l.5.3h0ZM95.1,216.3h.2v1.2h-.2v-1.2Z"/>
        <path class="st12" d="M96.2,217.5l-1.6,7.4h1.1l1.6-6.6c0-.3-.4-.6-.7-.8-.1,0-.3,0-.4,0h0Z"/>
        <path class="st12" d="M97.6,217.9c0,.9-.2,1.7-.3,2.5-.2,1.1-1.2,3.6-1.2,4.3,0,.6.9.7,1.1.5.3-.2.9-6.2,1.6-7-.4,0-.5-.2-.7-.3-.1,0-.3,0-.5,0Z"/>
        <path class="st12" d="M62.2,130.6c0-2.2,1.8-4.2,2.4-6.1.2-.5,0-1,.2-1.5.4-1.5,1.8-2.8,3-3.8-.3-.4-.7.2-.9.3-1.3.7-2.4,1.5-3.7,2.3-.7,1.5-.3,1.9-.5,3.3-.3,1.8-2.4,6.8-.7,8.1.4.3.4,0,.5-.1.2-.9-.3-1.8-.2-2.7h0Z"/>
        <path class="st6" d="M62,189.7c2-.4,3.6-2.1,5.5-3,2.9-1.3,5.3-1.3,8.2-.1.9.3,1.8,1.3,2.8,1-5.4-4.4-12.5-3.5-16.4,2.1h0Z"/>
        <path class="st6" d="M90,98.3c0-.5,0-1-.2-1.4,0-.1-.2-.3-.2-.5,0,0-.4-.3-.6-.7-.9-2-1.6-4.4-2-6.5-.9,0-.9,1.1-1.2,1.6.6,2.5,1.1,5.5,3,7.4h1.2,0Z"/>
        <path class="st18" d="M77,190.9c-.4.3-1.9,1.1-1.8,1.7,0,.3,1.5,2.1,1.8,2.3,2.4,1.5,5-2.4,3.5-4.5,0,.3-.4,1.7-.5,1.9-.9,1.4-3.3.2-3-1.5h0Z"/>
        <path class="st6" d="M148.8,100.1c.4.2,1.1,0,1.6.5.3-.8-.4-.9-.4-1.1-.3-1.2-.2-1.7-.9-3-.5-.9-3.3-4.5-4-5.1-.4-.3-1-.5-1.5-.5.3.6,1,1,1.4,1.5,1.2,1.4,3.2,4.3,3.6,6.1.1.4.3.8-.4.7v.2c.4.2.7.6.8.6h0Z"/>
        <path class="st4" d="M102,217.3c.3,0,1.2,0,1.6,0-.6-2.2-.9-5.1-1.7-7.2-.3-.7-.7-1.2-1.1-1.8-.2,3.1.7,6,1.2,9Z"/>
        <path class="st7" d="M132.9,211.7c-.3-.5-2.6-2.2-3.3-2.8-.4-.4-1.1-2-1.5-1.1-.2.5-.3,1.3-.4,1.8l4.2,3.5c.3-.3,1.4-.8,1.1-1.4h0Z"/>
        <path class="st9" d="M108,112.4l.9.8-.5.8h.7c.2.7-1,.7-.9,1.3,0,.4,1.2.9,1.6,1.1,0-.5,0-1.5,0-2,.1-.5.7-.9.7-1.4,0-.4-1-1.1.4-1.1.8,0,1.3.9,2.4,0,0-.2,0-.5,0-.7-.1,0-.5,0-.8,0-.2,0,0-.7-1.2-.5-.4,0-.3.4-.5.5-.4,0-.9,0-1.3,0-.5.1-.9.7-1.5.6,0,.1,0,.4,0,.5h0Z"/>
        <path class="st2" d="M93.2,194.8c0,1,1.3,6.7,1.7,7.6.3.6.6.8,1.2,1.2.2-.1.1-.7.1-.9,0-2.7-1.8-5.7-2.8-8.2-.3-.4-.2.2-.2.3h0Z"/>
        <path class="st18" d="M153.8,201c3.7,2.9,6.4-4.7,6.7-7.4-1.9,2.8-2.6,7.1-6.7,7.4Z"/>
        <path class="st18" d="M144.9,193c-.9-1.1-.6-1.8-1-3-.8,1.3-.5,3,.3,4.2,2,3,4.9-.8,3.4-2.4.1,2.1-1.2,2.8-2.7,1.2Z"/>
        <path class="st8" d="M85.8,184.4c.9,3.4,1.2,2.7,3.5,4.9l-2.5-6.2c-.8-.2-.4,1-.9,1.4h0Z"/>
        <path class="st13" d="M71.8,152c.2.2.5.2.6.2-.4-2.4-.5-4.8-2.8-6.3.3,1.2.4,2.9.7,4.2,1,0,1,1.3,1.5,1.9Z"/>
        <path class="st2" d="M147.4,115.9c.2.2.2.6.7.5.5-1.8.1-3.7,0-5.5h-.2c-.4,1.8-1.1,3.2-.5,5.1h0Z"/>
        <path class="st18" d="M60.6,196.2c.4,1.4,1.6,3,3.2,2.8.1,0-.9-2-.9-2.3-.9.2-1.5-.2-2.3-.5h0Z"/>
        <path class="st10" d="M135.8,186.1c0-.3.1-.9-.2-.8-.4,1.3-1.2,2.9-2.8,2.8l.2,1.2c.2,0,1.6-.4,1.9-.5.9-.4.9-1.8.9-2.7h0Z"/>
        <path class="st4" d="M154.5,122.1c.2,3.8,4.2,1.5,2.1-.7.1,1.8-1,1.1-2.1.7Z"/>
        <path class="st2" d="M161.9,122.6c.5-2.7.6-2.7,0-5.3.2.2-1.1,4.6,0,5.3Z"/>
        <path class="st18" d="M160.6,196.7c0,.3-1.3,2.7-1.2,2.8,1.5,0,2.1-.4,2.8-1.6-1,0-1.8.1-1.6-1.2h0Z"/>
        <path class="st12" d="M134.4,175.8c.7-.2,1.2-1,2-.9.8,0,.6,1,1.3.9,0-.6-.2-1.4-.2-1.9-.6.2-1.5.1-2.1.2-.3.6-.6,1.1-.9,1.6h0Z"/>
        <path class="st11" d="M154.3,96.5l.2-.2-1.2-1.4,2.3.8c-.8-.8-1.8-1.2-2.8-1.7l-.7.5c.4.4,1.8,1.7,2.1,2.1h0Z"/>
        <path class="st7" d="M154.3,122.1h.2c1.1.4,2.2,1.1,2.1-.7-.4-.4-.6-.5-1.2-.5-.5.4-1.1.6-1.2,1.2h0Z"/>
        <path class="st2" d="M107.1,215.8c-.2-.4-.6-.3-.7-.4v.2c.5,1.1.6,2.3.9,3.5,1-.6.2-2.7-.3-3.3h0Z"/>
        <path class="st6" d="M113.3,112c0,.8,1,.6,1.6.5,0,0,0-.3-.2-.5-.4-.4-1-.5-1.5-.7,0,.2,0,.5,0,.7Z"/>
        <path class="st11" d="M145.7,98.1c.9.3,1.5.9,2.3,1.4v-.2c-.5-.7-1.4-1.6-2.3-1.6,0,.1,0,.3,0,.5h0Z"/>
        <path class="st11" d="M90.2,96.5c0,0-.5,0-.7,0,0,.1.2.3.2.5.3,0,.3-.4.5-.5Z"/>
        <path class="st11" d="M90.9,95.5c0-.1,0-.3,0-.5-.6,0-.6,1.3-.7,1.4.5-.3.4.2.7-.9Z"/>
        <path class="st4" d="M139.4,88.3h.6c0-.4-.4-.4-.7-.5v.5h.1Z"/>
        <path class="st6" d="M144.1,89.7c-.3-.2-.6.1-.5.2.3.2.6-.1.5-.2Z"/>
        <path class="st4" d="M142.7,89.1c-.3-.2-.6.1-.5.2.3.2.6-.1.5-.2Z"/>
        <path class="st4" d="M142,88.8c-.3-.2-.6.1-.5.2.3.2.6-.1.5-.2Z"/>
        <path class="st4" d="M141.3,88.6c-.3-.2-.6.1-.5.2.3.2.6-.1.5-.2Z"/>
        <path class="st10" d="M129,220.7l-1.7-2.5c0,0-.2,0-.2,0,0,1.3,1.2,1.6,2,2.5h0Z"/>
        <path class="st4" d="M140.7,88.4c-.3-.2-.6.1-.5.2.3.2.6-.1.5-.2Z"/>
        <path class="st18" d="M143.9,189.5l.2-.2s-.2,0-.2.2Z"/>
        <path class="st18" d="M80.2,189.7l.2.2c0-.2-.2-.2-.2-.2Z"/>
        <path class="st11" d="M156,95.8v.2c.1,0,.1-.2,0-.2Z"/>
        <path class="st11" d="M166.1,219.3c-1-.8-2.7-.8-3.9-.5-1.8.4-4.7,2.1-6.3,3.1-1,.6-3.2,2-3.8,2.8-.9,1.2-.9,2.9-.9,4.3.2.2,4-2.2,4.4-2.4,2.1-1.3,6.7-5.4,8.9-5.2,1.2.1,1.4,1.4,1,2.4-.1.3-.5,0-.4.4.2,0,.9-.2.9-.2,0-.1.7-2.4.7-2.7,0-.4-.4-1.7-.7-2h0Z"/>
        <path class="st11" d="M150.9,225.6c-2.4,1.5-4.7,3.1-7.1,4.4-2.4,1.4-8.6,4-10.1,5.9-.9,1.1.2,1.7.9,2.7,0-.5.4-.9.9-1.1l15.6-8.3v-3.5c.7-.7.7-.7-.1-.1h0Z"/>
        <path class="st9" d="M136.8,232.7c4.3-2.5,8.7-4.8,12.8-7.5l.8-4.3-3.5-.6c-.7,0-3.2,3.7-4.3,3.9-2.1,2-.8,1.7-1,3.8-.1,1.2-3,2.4-3.8,3.4-.3.2-.6.3-.9.4-.3.4-.7.6-.1.9h0ZM148.5,223.5c.2-.2.2-2.1.9-2.3-.1.6-.3,1.6-.5,2.1-.1.3-.4.1-.5.2,0,0,0,.3-.2.5-.4.3-1.4.7-1.9.7.1-.5,2-1.1,2.1-1.2Z"/>
        <path class="st9" d="M164.3,218.2c-1.9-2.2-5.6-1.3-8.1-.7-2.8,1.4-5,3.6-5.1,6.9,1.2-.6,3.8-1.9,4.9-2.5,0,0,0-.3.2-.5,2.6-1.5,5-3.4,8.2-3.2h0Z"/>
        <path class="st11" d="M137,231.4c.6-.6,2.7-1.6,3.3-2.2,1.3-1.2.5-2.6.9-4.1,1.8-1.5,3.7-2.9,5.2-4.7-2.3-1.3-2.8,2.7-4.6,2.9,0,0,0,.4-.1.7-.3.5-1.6,1.3-1.7,1.8-.2.6.5,1.3,0,1.9l-4.9,3.7c-.1.2.2.5.4.7.3,0,1.1-.1,1.4-.2,0,0,0-.2,0-.4h0Z"/>
        <path class="st9" d="M141.8,218.9c1.8.3,3.7.4,5.5.8.3,0,.6-.3.5.4,1.7.2,3,.8,4.4-.8.2-.5-.9-.4-.9-.3,0,0,0,.6-.2.8-1,.7-.6-.7-.7-.8l-1.2.5.2-.9c-.3,0-.6,0-.9,0,0,.2,0,.5-.3.7l-.3-.9-1.4.7v-.9c-.2,0-.5,0-.7,0-.1.3,0,.8-.6.7-.5,0,0-.9-.1-.9-.2-.2-1.2.7-1.6.5.3-.7.4-.8-.5-.7-.2.5-.2.9-.9.9,0,.1-.3.4-.2.5h0Z"/>
        <path class="st2" d="M156.2,217.5c-.5.1-.8,0-1.4.3-2.9,1.2-4.5,3.7-4.4,6.8.3,0,.5-.1.7-.2.1-3.3,2.3-5.5,5.1-6.9h0Z"/>
        <path class="st9" d="M141.8,219.8v-.5h-.2c0,1.3.1,2.6-.2,3.9.1,0,.3,0,.5,0,.7-1.3,1.8-1.9,2.5-3.2-.7,0-1.7-.5-2.5-.2h0Z"/>
        <path class="st2" d="M145,219.8c.9.1,1.9.1,2.8.2,0-.7-.2-.3-.5-.4-1.8-.4-3.7-.5-5.5-.8,0,0,.2-.3.2-.5,0-.4,0-.9.2-1.4-.7,0-2-.6-2.5,0,1.1-.3.9.4.9.5s.4,0,.5,0c.1,0,.3-.4.7-.2,0,.6-.2,1.1-.2,1.6v.5h.2c1.1-.2,2.2.3,3.2.5h0Z"/>
        <path class="st2" d="M135.6,232.1c-.8,0-4.1-1.3-4.6-.9-.1.3.2.4.2.5,1.7,0,3.5.6,4.9,1.6.3-.4-.2-.6-.5-1.2h0Z"/>
        <path class="st5" d="M141.8,219.3v.5c.8-.2,1.8.3,2.5.2,0,0,.4-.4.7-.2-1-.1-2.1-.6-3.2-.5Z"/>
        <path class="st5" d="M153,230.4v-.9c.1,0-.3,0-.3,0,0,.4,0,.7.3.9Z"/>
        <rect class="st5" x="153.4" y="228.8" width=".7" height=".5"/>
        <path class="st5" d="M153.6,229.5v.7h.5c0-.3-.1-.6-.5-.7Z"/>
        <path class="st9" d="M104.8,224.1c-1.2-.6-1.2.4-1.7.8-2.5,2.1-6,.9-8.9.5,0,0,1.1,1.3,1.2,1.6h.9c0,.1-.9.2-.9.2,0,.6,0,1.3,0,1.9.3.3,3.1-.4,3.6-.2.3,0,0,.6.1.7,0,0,1.2.5,1.5.5.3,0,3.2-.6,3.4-.8.6-.3.6-1.1.9-1.7.1-.2.4-.3.4-.4.1-.2.4-.4.4-.8s-.5-2.2-.9-2.4h0ZM96.5,227.4c0-.4.5-.2.8-.2,2.7,0,4.9.3,7.5-1.3-2.2,1.9-5.6,2-8.3,1.5Z"/>
        <path class="st9" d="M87.9,230.9c0,0-1.1.2-1.4.3.7,1.5-.6.8-1.1,1.4-.2.3.2.8.1.9,0,0-1.3.2-1.4.2-.5.5.9.4.4.9-.3.3-1.1.3-1.5.5,0,.4,1.1.5,1.4.4,2.5-2.4,4.5-5.3,7-7.8.1-.1.3-.3.5-.5.1-.1.4-.4.5-.5.1-.7-.7-.6-1.2-.5,0,.1.1.5,0,.7-.1.1-.7.1-.8.3-.2.3-.1.9-.3,1-.2.2-.8,0-1,.5,0,.2.2.6.1.7,0,0-.5,0-.7,0-.8.3-.3,1.1-.5,1.4h0Z"/>
        <path class="st12" d="M99,218.5c-.3.4-1.6,6.8-1.4,7h1.6l1.2-7.2c-.4,0-1.2-.2-1.4.1h0Z"/>
        <path class="st9" d="M93,226.6c-.3.2-1.8,2.2-2.1,2.7.6,0,3,0,3.2-.3,0,0,0-1.9,0-2.2,0,0,0,0,0,0,0,0-.9-.3-1.2-.1h0Z"/>
        <path class="st9" d="M91.6,225.5c.2-.3.5-.7,1.1-1,.2-.2.6-.2,0-.4-1.8-.7-3.6,0-3,2.2,0,0,1.2-.1,1.4-.2,0-.2.2-.3.4-.5Z"/>
        <path class="st8" d="M92.3,226.7c0,0,.6,0,.7-.3.2-.4-.3-.3-.4-.4-.7-1.2,1.3-.1,1.1-1.1-.5-.2-1.5.2-2.1.6-.2.2-.4.4-.4.5,0,0,0,.2,0,.2.5-.2,1.3-.2,1.2.5h0Z"/>
        <path class="st11" d="M86.6,229.7l1.7-.2v-.5c-.3,0-1.5,0-1.6,0,0,0-.1.6-.1.7Z"/>
        <path class="st11" d="M140,224.2c1.6-.9,1.3-4.5,1.1-6.1,0-.4,0-.4-.5-.3v4c0,0-.5,1.4-.6,1.5-.2.2-.5.2-.6.2,0,0,0,.3-.1.5-1.6,1.2-9.6-2-11.4,1,0,.2.3.1.5.1.5-.6,1.2-.8,2-.9,2.2-.2,8.3.8,9.7,0h0Z"/>
        <path class="st9" d="M140.4,219.3c-1.3-.4-1.2,1.2-1.6,2.2-.4.9-.9,1.5-1.4,2.3.2.3,2-.2,2.1-.3,0,0,.6-1,.6-1.1.1-.4.4-2.9.3-3.1Z"/>
        <path class="st9" d="M139.7,216.3c.6,0,1.2.3,1.7.2.5-.1,2.2-1.7.5-1.8-1.4,0-1.4.7-2.2.9,0,.2,0,.5,0,.7h0Z"/>
        <path class="st9" d="M139.7,217c-.2.3-.3,1.8-.2,1.9s.9,0,.9,0c0,0,0-1.1.2-1.4,0,0,.1-.7-.9-.5h0Z"/>
        <path class="st11" d="M149.2,215.4c-.8-.6-.8,2.8-1.2,3.1.1.2.3-.1.5-.1.2-.5,1.1-2.7.7-3h0Z"/>
        <path class="st11" d="M146.1,214.9c-.2,0-.7,2.5-.8,2.9,0,.7.2.1.5.1.1-.4,1.1-3,.3-3h0Z"/>
        <path class="st9" d="M144.1,215.6c-1.7,2,1.4.9,1.4.1,0-.6-1.2-.1-1.4-.1Z"/>
        <path class="st11" d="M151.6,216.1l-.8,2.7v.6c.2,0,.4-.3.4-.5.3-.6,1-2.3.3-2.8h0Z"/>
        <path class="st9" d="M147.7,217c.3-.2.7-.5.6-.9-2-.4-2.7,2-.6.9Z"/>
        <path class="st9" d="M149.2,217.7c.6.6,2.2-.4,1.6-.9-.3-.3-1.8.1-1.6.9Z"/>
        <path class="st11" d="M145.3,214.7c-1.2-.4-2.4,1-1.2.9.4-.4,1-.5,1.2-.9Z"/>
        <path class="st11" d="M143.2,215.6c-.5.1-.8,1.9-.7,2.1.2,0,.3-.2.5-.2.2-.6.3-1.2.2-1.8h0Z"/>
        <path class="st1" d="M91.8,227.2c-.1.1-.3.3-.5.5"/>
        <path class="st9" d="M94.9,230.9c-.3.5,0,2.5-.1,3.2,0,0,2-.5,2.1-.6.4-.3.8-2.3,1.3-.3,1.3-.3,2.7-.8,4-1.1.4,0,.7.2,1,.1.4,0,.9-1.3.6-1.6-.2-.3-4,1.2-4.7,1.1-1.2,0-.9-.9-1.1-1.2-.2-.3-2.8-.3-3.1.2h0Z"/>
        <path class="st9" d="M104.5,231.6c1,0,1.8-.1,2.8-.5.1-.1-.6-3.5-.7-3.7,0,0-.6,0-.7-.2-1,1.2-1.3,2.9-1.4,4.4Z"/>
        <path class="st11" d="M95.3,229.5s0,.5,0,.7c.7.2,2.3-.4,2.7,0,.1.1,0,.4,0,.4.1.1.6.5.7.6,1,.4,4-1,5.3-1,0-.6,0-.5-.6-.5-1.1,0-2.7.8-3.7.7-.8-.1-.6-.7-.8-.9-.4-.4-3.5-.2-3.7,0h0Z"/>
        <path class="st2" d="M105.9,226.7s-.7.4-.7.5c-.3.5-1.1,3.7-1.1,4.3,0,.7.4.1.4.1,0-1.5.4-3.2,1.4-4.4,0,0,0-.4,0-.5h0Z"/>
        <path class="st2" d="M95.3,227c0,0,0,.1,0,.2h.9c0-.1-.9-.2-.9-.2h0Z"/>
        <path class="st9" d="M133.9,229.2c-1,.8-2.2,1.1-3.5,1.3.8.8,2.8.4,4,.9l4.3-2.8c.1-.5.8-.9.9-1.3.3-1-.6-1.8.5-2.6-.5-.2-1,.3-1.3.3-.6,0-1.6-.3-2.3-.1,0,0-.7.9-1,1.2-.7.6-1.2.6-1.7.9,0,0,.1.3-.3.5-.3.2-2.1.7-2.4.6-1-.1,0-1-.7-.9-1.4,1-.6,1.8-.3,3h.2c1.2-.1,2.3-.8,3.5-1h0Z"/>
        <path class="st12" d="M132.1,224.4c.2.7.9,2.9,1.8,2.5,1.1-.4-.7-3.2-1.8-2.5h0Z"/>
        <path class="st12" d="M130.7,224.4c-.1.1,1.2,2.2,1.2,2.6,0,.4.8.5.9.4.1-.1-1.4-3.7-2.1-3h0Z"/>
        <path class="st12" d="M136,224.7h-2.1c.7,1.9,1.4,1.6,2.1,0Z"/>
        <path class="st9" d="M141.1,217.5l.5,1.4c0-.5.3-1.1.2-1.6-.4-.2-.6.2-.7.2h0Z"/>
        <path class="st2" d="M130.5,230.2v.2c1.2-.1,2.5-.4,3.5-1.3-1.1.3-2.3.9-3.5,1h0Z"/>
        <path class="st7" d="M114,186.5v-1.4c-5,.2-11.4-.9-14.3-5.5-1.1-1.8-2.3-5.7-1.9-7.8,0-.2.7.2.9.1-.2-4.8,1.5-16.2,7.4-17.3,3.6-.6,6.4,1.4,9.9.4,3-.8,5.6-3.7,8.3-1,5.3,5.2,7.2,13.8,4.8,20.8-.3.9-1.9,3.6-1.9,4.1,0,.5.4.9.8,1.2,2.7-3.4,3.9-7.6,4.1-11.9.2-4.5-.7-9.1-2.8-13.1.5-.5,1.8,2.5,2,2.8.7,1.7,1.3,3.9,1.5,5.8.1,0,.3,0,.5,0,0-.7-.3-1.7.2-2.3-1.1-4.5,3.4-8.5,7.7-6.4,1.2.6,2.7,2.3,2.9,3.7,1-1.9,1.4-4,1.9-6-2.7,1.6-3.4-2.9-3.2-4.9.2-1.3.9-1.9,1.1-2.5.3-.9-.3-3.3-1.4-3.7,0,3.9-2.6,9.6-6.3,11.1-4.5,1.9-8.3.7-11.3-3-.2-.2-.4-.6-.5-.9-2.4-1.4-5-5.9-5.9-8.6-.6-1.7-.9-3.8-1.3-5.6-1.1-1-2.1-2.9-1.9-4.4-.8-1.2-1.9-1.6-3.2-1.9-.6.5-1.5,0-2.1.2-.6.1-.5,1.1-1.2.9.6.4,1,1.3,1.1,2,.1.9.1,2.8,0,3.8-.1,1.9-.8,2.4-1.2,4-1,3.5-.8,5.1-2.7,8.7-.3.6-2.9,5.2-3.7,4.5l.2-1.8c-.3.2-.6.5-.9.7-3.8,2.8-8.4,3.8-12.3.5-.4-.1-.7-.4-1.2-.5,0,1.6-1.2,1.2-.8,3,1,4.4,6.6,6.5,10.5,4.6-.6,2.3-1.1,4.5-1.4,6.9-.2,1.3.5,3.5-1.6,3.8.2,1.1.3,2.5.5,3.7.8,1.5,1.1,3.2,1.8,4.8,3.2,6.8,9.5,8.9,16.7,8.4h0ZM114.7,145.3c2.2-.4,3,1.6,3.1,3.4,0,.1.4.2,0,.9-.4.9-1.5,1.3-2.4.9-.4-.2-.5-.7-.7-1-.6-1-1.7-3.8,0-4.1h0ZM112.1,145.5c1.7.7,1.2,5-.8,5.2-.3,0-1.2-.3-1.4-.5-1.2-1.3.9-5.2,2.2-4.6ZM88.8,155.1c1.1,0,2.1.7,3.2.9,2.7.6,5.4.1,7.7-1.3.3-.2,2.1-1.7,2.2-1.6.3.3-1.6,2.2-2,2.5-3.3,2.4-8.2,2.2-11.2-.5h0Z"/>
        <path class="st17" d="M84.6,140c-.2,4.8,3.1,9.9,7.7,11.4,9.4,3,16.6-5.9,13.6-14.8.8.2,1.5.6,2.4.3.8-.2,1-1.5,1.8-1.6,0-.9,0-2.9,0-3.8-.1-.7-.5-1.6-1.1-2-.6-.4-1.8-.5-2.5-.8-2.9-1.3-5.2-3.5-8.3-4.7-5.2-1.9-11.2-1.3-13.5,4.3l-1.6-2c-3.3-3-9-.8-9.5,3.6-.4,3.7,1.6,6.4,5.2,6.9.4,0,1.8,0,1.9,0,.2.1.2,2.5,1.4,3,.8.3,1.7.2,2.5,0h0ZM87.7,146.5c-1.7-2.3-2.7-5.9-1.7-8.6,2.2-5.8,7.9-8.4,13.7-5.7,1,.5,4.5,2.8,5.2,3.6.7.9.8,3.3.8,4.4.4,10.1-12,14.7-18,6.3h0ZM80.9,135.3c-1.6,1-3.9.2-5.1-1.2-1.4-1.6-1.6-2.8-1.2-4.9.4-1.6.5-1.9,1.9-2.8.7-.4.7-.5,1.6-.7,2.8-.6,6.1,1.1,5.8,4.3,0,.3-.2.5-.2.6-.4,1.6-.7,1.5-1.4,2.5-.1.2,0,.4-.5.9-.4.5-.3.7-.9,1.2h0ZM82.3,138.7c-.4-.2-.9-1-.9-1.5,0-.9,2.6-5.1,3.2-6,1.5-9.2,11.6-8.9,17.4-3.7,1.3.6,2.5,1.5,3.9,2,1.2.4,1.9,0,2.8,1,1.1,1.3,1,4.5-.9,4.8-1.5.3-5.3-2.7-6.8-3.5-5.7-3-11.1-2-14.9,3.2-.8,1-2.2,4.4-3.7,3.7Z"/>
        <path class="st17" d="M117.3,134.6c1.5,1.3,2.1.9,3.7.1-1.8,5.1.2,11,5.1,13.4,8.2,4,16-3.6,14.3-12,.7-.2,1.9-2,2.3-.8v-.7c0-.1-.2-.4-.2-.7-.2-2.5-.3-3.1-1.5-5.3-2.5-4.4-6.7-8-12.1-7.4.1-.4.6-.3.8-.9,1-2.9-3-5.2-4.4-2.8-.7,1.2,0,3.2,1.3,3.7.5.2,1.2,0,1.3.4-3.2.5-5.3,3.5-7.7,5.1-1.8,1.2-4.3,1.1-4.8,3.5-.3,1.5.7,3.4,1.9,4.4h0ZM139.5,140c-.5,6-6.6,9.6-12.2,7.5-5.6-2.1-8.9-10.7-4-15.1,7.1-6.4,17-2.1,16.2,7.6ZM126.5,117c1.6-.4,3.1,1.2,2.5,2.8-1.4,3.8-5.5-2.1-2.5-2.8ZM116.1,130c0-.1,0-.3.1-.4.4-.5,3.3-1.3,4.3-1.9,1.2-.7,2-1.9,3.1-2.7,3.6-2.9,7.1-4.1,11.4-1.7,2.6,1.5,6.3,5.7,6.3,8.8,0,.6-.3,2.1-1.2,1.8-.3,0-2.7-3-3.4-3.6-3.4-2.7-8-2.5-11.7-.6-1.7.9-4.3,3.8-5.6,4.1-1.3.4-1.5,0-2.3-.8-.9-.9-1.4-1.7-.9-3Z"/>
        <path class="st4" d="M140.4,136.2c1.6,8.3-6.2,16-14.3,12-4.9-2.4-6.9-8.3-5.1-13.4-1.6.8-2.2,1.2-3.7-.1.3,1.8.7,3.8,1.3,5.6.9,2.7,3.5,7.1,5.9,8.6,5.8,3.5,11.9,2,15.7-3.5-.4,3.1-3.8,5.5-6.7,6.1-2.5.6-6.6,0-8.6-1.7,3,3.8,6.7,4.9,11.3,3,3.7-1.5,6.4-7.3,6.3-11.1,0-.3-1-2-.9-2.9,0-.6.7-.7.9-1.2,0-.2.3-1.9.3-2.2-.4-1.1-1.6.6-2.3.8h0Z"/>
        <path class="st17" d="M145.5,130.6c3,1.4,5.7.1,7.6-2.2.7-1.9,1.2-3.4.5-5.5-1.3-3.5-6.4-4.5-9.1-2.2-1.5,1.3-1.9,3-2.2,4.9.4,2.1,1.2,4,3.2,5h0ZM143.4,127.7c-.1-.3-.2-.8-.2-1.2-.1-.6-.3-.7-.2-1.5,0-.2.4-1.7.4-1.9.1-.4.4-.5.5-.6,0-.1,0-.5.2-.8.4-.6.7-.5,1.2-.8.6-.3.5-.5,1.4-.7,1.2-.3,2.9-.2,4,.3,3.7,1.6,3.1,8.2-.4,9.5-.6.2-.9.1-1.3.2-.5,0-.8.3-1.4.2-1.3,0-2.7-.9-3.5-1.9-.2-.3-.5-.6-.7-.9h0Z"/>
        <path class="st18" d="M147.6,132.8c3,.2,4.7-1.9,5.6-4.4-2,2.4-4.6,3.6-7.6,2.2-2.1-1-2.8-2.9-3.2-5-.3,1.9-.4,3.1.8,4.8.5.7,1.3.9,1.5,1.6,1.4-.3,1.8.6,3,.7h0Z"/>
        <path class="st17" d="M146,152.7c.2-.7.6-1.3.7-2.1,0-1.3-.9-3.6-1.7-4.6-.2-.2-.5-.2-.6-.2.1.1,1.4,3.1,1.5,3.5.1.6.2,1.3.1,1.9,0,.6-.2.8-.7,1.2-.3.2-.1.4-.6,0-1.2-.9-1.4-3.1-1.3-4.4,0-.8.1-.9.5-1.6,0,0,0-.3,0-.5.1,0,.4,0,.5,0,0,0,0-.6-.5-.5-.2.6-.9,1.2-1.1,2.5-.3,2,.5,6.6,3.2,4.9h0Z"/>
        <path class="st17" d="M143,134.6c0,.4.1.6.2.9,1.5,1.5,3.3.9,4.9-.2.2-1.1.4-1.5-.5-2.5-1.3,0-1.7-1-3-.7-1.1.3-1.5.7-1.6,1.9,0,.2,0,.5,0,.7h0ZM143.4,133.8c.1-.8.3-.8.9-1.1,1.3-.5,3.9.5,3,2.1-.9,1.6-4.2,1.1-3.9-1h0Z"/>
        <path class="st17" d="M95.1,117c0-.7-.6-.6-.7-.7.3.7.1,1,0,1.6-.9,3.5-5.5.8-3.2-1.7.1-.2,1-.8,1.2-.8.5,0,1.9.4,2.1.9,0,0,0-.4-.2-.6-1.1-.8-2.6-1-3.4.2-.2.3-.8,1.6-.7,1.9,0,0,.5,1,.6,1.1,1.8,2.5,4.7.5,4.5-2.1h0Z"/>
        <path class="st18" d="M143.2,135.6c.5,1.8,1.8,2.9,3.6,1.9,1.1-.6,1-1.1,1.2-2.1-1.5,1.2-3.3,1.7-4.9.2h0Z"/>
        <path class="st17" d="M121.8,119.8c1.2-1.2-1.1-2.9-1.9-1.3-.7,1.4,1.1,2.1,1.9,1.3Z"/>
        <path class="st17" d="M138.7,119.9c-.9-.9-2.2.1-1.8,1.3,1,.8,2.6-.4,1.8-1.3Z"/>
        <path class="st17" d="M112.2,128.4c-.2,0-.8,0-.9,0-.1-.1,0-.8-.3-1.1-.7-.8-1.9.5-.9,1.3.6-.1,1.5.3,2.1-.2h0Z"/>
        <path class="st4" d="M143,134.6c0-.2,0-.5,0-.7h-.5c0,.3.2.6.2.7h.2Z"/>
        <path class="st17" d="M128.5,181c0-.1,1.3-1.7,1.5-2.1,2.6-4.8,3.5-9.7,2.8-15.1-.2-1.8-.8-4.1-1.5-5.8-.1-.3-1.4-3.3-2-2.8,2.1,4,3,8.6,2.8,13.1-.2,4.3-1.4,8.5-4.1,11.9-.3-.3-.8-.7-.8-1.2,0-.5,1.6-3.1,1.9-4.1,2.4-7,.4-15.6-4.8-20.8-2.7-2.7-5.3.2-8.3,1-3.6,1-6.3-1-9.9-.4-5.9,1-7.6,12.4-7.4,17.3.4,8.6,7.1,12.5,15.3,11.8v2.8c-7.2.5-13.5-1.6-16.7-8.4-.7-1.6-1-3.3-1.8-4.8.1.9,0,1.9.3,3.1,1.9,8.8,9.7,12.3,18.2,11.1.7,3.1,2,5.8,5.1,7.1,5.2,2,11.2-1.1,11.1-7.1,0-.7-.2-1.9-.3-2.6-.2-.8-1.5-3.5-1.4-3.8h0ZM128.3,175.6c0,.2-.9,2.2-1,2.3-.7.5-1.6-2.7-1.6-3.2,0-1.3,3.3-2,2.6.9h0ZM121.7,153.7c2.2-.7,3,3.1,1.6,4.2-2.3,1.9-4.2-3.4-1.6-4.2ZM108.6,155.2c3.2,1,6.4,1.5,9.6,0,.1.8-.4,1.3-.7,1.9-.7,1.4-1,2.3-2.9,2.5-2.5.3-4.2-.1-5.4-2.3-.3-.6-1-1.3-.6-2.1h0ZM104.9,156c2.8-.6,2.9,4.7.6,4.8-2.2.1-2.8-4.3-.6-4.8ZM101.7,178.4c-2-3-2-7.7-1.7-11.2.2-3.2,1.2-5.8,2.6-8.7l1.5,2.5c2.8,1.7,4.7-1.5,3.7-4.1-.1-.3-1.5-2.1-.2-1.6.2,0,1.1,2.4,1.4,2.8,2.3,3.6,7.8,3.4,9.5-.7.4-1,.3-2.4,1.5-2.8-1.1,2.9,1.7,6.1,4.3,3.5l.8-2.1c.7,1.3,1.7,2.4,2.4,3.7,2,4.1,2.4,9.2,1.5,13.6-.9-.5-1.6-.8-2.5-.5,0,.2-1,.9-1.2.7-.4-2.7-2.1-5.3-4.8-6.2-.9-.3-1.5-.2-2.4-.3-.1,0-.2-.1-.2-.2-.3,0-.8.2-1.2.2-1.3.2-2.4.6-3.6.7-1.2.1-2.6,0-3.8,0,0,.3-2.5,1.7-3,2.2-.6.6-1.7,2.2-2.1,2.9-.3.7-.4,1.7-.7,2.4-.5,1-1.6,1.8-1.7,3.2h0ZM104.3,176.1c3.8-.9,2.4,5.5-.6,3.5-1.5-1-1-3.2.6-3.5ZM103.9,180.6c3.4.1,4.5-3.5,1.6-5.3,2.1-2.6,4.5-1.6,5.8,1-6.2.2-2.7,8.8,1.8,4.2l.5,2.3c-3.2.7-7-.4-9.7-2.2ZM111.9,180.8c-2.1,1.8-5-1.6-2.8-3.4,2.5-2,4.5,2,2.8,3.4ZM129.3,188.3c-.3,3.8-3.3,5.7-6.9,5.8-2.3,0-3.5-.5-5.1-2.1-3.4-3.4-2.4-7.7-3.6-12-.7-2.5-3.5-8.7-6.9-6.9-.9.5-1.5,2.1-2.7,2.1-.5-.5,1.8-3.5,2.3-4,5.2-5.7,10.8-1.2,13.5,4.3,0-3.2-2.8-5.5-5.2-7.2,2.2-.5,5.3-.4,7.2,1,2.5,1.8,2.6,5.4,3.6,8,1.7,4.3,4.3,5.7,3.8,11.1h0Z"/>
        <path class="st13" d="M97.4,188.8c.3.3,3.4,5.6,3.7,6.3.7,1.3.9,2.8,1.6,4.1.2-1.9,1.5-4.6,3.6-2.5,1.4,1.4.5,4-.8,5.1,1,1,2.4,1.9,3.7,2.3.2-.3.1-1,.9-.9,0-.1.1-.3.2-.5.6-.8,1.1-1.3,2.1-1.6,1.3-.5,2.6-.6,3.9-.2.6-1.6,1.7-2.9,2.8-4.2-2.1-1.9-4.6-2.9-5.1-6.1-4.6,0-8.1-.5-11.9-3.1-.9-.6-2.1-2-2.9-2.5.6,1.5-.3,3.4-1.9,3.9h0ZM113.5,196.4c.3.2.3,1,0,1.1-1.7,1-1.7-2.5,0-1.1Z"/>
        <path class="st17" d="M112.4,201l.5.2c3-.7,5.1.3,6.5,3,.6,1.2.8,1.5.5,2.8-.5,2-1.1,2.8-3,3.5-1.2.4-2.4.7-3.7.5-.4,0-.7-.4-.9-.5-1.8-.6-3.1-1.1-3.5-3.2,0-.5,0-1.3,0-1.9-.8.5-.5,2.2-.2,2.9,1,3.3,6.7,4.2,9.4,2.6,4.1-2.5,3-9-1.5-10.2-1.4-.4-2.6-.3-3.9.2h0Z"/>
        <path class="st9" d="M108.7,207.3c.3-.2.5-.6.9-.5-.1.5,0,.7.2,1.2,0-1.3,1.4.6,1.9.9,0,0,.4.2.5.2.1,0,.3,0,.5,0s.2,0,.2,0c.9-2.2-1.8-1.5-1.8-1.6-.1-.2.3-1.1-.8-1.4l-.3.9c.2-.9-.8-2.1.4-2.2l2,1.8c.4-1.9-.6-1.5-.8-1.8-.3-.4.3-1.2-.8-.9l.2-.5c-1.2-.3-.2.8-1.2.7,0-.4.3-.6.5-.9-.8,0-.7.6-.9.9-.2.3-.7.8-.7.8,0,.2.2.4.2.6,0,.6,0,1.3,0,1.9h0Z"/>
        <path class="st17" d="M106.3,196.7c-2.1-2-3.4.6-3.6,2.5-.2,1.9.7,4.2,2.8,2.5,1.3-1.1,2.2-3.7.8-5.1h0ZM104.9,201.1c-3,1.7-1.9-4-.4-4.4,1.9-.5,2.3,3.3.4,4.4Z"/>
        <path class="st10" d="M98.3,185.1c-1.4.5-.2,1.9-1.5,1.9-.4,0,.3-1.6.6-1.9-.6.6-1.2,1.3-1.2,2.3,0,.2,0,.3.2.7h1.2c.8-.7,1.8-2.3.7-3Z"/>
        <path class="st17" d="M93.7,167.4c-.2,0-.2.1-.2.1-.1.5.4.4.5.7.6,1.5.4,2.6-1.4,2.9-.5,0-2.1-.2-2.3-.5-.1-.2,0-.5,0-.7,0-.4-.3-.7-.2-1.2,0,0-.4,0-.4.5s.4,1.1.6,1.6c1.7,1.3,4.8,1.1,4.6-1.6-.2-.6-.6-1.7-1.2-2h0Z"/>
        <path class="st17" d="M97.4,185.1c.4-.3.6-.2.9,0,1.1.7.1,2.3-.7,2.9h-1.2c.3.6.9.8.9.8,1.5-.5,2.5-2.4,1.9-3.9,0,0-.4-.2-.5-.2-1.1-.4-.8-.1-1.4.5h0Z"/>
        <path class="st5" d="M123.3,197.1l-.2,2.1c1.4,0,2-1.1,1.4-2.3-.6-.3-1.5-.1-2.1.2v.2l.9-.2Z"/>
        <path class="st17" d="M124.5,196.9c.6,1.2,0,2.3-1.4,2.3-.1,0-.3-.2-.5-.2h-.2c0,.1,0,.4.2.6,1.6,1.4,3.6-1.6,1.9-2.7h0Z"/>
        <path class="st10" d="M122.4,197.3v-.2c-.6.3-.6.8-.4,1.5,0,.3.4.3.4.4h.2l-.2-1.6h0Z"/>
        <path class="st17" d="M101.4,91.6c.4,1,1.9,4.4,2.4,5,1,1,1.8.2,3,.3.1-.1-1.6-2.9-1.7-3.5-.2-.6,0-1.3-.1-1.7,0-.2-.4-.1-.5-.1-.6-.1-1.8.4-1.6-.5h1.6c.3-1.7,1.1.6,1.5,1.1.5.7,2.7,3.9,3.2,4.2.5.3,2.4.4,2.4.1-.5-2.3-6.5-8.2-6.4-9.9,0-.8.7-1.9.4-2.9h-2.5c-.2,1.5.1,2.9-.2,4.4-.3,0-.6-.8-.7-1-.8-2.2,0-4.1-3.5-2.8,0,1.5.9,2.5,1.4,3.7.5,1.1.9,2.7,1.3,3.6h0Z"/>
        <path class="st17" d="M103.9,98.4l-3.9-4.9c-.6-.3-1.4,1-1.7,1-.5.1-.4-.6-.7-.7-.6-.1-1.1.2-1.5.2-.8,0-.7-.7-.9-1.2-.5-1.3-1-2.8-1.2-4.2.9.6,2.3,4.2,3,4.5.4.2,1.9-.5,2.3-.7.2-1-2.4-3.7-3-4.6-.4-.6-.6-1.8-1.1-2.2-1-.7-2.8,1-3.9,1.3.6,3.1,1.2,6.7,2.6,9.7.8,1.8,1.5,3.5,3.2,1.2l-.5-1.9c2.1-.9,1.4,0,2.1.6s.5,0,.7.3c.6.6,1,1.4,1.8,1.8.4,0,1.1-.1,1.6-.2.3,0,.8.1.9-.1h0Z"/>
        <path class="st17" d="M126.8,93.9c.6-.8-3.4-5.6-3.4-6.5,0-.1.1-.6.3-.6,1.2,0,3.5,3.9,4.1,4.9.6,1.1,1.1,2.7,1.7,3.6.1.2.5.2.6.2.3.4-.8,1-1.2.9-.8-.2-.8-2.2-1.9-2.1-.5,0-1,1-1.7.9,0,1.5,1.9.4,2.4,1.1.5.7-.8.8-.1,1.1.4.2,2.3.6,2.7.6.2,0,.9-.9,1.7-.5.1-.3-.2-.5-.2-.7l-1.4-.9,1.6.7c.9-3.1-3.6-8.9-6.4-10.4-.9-.5-3.9-1.5-4.6-.5-1.2,1.7,3.1,7,3.8,8.7.3.4,2-.5,2.1-.6h0Z"/>
        <path class="st17" d="M134.4,98.2c.4.4,1.9.5,2.5.6.3-.3-.8-3.6-1-4.2,0-.2-1.6-2.3-.2-1.9.2,0,1.4,2.5,1.5,2.9.3.7,1,3.4,1.2,3.6.2.2,1.4.4,1.8.7-.2-.6.4-.7.4-.8,0-.1-.2-1.6-.3-1.8-.4-.7-3.3-4.7-3.3-5,0-.3.4-.5.4-.8,0-.8-1.8-2.8-2.5-3.3-2-1.4-4.1-1.3-6.5-1.7,1.6,2.4,3.5,4.6,4.6,7.3.3.8,1.1,4,1.4,4.3h0Z"/>
        <path class="st17" d="M112.9,91.1c-.2.2-2.4-1.3-2.5-.3,0,.1,1,1.8,1.2,2.3.4.8,1.2,3.8,2,4h6.1c-.4-2.8-2-1.5-3.8-1.8-.7-.1-2.4-4-2.2-4.2h2.3c-.3-.5-1.1-1.4-1.8-1.4-1.5,0-1.2,1.3-1.3,1.4h0Z"/>
        <path class="st17" d="M152.2,94.4c-.6-.5-1.7-1.3-2.5-1.5h-.7c.5,0,.5.1.8.4,2.5,2.5,4.4,6.2,5.2,9.6,0,.4,0,1.2,0,1.4,0,0,1.6.8,1.9,1,.6,0,0-3.1-.2-3.5-.4-1.7-1.4-3.9-2.5-5.3-.3-.4-1.6-1.7-2.1-2.1h0Z"/>
        <path class="st17" d="M113,89.7c0-1.4-2-2.1-1.7-3.7l3,.2c0-.5-.2-1.5-.7-1.7-.1,0-1.5-.3-1.7-.3-1.4-.1-2.9.1-4.3,0,.2,1,.9,2.6,1.5,3.4,1,1.3,2.5,1.3,3.9,2.1h0Z"/>
        <path class="st10" d="M91.6,90.9c-1.2-.1-1.5.2-1.4,1.4,1.2.1,1.5-.2,1.4-1.4Z"/>
        <path class="st17" d="M97.1,99.7c.5,0,.9-.1,1.4-.2-.3-1.3-1.6-1.2-1.4.2Z"/>
        <path class="st10" d="M140.3,95.5c.9-.2.5-1.5-.2-1.4-.6.1-.5,1.5.2,1.4Z"/>
        <path class="st10" d="M96,94.1c.6-.9,0-1.3-.9-1.2.2.5.1,1.2.9,1.2Z"/>
        <path class="st11" d="M131.6,96.9c0-.1.2-.2.2-.2l-1.6-.7,1.4.9h0Z"/>
        <path class="st11" d="M104.5,91.6s0-.4,0-.5h-1.6c-.2.8,1,.3,1.6.5Z"/>
        <path class="st12" d="M140.2,107.9c2.2-.7,4.7,2.7,6.3,3.8.2-1-.8-2.1-1.5-2.8-3.3-3.5-8.2-3.8-6.8,2.3,1.1-.7.8-2.9,2.1-3.4h0Z"/>
        <path class="st12" d="M81,115.9c3.3,1.3,3.9-3.3,5.9-4.8l.3-1c-2.2.9-3.1,2.9-5.4,3.8-.4.1-1.7.3-1.8.4-.4.6.4,1.4,1,1.6Z"/>
        <path class="st12" d="M107.1,107.5c-.5-.6-1.7-.4-2.4-.3-1.3,0-3.1.3-4.4.5-.3,0-1.3,0-1.3.4.7.1,1.5.4,2.2.5.8,0,6.2.3,5.9-1h0Z"/>
        <path class="st12" d="M99.9,114.7c0-.9-.4-1.8-.7-2.6-.4-1-1.7-2.2-1.9-2.8-.1-.3.1-.8,0-.9-.4-.3-1.5.6-1.1,1.2l3.6,5.1h0Z"/>
        <path class="st9" d="M93.2,169.1c-.4,0-.9,0-1.2,0-.3-.1-.5-1.5-1.1-.9-.3.3.9,2.1-.7,1.8,0,.2-.1.5,0,.7.3.3,1.9.5,2.3.5,1.8-.3,2-1.4,1.4-2.9-.1-.3-.7-.2-.5-.7-.5,0-1.1,0-1.6,0,.6.3,1.3.8,1.4,1.6h0Z"/>
        <path class="st17" d="M76.1,140.4c-1.8,2.7,3.2,3.4,3.7,1.2,0-.3-.4-1.8-.7-1.9-.8-.6-2.5-.1-3,.7h0ZM78.9,141.8c-.8,0-1.2,0-1.9-.2-.3-.1-.7.3-.4-.7.1-.4.4-.5.8-.7,1.5-.5,1.3.4,1.4,1.6h0Z"/>
        <path class="st8" d="M90.2,170c1.6.2.4-1.6.7-1.8.6-.6.7.8,1.1.9.3.1.9,0,1.2,0,0-.8-.7-1.3-1.4-1.6-.3,0-.3-.3-.9.1-.6.4-.6.7-.9,1.3-.1.4.1.8.2,1.2h0Z"/>
        <path class="st17" d="M82.7,150.6c-.9.4-1.3,1.9-.6,2.6,1.7,1.6,3.2-2.3.6-2.6ZM82.6,153.1c-.1-.7-.3-1.2,0-1.9.9,0,1.6.8.9,1.6-.1.1-.8.4-.9.3h0Z"/>
        <path class="st17" d="M82.6,158.5v.2c1.3,1.3,2.1.5,3.2-.5.2-1.3.3-2-1.2-2.5-.2,0-.4.2-.5.2,2.5.9.5,4-1.6,2.5h0Z"/>
        <path class="st10" d="M80.1,146.2c-1.1-.2-.7.4-.8.5.4-.2,1.1,0,1.2.7,0,.8-.7,1.5-1.2.7-.2-.4-.3-1.2,0-1.4,0,0-.5,0-.7.4-.2.5-.1,1.6.4,1.8,1.6.8,2.7-2.3,1-2.7h0Z"/>
        <path class="st10" d="M82.6,158.5c-.1-.7.2-2.2.9-2.5.3-.1.5,0,.8,0,0,0,.3-.2.5-.2-2.4-.9-2.7,1.1-2.3,3h.2v-.2h0Z"/>
        <path class="st8" d="M59.2,115.7c.6,0,1.2.8,1.7.8,2.3,0,7.1-4.5,9.1-5.9,3-2.1,6.3-3.7,9.3-5.7.5-.6.1-2.2.2-3,.3-2.6,1.2-4.7,2.1-7.1-8.2,3.5-24.1,9.9-22.5,20.8h0ZM62.3,115c-2.4,1.8-3.6-2.3-.9-2.7,1.8-.3,2.3,1.7.9,2.7ZM74.2,98.8c2.3-.4,2.8,1.8,1,2.8-2.9,1.6-3.9-2.2-1-2.8Z"/>
        <path class="st17" d="M141.2,155c-4.4-2.1-8.8,1.9-7.7,6.4,1.6,6.5,11.9,4.5,10.6-2.8-.2-1.4-1.7-3.1-2.9-3.7ZM142.5,162.9c-1,1-2.5,1.8-3.9,1.6l.2-1.8c-.8-.1-.5.8-.8,1.4-.6,1.1-2.5-.4-3.1-1.1-.3-.4-.3-.5-.5-.9-.3-.8-.5-.9-.5-1.9,0-.8.4-2.2.9-2.8.2-.2.4-.3.7-.2-.4-1,.9-1.6,1.8-1.8,1.3-.3,2.4-.1,3.5.4,2.9,1.3,3.9,4.7,1.6,7.2h0Z"/>
        <path class="st17" d="M134.4,175.8c.3-.6.7-1.1.9-1.6-1.6.3-2,2.9-2.3,4.2l.2.5c.3-1.1.6-2,1.2-3h0Z"/>
        <path class="st7" d="M132.3,180.7c-.6-.5-.4-.1-.5.3,0,1.5,0,2.9,0,4.4.3.4.2-.3.2-.5,0-1.2,0-2,.2-3.1,0-.4,0-.8,0-1.2h0Z"/>
        <path class="st10" d="M132.3,180.7c0,.4,0,.8,0,1.2.8-.8.6-2,.9-3l-.2-.5c-.2.7-.3,1.2-.5,1.9-.1.5-.2.4-.2.5h0Z"/>
        <path class="st9" d="M109.2,117.4c-.1.8.2.4.7.7.5.3,1,1,1.6.3,0,0-.2-.4-.5-.5-.8-.4-.9.1-1.1-1.3-.4.2-.6.4-.7.8Z"/>
        <rect class="st10" x="95.1" y="216.3" width=".2" height="1.2"/>
        <path class="st2" d="M149,223.3c.2-.5.3-1.6.5-2.1-.7.2-.7,2.1-.9,2.3,0,0,.3.1.5-.2h0Z"/>
        <path class="st2" d="M148.5,223.5c0,0-2,.6-2.1,1.2.6,0,1.5-.4,1.9-.7.2-.1.1-.4.2-.5h0Z"/>
        <path class="st2" d="M97.3,227.2c-.3,0-.9-.2-.8.2,2.7.5,6.1.4,8.3-1.5-2.6,1.6-4.8,1.3-7.5,1.3h0Z"/>
        <path class="st6" d="M97.8,171.8c-.4,2.1.8,6,1.9,7.8,2.9,4.6,9.3,5.7,14.3,5.5v-1.4c-8.2.7-14.8-3.2-15.3-11.8-.3.1-.9-.4-.9-.1h0Z"/>
        <path class="st17" d="M133.5,151.4c2.9-.6,6.3-3.1,6.7-6.1-3.8,5.5-9.9,6.9-15.7,3.5,0,.3.2.7.5.9,2,1.7,6.1,2.3,8.6,1.7Z"/>
        <path class="st17" d="M102,153.1c-.2-.2-1.9,1.4-2.2,1.6-2.3,1.4-5,1.9-7.7,1.3-1.1-.3-2.1-1-3.2-.9,3,2.8,7.9,2.9,11.2.5.4-.3,2.3-2.2,2-2.5h0Z"/>
        <path class="st17" d="M89.5,151.8c3.9,3.4,8.4,2.3,12.3-.5l-.2-.2c-4.5,2.6-7.3,2-12,.7h0Z"/>
        <path class="st17" d="M111.4,150.6c2-.1,2.4-4.5.8-5.2-1.3-.5-3.4,3.3-2.2,4.6.2.2,1.1.5,1.4.5ZM111.8,146c.6,0,1.3,4.2-1.1,3.4-1.5-.5.1-3.1,1.1-3.4Z"/>
        <path class="st17" d="M117.7,148.8c-.1-1.8-.9-3.8-3.1-3.4-1.7.3-.5,3.1,0,4.1,1.2.9,2.2.3,3-.7ZM114.5,145.8c.7-.6,3.5,1.9,2.3,2.9-1.7,1.4-3.2-2.1-2.3-2.9Z"/>
        <path class="st4" d="M114.7,149.4c.2.3.3.9.7,1,.9.4,2,0,2.4-.9.3-.7,0-.7,0-.9-.8,1-1.8,1.6-3,.7h0Z"/>
        <path class="st10" d="M103.4,149.4c-.3.6-1.3,1.3-1.9,1.6l.2.2c.3-.2.6-.4.9-.7.1-.1,1.4-1.1.7-1.2h0Z"/>
        <path class="st6" d="M99.7,132.2c-5.8-2.7-11.4,0-13.7,5.7.5.6,0,1.4,0,2.2.2,8.6,11.8,12.2,17.1,5.6,1.4-1.7,1.7-3.5,2.5-5.4,0-1.1,0-3.5-.8-4.4-.7-.8-4.2-3.1-5.2-3.6h0ZM90.8,143c-4.4-3.4-3-9.9,2.6-10.8,2.2-.3,4.8,0,6.6,1.3,6.6,5.1-2.4,14.8-9.2,9.5h0Z"/>
        <path class="st4" d="M86.1,135c3.8-5.2,9.2-6.2,14.9-3.2,1.5.8,5.4,3.8,6.8,3.5,1.8-.4,2-3.5.9-4.8-4,.4-7.2-2.6-10.8-3.4-4.9-1.1-8.2.3-11.2,4.1-1.7,2.1-2.4,5.7-5.2,6,0,.5.5,1.3.9,1.5,1.6.7,3-2.6,3.7-3.7h0Z"/>
        <path class="st7" d="M86.6,131.2c3-3.8,6.4-5.2,11.2-4.1,3.7.8,6.9,3.8,10.8,3.4-.8-1-1.5-.6-2.8-1-1.4-.5-2.6-1.4-3.9-2-3.7-1.7-7.5-3.7-11.7-1.8-2.1,1-4.4,3.7-5.7,5.5-.7,1-3.3,5.1-3.2,6,2.9-.3,3.6-3.9,5.2-6h0Z"/>
        <path class="st11" d="M86,140.1c0-.8.5-1.6,0-2.2-1.1,2.7,0,6.3,1.7,8.6,6,8.3,18.4,3.8,18-6.3-.9,1.9-1.2,3.7-2.5,5.4-5.4,6.6-16.9,3.1-17.1-5.6h0Z"/>
        <path class="st8" d="M78.9,126.1c-.1.7.2.4.7.5v-.5c-.2,0-.5,0-.7,0Z"/>
        <path class="st8" d="M82.7,128.6c-1.5-.2-.5-1.6-.8-1.9,0,0-1.7-.1-2.3-.2,0,.6-.1,2-1,1.9-.2,0-.1-.7-.7-.7-1,0-1.3,1.5-1.2,2.2,0,.3.5.4.6.7.1.4,0,.8,0,1,0,.3.3.5.4.9,0,.3,0,.9,0,1,0,0,.7,0,.9,0,.9,0,1.9-.9,2.4-1,.1,0,.9.7,1.3.7.6-1,1-.9,1.4-2.5,0-1.4-.3-2.4-1.2-3.5-1,.3,1.3,1.5.1,1.4h0Z"/>
        <path class="st6" d="M90.3,125.6c4.1-1.9,7.9.2,11.7,1.8-5.7-5.2-15.8-5.5-17.4,3.7,1.3-1.8,3.6-4.5,5.7-5.5Z"/>
        <path class="st5" d="M79.7,134.1c-.7,0-1-.6-1.1-.7-.2,0-.8,0-.9,0,0,0,0-.7,0-1-.1-.3-.3-.6-.4-.9-1.3.4-1.5,0-2.1-.9-.1,0-.3,0-.5,0,0,1.4.6,2.4,1.4,3.5,1.5,1.1,3,1.3,4.9,1.2.7-.4.6-.7.9-1.2-.7-.5-1.4,0-2.1,0h0Z"/>
        <path class="st5" d="M75.2,130.7c.1,0,.3,0,.5,0-.2-.4,0-2.1,0-2.3.1-.1.7,0,.9-.4.1-.4,0-1,0-1.5-1.4.8-1.5,1.2-1.9,2.8-.1.6.2.9.5,1.4h0Z"/>
        <path class="st15" d="M76.5,128c-.2.4-.8.3-.9.4-.1.1-.2,1.9,0,2.3-.1,0-.3,0-.5,0,.5,1,.8,1.3,2.1.9,0-.2,0-.6,0-1,0-.3-.5-.5-.6-.7-.1-.7.2-2.3,1.2-2.2.6,0,.5.7.7.7.9,0,1-1.2,1-1.9-.4,0-.8.3-.7-.5-.2,0-.6,0-.7-.2-.9.2-.9.2-1.6.7,0,.4.1,1.1,0,1.5h0Z"/>
        <path class="st6" d="M78.9,126.1c.2,0,.5,0,.7,0v.5c.6.1,2.2.1,2.3.2.3.3-.7,1.7.8,1.9,1.2.1-1.1-1.1-.1-1.4.8,1,1.1,2.1,1.2,3.5,0,0,.2-.2.2-.6.3-3.2-3-4.9-5.8-4.3.1.3.5.2.7.2h0Z"/>
        <path class="st9" d="M78.6,133.5c0,0,.4.6,1.1.7.7,0,1.4-.5,2.1,0,.4-.5.3-.7.5-.9-.4,0-1.1-.7-1.3-.7-.6,0-1.6.9-2.4,1h0Z"/>
        <path class="st8" d="M76.1,134.2h-.2c1.1,1.3,3.5,2.2,5.1,1.2-1.9.1-3.3,0-4.9-1.2Z"/>
        <path class="st11" d="M74.7,130.7c.1,0,.3,0,.5,0-.3-.5-.6-.8-.5-1.4-.5,2.1-.3,3.2,1.2,4.9h.2c-.7-1.1-1.3-2.1-1.4-3.5h0Z"/>
        <path class="st4" d="M101.5,151.1c.5-.3,1.6-1,1.9-1.6.7,0-.6,1-.7,1.2l-.2,1.8c.8.8,3.4-3.9,3.7-4.5,1.9-3.5,1.7-5.2,2.7-8.7.4-1.5,1.1-2.1,1.2-4-.8,0-1,1.3-1.8,1.6-.8.3-1.6,0-2.4-.3,3,8.9-4.2,17.8-13.6,14.8-4.6-1.5-7.9-6.6-7.7-11.4-.8.2-1.7.3-2.5,0l-.2.7c.5.3,1.5.4,1.6.5,0,0,.3,2,.4,2.5.6,2.4,1.7,4.5,3.3,6.4.4.4,1.1.7,1.2,1.3.4.1.7.3,1.2.5,4.8,1.3,7.5,1.9,12-.7h0Z"/>
        <path class="st6" d="M123.3,132.3c-.2,1.3-1,2.2-1.2,3.6-1,10.1,11.3,14.5,16.2,6,.3-.6.4-1.9,1.2-1.9.8-9.7-9.1-14-16.2-7.6h0ZM127.8,140c-2.8-2.9-3.6-9.2,1.5-9.9,3.7-.5,8.2,2.1,8.6,6.1.7,6.3-6.1,7.9-10.1,3.8h0Z"/>
        <path class="st4" d="M140.2,132c-.3-.2-1.9-2.8-2.4-3.4-3.4-3.6-7.8-4.2-12.2-1.8-3.1,1.7-5.2,4.8-8.5,6.2.8.8,1,1.2,2.3.8,1.3-.3,3.9-3.2,5.6-4.1,3.8-1.9,8.3-2.1,11.7.6.7.6,3.1,3.5,3.4,3.6.9.2,1.2-1.2,1.2-1.8h-.2c-.3,0-.6,0-.9-.1h0Z"/>
        <path class="st7" d="M125.5,126.8c4.4-2.4,8.8-1.8,12.2,1.8.6.6,2.2,3.2,2.4,3.4.3.2.6.1.9.1-1.7-4.1-6.6-9.6-11.4-9-2.7.3-6.6,4-9.2,5.3-1.5.7-2.8,1.1-4.3,1.6-.5,1.3,0,2.1.9,3,3.3-1.4,5.4-4.5,8.5-6.2h0Z"/>
        <path class="st11" d="M138.3,141.9c-4.8,8.5-17.2,4.1-16.2-6,.1-1.4.9-2.3,1.2-3.6-4.9,4.4-1.6,13,4,15.1,5.6,2.1,11.7-1.4,12.2-7.5-.8,0-.9,1.3-1.2,1.9h0Z"/>
        <path class="st6" d="M129.7,123.1c4.9-.6,9.8,4.9,11.4,9h.2c0-3.1-3.7-7.4-6.3-8.8-4.2-2.4-7.8-1.2-11.4,1.7-1.1.9-1.8,2-3.1,2.7-1,.6-3.9,1.4-4.3,1.9-.1.1,0,.3-.1.4,1.6-.5,2.9-.8,4.3-1.6,2.6-1.3,6.6-5,9.2-5.3h0Z"/>
        <path class="st4" d="M129.1,119.8c-.6-1.1-1.7-1.9-2.5-2.8-2.9.7,1.1,6.6,2.5,2.8Z"/>
        <path class="st7" d="M129.1,119.8c.6-1.5-.9-3.2-2.5-2.8.9.9,1.9,1.6,2.5,2.8Z"/>
        <path class="st8" d="M146,126.2c.5.8,1.3.8,1.6,1.1.1.1,0,.4.2.6.9.9,1.6.4,1.2,2.3.5,0,.7,0,1.3-.2,3.5-1.3,4.1-7.9.4-9.5-1.1-.5-2.8-.5-4-.3l-.5,1.4-.9-.7c-.4.3-.8.2-1.2.8-.2.3-.1.7-.2.8,2-.1,1,2.1,2.1,3.6h0Z"/>
        <path class="st5" d="M145.5,128.5c.6.2,0,1,.6,1.3.5.1.4-.6.7-.7,1-.3,1.9.7.8,1.4.5,0,.9-.1,1.4-.2.3-1.9-.3-1.5-1.2-2.3-.2-.2-.1-.5-.2-.6-.3-.3-1-.4-1.6-1.1-1-1.4-.1-3.7-2.1-3.6,0,0-.4.2-.5.6,0,.2-.4,1.7-.4,1.9,0,.7.1.9.2,1.5,1-.3,1.3,1.1.2,1.2.2.4.4.6.7.9.4.1,1.1-.2,1.4-.1h0Z"/>
        <path class="st9" d="M147.6,130.5c1.1-.7.3-1.6-.8-1.4-.3,0-.2.8-.7.7-.5-.3,0-1-.6-1.3-.3-.1-1,.2-1.4.1.8,1,2.2,1.8,3.5,1.9h0ZM147.2,129.8c.1,0,.1.2,0,.2v-.2Z"/>
        <path class="st9" d="M143.2,126.5c0,.4,0,.8.2,1.2,1.1,0,.7-1.4-.2-1.2Z"/>
        <path class="st6" d="M146.7,120.3c-.9.2-.8.3-1.4.7l.9.7s.5-1.4.5-1.4Z"/>
        <path class="st4" d="M143.4,147.8l1.9,4.4c.5-.3.6-.6.7-1.2-1.3-1.3-1.4-3.3-2.1-4.9-.4.7-.4.8-.5,1.6h0Z"/>
        <path class="st7" d="M143.9,145.7c0,.1,0,.4,0,.5.7,1.6.8,3.6,2.1,4.9,0-.6,0-1.3-.1-1.9,0-.3-1.4-3.3-1.5-3.5,0,0-.3,0-.5,0h0Z"/>
        <path class="st10" d="M144.7,152.2c.5.3.3.2.6,0l-1.9-4.4c-.1,1.3,0,3.5,1.3,4.4h0Z"/>
        <path class="st4" d="M147.4,134.9c-.9-1.1-2.1-1.2-3-2.1-.6.2-.8.3-.9,1.1-.3,2.2,3.1,2.6,3.9,1h0Z"/>
        <path class="st7" d="M147.4,134.9c.9-1.6-1.7-2.6-3-2.1.9.9,2.1,1,3,2.1Z"/>
        <path class="st4" d="M92.3,115.4c-.1,0-1,.6-1.2.8-2.2,2.6,2.4,5.2,3.2,1.7-1-.3-1.7-1.7-2.1-2.5Z"/>
        <path class="st6" d="M92.3,115.4c.4.9,1.1,2.3,2.1,2.5.1-.6.3-.9,0-1.6-.2-.5-1.6-1-2.1-.9Z"/>
        <path class="st2" d="M121.9,169.2c-1.9-1.4-4.9-1.5-7.2-1,2.4,1.7,5.2,4,5.2,7.2-2.7-5.5-8.3-9.9-13.5-4.3-.5.5-2.8,3.5-2.3,4,1.2,0,1.8-1.6,2.7-2.1,3.5-1.8,6.2,4.4,6.9,6.9,1.2,4.3.2,8.6,3.6,12l.9-3.5c1,.3,1.5,1.1,2.5,1.6,1.2.5,2.1.5,3.3.5,2.9,0,4.3-1.1,3.7-4.3-.1-.7-.9-1.2-.9-2,1.3.9,1.4,2.9,2.5,3.9.4-5.4-2.2-6.9-3.8-11.1-1-2.6-1.1-6.2-3.6-8h0Z"/>
        <path class="st10" d="M104.1,172.8c-3.3.6-3.7-4.3-3.5-6.6.4-3.8,6.6-5,8.1-1.6.3.7.6,2.4.5,3.1,1.2,0,2.6.1,3.8,0,1.2-.1,2.3-.5,3.6-.7-.8-1.9-1.7-2.6-.6-4.6,1.4-2.5,5.4-2.4,7.9-2.1,3.8.4,3.9,6.3,3.3,9.1-.1.6-.7,2.8-.9,3.4,1-.3,1.7,0,2.5.5.8-4.4.5-9.5-1.5-13.6-.7-1.3-1.7-2.4-2.4-3.7l-.8,2.1c-2.5,2.7-5.4-.5-4.3-3.5-1.2.3-1.1,1.7-1.5,2.8-1.8,4.1-7.2,4.4-9.5.7-.3-.4-1.2-2.8-1.4-2.8-1.3-.4.1,1.3.2,1.6,1,2.6-.8,5.8-3.7,4.1l-1.5-2.5c-1.4,2.8-2.4,5.5-2.6,8.7-.2,3.5-.2,8.2,1.7,11.2,0-1.4,1.2-2.2,1.7-3.2.3-.7.4-1.7.7-2.4h0Z"/>
        <path class="st5" d="M123.9,160.3c-2.5-.3-6.5-.4-7.9,2.1-1.1,2.1-.2,2.8.6,4.6.4,0,.9-.2,1.2-.2s.3,0,.2.2c.9.1,1.4,0,2.4.3,2.7.8,4.4,3.5,4.8,6.2.2.2,1.1-.5,1.2-.7.2-.5.8-2.7.9-3.4.5-2.8.5-8.7-3.3-9.1h0Z"/>
        <path class="st5" d="M108.7,164.6c-1.5-3.4-7.6-2.2-8.1,1.6-.3,2.3.2,7.2,3.5,6.6.3-.7,1.5-2.3,2.1-2.9.5-.5,3-1.9,3-2.2.2-.7-.2-2.4-.5-3.1h0Z"/>
        <path class="st10" d="M111.3,176.3c-1.3-2.7-3.7-3.6-5.8-1,2.9,1.8,1.8,5.4-1.6,5.3,2.7,1.7,6.5,2.9,9.7,2.2l-.5-2.3c-4.6,4.7-8.1-4-1.8-4.2Z"/>
        <path class="st8" d="M122.7,191.6c-.3-.5-1.4-.4-.9.5-.4,0-3.2-1.6-2.7-2.1,1.4.5,2.5,1.2,4,1.2.4,0,.9.2.8-.5-1.2,0-2.1,0-3.3-.5-.9-.4-1.5-1.3-2.5-1.6l-.9,3.5c1.6,1.6,2.8,2.1,5.1,2.1-.2-.6.6-2.2.4-2.5h0Z"/>
        <path class="st11" d="M117.5,157.1c.2-.5.8-1.1.7-1.9-3.2,1.5-6.4.9-9.6,0-.4.8.2,1.5.6,2.1,2.9.6,5.4.6,8.3-.2Z"/>
        <path class="st6" d="M111.9,180.8c1.7-1.4-.3-5.4-2.8-3.4-2.2,1.8.7,5.2,2.8,3.4Z"/>
        <path class="st3" d="M105.6,160.8c2.3-.1,2.2-5.4-.6-4.8-2.2.5-1.6,4.9.6,4.8Z"/>
        <path class="st6" d="M109.2,157.3c1.3,2.2,3,2.6,5.4,2.3,1.9-.2,2.2-1.1,2.9-2.5-2.9.8-5.4.8-8.3.2h0Z"/>
        <path class="st3" d="M123.2,157.9c1.4-1.2.7-4.9-1.6-4.2-2.7.8-.8,6.2,1.6,4.2Z"/>
        <path class="st6" d="M104.3,176.1c-1.6.4-2.1,2.5-.6,3.5,3,2,4.5-4.4.6-3.5Z"/>
        <path class="st3" d="M125.7,174.7c0,.4.9,3.7,1.6,3.2.1,0,1-2.1,1-2.3.7-2.9-2.6-2.2-2.6-.9h0Z"/>
        <path class="st10" d="M117.7,166.8c0,.1.1.2.2.2,0-.1-.1-.2-.2-.2Z"/>
        <path class="st8" d="M110.8,203.4l-.2.5c1.1-.2.5.5.8.9.3.4,1.3,0,.8,1.8l-2-1.8c-1.2.1-.2,1.3-.4,2.2l.3-.9c1.1.3.7,1.2.8,1.4,0,.1,2.7-.6,1.8,1.6.5,0,.9-.2,1.4-.2.5,0,3.1-.4,3.2-.5,0,0,0-.8,0-1,0-.3-.6,0-.5-.4.6,0,.9.5,1.5.5s.3-.4.3-.5c0-1-.3-2,.5-2.8-1.4-2.7-3.4-3.7-6.5-3l-2.5,1.4c0,.1-.1.3-.2.5-.2.3-.5.5-.5.9.9,0,0-1,1.2-.7h0ZM112.1,202.7c.3,0,2.7.3,2.8.5.1.2.2.6.1.7,0,0-.5,0-.7.1-.6.3-.7.6-1.4.5-1.3-.1-1.8-1.7-.8-1.8h0Z"/>
        <path class="st17" d="M113.5,197.6c.2-.1.2-.9,0-1.1-1.6-1.3-1.6,2.1,0,1.1Z"/>
        <path class="st10" d="M112.4,201c-1,.4-1.5.8-2.1,1.6l2.5-1.4-.5-.2h0Z"/>
        <path class="st9" d="M118.9,207.1c0,0,.2.5-.3.5s-1-.5-1.5-.5c-.1.4.4.1.5.4,0,.2,0,.9,0,1-.1.1-2.7.4-3.2.5l-.2,1.2c.6,0,1.3-.4,1.9-.2.3,0,.3.8.9.7,1.9-.7,2.5-1.5,3-3.5-.2.2-.9,0-.9,0Z"/>
        <path class="st5" d="M112.2,209.2s-.4-.2-.5-.2c0,2.4-1.5-.3-1.9-.9-.2-.4-.3-.6-.2-1.2-.4,0-.6.3-.9.5.4,2.2,1.7,2.7,3.5,3.2-.3-.4,0-.9,0-1.4h0Z"/>
        <path class="st5" d="M116,209.8c-.6-.2-1.3.3-1.9.2l.2-1.2c-.5,0-.9.2-1.4.2,0,0-.2,0-.2,0,0,.9,1,.5,1.4,1l-.9.8c1.3.2,2.5,0,3.7-.5-.6.1-.6-.6-.9-.7h0Z"/>
        <path class="st5" d="M118.9,207.1s.7.2.9,0c.3-1.3.1-1.6-.5-2.8-.7.8-.4,1.8-.5,2.8h0Z"/>
        <path class="st10" d="M112.7,209.2c-.1,0-.4,0-.5,0,0,.5-.3,1,0,1.4.2,0,.6.4.9.5l.9-.8c-.4-.5-1.4-.1-1.4-1h0Z"/>
        <path class="st10" d="M111.7,208.9c-.4-.3-1.9-2.2-1.9-.9.3.6,1.9,3.3,1.9.9Z"/>
        <path class="st4" d="M104.5,196.7c-1.5.4-2.6,6.1.4,4.4,1.9-1.1,1.5-4.9-.4-4.4Z"/>
        <path class="st11" d="M96.8,186.9c1.3,0,.1-1.3,1.5-1.9-.4-.2-.5-.3-.9,0-.3.2-1,1.8-.6,1.9Z"/>
        <path class="st13" d="M122.4,197.3l.2,1.6c.1,0,.4.2.5.2l.2-2.1-.9.2h0Z"/>
        <path class="st8" d="M77.9,141.3l-.9.2c.7.3,1.1.3,1.9.2-.1-1.2.1-2.1-1.4-1.6l.5,1.2h0Z"/>
        <path class="st2" d="M77.5,140.2c-.4.1-.7.2-.8.7-.3,1,0,.6.4.7l.9-.2-.5-1.2h0Z"/>
        <path class="st8" d="M82.6,151.3c-.3.7-.1,1.2,0,1.9.1,0,.7-.1.9-.3.7-.7,0-1.5-.9-1.6h0Z"/>
        <path class="st9" d="M84.2,155.9c-.2,0-.5,0-.8,0-.7.3-1,1.8-.9,2.5,2.1,1.4,4.2-1.6,1.6-2.5h0Z"/>
        <path class="st12" d="M79.3,148.1c.2-.5.7-.6,1.2-.7,0-.7-.8-.9-1.2-.7-.3.2-.2,1,0,1.4h0Z"/>
        <path class="st8" d="M79.3,148.1c.5.9,1.2,0,1.2-.7-.5,0-1,.2-1.2.7Z"/>
        <path class="st2" d="M75.1,101.6c1.9-1.1,1.3-3.3-1-2.8-3,.6-1.9,4.5,1,2.8Z"/>
        <path class="st2" d="M61.5,112.2c-2.7.4-1.6,4.5.9,2.7,1.4-1,.9-3-.9-2.7Z"/>
        <path class="st8" d="M140.9,155.7c-.8,1.1-3.7-.3-3.7,1,0,0,.9.2.5.6-.2.2-.7-.5-1.2.7-.5,1.3,0,2.6,1.1,3.4.2.1,1.9,1,2,1,.2,0,1.2-.6,1.8-.7v1.2c.4,0,.7,0,1,0,2.2-2.4,1.3-5.9-1.6-7.2h0Z"/>
        <path class="st9" d="M141.6,162.9v-1.2c-.7,0-1.7.7-1.9.7-.1,0-1.8-.8-2-1-1.1-.8-1.6-2.1-1.1-3.4h-.9c0,.8,0,1.6.5,2.3.3.5,1.3.8.7,1.8l-.9-1.1c0-.1,0-.4,0-.5-.1-.1-.5-.5-.7-.7l-1.2.2c0,1,.1,1.1.5,1.9,1.7-.5,2.1,0,.5.9.6.8,2.5,2.2,3.1,1.1.3-.6,0-1.5.8-1.4.4,0,.7.4,1.3.5.7,0,1-.2,1.5-.2h0Z"/>
        <path class="st15" d="M136.5,158c.4-1.2.9-.5,1.2-.7.5-.4-.5-.5-.5-.6,0-1.4,3,0,3.7-1-1.2-.5-2.2-.7-3.5-.4-.9.2-2.2.8-1.8,1.8.1.3.5.5.5.9h.5,0Z"/>
        <path class="st5" d="M141.6,162.9c-.5,0-.8.3-1.5.2-.5,0-.8-.4-1.3-.5l-.2,1.8c1.4.1,3-.6,3.9-1.6-.3,0-.6,0-.9,0h0Z"/>
        <path class="st15" d="M134.4,159c.1-.2.4.3.4-.9v-.7c-.6.6-.9,2-.9,2.8l1.2-.2c-.3-.4-.9-.5-.7-.9h0Z"/>
        <path class="st5" d="M134.4,161.9c.2.4.1.5.5.9,1.7-.9,1.3-1.5-.5-.9Z"/>
        <path class="st8" d="M136,158c0-.4-.4-.7-.5-.9-.3,0-.5,0-.7.2v.7h1.2Z"/>
        <path class="st4" d="M110.7,149.4c2.4.7,1.7-3.4,1.1-3.4-1,.4-2.6,3-1.1,3.4Z"/>
        <path class="st4" d="M116.8,148.6c1.2-1-1.6-3.5-2.3-2.9-.9.7.6,4.3,2.3,2.9Z"/>
        <path class="st3" d="M100,133.5c-1.8-1.4-4.4-1.7-6.6-1.3-5.6.9-7,7.4-2.6,10.8,6.9,5.4,15.8-4.3,9.2-9.5h0ZM91.7,140.9c-1.4-.9-1.3-3.7.4-4,.6,0,1.3,0,1.8.2,0,.4-.6.2-.9.3-1.3.7.8,2.9,1.2.6,0-.2-.4-.8,0-.6,2.2,1.8,0,5-2.5,3.4h0Z"/>
        <path class="st3" d="M129.3,130.1c-5.1.7-4.3,7-1.5,9.9,3.9,4,10.8,2.5,10.1-3.8-.4-4-4.9-6.6-8.6-6.1h0ZM127.8,137.9c-.4-1.5.1-2.6,1.7-2.5h.7c-.4.6-.8,1.1-.7,1.8.9.3,1.3-.3,1.2-1.2.6-.1.5.4.7.7,1.9,3.1-2.8,4-3.6,1.2h0Z"/>
        <path class="st5" d="M147.2,129.8v.2c.1,0,.1-.2,0-.2Z"/>
        <path class="st5" d="M126.8,184.4c0,.7.8,1.3.9,2,.6,3.2-.8,4.2-3.7,4.3.1.7-.4.5-.8.5-1.6,0-2.6-.6-4-1.2-.5.5,2.2,2,2.7,2.1-.5-.9.6-.9.9-.5.2.3-.6,2-.4,2.5,3.6,0,6.6-1.9,6.9-5.8-1.2-1-1.2-3-2.5-3.9h0Z"/>
        <path class="st5" d="M112.8,204.5c.7,0,.9-.2,1.4-.5.2-.1.7,0,.7-.1,0,0,0-.5-.1-.7,0-.1-2.5-.5-2.8-.5-1.1,0-.6,1.7.8,1.8h0Z"/>
        <path class="st5" d="M134.4,159c-.3.4.3.5.7.9.2.2.6.6.7.7l.2-.2c-.4-.7-.5-1.5-.5-2.3h-.7c0,1.3-.3.7-.4.9h0Z"/>
        <path class="st10" d="M135.8,161.1l.9,1.1c.6-1-.4-1.3-.7-1.8l-.2.2c0,0,0,.4,0,.5Z"/>
        <path class="st10" d="M91.6,139.8c1.1,1.9,3.6,0,2.5-1.7-.3,2.4-2.5,0-1.2-.6.3-.2.9,0,.9-.3-.6-.2-1.2-.3-1.8-.2-.3,1.1-1.2,1.6-.4,2.9h0Z"/>
        <path class="st17" d="M94.1,137.5c-.4-.2,0,.4,0,.6,1.1,1.7-1.5,3.6-2.5,1.7-.7-1.3.1-1.7.4-2.9-1.8.3-1.8,3.1-.4,4,2.4,1.6,4.7-1.6,2.5-3.4h0Z"/>
        <path class="st17" d="M128.1,136.8c0-.5.4-.5.5-.6,0,0,0-.3,0-.4.2-.2.7-.2.9-.5-1.6,0-2.1,1-1.7,2.5.8,2.8,5.5,2,3.6-1.2.8,3.1-3.5,2-3.3.1h0Z"/>
        <path class="st10" d="M128.6,136.3c0,.1-.4.1-.5.6-.3,1.9,4,3,3.3-.1-.2-.3,0-.8-.7-.7.1.9-.3,1.4-1.2,1.2-.6-.2-.7-.3-.9-.9h0Z"/>
        <path class="st6" d="M128.7,135.9c-.1.1,0,.3,0,.4.2.6.3.7.9.9-.1-.8.3-1.3.7-1.8-.2,0-.5,0-.7,0-.2.3-.7.3-.9.5h0Z"/>
      </g>
      <g>
        <path class="st15" d="M109.6,24.7h-.5c-.7,1.1-3.6,4.9-3.7,5.9,0,.4,1.1,1,1.4,1.7.6,1.3.7,3.1.6,4.5,0,1-.6,2.1-.7,3,0,.4,0,.3.3.3,2.6,0,4.3-4.1,4.7-6.2.6-3,.4-7.3-2.2-9.3h0Z"/>
        <path class="st15" d="M101.5,26.1c-1,0-3.7-.5-3.9.8.9,7.9,1.6,15.9,1.4,23.9-.4,0-.4-.4-.5-.7-2.5-6.6-3.4-15-6.7-21.3-.9-1.8-1.6-2-3.6-1.3-.8.3-.9,1.4-1.1,2.2-1.2,5.5-.7,13-.7,18.7-.1,7.4-.6,16.2.3,23.5,0,.5.3,2.1.8,2.2.2,0,2.9-.4,3.2-.5.6-.2.4-2.8.4-3.5-.4-9-1.6-18-.9-27.1,0-.6.2-1.9.8-1,1.4,2.1,2.8,8.4,3.5,11.1,1.4,6,1.8,11.6,3,17.4.1.6.2,1.9,1,2,.9.2,3.4.1,3.8-.8.3-1.8.6-3.8.7-5.6.5-10.2.2-21.1-.3-31.2-.1-3,0-6-.9-8.9h0Z"/>
        <path class="st15" d="M134.2,47c0-.9,1.6-3.5,2-4.7,1.4-4.1,2-12.4-2.7-14.6-.8-.4-1.8-.5-2.8-.7-.9-.2-5.9-.9-6.4-.7-.6.2-1,3.1-1,3.8-1.1,8.7-.6,19.3-.5,28.2,0,3.8-.4,9.8.6,13.3.1.4.3,1,.7,1.1l9.2,1.2c1-.2,2.1-.5,2.8-1.2,3.5-3.5,2.4-12.9,1.1-17.3-.6-1.9-3.2-7.2-3.1-8.4h0ZM127,38.3c.2-1.2.9-4.1,2.2-4.5,1.8-.6,3.3.6,3.5,2.4.5,3.4-1.6,7.2-3.8,9.6-.6.6-1.5,1.7-2,.6-.5-1.1-.1-6.7,0-8.1h0ZM132,66c-1,.5-2.7.4-3.6-.3-1-.9-1.4-4.1-1.5-5.4,0-1.3-.2-3.9,0-5.1.1-.7,2.7-3.4,3.3-3.8,1-.7,1.4.7,1.8,1.5,1.4,2.9,3.5,11.3-.1,13.2Z"/>
        <path class="st15" d="M148.1,31c-1.6,1.4-3.4,5.5-4.2,7.5-3.3,8.7-4.2,20.1-3.8,29.3,0,1.7.3,5.6,1,7.1.4.9,3.5,1.6,4.5,1.8.3,0,.4.2.6-.1-.5-4.2-2.6-9.2-1.3-13.4.9-2.9,3.4-3.8,6.1-2.5,3.1,1.4,1.9,7.2,1.5,9.9-.2,1.3-1.7,6.5-1.5,7.2.2.6,4.3,2.1,4.7,2,.4,0,.7-1.2.8-1.5.4-1.6.5-4.5.5-6.2.4-11-.7-29.1-5.8-38.9-.7-1.4-1.6-3.5-3.2-2.1h0ZM149.6,52.7c-.9,0-3.6.3-3.9.2-.6-.2-.4-2.3-.4-2.9.1-1.8,2.2-9.2,3.7-10,.2-.1.5-.2.7,0,1,.6,2.8,9.5,2.8,11,.1,3.2-.9,1.9-2.9,1.7h0Z"/>
        <path class="st15" d="M168.9,57.7c1.2-3.4,2.8-6.6,3.6-10.1.3-1.5,1-5.1.6-6.5-.2-.6-3.3-2.3-3.8-1.6-.2.3-.9,5.1-1.1,6.1-.4,1.7-1,3.5-1.5,5.2-.5,1.4-1.7,4.7-2.5,5.8-.2.3-.4.1-.7.1-.2-6.5.2-12.9,1.2-19.3,0-.8-3.6-2.2-3.8-2.2-.5.1-.7,1.7-.8,2.2-.5,2.8-.4,5.7-.5,8.5-.4,9.1-.6,18.7-.3,27.8,0,1.9.2,5.1.6,6.8.4,1.6,3,2.1,4.5,2.4l-.9-14c.2-1.4.6-2.8,1.3-4.1.2-.4,1.2-2.1,1.7-1.6.2.2,1.2,4.4,1.3,5.1,1,5.5,1.1,11.1,1.4,16.6.4,1.1,3.4,2.1,4.5,2.6.5-.4-.1-8.5-.2-9.8-.7-6.8-2.4-13.4-4.4-19.9h0Z"/>
        <path class="st15" d="M55.7,56.5c1-4.2,2.6-8.3,3.4-12.6.2-1.2,1.3-7.7.8-8.1-.9.4-3.5,1.1-3.8,2.1-.9,7.8-2.9,15.3-5.4,22.7-.3.3-.4,0-.5-.3-.3-2.6.3-5.9,0-8.6l1.1-11.3c-.3-.9-2.9.7-3.4,1.1-.4.3-.5.5-.6,1-.8,2.4-.6,6.4-.7,9-.5,10.3-.8,21.4-.3,31.7,0,1.7.3,3.6.7,5.2.2.1,3.5-1.6,3.8-1.8.5-.4.4-1.4.4-2-.3-6.6-2.1-12,.9-18.3.4-.8.7-2.1,1.5-.9,1.2,1.8,1.8,8.1,2,10.5,0,1.1.1,7.4.3,7.8.3.4.7.2,1.1.1.3,0,3.1-1.3,3.2-1.4.7-.6.5-3.8.5-4.8-.3-7.2-2.1-14.2-4.9-20.8h0Z"/>
        <path class="st15" d="M35.8,49.3c-5.2,11.3-8,34.5-6.4,46.8,0,.4.5,2.8.7,2.9.4.3,4.2-2.4,4.3-2.9.2-.7-1.2-5.5-1.3-6.9-.3-3.3,0-6.7,1.8-9.5.8-1.3,5.2-6.4,5.6-2.7.6,5-1.2,10.8-1.8,15.7.1.2.3.4.5.4s3.6-2,3.8-2.2c.3-.3.6-1.4.7-1.9.3-1.4.4-3.6.5-5.1.4-8.5.1-27.9-4.7-34.9-1.8-2.6-2.5-2.2-3.7.4h0ZM39.7,66.9c-.4,1.3-1.6,1.5-2.5,2.4-1,.9-2.1,2.6-3,3.2-.2.2-.3.4-.7.3,0-2.9.5-5.7,1.1-8.5.4-1.9,1-4.5,1.8-6.3.2-.5.5-1.3,1.2-1.4.6.1,1.7,4.3,1.9,5.1.3,1.4.7,3.8.3,5.2h0Z"/>
        <path class="st15" d="M74.3,66.4c-.2.1-2,3.2-2.7,3.9-3.2,2.9-4.7,0-5-3.1-.3-3.4,0-12.9,5.5-10.5.4-.3,1.8-9.6,1.6-10.3-.4-1.3-3,.7-3.6,1.2-.4.4-2.2,3-2.9,2.6-1-3-.1-11,3.6-11.7,1.8-.4,2.1.6,3.2,1.3.2.1.2.4.5,0,.4-.6,1.9-7.3,1.9-8.3,0-.6,0-1.1-.7-1.2l-11,3.6c-1.3,8.7-1.6,17.6-1.8,26.3-.2,5.9-.7,12.9-.3,18.7,0,.3.2,1.7.4,1.7l13.8-4.3c.2-.7-1.5-9.7-1.9-10,0,0-.5,0-.7,0h0Z"/>
        <path class="st15" d="M185.1,85.5c-4.3,2.1-5.6-5-5.8-7.9-.1-1.7-.2-8.1,2.6-7.5,1.1.2,1.5,1.5,2.1,2.1.2.2.3.6.6.1.3-.4,1.5-7,1.5-7.8,0-3.1-3.7-2.5-5.8-2.2-1.2-2.5-.7-12.8,3.8-8.3,1.1,1.1,1.4,2.5,2.1,3.6.1.2.2.6.5.3.2-.2,1.6-6,1.6-6.6,0-.7,0-1.1-.6-1.6l-10-6.3c-.2.1-.2.2-.3.4-.4,1-.6,4.9-.7,6.2-.9,10.8-1.9,25.2-1.2,35.9,0,.6.2,1.9.3,2.4.3,1,4.5,3.1,5.7,3.8,2.3,1.5,4.5,3,6.8,4.5.6,0-1.3-11-1.6-11.8-.5-.7-1.2.3-1.7.6h0Z"/>
        <path class="st15" d="M202.4,92.1c-.2-5-1.6-9.9-3.8-14.4-1.7-3.5-4.7-6.9-5-11-.1-1.3-.2-5,2-4.1,2.4,1,3,6,3.9,8.1.3.8.6.5,1-.2,1.9-3.6.7-7.6-1.2-11-2.2-4.2-6.8-8.7-8.7-1.4-1.3,5-.4,11.7,1.4,16.5,2.1,5.7,7.7,11.5,6.8,17.8-.6,4-3.6,1.2-4.8-.8-2.3-3.8-2.6-8.6-3-12.9-.5-.5-1,1.4-1,1.6-1.8,6.3.6,18,5.4,22.6,5.1,4.8,6.7-1.8,7-5.9,0-1.6,0-3.5,0-5.1h0Z"/>
        <path class="st15" d="M26.6,56l-3.5,2.7c-.7.6-.5,2.1-.4,3,.4,10.3,1.6,20.6.9,31,0,.8-.4,4.1-.9,4.4-1,.6-1-1.4-1.3-2.1-.1-.2-.2-.6-.5-.3-.3.3-1.1,6.9-1.2,7.7,0,2,0,5.9,3.1,4,3.3-2.1,4.4-12.3,4.6-16,.4-9.1.2-19.6-.3-28.7,0-1.9.1-3.8-.5-5.7h0Z"/>
      </g>
    </g>
  </g>
</svg>