<?xml version="1.0" encoding="UTF-8"?>
<svg id="Layer_2" data-name="Layer 2" xmlns="http://www.w3.org/2000/svg" viewBox="0 0 543.65 587.59">
  <defs>
    <style>
      .cls-1 {
        fill: #8f4b3c;
      }

      .cls-2 {
        fill: #ecdeca;
      }

      .cls-3 {
        fill: #db8b6e;
      }

      .cls-4 {
        fill: #70352e;
      }

      .cls-5 {
        fill: #eed5c0;
      }

      .cls-6 {
        fill: #f4ece6;
      }

      .cls-7 {
        fill: #e0a48e;
      }

      .cls-8 {
        fill: #9d7165;
      }

      .cls-9 {
        fill: #f1efeb;
      }

      .cls-10 {
        fill: #e8dcca;
      }

      .cls-11 {
        fill: #eebba3;
      }

      .cls-12 {
        fill: #eabe9c;
      }

      .cls-13 {
        fill: #f6f0ea;
      }

      .cls-14 {
        fill: #e6dfd9;
      }

      .cls-15 {
        fill: #7c3d23;
      }

      .cls-16 {
        fill: #f8dcc5;
      }

      .cls-17 {
        fill: #efd4c7;
      }

      .cls-18 {
        fill: #eadecc;
      }

      .cls-19 {
        fill: #ede3dd;
      }

      .cls-20 {
        fill: #efbca4;
      }

      .cls-21 {
        fill: #b64e31;
      }

      .cls-22 {
        fill: #e4e1de;
      }

      .cls-23 {
        fill: #763d35;
      }

      .cls-24 {
        fill: #7d3c22;
      }

      .cls-25 {
        fill: #fadec7;
      }

      .cls-26 {
        fill: #eed2c5;
      }

      .cls-27 {
        fill: #784038;
      }

      .cls-28 {
        fill: #813e32;
      }

      .cls-29 {
        fill: #ebdecc;
      }

      .cls-30 {
        fill: #7d3e24;
      }

      .cls-31 {
        fill: #9e542c;
      }

      .cls-32 {
        fill: #f2d6c0;
      }

      .cls-33 {
        fill: #e6e1dd;
      }

      .cls-34 {
        fill: #d27c5e;
      }

      .cls-35 {
        fill: #763c35;
      }

      .cls-36 {
        fill: #7a4038;
      }

      .cls-37 {
        fill: #ede2db;
      }

      .cls-38 {
        fill: #ece3dd;
      }

      .cls-39 {
        fill: #d99b83;
      }

      .cls-40 {
        fill: #c8795c;
      }

      .cls-41 {
        fill: #dec2ab;
      }

      .cls-42 {
        fill: #a25c34;
      }

      .cls-43 {
        fill: #7e4a41;
      }

      .cls-44 {
        fill: #e8e3df;
      }

      .cls-45 {
        fill: #efd4c8;
      }

      .cls-46 {
        fill: #81452a;
      }
    </style>
  </defs>
  <g id="mushroom">
    <g>
      <path class="cls-18" d="M315.52,235.67c1.05.25,16.54,10.49,18.06,11.94,35.4,33.9,15.89,90.42-34.06,88.04.28-.77.15-3.87,0-4,.95-1.53,3.35-2.72,4-4,15.92.33,21.04-13.73,20-27.99-.74-10.11-12.31-11.98-14.29-19.57-4.2-16.02,8.36-33.34-12.44-35.47-3.11-.32-4.71,2.99-5.26,3.05-13.28,1.53-28.83,1.54-12,12l-12,4c-.92-3.17-6.18-4.85-3.57-13.05,5.01-15.72,38.35-18.07,51.56-14.95Z"/>
      <path class="cls-12" d="M527.49,423.62c-3.61.46-5.97-3.14-8-4,13.42-9.87-29.54-30.22-24-12-1.68-2.54-4.31-8.31-6.36-8.21-13.85,11.57-26.81,3.14-37.64,16.21-8.15,9.84-17.6,29.84,0,35.99,2.78.97,8.45-.66,12,0-53.25,17.01-40.46-63.13,1.07-76.9,34.87-11.56,76.93,14.27,62.92,48.91Z"/>
      <path class="cls-29" d="M299.52,95.7c-38.62,25.75-99.41-10.22-75.99-47.99,1.71.7,3.58,2.24,4,4,3.34,14.1-.39,14.96,16,20-11.04,21.55,23.83-6.1,27.07-7.03,7.52-2.17,14.52,0,20.93-.97,15.05-2.28,22.42-22.55,16-35.99v-4c23.99,5.25,11.73,58.83-8,71.98Z"/>
      <path class="cls-18" d="M299.52,483.61l12,4c49.64,22.41,48.57,95.09-16,99.98v-4c.23-1.29-.31-2.75,0-4,6.02,1.32,7.93-1.2,12-4,4.3-2.96,5-4.3,8-8,8.17-10.09,10.44-11.47,7.96-27.97l-5.94,7.96c-16.39-10.7-16.78-29.74-14.13-47.78-5.24-3.72-9.55-.27-11.89-.19-9.33.3-24.41-3.63-28,8-.53,1.72-.05,5.58,0,8-13.24-17.88,8.28-29.33,24-31.99,3.19-.54,8.51-.26,12,0Z"/>
      <path class="cls-10" d="M531.49,179.68c.09-3.46-2.9-5.69-4-8-3.03-6.4-.03-6.24-8-12-1.31-.94-2.34-3.42-4-4-3.41-1.18-11.25.61-16,0-.44-.06-4.26-6.67-7.99-3.96-1.3.94,5.72,18.26-19.98,16.01l7.95,7.91c-9.75.33-19.49-8.51-11.97,4.02-18.61-6.68-18.95,4.84-16,20.02,4.16,21.45,6.9,22.06,16,4l4,16c-1.92.59-3.71,4.44-9.82,4.42-39.48-.18-33.08-94.03,27.81-92.7,23.58.51,59.37,26.37,42,48.3ZM485.5,155.68v4c2.6-1.33,2.6-2.67,0-4Z"/>
      <path class="cls-20" d="M451.5,415.63c10.83-13.07,23.79-4.64,37.64-16.21,2.04-.1,4.68,5.67,6.36,8.21,1.6,2.43,2.38,5.62,4,8,5.34,7.83,12.96,15.09,16,20,.11.18-2.58,2.14-1.45,3.96,4.73,7.67,14.36,13.41,13.45,23.97-11.48.24-37.03,22.25-46.01,12.25-6.02-6.7-3.63-15.91-6.16-21.27-2.22-4.69-7.62-2.56-7.82-2.93-.33-.6,4.74-7.76,3.44-13.32-1.1-4.69-7.09-5.89-7.44-6.68-3.23-7.21-.3-18.62-12-16Z"/>
      <path class="cls-17" d="M275.52,3.72c1.32,7.89,2.23,16.23,4,23.99,2.85,12.46,4.08,11.35,8,20,2.03,4.48,2.26,11.1,4,16-6.41.97-13.41-1.2-20.93.97-3.24.93-38.11,28.58-27.07,7.03,5.72,1.76,5.27,7.11,11.9-1.98-3.38-8.23-7.86-10.88-15.9-14.01,17.38.76,3.93-9.21,0-16-3.01-5.19-16.41-25.11-14.13-28.06,14.91-6.84,34.3-17.28,50.13-7.93Z"/>
      <path class="cls-22" d="M307.52,23.71v4l-20,20c-3.92-8.65-5.15-7.53-8-20,8.44-2.06,19.43-5.88,28-4Z"/>
      <path class="cls-38" d="M487.49,211.67c-4.75,4.35-9.97,6.14-16,8l-4-16c1.34-2.66,2.72-5.31,4-8,7.7,7.11,7.04,4.05,16,16Z"/>
      <path class="cls-5" d="M519.49,419.62c2.03.86,4.38,4.46,8,4-2.65,6.56-.79,12.59-12,12-3.04-4.91-10.66-12.17-16-20,7.8-1.23,13.16,1.11,20,4Z"/>
      <path class="cls-25" d="M467.5,451.62h-4c-3.54-.66-9.22.97-12,0-1.06-9.54,3.3-16.32,12-20,.35.79,6.34,1.99,7.44,6.68,1.3,5.55-3.77,12.71-3.44,13.32Z"/>
      <path class="cls-33" d="M527.49,171.68c1.09,2.31,4.09,4.54,4,8-1.15,1.46-1.73,3.68-4,4-11.69,1.63-17.41-4.14-24-12,8.15-2.69,16.47-5.8,24,0Z"/>
      <path class="cls-45" d="M291.52,499.61c2.33-.07,6.65-3.53,11.89.19-2.66,18.04-2.26,37.09,14.13,47.78l5.94-7.96c2.48,16.5.21,17.89-7.96,27.97l-2.02-16.02c-14.15-2.39-9.69,3.93-9.98,16.02-.37-.57-3.73.56-4,0-1.13-2.37,1.17-10.45-.04-12-.55-.7-15.06,7.72-15.57,8.45-.63.89,4.93,11.49,3.61,15.55-3-3.89-4.04-12.84-5.98-11.98-19.56,27.04-32.11,14.97-40.12-11.94-5.98-20.08,8.04-19.54,26.1-28.07,6.48-3.06,9.2-.3,20-8,11.78-8.4,14.74-7.63,4-20Z"/>
      <path class="cls-45" d="M291.52,247.66c.55-.06,2.15-3.37,5.26-3.05,20.8,2.13,8.24,19.45,12.44,35.47,1.99,7.59,13.56,9.46,14.29,19.57-9.91-3.64-13.5,6.72-16,8-15.58,7.99-11.37,8.56-16,12-3,2.23-24.45,16.36-25.93,16.01-3.84-.9-23.8-38.81-20.4-44.1,8.94-2.28,20.56-13.1,26.33-15.9,3.21-1.56,3.79,4.3,20-8,10.62-8.06,21.87-3.18,0-20Z"/>
      <path class="cls-26" d="M95.55,447.62c4.97.32,18.23,8.15,28.02,3.98-.29,6.61.43,13.41-.02,20.02-3.77-.51-8.6.76-12,0-2.85-.64-5.04-3.29-12-4-3.88-.39-20.04-1.34-20.04,2,4.22,4.63,14.21.93,20.04,2,.96.18,4.55,3.05,8,4,3.16.87,8.27-.64,11.99.02v7.98c-1.19,1.08-27.07-3.17-31.99-4-2.29-.39-11.92-9.2-16.04-2-.04,1.61,12.66,5.14,16.04,6,10.56,2.67,31.59.16,28,12-.23,1.29.22,2.7,0,4-10.74-2.22-21.25-5.82-32-8-7.28-1.47-10.54-3.63-20-4-5.32-.21-10.67.14-16,0,5.97-12.19,7.08-34.4,8.15-35.94.84-1.19,5.94.64,7.84-.06,2.59-.94,10.64-3.9,12-4,1.07-.08,18.93-.07,20,0Z"/>
      <path class="cls-9" d="M263.52,507.6c10.46-.12,18.82,2.62,24,12-10.79,7.69-13.51,4.94-20,8-5.15-1.95-3.91-7.6-4-12-.05-2.42-.53-6.28,0-8Z"/>
      <path class="cls-14" d="M279.52,259.66c2.8,1.74,10.77.02,12,8-16.21,12.29-16.79,6.44-20,8-5.32-2.77-2.95-8.37-4-12l12-4Z"/>
      <path class="cls-6" d="M307.52,307.65c.85,7.56-.61,13.31-4,20-.65,1.28-3.05,2.47-4,4-1.7-1.42-11.66,3.27-8-12,4.62-3.43.42-4.01,16-12Z"/>
      <path class="cls-19" d="M239.53,39.71c3.93,6.78,17.38,16.76,0,16-3.75-1.46-8.44-1.47-12-4-.42-1.76-2.29-3.3-4-4,4.35-7.02,6.85-8.89,16-8Z"/>
      <path class="cls-37" d="M299.52,567.59c.11,4.41-3.12,8.4-4,12-.31,1.25.23,2.71,0,4-4.03.21-5.65-.95-8-4,1.32-4.06-4.24-14.66-3.61-15.55.51-.72,15.02-9.14,15.57-8.45,1.21,1.55-1.09,9.63.04,12Z"/>
      <path class="cls-34" d="M119.54,483.61c-1.09,4.52-3.71,10.37-4,12,3.6-11.84-17.43-9.33-28-12v-4c4.92.83,30.8,5.08,32,4Z"/>
      <path class="cls-21" d="M123.54,471.61c-.09,1.32.17,2.7,0,4-.54,4.01-3.64,6.51-4,8v-7.98c-3.73-.66-8.84.85-12-.02l4-4c3.4.76,8.23-.51,12,0Z"/>
      <path class="cls-12" d="M11.56,203.67c-28.2-16.02.95-51.85,26.25-55.72,30.95-4.74,61.52,8.82,65.48,42.15,1.7,14.33-2.39,38.72-19.73,41.57-2.68-3.53-2.58-8.23-4-12l7.96,4c8.69-26.02-13.05-27.87-15.96-31.99-.26-.36,4.72-7.58,4.02-7.97-16.5,3.84-21.51-5.91-33.98-12.07-1.18,7.39-3.69,13.17-6.04,20.04,10.66-34.34-28.03-15.1-27.93-2.05.02,3.36,3.59,4.95,3.93,6.05.64,2.06-.43,5.5,0,8Z"/>
      <path class="cls-11" d="M35.56,191.68c2.35-6.87,4.85-12.65,6.04-20.04,12.47,6.16,17.48,15.91,33.98,12.07.7.39-4.28,7.6-4.02,7.97-.72,4.91,1.05,11.63,0,16-2.16,8.95-2.57,12.29-4,20-1.43,7.75-7.43,16.9-4.02,28.01l-47.81-12.26,7.83-35.74c11.78.02,9.14-7.66,12-16Z"/>
      <path class="cls-2" d="M83.55,423.62c-14.22,6.35-19.17,6.49-28,20-9.89,15.13-2.08,12.74-4.24,21.71-2.51,10.45-7.24,11.89-7.76,26.28-.05,1.29-.14,2.72,0,4,.36,3.4.1,6.74,4,8v4c-.44-.06-4.87,4.69-8,4-45.91-34.32-9.07-109.28,43.99-87.98Z"/>
      <path class="cls-28" d="M63.55,487.61v4c-1.36,6.06,1.27,7.94,4,12,3.36,5,4.57,8.2,12,8v4c-2.71,3.86-3.54,5.49-8,8-6.41-.23-16.58,2.48-20-4,5.73,1.16,13.75-.77,19.98-.04v-3.92c-9.66,4.1-19.81-7.44-23.98-8.04v-4l-4-8c-.14-1.28-.05-2.71,0-4,1.42-1.11,3.21-2.38,4-4,5.32.14,10.68-.21,16,0Z"/>
      <path class="cls-1" d="M95.55,435.62c-8.58,1.08-22.52.48-20,12-1.35.1-9.41,3.06-12,4l-8-8c8.83-13.51,13.78-13.65,28-20,6.11,2.45,8.79,6.68,12,12Z"/>
      <path class="cls-16" d="M35.56,191.68c-2.85,8.33-.22,16.02-12,16-3.7,0-8.7-2.12-12-4-.43-2.5.64-5.93,0-8,6.62-7.15,15.51-8.23,24-4Z"/>
      <path class="cls-32" d="M79.55,219.67c1.42,3.77,1.32,8.47,4,12-4.69.77-13.7,1.36-16-4,1.43-7.7,1.84-11.04,4-20,7.45,1.75,6.17,7.13,8,12Z"/>
      <path class="cls-44" d="M95.55,435.62c1.81,3,3.68,5.93,3.65,9.63l-3.65,2.37c-1.07-.07-18.93-.08-20,0-2.52-11.51,11.42-10.92,20-12Z"/>
      <path class="cls-41" d="M47.55,507.6c4.17.6,14.32,12.14,23.98,8.04v3.92c-6.23-.73-14.24,1.2-19.98.04-5.45-1.1-8.19-5.15-12-8,3.13.69,7.56-4.06,8-4Z"/>
      <path class="cls-31" d="M291.52,247.66c21.87,16.81,10.62,11.94,0,20-1.23-7.98-9.2-6.26-12-8-16.83-10.46-1.28-10.47,12-12Z"/>
      <path class="cls-42" d="M323.52,299.65c1.04,14.27-4.08,28.33-20,27.99,3.39-6.68,4.85-12.44,4-20,2.5-1.28,6.09-11.64,16-8Z"/>
      <path class="cls-30" d="M451.5,415.63c11.69-2.63,8.77,8.79,12,16-8.69,3.67-13.06,10.46-12,20-17.6-6.16-8.15-26.15,0-35.99Z"/>
      <path class="cls-24" d="M519.49,419.62c-6.83-2.89-12.2-5.23-20-4-1.62-2.38-2.4-5.57-4-8-5.55-18.22,37.41,2.13,24,12Z"/>
      <path class="cls-43" d="M291.52,63.7c-1.74-4.9-1.97-11.51-4-16l20-20c6.42,13.44-.95,33.72-16,35.99Z"/>
      <path class="cls-35" d="M239.53,55.71c8.05,3.14,12.52,5.78,15.9,14.01-6.63,9.09-6.18,3.74-11.9,1.98-16.39-5.04-12.66-5.9-16-20,3.56,2.53,8.25,2.54,12,4Z"/>
      <path class="cls-36" d="M291.52,499.61c10.74,12.37,7.78,11.6-4,20-5.18-9.37-13.54-12.12-24-12,3.59-11.63,18.67-7.7,28-8Z"/>
      <path class="cls-23" d="M303.52,567.59c.29-12.09-4.18-18.41,9.98-16.02l2.02,16.02c-3,3.7-3.7,5.04-8,8-2.92-1.86-2.8-6.13-4-8Z"/>
      <path class="cls-8" d="M307.52,575.59c-4.07,2.8-5.98,5.32-12,4,.88-3.59,4.11-7.59,4-12,.27.56,3.63-.57,4,0,1.2,1.86,1.08,6.13,4,8Z"/>
      <path class="cls-27" d="M471.5,195.67c-1.28,2.69-2.66,5.34-4,8-9.1,18.06-11.84,17.45-16-4,16.07-30.46,12.79-10.66,20-4Z"/>
      <path class="cls-4" d="M515.49,155.68l4,4c7.97,5.76,4.97,5.6,8,12-7.53-5.8-15.85-2.69-24,0-4.34-5.17-9.29-10.21-4-16,4.75.61,12.59-1.18,16,0Z"/>
      <path class="cls-45" d="M499.49,155.68c-5.29,5.78-.34,10.82,4,16,6.59,7.85,12.31,13.63,24,12-10.53,13.13,18.59,15.77,15.99,25.95-35.99,25.49-28.3,38.97-55.99,2.04-8.96-11.94-8.3-8.89-16-16-7.21-6.66-3.93-26.46-20,4-2.95-15.18-2.61-26.69,16-20.02-7.52-12.53,2.22-3.69,11.97-4.02l-7.95-7.91c25.7,2.25,18.68-15.07,19.98-16.01,3.73-2.71,7.54,3.91,7.99,3.96Z"/>
      <path class="cls-45" d="M485.5,155.68c2.6,1.33,2.6,2.67,0,4v-4Z"/>
      <path class="cls-45" d="M519.49,159.68l-4-4c1.66.57,2.69,3.06,4,4Z"/>
      <path class="cls-13" d="M83.55,491.61l-4,20c-7.43.2-8.63-3-12-8l-4-12v-4c9.46.37,12.72,2.53,20,4Z"/>
      <path class="cls-40" d="M63.55,451.62c-1.9.69-7.01-1.14-7.84.06-1.08,1.54-2.18,23.74-8.15,35.94-.79,1.62-2.57,2.89-4,4,.52-14.38,5.25-15.83,7.76-26.28,2.16-8.98-5.66-6.58,4.24-21.71l8,8Z"/>
      <path class="cls-7" d="M87.55,479.61v4c-3.38-.85-16.07-4.39-16.04-6,4.12-7.21,13.75,1.61,16.04,2Z"/>
      <path class="cls-3" d="M99.55,467.61v4c-5.83-1.07-15.82,2.63-20.04-2,0-3.34,16.16-2.39,20.04-2Z"/>
      <path class="cls-39" d="M111.54,471.61l-4,4c-3.45-.95-7.04-3.82-8-4v-4c6.96.71,9.15,3.36,12,4Z"/>
      <path class="cls-46" d="M11.56,195.67c-.34-1.1-3.91-2.69-3.93-6.05-.1-13.04,38.58-32.29,27.93,2.05-8.49-4.23-17.38-3.15-24,4Z"/>
      <path class="cls-15" d="M71.55,191.68c2.91,4.12,24.65,5.98,15.96,31.99l-7.96-4c-1.83-4.86-.55-10.25-8-12,1.05-4.37-.72-11.08,0-16Z"/>
      <path class="cls-40" d="M47.55,503.61c-3.9-1.26-3.64-4.59-4-8l4,8Z"/>
      <path class="cls-26" d="M67.55,503.61c-2.73-4.06-5.36-5.93-4-12l4,12Z"/>
    </g>
  </g>
</svg>