<?xml version="1.0" encoding="UTF-8"?>
<svg id="Layer_2" data-name="Layer 2" xmlns="http://www.w3.org/2000/svg" viewBox="0 0 687.05 624.15">
  <defs>
    <style>
      .cls-1 {
        fill: #242d35;
      }

      .cls-2 {
        fill: #2c2f35;
      }

      .cls-3 {
        fill: #0a1015;
      }

      .cls-4 {
        fill: #b1b7be;
      }

      .cls-5 {
        fill: #4c545b;
      }
    </style>
  </defs>
  <g id="black_olives" data-name="black olives">
    <g>
      <g>
        <path class="cls-3" d="M377.25,591.24c.94.76,2.27,1.39,2.81,1.87.94.84,6.25,6.77,6.55,7.48,2.55,6.03-.17,9.95-2.81,14.97-7.33,8.4-20.76,5.93-29.94,1.87-1.79-.79-5.42-3.26-6.55-4.68-1.06-1.33-1.75-5.27-3.74-6.55.49-5.86-.63-8.47,4.74-12.57.53-.41,5.25-3.24,5.56-3.34,6.82-2.2,16.59-.89,23.39.94ZM369.76,595.9c3.81-5.14-15.02-1.68-17.78-.42-6.28,2.85,1.01,1.29,2.19,1.41,2.41.25,5.03,1.59,7.5,1.5,1.09-.04,7.84-2.15,8.09-2.49ZM379.05,611.89c-.86-1-15.38-3.8-17.72-1.49-5.42,5.35,11.48,12.89,16.64,7.75.91-.9,1.68-5.57,1.08-6.26Z"/>
        <path class="cls-2" d="M356.67,620.24c-.92-.94-2.15-1.59-2.81-2.81,9.18,4.06,22.61,6.53,29.94-1.87-.22.42.13,1.76-.5,2.74-5.62,8.77-18.87,6.18-26.63,1.94Z"/>
        <path class="cls-5" d="M379.05,611.89c.59.69-.18,5.36-1.08,6.26-5.16,5.14-22.06-2.4-16.64-7.75,2.34-2.31,16.86.49,17.72,1.49ZM368.83,613.71c-2.34,3.57,6.97,6.71,8.33,2.24,1.46-4.78-7.79-3.06-8.33-2.24Z"/>
        <path class="cls-1" d="M369.76,595.9c-.25.34-7,2.44-8.09,2.49-2.47.1-5.09-1.25-7.5-1.5-1.18-.12-8.48,1.44-2.19-1.41,2.77-1.26,21.59-4.72,17.78.42Z"/>
        <path class="cls-4" d="M368.83,613.71c.54-.82,9.8-2.55,8.33,2.24-1.37,4.47-10.67,1.33-8.33-2.24Z"/>
      </g>
      <g>
        <path class="cls-3" d="M388.98,365.1c1.15.37,2.62.49,3.29.75,1.18.45,8.25,4.09,8.79,4.65,4.53,4.72,3.4,9.35,2.72,14.98-3.85,10.47-17.27,12.95-27.3,12.44-1.96-.1-6.23-1.11-7.79-2.03-1.47-.86-3.51-4.3-5.83-4.78-1.63-5.65-3.61-7.68-.06-13.43.35-.57,3.75-4.9,4-5.1,5.59-4.49,15.18-6.76,22.18-7.48ZM383.65,372.13c1.72-6.16-14.63,3.79-16.76,5.95-4.85,4.91,1.41.84,2.55.54,2.34-.63,5.26-.31,7.54-1.28,1-.43,6.55-4.8,6.67-5.21ZM398.03,383.74c-1.16-.63-15.73,1.94-17.09,4.94-3.15,6.93,15.33,7.94,18.31,1.3.52-1.17-.42-5.81-1.22-6.24Z"/>
        <path class="cls-2" d="M380.11,399.53c-1.2-.55-2.58-.72-3.62-1.62,10.03.51,23.45-1.97,27.3-12.44-.06.47.75,1.6.51,2.74-2.12,10.2-15.42,12.51-24.18,11.32Z"/>
        <path class="cls-5" d="M398.03,383.74c.8.43,1.75,5.07,1.22,6.24-2.98,6.64-21.46,5.63-18.31-1.3,1.36-2.99,15.92-5.56,17.09-4.94ZM389.14,389.09c-.91,4.17,8.9,3.78,8.58-.89-.34-4.99-8.37-.07-8.58.89Z"/>
        <path class="cls-1" d="M383.65,372.13c-.11.41-5.67,4.78-6.67,5.21-2.28.97-5.2.65-7.54,1.28-1.15.31-7.41,4.37-2.55-.54,2.14-2.16,18.49-12.12,16.76-5.95Z"/>
        <path class="cls-4" d="M389.14,389.09c.21-.96,8.24-5.88,8.58-.89.32,4.67-9.5,5.05-8.58.89Z"/>
      </g>
      <g>
        <path class="cls-3" d="M518.77,502.84c-1.06-.59-2.47-.98-3.09-1.36-1.07-.67-7.32-5.59-7.74-6.25-3.55-5.5-1.55-9.83.19-15.23,5.78-9.54,19.43-9.41,29.17-6.99,1.9.47,5.9,2.28,7.26,3.48,1.27,1.13,2.63,4.89,4.81,5.81.52,5.85,2.08,8.23-2.51,13.19-.45.49-4.61,4.09-4.9,4.24-6.34,3.34-16.19,3.73-23.2,3.1ZM525.34,496.96c-2.87,5.72,15.08-.93,17.59-2.64,5.7-3.89-1.22-1.1-2.4-1.01-2.42.17-5.23-.7-7.65-.18-1.06.23-7.35,3.46-7.54,3.84ZM513.44,482.81c1.02.84,15.81,1.1,17.72-1.58,4.42-6.2-13.53-10.73-17.73-4.78-.74,1.04-.69,5.78.01,6.36Z"/>
        <path class="cls-2" d="M534.06,470.73c1.07.77,2.39,1.2,3.25,2.28-9.74-2.42-23.39-2.55-29.17,6.99.15-.45-.43-1.71.02-2.78,4.03-9.6,17.53-9.33,25.9-6.49Z"/>
        <path class="cls-5" d="M513.44,482.81c-.7-.58-.75-5.31-.01-6.36,4.2-5.95,22.14-1.42,17.73,4.78-1.91,2.68-16.69,2.42-17.72,1.58ZM523.2,479.26c1.69-3.92-8.01-5.41-8.59-.77-.62,4.96,8.2,1.67,8.59.77Z"/>
        <path class="cls-1" d="M525.34,496.96c.19-.38,6.48-3.61,7.54-3.84,2.42-.52,5.23.35,7.65.18,1.18-.08,8.1-2.87,2.4,1.01-2.51,1.71-20.46,8.36-17.59,2.64Z"/>
        <path class="cls-4" d="M523.2,479.26c-.39.9-9.21,4.19-8.59-.77.58-4.64,10.29-3.15,8.59.77Z"/>
      </g>
      <g>
        <path class="cls-3" d="M159.77,33.84c-1.06-.59-2.47-.98-3.09-1.36-1.07-.67-7.32-5.59-7.74-6.25-3.55-5.5-1.55-9.83.19-15.23,5.78-9.54,19.43-9.41,29.17-6.99,1.9.47,5.9,2.28,7.26,3.48,1.27,1.13,2.63,4.89,4.81,5.81.52,5.85,2.08,8.23-2.51,13.19-.45.49-4.61,4.09-4.9,4.24-6.34,3.34-16.19,3.73-23.2,3.1ZM166.34,27.96c-2.87,5.72,15.08-.93,17.59-2.64,5.7-3.89-1.22-1.1-2.4-1.01-2.42.17-5.23-.7-7.65-.18-1.06.23-7.35,3.46-7.54,3.84ZM154.44,13.81c1.02.84,15.81,1.1,17.72-1.58,4.42-6.2-13.53-10.73-17.73-4.78-.74,1.04-.69,5.78.01,6.36Z"/>
        <path class="cls-2" d="M175.06,1.73c1.07.77,2.39,1.2,3.25,2.28-9.74-2.42-23.39-2.55-29.17,6.99.15-.45-.43-1.71.02-2.78,4.03-9.6,17.53-9.33,25.9-6.49Z"/>
        <path class="cls-5" d="M154.44,13.81c-.7-.58-.75-5.31-.01-6.36,4.2-5.95,22.14-1.42,17.73,4.78-1.91,2.68-16.69,2.42-17.72,1.58ZM164.2,10.26c1.69-3.92-8.01-5.41-8.59-.77-.62,4.96,8.2,1.67,8.59.77Z"/>
        <path class="cls-1" d="M166.34,27.96c.19-.38,6.48-3.61,7.54-3.84,2.42-.52,5.23.35,7.65.18,1.18-.08,8.1-2.87,2.4,1.01-2.51,1.71-20.46,8.36-17.59,2.64Z"/>
        <path class="cls-4" d="M164.2,10.26c-.39.9-9.21,4.19-8.59-.77.58-4.64,10.29-3.15,8.59.77Z"/>
      </g>
      <g>
        <path class="cls-3" d="M655.77,325.84c-1.06-.59-2.47-.98-3.09-1.36-1.07-.67-7.32-5.59-7.74-6.25-3.55-5.5-1.55-9.83.19-15.23,5.78-9.54,19.43-9.41,29.17-6.99,1.9.47,5.9,2.28,7.26,3.48,1.27,1.13,2.63,4.89,4.81,5.81.52,5.85,2.08,8.23-2.51,13.19-.45.49-4.61,4.09-4.9,4.24-6.34,3.34-16.19,3.73-23.2,3.1ZM662.34,319.96c-2.87,5.72,15.08-.93,17.59-2.64,5.7-3.89-1.22-1.1-2.4-1.01-2.42.17-5.23-.7-7.65-.18-1.06.23-7.35,3.46-7.54,3.84ZM650.44,305.81c1.02.84,15.81,1.1,17.72-1.58,4.42-6.2-13.53-10.73-17.73-4.78-.74,1.04-.69,5.78.01,6.36Z"/>
        <path class="cls-2" d="M671.06,293.73c1.07.77,2.39,1.2,3.25,2.28-9.74-2.42-23.39-2.55-29.17,6.99.15-.45-.43-1.71.02-2.78,4.03-9.6,17.53-9.33,25.9-6.49Z"/>
        <path class="cls-5" d="M650.44,305.81c-.7-.58-.75-5.31-.01-6.36,4.2-5.95,22.14-1.42,17.73,4.78-1.91,2.68-16.69,2.42-17.72,1.58ZM660.2,302.26c1.69-3.92-8.01-5.41-8.59-.77-.62,4.96,8.2,1.67,8.59.77Z"/>
        <path class="cls-1" d="M662.34,319.96c.19-.38,6.48-3.61,7.54-3.84,2.42-.52,5.23.35,7.65.18,1.18-.08,8.1-2.87,2.4,1.01-2.51,1.71-20.46,8.36-17.59,2.64Z"/>
        <path class="cls-4" d="M660.2,302.26c-.39.9-9.21,4.19-8.59-.77.58-4.64,10.29-3.15,8.59.77Z"/>
      </g>
      <g>
        <path class="cls-3" d="M126.09,539.43c-.83.88-1.55,2.16-2.08,2.66-.91.87-7.21,5.72-7.95,5.97-6.2,2.09-9.91-.91-14.72-3.92-7.83-7.94-4.36-21.14.38-29.99.93-1.73,3.66-5.16,5.15-6.18,1.41-.96,5.39-1.35,6.81-3.24,5.8.93,8.49,0,12.18,5.66.36.56,2.83,5.47,2.91,5.79,1.68,6.97-.35,16.61-2.68,23.25ZM122,531.61c4.84,4.18,2.8-14.85,1.75-17.7-2.37-6.48-1.36.92-1.57,2.08-.43,2.39-1.96,4.89-2.05,7.37-.04,1.09,1.55,7.98,1.87,8.25ZM105.37,539.67c1.06-.79,4.94-15.06,2.81-17.56-4.93-5.8-13.72,10.48-8.98,16.01.83.97,5.43,2.09,6.16,1.55Z"/>
        <path class="cls-2" d="M98.71,516.73c1.01-.85,1.75-2.03,3.01-2.59-4.74,8.85-8.21,22.05-.38,29.99-.4-.25-1.76,0-2.69-.7-8.32-6.26-4.75-19.28.06-26.7Z"/>
        <path class="cls-5" d="M105.37,539.67c-.73.54-5.33-.58-6.16-1.55-4.74-5.53,4.05-21.82,8.98-16.01,2.13,2.5-1.75,16.78-2.81,17.56ZM104.32,529.35c-3.38-2.6-7.21,6.44-2.85,8.14,4.66,1.82,3.63-7.54,2.85-8.14Z"/>
        <path class="cls-1" d="M122,531.61c-.32-.28-1.91-7.16-1.87-8.25.09-2.47,1.62-4.98,2.05-7.37.21-1.17-.8-8.56,1.57-2.08,1.04,2.85,3.09,21.89-1.75,17.7Z"/>
        <path class="cls-4" d="M104.32,529.35c.78.6,1.81,9.96-2.85,8.14-4.36-1.7-.53-10.74,2.85-8.14Z"/>
      </g>
      <g>
        <path class="cls-3" d="M486.83,35.78c.08,1.21.52,2.61.53,3.33.02,1.26-.74,9.18-1.07,9.89-2.71,5.96-7.43,6.62-12.91,8.08-11.15.3-18.42-11.25-21.66-20.75-.63-1.86-1.27-6.2-1-7.99.26-1.68,2.7-4.86,2.28-7.19,4.64-3.61,5.8-6.2,12.45-5.03.66.12,5.94,1.67,6.22,1.83,6.24,3.53,11.9,11.6,15.16,17.84ZM478.32,33.43c6.36-.68-8.94-12.18-11.74-13.37-6.35-2.69-.26,1.62.45,2.57,1.45,1.94,2.23,4.78,3.98,6.53.77.77,6.89,4.31,7.31,4.26ZM472.86,51.09c.15-1.31-7.63-13.89-10.91-14.04-7.6-.36-1.7,17.18,5.57,17.49,1.28.05,5.24-2.54,5.34-3.45Z"/>
        <path class="cls-2" d="M451.55,40.29c.07-1.32-.29-2.66.16-3.97,3.24,9.5,10.51,21.05,21.66,20.75-.46.12-1.21,1.29-2.35,1.49-10.26,1.81-17.33-9.69-19.47-18.27Z"/>
        <path class="cls-5" d="M472.86,51.09c-.1.9-4.06,3.5-5.34,3.45-7.28-.31-13.18-17.85-5.57-17.49,3.28.16,11.06,12.73,10.91,14.04ZM464.6,44.81c-4.21.7-.22,9.67,4,7.64,4.51-2.16-3.03-7.81-4-7.64Z"/>
        <path class="cls-1" d="M478.32,33.43c-.42.05-6.54-3.49-7.31-4.26-1.75-1.75-2.53-4.59-3.98-6.53-.71-.95-6.8-5.26-.45-2.57,2.8,1.19,18.1,12.68,11.74,13.37Z"/>
        <path class="cls-4" d="M464.6,44.81c.97-.16,8.51,5.48,4,7.64-4.22,2.02-8.21-6.95-4-7.64Z"/>
      </g>
      <g>
        <path class="cls-3" d="M208.36,264.17c1.11-.48,2.28-1.36,2.96-1.62,1.18-.44,8.89-2.39,9.67-2.32,6.52.54,8.73,4.77,11.95,9.44,4.04,10.4-4.39,21.14-12.25,27.38-1.54,1.22-5.4,3.29-7.18,3.63-1.67.32-5.48-.9-7.54.27-4.96-3.15-7.79-3.37-8.93-10.03-.11-.66-.43-6.15-.37-6.47,1.22-7.07,6.92-15.11,11.69-20.28ZM209.01,272.97c-2.79-5.76-8.46,12.52-8.63,15.55-.39,6.89,1.61-.3,2.27-1.29,1.34-2.02,3.75-3.71,4.81-5.95.47-.98,1.74-7.94,1.55-8.32ZM227.48,272.17c-1.29.3-10.51,11.86-9.55,15,2.22,7.28,16.75-4.18,14.59-11.14-.38-1.22-4.16-4.07-5.04-3.87Z"/>
        <path class="cls-2" d="M224.48,295.87c-1.26.38-2.41,1.17-3.79,1.18,7.86-6.25,16.28-16.99,12.25-27.38.27.39,1.62.71,2.19,1.71,5.16,9.05-3.29,19.58-10.65,24.49Z"/>
        <path class="cls-5" d="M227.48,272.17c.89-.21,4.67,2.65,5.04,3.87,2.16,6.96-12.37,18.42-14.59,11.14-.96-3.14,8.26-14.7,9.55-15ZM224.35,282.06c2.07,3.73,9.18-3.05,5.85-6.34-3.56-3.52-6.33,5.48-5.85,6.34Z"/>
        <path class="cls-1" d="M209.01,272.97c.18.38-1.09,7.34-1.55,8.32-1.06,2.24-3.47,3.93-4.81,5.95-.66.99-2.66,8.18-2.27,1.29.17-3.03,5.85-21.32,8.63-15.55Z"/>
        <path class="cls-4" d="M224.35,282.06c-.48-.86,2.3-9.86,5.85-6.34,3.32,3.29-3.78,10.07-5.85,6.34Z"/>
      </g>
      <g>
        <path class="cls-3" d="M473.9,277.89c.52-1.1.82-2.53,1.17-3.16.6-1.11,5.13-7.65,5.76-8.11,5.27-3.88,9.72-2.15,15.21-.74,9.88,5.18,10.59,18.81,8.77,28.69-.36,1.93-1.91,6.03-3.03,7.46-1.05,1.34-4.72,2.92-5.5,5.16-5.81.88-8.09,2.58-13.32-1.69-.52-.42-4.37-4.35-4.53-4.63-3.73-6.13-4.72-15.93-4.52-22.97ZM480.18,284.09c-5.89-2.51,1.85,14.99,3.72,17.4,4.23,5.45,1.02-1.29.86-2.46-.32-2.4.38-5.26-.29-7.64-.29-1.05-3.91-7.12-4.3-7.29ZM493.57,271.35c-.77,1.07-.12,15.85,2.67,17.58,6.46,4.03,9.87-14.16,3.68-17.99-1.09-.67-5.81-.34-6.34.4Z"/>
        <path class="cls-2" d="M506.89,291.18c-.7,1.12-1.05,2.46-2.08,3.38,1.82-9.87,1.11-23.5-8.77-28.69.46.12,1.68-.53,2.78-.15,9.83,3.43,10.39,16.92,8.07,25.45Z"/>
        <path class="cls-5" d="M493.57,271.35c.53-.74,5.26-1.07,6.34-.4,6.2,3.82,2.78,22.01-3.68,17.99-2.79-1.74-3.44-16.51-2.67-17.58ZM497.71,280.87c4.01,1.45,4.91-8.33.24-8.63-4.99-.31-1.17,8.29-.24,8.63Z"/>
        <path class="cls-1" d="M480.18,284.09c.39.17,4,6.24,4.3,7.29.67,2.38-.03,5.24.29,7.64.15,1.18,3.37,7.91-.86,2.46-1.86-2.4-9.61-19.91-3.72-17.4Z"/>
        <path class="cls-4" d="M497.71,280.87c-.92-.33-4.75-8.94.24-8.63,4.67.29,3.77,10.07-.24,8.63Z"/>
      </g>
      <g>
        <path class="cls-3" d="M339.68,255.94c-1.21.03-2.63.41-3.35.39-1.26-.04-9.14-1.12-9.84-1.47-5.84-2.95-6.31-7.7-7.54-13.23.16-11.15,11.99-17.95,21.62-20.79,1.88-.56,6.24-1.02,8.02-.67,1.67.33,4.74,2.89,7.09,2.57,3.41,4.78,5.96,6.05,4.52,12.65-.14.65-1.91,5.86-2.08,6.14-3.78,6.09-12.08,11.41-18.44,14.41ZM342.37,247.54c.42,6.39,12.54-8.43,13.84-11.18,2.95-6.24-1.61-.33-2.59.34-2,1.37-4.86,2.04-6.69,3.71-.8.74-4.59,6.71-4.56,7.13ZM324.95,241.36c1.3.2,14.19-7.05,14.48-10.33.67-7.58-17.1-2.41-17.71,4.85-.11,1.27,2.33,5.34,3.22,5.48Z"/>
        <path class="cls-2" d="M336.62,220.51c1.31.12,2.67-.18,3.96.33-9.63,2.84-21.47,9.64-21.62,20.79-.1-.46-1.23-1.26-1.39-2.41-1.39-10.32,10.4-16.92,19.06-18.7Z"/>
        <path class="cls-5" d="M324.95,241.36c-.9-.14-3.33-4.2-3.22-5.48.61-7.26,18.38-12.43,17.71-4.85-.29,3.27-13.18,10.53-14.48,10.33ZM331.57,233.36c-.52-4.23-9.65-.61-7.8,3.68,1.98,4.59,7.92-2.71,7.8-3.68Z"/>
        <path class="cls-1" d="M342.37,247.54c-.03-.42,3.76-6.39,4.56-7.13,1.82-1.67,4.69-2.34,6.69-3.71.98-.67,5.54-6.58,2.59-.34-1.3,2.75-13.42,17.57-13.84,11.18Z"/>
        <path class="cls-4" d="M331.57,233.36c.12.98-5.83,8.28-7.8,3.68-1.85-4.3,7.28-7.92,7.8-3.68Z"/>
      </g>
      <g>
        <path class="cls-3" d="M12.88,306.9c-1.07-.58-2.48-.96-3.1-1.34-1.07-.66-7.35-5.54-7.78-6.19-3.58-5.48-1.61-9.82.09-15.23,5.71-9.58,19.36-9.54,29.12-7.19,1.91.46,5.91,2.24,7.28,3.43,1.28,1.12,2.66,4.88,4.85,5.77.56,5.85,2.14,8.22-2.41,13.21-.45.49-4.58,4.12-4.87,4.27-6.32,3.38-16.16,3.84-23.18,3.26ZM19.42,300.97c-2.83,5.74,15.07-1.03,17.57-2.76,5.67-3.93-1.23-1.09-2.41-1-2.42.18-5.23-.67-7.65-.13-1.06.24-7.33,3.51-7.51,3.89ZM7.43,286.9c1.03.83,15.82.99,17.7-1.7,4.37-6.23-13.6-10.63-17.76-4.65-.73,1.05-.65,5.78.05,6.36Z"/>
        <path class="cls-2" d="M27.95,274.69c1.08.76,2.4,1.18,3.26,2.26-9.76-2.35-23.41-2.39-29.12,7.19.14-.45-.44-1.71,0-2.78,3.96-9.63,17.46-9.45,25.86-6.67Z"/>
        <path class="cls-5" d="M7.43,286.9c-.71-.57-.78-5.31-.05-6.36,4.16-5.98,22.13-1.58,17.76,4.65-1.89,2.69-16.68,2.53-17.7,1.7ZM17.15,283.29c1.66-3.93-8.05-5.36-8.6-.71-.59,4.97,8.22,1.62,8.6.71Z"/>
        <path class="cls-1" d="M19.42,300.97c.19-.38,6.45-3.66,7.51-3.89,2.42-.54,5.23.32,7.65.13,1.18-.09,8.08-2.93,2.41,1-2.5,1.73-20.4,8.5-17.57,2.76Z"/>
        <path class="cls-4" d="M17.15,283.29c-.38.9-9.19,4.26-8.6-.71.55-4.64,10.26-3.22,8.6.71Z"/>
      </g>
    </g>
  </g>
</svg>