<?xml version="1.0" encoding="UTF-8"?>
<svg id="Layer_2" data-name="Layer 2" xmlns="http://www.w3.org/2000/svg" viewBox="0 0 557.24 616.62">
  <defs>
    <style>
      .cls-1 {
        fill: #f0d359;
      }

      .cls-2 {
        fill: #f3d355;
      }

      .cls-3 {
        fill: #eccf65;
      }

      .cls-4 {
        fill: #edcd60;
      }

      .cls-5 {
        fill: #34343c;
      }

      .cls-6 {
        fill: #fce583;
      }

      .cls-7 {
        fill: #f1d55c;
      }

      .cls-8 {
        fill: #f3cb4c;
      }

      .cls-9 {
        fill: #eed15a;
      }

      .cls-10 {
        fill: #fdea7f;
      }

      .cls-11 {
        fill: #ffe889;
      }

      .cls-12 {
        fill: #ffe985;
      }

      .cls-13 {
        fill: #ebd567;
      }

      .cls-14 {
        fill: #eace58;
      }

      .cls-15 {
        fill: #f4db79;
      }

      .cls-16 {
        fill: #f3d75b;
      }

      .cls-17 {
        fill: #efd259;
      }

      .cls-18 {
        fill: #eacf59;
      }

      .cls-19 {
        fill: #ffeba1;
      }

      .cls-20 {
        fill: #fce483;
      }

      .cls-21 {
        fill: #fee780;
      }

      .cls-22 {
        fill: #f2d85d;
      }

      .cls-23 {
        fill: #efcb4d;
      }

      .cls-24 {
        fill: #edd159;
      }

      .cls-25 {
        fill: #efcb4a;
      }

      .cls-26 {
        fill: #ecc750;
      }

      .cls-27 {
        fill: #efd760;
      }

      .cls-28 {
        fill: #fde47c;
      }

      .cls-29 {
        fill: #ebc84c;
      }

      .cls-30 {
        fill: #e5d898;
      }

      .cls-31 {
        fill: #efe49d;
      }

      .cls-32 {
        fill: #fbe780;
      }

      .cls-33 {
        fill: #eed979;
      }

      .cls-34 {
        fill: #ffe782;
      }

      .cls-35 {
        fill: #e6ca63;
      }
    </style>
  </defs>
  <g id="pineapple">
    <g>
      <path class="cls-24" d="M15.54,236.64c1.31.15,2.74-.26,4,0,4.33,6.86,12.46,8.16,20,8,5.68,6.94.1,14.1-4,20,2.87-11.51-19.94-19.71-19.92-10,0,2.57,17.22,12.76,19.92,10-5.55,7.97-10.49,12.92-20,16-4.4-17.88-32.65-35.17,0-43.99Z"/>
      <path class="cls-1" d="M171.52,264.63c-9.17,2.36-13.09-1.21-20-4,.8.77,8.75-.47,11.98.02l-.02-20.02c-6.88.56-15.81,16.28-11.96,19.99-5.84-2.36-11.73-5.01-15.93-9.99,23.56-38.16,39.41-31.02,35.92,13.99Z"/>
      <path class="cls-23" d="M139.52,80.67c4.22,10.75-11.87,10.98-20,12-.53-15.41-15.29-18.63,4-27.99,2.71,2.55,15.58,14.94,16,16Z"/>
      <path class="cls-3" d="M123.52,64.67c-19.29,9.37-4.53,12.58-4,27.99.04,1.3.33,3.36,0,4l-16-4c.06-1.31-.21-2.73,0-4,.66-4.1,3.11-16.72,4-20l4-8c8.44-8.55,7.35-.37,12,4Z"/>
      <path class="cls-7" d="M319.5,616.55c5.49-7.5,5.89-16.94-3.96-20l-.04,20c-5.34.01-10.69.08-16.01,0,1.08-7.56-.63-35.82,9.95-36.2,20.86-.76,39.06,32.67,10.06,36.2Z"/>
      <path class="cls-8" d="M555.47,380.6c7.7,6.31-12.1,35.83-14.12,36.18-13.46,2.35-18.24-16.2-21.88-26.1.72-3.93,23.37-9.23,28.01-10.08,1.65-.31,7.69-.25,8,0Z"/>
      <path class="cls-27" d="M439.48,556.56l-16,15.96c8.35.46,16.8-3.49,16-11.96l4.02,24.01c-45.69,4.87-47.61-14.76-12.02-36.01h4c.53,3.02,3.03,5.21,4,8Z"/>
      <path class="cls-14" d="M503.47,256.63c8.25,5.94-.03,31.52-4.09,39.93-6.85,2.38-8.24-1.62-11.91-3.93l12-19.96c-9.8-1.5-16.14,3.37-20,11.96-2.25-1.67-5.55-2.49-8-4l4-16c1.04-.53,2.86.5,4,0,3.73-1.66,22.97-8.74,24-8Z"/>
      <path class="cls-28" d="M479.48,284.62c3.85-8.59,10.19-13.46,20-11.96l-12,19.96c-4.61-2.91-5.99-6.5-8-8Z"/>
      <path class="cls-11" d="M319.5,616.55c-1.28.16-2.69,0-4,0l.04-20c9.85,3.06,9.45,12.49,3.96,20Z"/>
      <path class="cls-22" d="M291.5,396.6c3.1-.29,9.55-.64,12,0,15.86,4.17-2.85,29.21-8,39.99-4.54-.04-8.71-5.49-12-8l12-19.96-16,15.96c-4.9-5.21-11.95-8.26-11.9-17.75,1.2-5.38,18.47-9.73,23.9-10.24Z"/>
      <path class="cls-16" d="M507.47,104.66c-.36,2.53.59,5.86,0,8-3.26,11.91-38.22,22.17-40.32,5.75-1.03-8.07,3.31-10.09,4.33-13.75-6.55,20.81,24.38,12.32,16.01,4.04-.59-.58-12.16-.34-16.01-4.04.98-3.53-2.33-11.53,2.05-12.05l33.95,12.05Z"/>
      <path class="cls-17" d="M71.53,480.58c12.91,4.07,13.65,5.46,12,20-.64.67-3.36-.67-4,0,2.42-8.97-7.96-11.76-15.98-11.98-1.48,7.94,5.66,12.27,11.98,15.98-3.02,3.09-4.99,9-8,12-2.24-.49-7.18.75-8,0-1.24-1.14-16.31-28.07-15.94-29.71,2.34-10.6,19.74-8.87,27.94-6.28Z"/>
      <path class="cls-9" d="M383.49,252.63c-.33,6.74-.39,22.28-9.95,23.02-1.48.11-26.13-12.02-26.37-13.48-3.34-20.4,21-23.72,36.35-21.53.24,2.64-.22,5.35-.03,7.99-39.4-5.35-11.59,22.25,0,4Z"/>
      <path class="cls-18" d="M187.51,392.6c34.19-10.87,26.18,16,10.03,35.91-3.96-1.93-6.76-5.19-10.03-7.91,6.32-3.71,13.46-8.03,11.98-15.98-7.94-1.48-12.27,5.66-15.98,11.98-2.46-1.76-5.07-7.02-8-8v-12c.53-.34,9.74-3.28,12-4Z"/>
      <path class="cls-2" d="M247.51,292.62c7.52-.94,16.24.65,24,0,.21,1.21.05,2.75,0,4l-23.98.02c-1.33,5.83,2.35,10.27,7.98,11.98,3.01.91,8.37-.62,12,0v4c-1.55,4.71,1.54,11.91-5.98,15.9-2.8-5.11-21.22-10.94-22.02-11.9-.47-.57.25-2.55,0-4-1.04-5.96.72-13.66,0-20,1.73-.66,5.44.32,8,0Z"/>
      <path class="cls-26" d="M319.5,152.65h4c1.29,2.62,2.83,5.42,4,8,.89,1.97,2.46,7.94,4,12,2.79,11.74-15.11,12.39-24,12-.96-1.52-2.31-3.35-4-4,6.38-10.55-.44-28.47,16-27.99Z"/>
      <path class="cls-13" d="M271.5,296.62c-.36,9.45-1.78,9.27-4,16v-4c-.27-6.17-11.73-6.17-12,0-5.63-1.71-9.31-6.14-7.98-11.98l23.98-.02Z"/>
      <path class="cls-32" d="M279.5,424.59l16-15.96-12,19.96c-1.42-1.08-2.76-2.67-4-4Z"/>
      <path class="cls-6" d="M75.53,504.58c-6.32-3.71-13.46-8.03-11.98-15.98,8.02.21,18.4,3,15.98,11.98-1.31,1.36-2.69,2.65-4,4Z"/>
      <path class="cls-12" d="M383.49,248.63c.1,1.29.06,2.7,0,4-11.59,18.25-39.4-9.35,0-4Z"/>
      <path class="cls-20" d="M183.52,416.6c3.71-6.32,8.03-13.46,15.98-11.98,1.48,7.94-5.66,12.27-11.98,15.98-1.44-1.2-2.62-3.01-4-4Z"/>
      <path class="cls-13" d="M271.5,288.62c.44.84-.25,2.57,0,4-7.76.65-16.48-.94-24,0,4.49-7.07,16.46-3.42,24-4Z"/>
      <path class="cls-25" d="M323.5,8.69c8.23,8.87,14.5,13.23,8,23.99-5.36,1.19-10.67,2.63-16,4l-8.04-21.96,8.01,2.01.03-12.04c2.65,1.37,5.31,2.71,8,4Z"/>
      <path class="cls-13" d="M239.51,312.62c-14.12,4.4-7.63-17.1,0-20,.72,6.33-1.04,14.04,0,20Z"/>
      <path class="cls-26" d="M299.5,180.65c-2.71-1.11-5.08-3.24-8-4-.3-.83-.09-2.75,0-4l4-4c.31-1.29-.36-2.81,0-4,2.08-2.81,6.38-5.3,8-8l-4,23.99Z"/>
      <path class="cls-34" d="M35.54,264.63c-2.7,2.77-19.91-7.43-19.92-10-.02-9.72,22.79-1.52,19.92,10Z"/>
      <path class="cls-15" d="M151.52,260.63c-3.85-3.71,5.08-19.43,11.96-19.99l.02,20.02c-3.23-.49-11.18.75-11.98-.02Z"/>
      <path class="cls-30" d="M107.53,68.67c1.27-4.68.21-4.16,4-8l-4,8Z"/>
      <path class="cls-29" d="M379.49,360.61c1.24-.03,2.89-.27,4,0,5.41,8.43,15.62,7.19,12,20-.57,1.09-2.78,2.75-4,4-6.69-2.03-11.3,7.77-12,8-3.78,1.23-11.26-.84-15.98.02v-16.01s15.98,11.96,15.98,11.96c-3.52-10.45-20.66-21.43-4-27.95.86-.34,2.62.04,4,0Z"/>
      <path class="cls-35" d="M371.49,352.61l4,8c-16.66,6.53.48,17.5,4,27.95l-16-11.96h-4c-.13-1.29-.02-2.69,0-4,.03-2.59-.39-5.62,0-8,5.01-1.72,9.01-4.4,4-8,.6-.82-.63-3.72,0-4,.92-.41,6.49-.39,8,0Z"/>
      <path class="cls-5" d="M299.5,432.59l4-4c-1.08,1.48-2.59,2.83-4,4Z"/>
      <path class="cls-21" d="M439.48,556.56c.35.99-.13,2.59,0,4,.81,8.46-7.65,12.42-16,11.96l16-15.96Z"/>
      <path class="cls-10" d="M471.48,104.66c3.85,3.69,15.42,3.45,16.01,4.04,8.37,8.28-22.56,16.78-16.01-4.04Z"/>
      <path class="cls-19" d="M267.5,308.62c-3.63-.62-8.98.91-12,0,.27-6.17,11.73-6.17,12,0Z"/>
      <path class="cls-33" d="M303.5,156.65c5.55-9.24,13.18-24.55,16-4-16.44-.48-9.62,17.45-16,27.99-1.17-.45-2.86.47-4,0l4-23.99Z"/>
      <path class="cls-4" d="M315.5,4.69l-.03,12.04-8.01-2.01,8.04,21.96c-3.64.93-8.6,7.1-15.98,4.01.87-8.88-1.33-19.54-.02-28,.28-1.81,6.33-6.95,4-12,7.11-2.45,8.72,2.3,12,4Z"/>
      <path class="cls-31" d="M359.49,364.61c.99-6.05,1.61-4.75,4-8,5.01,3.6,1.01,6.27-4,8Z"/>
    </g>
  </g>
</svg>