<?xml version="1.0" encoding="UTF-8"?>
<svg id="Layer_2" data-name="Layer 2" xmlns="http://www.w3.org/2000/svg" viewBox="0 0 77.05 65.53">
  <defs>
    <style>
      .cls-1 {
        fill: #fff;
      }
    </style>
  </defs>
  <g id="Layer_1-2" data-name="Layer 1">
    <path class="cls-1" d="M0,63.13c0-8.83,3.27-16.82,8.56-22.6,3.16-3.45,7.04-6.12,11.37-7.71-.84-.63-1.62-1.34-2.33-2.12-2.98-3.25-4.82-7.75-4.82-12.72s1.84-9.46,4.82-12.72c2.98-3.25,7.09-5.27,11.63-5.27s8.65,2.01,11.63,5.27c2.98,3.25,4.82,7.75,4.82,12.72s-1.84,9.46-4.82,12.72c-.72.78-1.5,1.49-2.33,2.12,4.33,1.59,8.21,4.26,11.37,7.71,5.29,5.78,8.56,13.77,8.56,22.6,0,1.33-.98,2.4-2.19,2.4H2.19c-1.21,0-2.19-1.07-2.19-2.4h0ZM66.69,55c-1.33,0-2.4-1.07-2.4-2.4s1.07-2.4,2.4-2.4h7.96c1.33,0,2.4,1.07,2.4,2.4s-1.07,2.4-2.4,2.4h-7.96ZM55.48,33.75c-1.33,0-2.4-1.07-2.4-2.4s1.07-2.4,2.4-2.4h19.17c1.33,0,2.4,1.07,2.4,2.4s-1.07,2.4-2.4,2.4h-19.17ZM55.48,12.51c-1.33,0-2.4-1.07-2.4-2.4s1.07-2.4,2.4-2.4h19.17c1.33,0,2.4,1.07,2.4,2.4s-1.07,2.4-2.4,2.4h-19.17Z"/>
  </g>
</svg>