<?xml version="1.0" encoding="UTF-8"?>
<svg id="Layer_2" data-name="Layer 2" xmlns="http://www.w3.org/2000/svg" viewBox="0 0 191.16 191.14">
  <defs>
    <style>
      .cls-1 {
        stroke: #fff;
        stroke-miterlimit: 10;
        stroke-width: 2px;
      }

      .cls-1, .cls-2 {
        fill: #fff;
      }
    </style>
  </defs>
  <g id="Layer_3" data-name="Layer 3">
    <path class="cls-2" d="M92.34,98.83l-.02-95.96C41.17,3.85,0,45.61,0,96.99s42.16,94.15,94.15,94.15,93.15-41.15,94.13-92.31h-95.94ZM44.2,107.38c-5.73,0-10.37-4.64-10.37-10.37s4.64-10.37,10.37-10.37,10.37,4.64,10.37,10.37-4.64,10.37-10.37,10.37ZM66.82,58.35c-4.89,0-8.86-3.97-8.86-8.86s3.97-8.86,8.86-8.86,8.87,3.97,8.87,8.86-3.97,8.86-8.87,8.86ZM86.89,146.41c-4.89,0-8.86-3.97-8.86-8.86s3.97-8.86,8.86-8.86,8.86,3.97,8.86,8.86-3.97,8.86-8.86,8.86ZM140.2,137.56c-5.72,0-10.37-4.64-10.37-10.37s4.65-10.37,10.37-10.37,10.39,4.64,10.39,10.37-4.65,10.37-10.39,10.37Z"/>
    <g>
      <path class="cls-1" d="M100,1.02v86.98l55.83-66.7C140.52,8.96,121.16,1.41,100,1.02ZM115.18,40.64c-4.42,0-8.01-3.59-8.01-8.01s3.59-8.01,8.01-8.01,8.01,3.59,8.01,8.01-3.59,8.01-8.01,8.01Z"/>
      <path class="cls-1" d="M160.84,27l-53.67,64.13,82.97-1.46c-.48-24.99-11.71-47.35-29.3-62.67ZM156.82,81.17c-4.51,0-8.17-3.66-8.17-8.17s3.66-8.17,8.17-8.17,8.17,3.66,8.17,8.17-3.66,8.17-8.17,8.17Z"/>
    </g>
  </g>
</svg>