<?xml version="1.0" encoding="UTF-8"?>
<svg id="Layer_2" data-name="Layer 2" xmlns="http://www.w3.org/2000/svg" viewBox="0 0 180 180">
  <defs>
    <style>
      .cls-1 {
        fill: #fff;
      }
    </style>
  </defs>
  <g id="Layer_9" data-name="Layer 9">
    <path class="cls-1" d="M147.83.02c-.37-.01-.75-.02-1.13-.02H33.09C15.16.11.59,14.39.02,32.22c-.01.36-.02.72-.02,1.08v113.6c.11,18.3,14.98,33.1,33.3,33.1h113.4c18.39,0,33.3-14.91,33.3-33.3V33.3C180,15.28,165.7.62,147.83.02ZM121.88,148.9H24.7c-2.17,0-3.94-1.93-3.94-4.32,0-15.86,5.88-30.22,15.39-40.62,5.67-6.21,12.65-11,20.43-13.86-1.5-1.13-2.91-2.4-4.19-3.81-5.35-5.85-8.66-13.93-8.66-22.86s3.31-17.01,8.66-22.86c5.35-5.85,12.74-9.47,20.9-9.47s15.56,3.62,20.91,9.47c5.35,5.85,8.66,13.94,8.66,22.86s-3.31,17.01-8.66,22.86c-1.29,1.41-2.69,2.68-4.2,3.81,7.79,2.86,14.76,7.65,20.44,13.86,9.51,10.4,15.39,24.76,15.39,40.62,0,2.39-1.77,4.32-3.95,4.32ZM154.93,129.96h-14.3c-2.39,0-4.32-1.93-4.32-4.31s1.93-4.32,4.32-4.32h14.3c2.38,0,4.31,1.94,4.31,4.32s-1.93,4.31-4.31,4.31ZM154.93,91.77h-34.45c-2.38,0-4.31-1.93-4.31-4.31s1.93-4.32,4.31-4.32h34.45c2.38,0,4.31,1.94,4.31,4.32s-1.93,4.31-4.31,4.31ZM154.93,53.58h-34.45c-2.38,0-4.31-1.93-4.31-4.31s1.93-4.31,4.31-4.31h34.45c2.38,0,4.31,1.93,4.31,4.31s-1.93,4.31-4.31,4.31Z"/>
  </g>
</svg>