<?xml version="1.0" encoding="UTF-8"?>
<svg id="Layer_2" data-name="Layer 2" xmlns="http://www.w3.org/2000/svg" viewBox="0 0 592.23 599.52">
  <defs>
    <style>
      .cls-1 {
        fill: #4fa245;
      }

      .cls-2 {
        fill: #469f46;
      }

      .cls-3 {
        fill: #50a245;
      }

      .cls-4 {
        fill: #63a342;
      }

      .cls-5 {
        fill: #63ab44;
      }

      .cls-6 {
        fill: #66ad44;
      }

      .cls-7 {
        fill: #384e34;
      }

      .cls-8 {
        fill: #65af46;
      }

      .cls-9 {
        fill: #67ad44;
      }

      .cls-10 {
        fill: #6bb145;
      }

      .cls-11 {
        fill: #66ac44;
      }

      .cls-12 {
        fill: #66ab44;
      }

      .cls-13 {
        fill: #6bae44;
      }

      .cls-14 {
        fill: #439243;
      }

      .cls-15 {
        fill: #69b045;
      }

      .cls-16 {
        fill: #64a442;
      }

      .cls-17 {
        fill: #65a643;
      }

      .cls-18 {
        fill: #60a343;
      }

      .cls-19 {
        fill: #61aa45;
      }

      .cls-20 {
        fill: #3a5937;
      }

      .cls-21 {
        fill: #62a945;
      }

      .cls-22 {
        fill: #66ad45;
      }

      .cls-23 {
        fill: #499e45;
      }

      .cls-24 {
        fill: #479f46;
      }

      .cls-25 {
        fill: #71b545;
      }

      .cls-26 {
        fill: #65ab45;
      }

      .cls-27 {
        fill: #408c41;
      }

      .cls-28 {
        fill: #449042;
      }

      .cls-29 {
        fill: #429e46;
      }

      .cls-30 {
        fill: #50a345;
      }

      .cls-31 {
        fill: #439142;
      }

      .cls-32 {
        fill: #66b045;
      }

      .cls-33 {
        fill: #66af45;
      }

      .cls-34 {
        fill: #419c46;
      }
    </style>
  </defs>
  <g id="olives">
    <g>
      <path class="cls-3" d="M204.28,439.5l11.96,27.99c2.44-8.04-11.35-17.47-7.92-24,.29-.56,10.81,5.77,11.96-3.99,1.38.51,2.68,3.46,4,4-6.02,27.61,13.57,49.38,9.98,8.02l6.06,15.95,7.91-7.95,10.06,31.95,5.93-19.95,8.09,35.94c6.71.78,4.45-16.32,3.96-19.97l8,23.99c-16.73,20.81,2.76,16.97,10.03,23.89,3.82,3.63,6.27,8.38,9.97,12.1,2.36,2.37,3.89,8.48,7.68,9.86,5.11,1.86,19.93-4.1,28.28,2.19l-19.97,3.99c3.59,10.73,21.77,16.67,31.99,11.96.52,1.72,2.96,4.43,4,8-13.32,1.82-26.67,1.36-16,16-1.3.09-2.7.06-4,0-5.99-9.06-15.38-16.15-16.05-27.96l-7.9,15.94c-2.63-5.19-12.25-40.43-20.03-31.94l-3.98,19.95c.4-5.39-6.97-41.93-12-35.96-.17,3.98.07,8-.04,11.99-8.3,1.91-15.81,5.6-24,8-4.18.08-5.19-.75-2.17-4.05,3.7-4.03,28.87-19.92,26.16-23.95.68-10.67.18-9.1-8-4-1.22-.15-2.77-.12-4,0l-39.99-8c-1.22-1.37-2.99-2.55-4-4l23.96-5.94-27.93-14.1,15.95-5.93-27.98-22.01c-1.16-7.9-10.67-16.64,0-27.99Z"/>
      <path class="cls-1" d="M212.28,295.53c-.52,21.26,15.13-15.85,19.96-11.99l1.99,15.96,20.09-15.88-4.06,15.89,22.02-15.98c5.69,2.82,11.96,4.67,16.01,10.11,1.86,7.77-12.29,13.41-16.01,17.88-4.37-6.62-12.39-8.69-20-7.96l16,11.96c-1.9,2.28-1.99,5.68-8,12-8.07-5.98-24.5-12.18-27.99-.05l15.97,8.01-31.98-3.96c-16.83-17.95-12.86-15.55-4-35.99Z"/>
      <path class="cls-33" d="M284.27,511.48c3.84-4.77,4.79-7.85,11.71-10.21,22.56-7.69,13.2,3.56,17.1,9.11,2.09,2.98,10.9,3.61,15.09,7.13,16.37,13.77,18.38,38.95,24.09,57.96-10.23,4.71-28.41-1.23-31.99-11.96l19.97-3.99c-8.35-6.28-23.17-.33-28.28-2.19-3.8-1.38-5.32-7.49-7.68-9.86,1.29.97,27.02,3.27,31.98,3.96-1.74-5.63-18.93-10.84-23.98-11.96l15.97-11.95c-11.59-.53-23.63-9.74-31.97,2.03-1.63,6.8,6.31,7.59,8,9.92.94,1.29-.92,7.31,0,8-3.7-3.71-6.15-8.47-9.97-12.1-7.28-6.92-26.77-3.08-10.03-23.89Z"/>
      <path class="cls-24" d="M68.3,287.53c14.67,13.36,11.95,11.79,4,31.99l-15.97,11.99,1.93-12.01c-8.35-1.32-7.26,9.63-15.89,16.26-3.55,2.73-9.69,1.2-14.03,3.75l5.99-23.97c-8.86,3.66-19.09,17.93-14.02,27.97-7.16-.56-7.21-1.98-12-4,9.27-9.39,11.48-21.95-4-23.99,2-5.06,7.08-6.48,8-8,4.41,7.12,16.43,3.38,23.98,3.96,1.39-5.77-7.03-4.63-11.98-7.96,1.19-.22,3.76-3.8,9.75-4.32,9.02-.78,26.93,12.05,10.25-11.63l24-.04Z"/>
      <path class="cls-23" d="M564.24,255.54l-8.03,17.97,8-2.01-4.01,17.99,12.04-5.95c1.31,9.32,6.12,11.47-4,23.96,10.31-.99,20.07,1.43,23.99,11.99-11.21,2.52-17.11,2.99-27.99.04-3.17-3.78-5.25-5.2-8-8-5.96-6.07-15.66-5.41-19.93-18.08-3.25-9.66,5.35-1.39,7.85-3.81-6.51-8.09-7.27-16.64-3.87-26.07l11.91,11.97-11.96-19.99c3.1-5.46,4.46-11.95,10-15.92,5.41,4.77,10.27,9.69,14,15.92Z"/>
      <path class="cls-30" d="M208.28,3.6c-3.79-.6-24.06-2.82-23.97,3.95l31.94,8.09-11.97,11.91,19.98,8-27.95-1.98c8.63,14.26,22.6,2.73,35.95,10.07,3.19,8.23-33.86-5.77-19.96,7.89,1.04,1.02,32.91,15.55,23.99-3.94,1.07,5.07,3.14,7.5,4,16-22.05,4.56-24.48,5.08-34.02-15.98l-5.93,11.95c-.95-9.76-6.78-17.83-14.07-23.94l-5.93,15.95-8.1-27.93-3.95,15.97c-11.38-31.76,10.38-47.1,39.99-35.99Z"/>
      <path class="cls-19" d="M540.24,255.54l11.96,19.99-11.91-11.97c-3.4,9.43-2.64,17.98,3.87,26.07-2.5,2.42-11.1-5.85-7.85,3.81,4.27,12.67,13.97,12.01,19.93,18.08-1.78,11.76,2.56,6.53,8,8,19.6,23.32,14.89,32.37,0,55.99l-2.05-15.31c15.17,8.62-2.57-12.99-2.15-18.66.19-2.5,23.97-3.85-15.8-22.01-3.34-1.53-12.33,1.56-15.96-6.06-3.05-7.96,8.15-5.02,8.11-7.95-.1-6.24-6.21-8.46-7.36-12.99-3.33-13.06,4.89-25.83,11.22-36.98Z"/>
      <path class="cls-9" d="M208.28,3.6c27.94,4.42,23.78,23.99,28,43.99,8.93,19.5-22.95,4.96-23.99,3.94-13.9-13.66,23.15.34,19.96-7.89-13.34-7.34-27.32,4.19-35.95-10.07l27.95,1.98-19.98-8,11.97-11.91-31.94-8.09c-.08-6.77,20.18-4.55,23.97-3.95Z"/>
      <path class="cls-2" d="M544.24,319.53c39.77,18.16,15.98,19.51,15.8,22.01-.42,5.67,17.32,27.28,2.15,18.66l2.05,15.31c-2.65,4.2-2.41,12.48-10,15.92-5.45-2.24-4.57-9.98-6-11.92-2.5-8.24,14.45-9.93,7.96-19.99-1.02-1.58-27.98,23.13-7.92-17.96l-12,5.96,3.96-19.99c1.67-2.34,2.51-5.5,4-8Z"/>
      <path class="cls-15" d="M276.27,551.47c.11-3.99-.13-8.02.04-11.99,5.04-5.97,12.41,30.58,12,35.96l3.98-19.95c7.77-8.49,17.4,26.75,20.03,31.94l7.9-15.94c.66,11.81,10.06,18.91,16.05,27.96-29.54-1.36-60.89-15.12-59.99-47.99Z"/>
      <path class="cls-11" d="M168.29,39.59l3.95-15.97,8.1,27.93,5.93-15.95c7.29,6.12,13.12,14.18,14.07,23.94l5.93-11.95c9.53,21.06,11.96,20.54,34.02,15.98.25,2.47,7.75,8.62-2.61,11.46-22.34,6.1-61.27-12.83-69.38-35.45Z"/>
      <path class="cls-13" d="M276.27,487.49c.49,3.65,2.76,20.75-3.96,19.97l-8.09-35.94-5.93,19.95-10.06-31.95-7.91,7.95-6.06-15.95c3.59,41.37-16,19.59-9.98-8.02,25.71,10.43,47.83,13,51.99,43.99Z"/>
      <path class="cls-22" d="M272.27,283.53l-22.02,15.98,4.06-15.89-20.09,15.88-1.99-15.96c-4.83-3.86-20.48,33.25-19.96,11.99,2.76-6.36,1.76-16.29,10.65-19.33,13.63-4.67,36.5.96,49.34,7.34Z"/>
      <path class="cls-6" d="M204.28,467.49l27.98,22.01-15.95,5.93,27.93,14.1-23.96,5.94c-14.09-20.28-12.65-25.17-16-47.99Z"/>
      <path class="cls-8" d="M20.31,343.52c-5.07-10.03,5.16-24.31,14.02-27.97l-5.99,23.97c4.34-2.56,10.47-1.02,14.03-3.75,8.63-6.63,7.54-17.58,15.89-16.26l-1.93,12.01,15.97-11.99c-11.07,28.14-21.27,26.4-51.99,23.99Z"/>
      <path class="cls-12" d="M68.3,287.53l-24,.04c16.68,23.68-1.23,10.85-10.25,11.63-5.99.52-8.56,4.11-9.75,4.32-2.45.45-5.43-.3-8,0l4-8c18.98-17.59,27.16-26.97,47.99-8Z"/>
      <path class="cls-27" d="M276.27,531.48c2.71,4.03-22.47,19.92-26.16,23.95-3.02,3.29-2.02,4.12,2.17,4.05-2.83.83-4.3,9-12.01-2.08,4.25-5.29,7.23-20.97,8.01-21.91,2.08-2.52,14.04-7.81,16-8,1.23-.12,2.78-.15,4,0,.44.06,3.75,5.53,8,4Z"/>
      <path class="cls-17" d="M72.28,87.6c1.55,14.41-6.03,34.11-23.95,31.95-1.95-16.14,6.54-31.12,23.95-31.95Z"/>
      <path class="cls-32" d="M260.28,327.52c-17.58,18.48-23.07,26.32-43.99,4l31.98,3.96-15.97-8.01c3.48-12.13,19.92-5.93,27.99.05Z"/>
      <path class="cls-21" d="M540.24,327.52l-3.96,19.99,12-5.96c-20.06,41.09,6.9,16.38,7.92,17.96,6.49,10.06-10.46,11.76-7.96,19.99-14.15-19.19-25.27-27.72-8-51.99Z"/>
      <path class="cls-16" d="M264.27,215.5c-8.37,6.58-38.78,3.22-35.96-9.89,2.88-13.44,33.84-2.1,35.96,9.89Z"/>
      <path class="cls-31" d="M520.22,555.45c-4.6,4.52-44.32-3.23-32-15.96,5.62-5.8,44.68,3.49,32,15.96Z"/>
      <path class="cls-4" d="M424.23,27.61c5.12,5.22-10.93,34.33-23.96,27.95-6.92-11.35,16.76-35.28,23.96-27.95Z"/>
      <path class="cls-14" d="M447.98,355.85c13.31,21.76-46.13,10.67-31.73-4.31,1.81-1.88,30.01,1.5,31.73,4.31Z"/>
      <path class="cls-28" d="M71.25,496.54c5.73,6.21,5.11,18.88,5.03,26.92-15.24-.78-21.37-19.17-19.95-31.95,1.76-1.9,12.92,2.87,14.92,5.03Z"/>
      <path class="cls-5" d="M356.26,583.47c5.09,17.42,2.98,14.63-16,16-10.67-14.64,2.68-14.18,16-16Z"/>
      <path class="cls-9" d="M264.28,527.48c-1.95.19-13.92,5.48-16,8-13.87,2-16.96-8.11-24-16l39.99,8Z"/>
      <path class="cls-26" d="M572.23,283.53l-12.04,5.95,4.01-17.99-8,2.01,8.03-17.97c6.92,11.57,6.28,15.78,8,27.99Z"/>
      <path class="cls-6" d="M220.28,439.5c-1.16,9.77-11.67,3.43-11.96,3.99-3.43,6.53,10.36,15.96,7.92,24l-11.96-27.99c6.88-7.32,8.75-2.68,16,0Z"/>
      <path class="cls-18" d="M4.31,315.53c15.48,2.05,13.27,14.6,4,23.99-1.98-.84-7.56,2.4-8.31-2.4.55-7.01,1.75-15.11,4.31-21.59Z"/>
      <path class="cls-10" d="M24.31,303.53c4.95,3.33,13.37,2.18,11.98,7.96-7.55-.58-19.56,3.17-23.98-3.96.6-1-.62-3.15,0-4h4c2.57-.3,5.55.45,8,0Z"/>
      <path class="cls-25" d="M272.27,311.53c-1.21,1.46-2.82,2.59-4,4l-16-11.96c7.61-.73,15.63,1.34,20,7.96Z"/>
      <path class="cls-24" d="M16.31,303.53h-4c3.23-4.4,4.72-4.96,8-8l-4,8Z"/>
      <path class="cls-7" d="M276.27,531.48c-4.25,1.53-7.56-3.94-8-4,8.18-5.1,8.68-6.67,8,4Z"/>
      <path class="cls-29" d="M304.27,539.48c-1.69-2.33-9.62-3.12-8-9.92,8.34-11.77,20.38-2.56,31.97-2.03l-15.97,11.95c-2.34-.52-5.45.35-8,0Z"/>
      <path class="cls-34" d="M312.27,539.48c5.04,1.11,22.24,6.33,23.98,11.96-4.96-.68-30.69-2.99-31.98-3.96-.92-.69.94-6.7,0-8,2.55.35,5.66-.52,8,0Z"/>
      <path class="cls-20" d="M564.24,319.53c-5.44-1.47-9.78,3.76-8-8,2.75,2.8,4.82,4.22,8,8Z"/>
    </g>
  </g>
</svg>