<?xml version="1.0" encoding="UTF-8"?>
<svg id="Layer_2" data-name="Layer 2" xmlns="http://www.w3.org/2000/svg" viewBox="0 0 1633.82 1599.76">
  <defs>
    <style>
      .cls-1 {
        fill: #fff;
        fill-rule: evenodd;
      }
    </style>
  </defs>
  <g id="Layer_1-2" data-name="Layer 1">
    <path class="cls-1" d="M988.57,1599.76c148.54-31.74,282.15-103.77,388.8-204.15-50.46-46.3-110.28-86.29-177.21-118.19-15.08,42.98-32.13,83.15-50.91,120-44.53,87.41-99.12,156.85-160.68,202.34ZM1435.76,1334.79c115.47-133.48,188.49-304.69,198.06-492.66h-358.4c-3.23,127.29-20.97,247.38-50.04,354.08,79.57,36.59,150.67,83.55,210.38,138.58ZM1633.82,757.63c-9.57-187.97-82.57-359.19-198.06-492.66-59.71,55.03-130.81,102-210.38,138.59,29.08,106.7,46.81,226.78,50.04,354.07h358.4ZM1377.37,204.14C1270.71,103.77,1137.12,31.73,988.57,0c61.56,45.48,116.15,114.92,160.68,202.33,18.78,36.85,35.83,77.02,50.91,120.01,66.93-31.9,126.75-71.9,177.21-118.2ZM645.25,0c-148.54,31.74-282.15,103.77-388.8,204.14,50.47,46.3,110.29,86.3,177.21,118.2,15.09-42.99,32.13-83.16,50.91-120.01C529.1,114.92,583.69,45.48,645.25,0ZM198.06,264.97C82.58,398.45,9.56,569.66,0,757.63h358.4c3.23-127.29,20.96-247.37,50.04-354.07-79.57-36.59-150.68-83.56-210.38-138.59ZM0,842.13c9.56,187.97,82.57,359.2,198.06,492.66,59.71-55.03,130.81-102,210.38-138.58-29.08-106.7-46.81-226.79-50.04-354.08H0ZM256.44,1395.61c106.66,100.37,240.26,172.42,388.8,204.15-61.56-45.48-116.15-114.93-160.68-202.34-18.78-36.85-35.83-77.02-50.91-120-66.93,31.9-126.74,71.88-177.21,118.19ZM1122.05,1245.08c-80.74-28.7-169.42-46.34-262.9-50.44v375.79c81.64-20,156.61-97.02,214.84-211.3,17.77-34.87,33.87-73.06,48.06-114.05ZM774.66,1194.64c-93.48,4.1-182.16,21.74-262.9,50.44,14.19,40.99,30.3,79.18,48.06,114.05,58.23,114.28,133.2,191.3,214.84,211.3v-375.79ZM487.27,1164.36c88.71-31.16,185.66-50.14,287.39-54.28v-267.95h-331.73c3.07,115.95,18.74,225.1,44.34,322.23ZM859.16,1110.08c101.73,4.14,198.68,23.12,287.39,54.28,25.6-97.13,41.27-206.28,44.34-322.23h-331.73v267.95ZM774.66,757.63v-267.95c-101.73-4.13-198.68-23.13-287.39-54.28-25.6,97.13-41.26,206.28-44.34,322.23h331.73ZM774.66,405.12V29.32c-81.64,20.01-156.61,97.03-214.84,211.31-17.76,34.86-33.87,73.05-48.06,114.05,80.75,28.7,169.42,46.33,262.9,50.44ZM859.16,29.32v375.8c93.48-4.11,182.16-21.74,262.9-50.44-14.19-41-30.29-79.19-48.06-114.05-58.23-114.28-133.2-191.3-214.84-211.31ZM859.16,489.68v267.95h331.73c-3.08-115.95-18.74-225.1-44.34-322.23-88.71,31.15-185.66,50.15-287.39,54.28"/>
  </g>
</svg>