<?xml version="1.0" encoding="UTF-8"?>
<svg id="Layer_2" data-name="Layer 2" xmlns="http://www.w3.org/2000/svg" viewBox="0 0 677.95 667.37">
  <defs>
    <style>
      .cls-1 {
        fill: #c19b80;
      }

      .cls-2 {
        fill: #d6c1a6;
      }

      .cls-3 {
        fill: #d6c3ae;
      }

      .cls-4 {
        fill: #d7baa1;
      }

      .cls-5 {
        fill: #b7a08a;
      }

      .cls-6 {
        fill: #cbb098;
      }

      .cls-7 {
        fill: #f6e9cc;
      }

      .cls-8 {
        fill: #d2bea8;
      }

      .cls-9 {
        fill: #dbc3ac;
      }

      .cls-10 {
        fill: #d8b595;
      }

      .cls-11 {
        fill: #cbb39d;
      }

      .cls-12 {
        fill: #d3bea9;
      }

      .cls-13 {
        fill: #c49e80;
      }

      .cls-14 {
        fill: #b18a6e;
      }

      .cls-15 {
        fill: #cab098;
      }

      .cls-16 {
        fill: #c8ad93;
      }

      .cls-17 {
        fill: #c5ae98;
      }

      .cls-18 {
        fill: #f6f2eb;
      }

      .cls-19 {
        fill: #c4a88f;
      }

      .cls-20 {
        fill: #bb9e88;
      }

      .cls-21 {
        fill: #dac8af;
      }

      .cls-22 {
        fill: #d7c6b2;
      }

      .cls-23 {
        fill: #d9c2ab;
      }

      .cls-24 {
        fill: #bd9f87;
      }

      .cls-25 {
        fill: #d4baa2;
      }

      .cls-26 {
        fill: #bb8c6f;
      }

      .cls-27 {
        fill: #f6ead0;
      }

      .cls-28 {
        fill: #d9c9b5;
      }

      .cls-29 {
        fill: #f6f3eb;
      }

      .cls-30 {
        fill: #d5c0a7;
      }

      .cls-31 {
        fill: #9f775d;
      }

      .cls-32 {
        fill: #d1bda8;
      }

      .cls-33 {
        fill: #c59a79;
      }

      .cls-34 {
        fill: #dac5b0;
      }

      .cls-35 {
        fill: #cdb9a3;
      }

      .cls-36 {
        fill: #bd9e86;
      }

      .cls-37 {
        fill: #c09f85;
      }

      .cls-38 {
        fill: #d7b69c;
      }

      .cls-39 {
        fill: #b18e74;
      }

      .cls-40 {
        fill: #b7896c;
      }

      .cls-41 {
        fill: #b79e89;
      }

      .cls-42 {
        fill: #f2ebdb;
      }

      .cls-43 {
        fill: #a57f65;
      }

      .cls-44 {
        fill: #f6f2ea;
      }

      .cls-45 {
        fill: #ccb096;
      }

      .cls-46 {
        fill: #f5e9cc;
      }
    </style>
  </defs>
  <g id="white_sauce" data-name="white sauce">
    <g>
      <path class="cls-42" d="M649.84,191.92c13.11,37.92,22.2,76.2,28,115.97.74,34.58-1.9,69.92-8,103.98-.11.62-2.84,6.6-4,12-.27,1.28.29,2.74,0,4-7.83,15.2-14.4,31.83-20,47.99-1.41,4.06-2.72,7.85-4,12-23.13,31.7-41.74,66.44-67.99,95.98-5.94,6.69-21.3,22.04-28,27.99-42.06,29.49-83.29,44.89-134.49,51.48-83.22,10.72-161.94,1.06-236.15-38.8-74.75-40.15-132.9-99.8-161.29-180.65-16.45-63.96-20.57-136.6,0-199.96C39.54,164.99,121.6,49.03,201.9,19.96c122.18-44.25,286.42-13.46,380.05,77.89,30.19,29.45,43.99,63.73,67.89,94.08ZM279.89,27.95v4c2.6-1.33,2.6-2.67,0-4ZM201.88,67.92c4.54-4.64-1.71-12.87-7.96-1.96-.5,3.48,7.67,2.25,7.96,1.96ZM337.86,67.97c-4.36-4.36-12.32,3.59-7.96,7.96,4.36,4.36,12.32-3.59,7.96-7.96ZM365.84,79.92c2.87-5.62-2.53-10.67-3.92-7.96-2.87,5.62,2.53,10.67,3.92,7.96ZM285.87,83.96c-4.36-4.36-12.32,3.59-7.96,7.96,4.36,4.36,12.32-3.59,7.96-7.96ZM445.84,83.96c-4.36-4.36-12.32,3.59-7.96,7.96,4.36,4.36,12.32-3.59,7.96-7.96ZM525.83,87.98c-5.62-2.87-10.67,2.53-7.96,3.92,5.62,2.87,10.67-2.53,7.96-3.92ZM497.86,167.92c13.54,12.29,28.53,24.29,32.04,43.98,12.07-4.8,5.88-8.19,1.54-15.57-24.08-41.01-70.66-67.7-111.66-88.43-9.66,22.85-8.45-2.01-12.44-4.17-14.96-8.09-117.77-12.41-124.8-3.01-1.84,2.46-.34,7.81-.69,11.19-6.76,1.85-1.88-7.92-6.19-8.24-3.28-.24-38.22,17.56-43.11,20.93-21.58,14.84-43.23,44.05-42.6,71.3l18.3-27.82c1.76-4.28,7.37-5.76,9.66-8.15-1.02,12.91,2.63,8.39,10.17,4.18,38.94-21.74,49.91-36.02,99.75-32.1,15.36,1.21,115.64,28.63,122.08,35.99.86.98-3.96,6.27-4.03,7.93-.45,9.74,7.47.24,8,0,1.29-.58-.09-4.1,3.84-2.25,64.66,30.48,101.23,154.03,96.08,220.14-.88,11.24-5.37,22.08-6.86,33.15-.58,4.33-4.42,13.78,2.88,12.87,3.79-23.29,15.09-48.91,18.22-71.79,10.76-78.52-29.66-138.12-70.17-200.12ZM209.88,99.98c-5.62-2.87-10.67,2.53-7.96,3.92,5.62,2.87,10.67-2.53,7.96-3.92ZM547.85,171.92v4c2.6-1.33,2.6-2.67,0-4ZM437.87,263.9c9.21-3.09-.72-11.09-3.86-14.15-58.91-57.44-181.25-73.19-208.08,22.12l19.96-23.97c2.55,8.76,11.29-.95,14.83-3.17,37.28-23.4,55.98-19.08,97.19-6.86,90.18,26.76,114.29,102.14,99.99,189.97,7.12-1.86,8.58-17.42,10.17-23.81,2.23-8.95.64-16.62,1.79-24.16.09-.59,3.82,2.12,4-8,.64-35.62-16.17-78.98-36-107.98ZM539.85,211.91v4c2.6-1.33,2.6-2.67,0-4ZM185.88,215.93c-4.36-4.36-12.32,3.59-7.96,7.96,4.36,4.36,12.32-3.59,7.96-7.96ZM119.91,255.9v4c2.6-1.33,2.6-2.67,0-4ZM53.92,411.87c.3,1.28-.35,2.79,0,4,2.63,9.1,15.47,25.51,18.23,36.01,1.41,5.34-2.75,11.57-2.27,11.95.99.77,7.56-1.96,12.32,2.62,5.82,5.6,15.85,26.37,23.83,35.29,43.56,48.71,114.17,92.73,178.95,105,55.47,10.51,104.62,3.57,150.08-23.72,6.41-3.85,15.67-8.15,18.81-15.14-30.94,2.75-60.07,15.07-90.64,19.68-46.91,7.07-78.16-3.34-123.4-19.65-27.82-10.03-85.66-32.52-101.91-56.06-7.41-10.73-2.04-2.83-8-8-20.57-17.84-59.21-107.5-62.96-135-5.18-38-.13-74.07,14.92-108.94-36.64,32.52-38.45,107.24-27.96,151.96ZM209.88,263.92c-4.36-4.36-12.32,3.59-7.96,7.96s12.32-3.59,7.96-7.96ZM569.83,267.94c-5.62-2.87-10.67,2.53-7.96,3.92,5.62,2.87,10.67-2.53,7.96-3.92ZM145.91,335.89c.2-2.65-.18-5.38.03-8.02l7.93,4.04v-52.01c-.83-1.13-5.12,2.08-6.03,3.94-4.11,8.38-9.4,50.25-10.1,61.88-8.96,148.19,81.53,245.78,233.21,201.2,24.48-7.19,45.96-21.68,70.89-27.12,1-6.98-9.21-4.08-13.52-3.54-9.07,1.12-21.39,4.88-30.45,7.59l-2.38-3.93c-2.94-.44-4.65,3.66-5.62,3.93-15.84,4.42-24.14,4.4-39.99,4-2.89-.07-8.31.14-8,4-14.51-.99-29.45.77-43.99,0-27.13-23.79-67.84-38.72-91.97-66-24.29-27.46-37-83.08-52.01-117.96-.08-.18,2.43.11,0-4-2.11-3.57-3.74-6.61-8-8ZM385.83,371.86c3.82-48.42-17.35-79.72-67.93-79.94-2.03,12.27,3.31,6.27,9.77,8.02,21.52,5.81,38.12,9.03,48.19,31.96l9.96,39.97ZM313.86,295.94c-16.64-1.99-16.64,5.9,0,3.92v-3.92ZM243.89,303.89v4c2.6-1.33,2.6-2.67,0-4ZM331.88,319.89v4c2.6-1.33,2.6-2.67,0-4ZM353.88,467.86c3.09.18-1.23,4.97,8,0,4.83-2.6,11.39-8.37,16-12,10.24-1.32,30.84-8.49,34.04-19.91-30.63,19.96-78.05,6.11-109.96-6.16-37.96-14.59-69.76-32.53-80.06-73.91-3.94-15.81-8.46-4.74-12-8.01-2.55-2.36,5.64-18.54,3.96-23.98-17.22,18.13-7.88,63.01,6.3,83.72,27.7,40.48,87.06,57.48,133.73,60.24ZM511.86,383.88v4c2.6-1.33,2.6-2.67,0-4ZM383.87,387.87v4c2.6-1.33,2.6-2.67,0-4ZM549.83,387.9c-4.36-4.36-12.32,3.59-7.96,7.96s12.32-3.59,7.96-7.96ZM481.84,419.91c-5.62-2.87-10.67,2.53-7.96,3.92,5.62,2.87,10.67-2.53,7.96-3.92ZM585.81,459.84c2.87-5.62-2.53-10.67-3.92-7.96-2.87,5.62,2.53,10.67,3.92,7.96ZM621.82,451.9c-5.62-2.87-10.67,2.53-7.96,3.92,5.62,2.87,10.67-2.53,7.96-3.92ZM501.84,459.9c-5.62-2.87-10.67,2.53-7.96,3.92,5.62,2.87,10.67-2.53,7.96-3.92ZM439.87,475.85v4c2.6-1.33,2.6-2.67,0-4ZM569.81,511.83c2.87-5.62-2.53-10.67-3.92-7.96-2.87,5.62,2.53,10.67,3.92,7.96ZM563.85,551.84v4c2.6-1.33,2.6-2.67,0-4ZM481.84,559.86c-4.36-4.36-12.32,3.59-7.96,7.96s12.32-3.59,7.96-7.96ZM489.84,595.87c-5.62-2.87-10.67,2.53-7.96,3.92,5.62,2.87,10.67-2.53,7.96-3.92ZM209.88,599.85c-4.36-4.36-12.32,3.59-7.96,7.96s12.32-3.59,7.96-7.96Z"/>
      <path class="cls-46" d="M129.91,503.85c-1.15,6.78,1.27,9.02,8,8,16.26,23.54,74.1,46.03,101.91,56.06,45.24,16.31,76.49,26.72,123.4,19.65,30.57-4.61,59.7-16.93,90.64-19.68-3.14,6.99-12.4,11.29-18.81,15.14-45.45,27.29-94.61,34.23-150.08,23.72-64.78-12.27-135.39-56.29-178.95-105-7.98-8.92-18.01-29.69-23.83-35.29-4.76-4.58-11.33-1.84-12.32-2.62-.48-.37,3.67-6.6,2.27-11.95-2.76-10.49-15.6-26.9-18.23-36.01,11.33,1.61,11.33-5.61,0-4-10.5-44.73-8.69-119.44,27.96-151.96-15.05,34.87-20.1,70.94-14.92,108.94,3.75,27.5,42.38,117.16,62.96,135Z"/>
      <path class="cls-46" d="M329.88,115.93l2,3.92,2-3.92c59.31.29,119.17,11.34,163.98,51.99,40.51,62,80.93,121.6,70.17,200.12-3.14,22.88-14.43,48.5-18.22,71.79-7.3.91-3.46-8.54-2.88-12.87,1.49-11.07,5.98-21.91,6.86-33.15,5.15-66.1-31.42-189.66-96.08-220.14-3.93-1.85-2.55,1.67-3.84,2.25h-8c.08-1.66,4.89-6.95,4.03-7.93-6.44-7.36-106.72-34.78-122.08-35.99-49.84-3.92-60.81,10.36-99.75,32.1-7.54,4.21-11.19,8.73-10.17-4.18,33.3-34.85,64.31-42.84,111.99-43.99Z"/>
      <path class="cls-7" d="M397.87,523.84c9.06-2.71,21.38-6.47,30.45-7.59,4.31-.53,14.51-3.43,13.52,3.54-24.93,5.44-46.41,19.92-70.89,27.12-151.68,44.58-242.17-53.01-233.21-201.2.7-11.64,6-53.5,10.1-61.88.91-1.86,5.2-5.07,6.02-3.94v52.01s-7.93-4.04-7.93-4.04c-.21,2.64.17,5.37-.03,8.02-4.03,52.09,29.23,138.89,67.8,174.12,13.08,11.94,12.42,7.09,24.18,5.84-1.61,11.33,5.61,11.33,4,0,4.9,2.43,2.07,9.07,6.82,12.1,9.51,6.06,36.84,3.25,49.17,3.9,14.54.77,29.49-.99,43.99,0,1.83.12,9.6,11.81,8-4,15.86.4,24.16.43,39.99-4l2.38,3.91c2.95.44,4.6-3.6,5.61-3.91Z"/>
      <path class="cls-29" d="M217.9,159.92c-2.29,2.39-7.9,3.88-9.66,8.15l-18.3,27.82c-.62-27.25,21.03-56.46,42.6-71.3,4.9-3.37,39.83-21.17,43.11-20.93,4.32.32-.57,10.09,6.19,8.24.34-3.39-1.15-8.73.69-11.19,7.04-9.39,109.85-5.08,124.8,3.01,3.99,2.16,2.79,27.01,12.44,4.17,41,20.73,87.58,47.42,111.66,88.43,4.34,7.38,10.52,10.77-1.54,15.57-3.51-19.69-18.5-31.7-32.04-43.98-44.81-40.65-104.67-51.7-163.98-51.99-1.33,0-2.67-.03-4,0-47.68,1.15-78.69,9.14-111.99,43.99Z"/>
      <path class="cls-18" d="M153.9,343.88v4c15,34.88,27.72,90.5,52.01,117.96,24.13,27.28,64.85,42.21,91.97,66-12.33-.65-39.65,2.16-49.17-3.9-4.75-3.03-1.93-9.67-6.82-12.1-.6-.3-2.82-.12-4,0-11.76,1.25-11.11,6.1-24.18-5.84-38.58-35.23-71.83-122.02-67.8-174.12,4.26,1.39,5.89,4.42,8,8Z"/>
      <path class="cls-7" d="M437.87,263.9c19.83,28.99,36.64,72.36,36,107.98l-4,8c-1.15,7.54.44,15.21-1.79,24.16-1.59,6.39-3.06,21.95-10.17,23.81,14.3-87.83-9.81-163.21-99.99-189.97-41.21-12.23-59.91-16.54-97.19,6.86-3.54,2.22-12.28,11.94-14.83,3.17,40.14-49.7,158.3-33.24,191.97,16ZM447.87,295.89v4c2.6-1.33,2.6-2.67,0-4Z"/>
      <path class="cls-7" d="M353.88,467.86c-46.67-2.77-106.03-19.76-133.73-60.24-14.17-20.71-23.51-65.6-6.3-83.72,1.67,5.44-6.51,21.62-3.96,23.98,3.55,3.28,8.07-7.8,12,8.01-12.02-1.84-8.27,4.56-6.29,12.27,14.64,57.01,108.7,94.61,162.27,87.71-4.6,3.63-11.17,9.4-16,12h-8Z"/>
      <path class="cls-44" d="M437.87,263.9c-33.68-49.24-151.83-65.69-191.97-16l-19.96,23.97c26.83-95.3,149.17-79.56,208.08-22.12,3.14,3.06,13.07,11.06,3.86,14.15Z"/>
      <path class="cls-44" d="M221.9,355.88c10.3,41.38,42.1,59.32,80.06,73.91,31.91,12.27,79.32,26.11,109.96,6.16-3.2,11.42-23.8,18.59-34.04,19.91-53.57,6.9-147.64-30.7-162.27-87.71-1.98-7.71-5.73-14.1,6.29-12.27Z"/>
      <path class="cls-27" d="M385.83,371.86l-9.96-39.97c-10.08-22.93-26.67-26.15-48.19-31.96-6.47-1.75-11.81,4.26-9.77-8.02,50.58.22,71.75,31.52,67.93,79.94Z"/>
      <path class="cls-15" d="M209.88,599.85c4.36,4.36-3.59,12.32-7.96,7.96s3.59-12.32,7.96-7.96Z"/>
      <path class="cls-35" d="M481.84,559.86c4.36,4.36-3.59,12.32-7.96,7.96s3.59-12.32,7.96-7.96Z"/>
      <path class="cls-2" d="M349.88,527.84c1.6,15.81-6.17,4.12-8,4-.31-3.86,5.11-4.07,8-4Z"/>
      <path class="cls-21" d="M397.87,523.84c-1.02.3-2.67,4.34-5.61,3.91l-2.38-3.91c.97-.27,2.68-4.37,5.62-3.93l2.38,3.93Z"/>
      <path class="cls-45" d="M129.91,503.85c5.96,5.17.58-2.74,8,8-6.73,1.03-9.14-1.22-8-8Z"/>
      <path class="cls-34" d="M337.86,67.97c4.36,4.36-3.59,12.32-7.96,7.96-4.36-4.36,3.59-12.32,7.96-7.96Z"/>
      <path class="cls-11" d="M285.87,83.96c4.36,4.36-3.59,12.32-7.96,7.96-4.36-4.36,3.59-12.32,7.96-7.96Z"/>
      <path class="cls-12" d="M445.84,83.96c4.36,4.36-3.59,12.32-7.96,7.96-4.36-4.36,3.59-12.32,7.96-7.96Z"/>
      <path class="cls-28" d="M185.88,215.93c4.36,4.36-3.59,12.32-7.96,7.96-4.36-4.36,3.59-12.32,7.96-7.96Z"/>
      <path class="cls-22" d="M209.88,263.92c4.36,4.36-3.59,12.32-7.96,7.96s3.59-12.32,7.96-7.96Z"/>
      <path class="cls-46" d="M549.83,387.9c4.36,4.36-3.59,12.32-7.96,7.96s3.59-12.32,7.96-7.96Z"/>
      <path class="cls-27" d="M313.86,295.94v3.92c-16.64,1.99-16.64-5.9,0-3.92Z"/>
      <path class="cls-30" d="M469.86,379.88l4-8c-.18,10.12-3.91,7.41-4,8Z"/>
      <path class="cls-3" d="M201.88,67.92c-.29.29-8.46,1.52-7.96-1.96,6.25-10.91,12.5-2.68,7.96,1.96Z"/>
      <path class="cls-39" d="M365.84,79.92c-1.39,2.71-6.79-2.34-3.92-7.96,1.39-2.71,6.79,2.34,3.92,7.96Z"/>
      <path class="cls-9" d="M525.83,87.98c2.71,1.39-2.34,6.79-7.96,3.92-2.71-1.39,2.34-6.79,7.96-3.92Z"/>
      <path class="cls-32" d="M209.88,99.98c2.71,1.39-2.34,6.79-7.96,3.92-2.71-1.39,2.34-6.79,7.96-3.92Z"/>
      <path class="cls-4" d="M489.84,595.87c2.71,1.39-2.34,6.79-7.96,3.92-2.71-1.39,2.34-6.79,7.96-3.92Z"/>
      <path class="cls-16" d="M453.86,175.92c-.53.24-8.45,9.74-8,0h8Z"/>
      <path class="cls-1" d="M569.83,267.94c2.71,1.39-2.34,6.79-7.96,3.92-2.71-1.39,2.34-6.79,7.96-3.92Z"/>
      <path class="cls-13" d="M53.92,411.87c11.33-1.61,11.33,5.61,0,4-.35-1.21.3-2.72,0-4Z"/>
      <path class="cls-23" d="M481.84,419.91c2.71,1.39-2.34,6.79-7.96,3.92-2.71-1.39,2.34-6.79,7.96-3.92Z"/>
      <path class="cls-8" d="M585.81,459.84c-1.39,2.71-6.79-2.34-3.92-7.96,1.39-2.71,6.79,2.34,3.92,7.96Z"/>
      <path class="cls-6" d="M621.82,451.9c2.71,1.39-2.34,6.79-7.96,3.92-2.71-1.39,2.34-6.79,7.96-3.92Z"/>
      <path class="cls-19" d="M569.81,511.83c-1.39,2.71-6.79-2.34-3.92-7.96,1.39-2.71,6.79,2.34,3.92,7.96Z"/>
      <path class="cls-25" d="M501.84,459.9c2.71,1.39-2.34,6.79-7.96,3.92-2.71-1.39,2.34-6.79,7.96-3.92Z"/>
      <path class="cls-14" d="M361.88,467.86c-9.23,4.97-4.91.18-8,0h8Z"/>
      <path class="cls-26" d="M439.87,475.85c2.6,1.33,2.6,2.67,0,4v-4Z"/>
      <path class="cls-5" d="M383.87,387.87c2.6,1.33,2.6,2.67,0,4v-4Z"/>
      <path class="cls-43" d="M511.86,383.88c2.6,1.33,2.6,2.67,0,4v-4Z"/>
      <path class="cls-17" d="M153.9,347.88v-4c2.43,4.11-.08,3.82,0,4Z"/>
      <path class="cls-37" d="M331.88,319.89c2.6,1.33,2.6,2.67,0,4v-4Z"/>
      <path class="cls-38" d="M563.85,551.84c2.6,1.33,2.6,2.67,0,4v-4Z"/>
      <path class="cls-31" d="M243.89,303.89c2.6,1.33,2.6,2.67,0,4v-4Z"/>
      <path class="cls-24" d="M119.91,255.9c2.6,1.33,2.6,2.67,0,4v-4Z"/>
      <path class="cls-41" d="M539.85,211.91c2.6,1.33,2.6,2.67,0,4v-4Z"/>
      <path class="cls-36" d="M547.85,171.92c2.6,1.33,2.6,2.67,0,4v-4Z"/>
      <path class="cls-40" d="M279.89,27.95c2.6,1.33,2.6,2.67,0,4v-4Z"/>
      <path class="cls-10" d="M329.88,115.93c1.33-.03,2.67,0,4,0l-2,3.92-2-3.92Z"/>
      <path class="cls-20" d="M241.89,515.85c1.61,11.33-5.61,11.33-4,0,1.18-.12,3.4-.3,4,0Z"/>
      <path class="cls-33" d="M447.87,295.89c2.6,1.33,2.6,2.67,0,4v-4Z"/>
    </g>
  </g>
</svg>